G04 #@! TF.GenerationSoftware,KiCad,Pcbnew,(5.1.8)-1*
G04 #@! TF.CreationDate,2020-12-20T21:52:24-08:00*
G04 #@! TF.ProjectId,wired-sculpt,77697265-642d-4736-9375-6c70742e6b69,rev?*
G04 #@! TF.SameCoordinates,Original*
G04 #@! TF.FileFunction,Soldermask,Top*
G04 #@! TF.FilePolarity,Negative*
%FSLAX46Y46*%
G04 Gerber Fmt 4.6, Leading zero omitted, Abs format (unit mm)*
G04 Created by KiCad (PCBNEW (5.1.8)-1) date 2020-12-20 21:52:24*
%MOMM*%
%LPD*%
G01*
G04 APERTURE LIST*
%ADD10R,1.500000X0.550000*%
%ADD11R,0.550000X1.500000*%
%ADD12C,1.700000*%
%ADD13R,2.000000X0.610000*%
%ADD14R,3.600000X2.680000*%
%ADD15R,2.000000X1.350000*%
%ADD16R,0.700000X1.825000*%
%ADD17R,1.500000X2.000000*%
%ADD18R,1.650000X0.400000*%
%ADD19O,1.500000X1.100000*%
%ADD20O,1.700000X1.350000*%
%ADD21R,2.500000X1.430000*%
%ADD22R,1.600000X2.180000*%
%ADD23R,1.400000X1.200000*%
%ADD24C,5.800000*%
%ADD25R,0.650000X1.060000*%
%ADD26C,2.700000*%
G04 APERTURE END LIST*
D10*
G04 #@! TO.C,U1*
X151700000Y-58000000D03*
X151700000Y-57200000D03*
X151700000Y-56400000D03*
X151700000Y-55600000D03*
X151700000Y-54800000D03*
X151700000Y-54000000D03*
X151700000Y-53200000D03*
X151700000Y-52400000D03*
X151700000Y-51600000D03*
X151700000Y-50800000D03*
X151700000Y-50000000D03*
X151700000Y-49200000D03*
X151700000Y-48400000D03*
X151700000Y-47600000D03*
X151700000Y-46800000D03*
X151700000Y-46000000D03*
D11*
X150000000Y-44300000D03*
X149200000Y-44300000D03*
X148400000Y-44300000D03*
X147600000Y-44300000D03*
X146800000Y-44300000D03*
X146000000Y-44300000D03*
X145200000Y-44300000D03*
X144400000Y-44300000D03*
X143600000Y-44300000D03*
X142800000Y-44300000D03*
X142000000Y-44300000D03*
X141200000Y-44300000D03*
X140400000Y-44300000D03*
X139600000Y-44300000D03*
X138800000Y-44300000D03*
X138000000Y-44300000D03*
D10*
X136300000Y-46000000D03*
X136300000Y-46800000D03*
X136300000Y-47600000D03*
X136300000Y-48400000D03*
X136300000Y-49200000D03*
X136300000Y-50000000D03*
X136300000Y-50800000D03*
X136300000Y-51600000D03*
X136300000Y-52400000D03*
X136300000Y-53200000D03*
X136300000Y-54000000D03*
X136300000Y-54800000D03*
X136300000Y-55600000D03*
X136300000Y-56400000D03*
X136300000Y-57200000D03*
X136300000Y-58000000D03*
D11*
X138000000Y-59700000D03*
X138800000Y-59700000D03*
X139600000Y-59700000D03*
X140400000Y-59700000D03*
X141200000Y-59700000D03*
X142000000Y-59700000D03*
X142800000Y-59700000D03*
X143600000Y-59700000D03*
X144400000Y-59700000D03*
X145200000Y-59700000D03*
X146000000Y-59700000D03*
X146800000Y-59700000D03*
X147600000Y-59700000D03*
X148400000Y-59700000D03*
X149200000Y-59700000D03*
X150000000Y-59700000D03*
G04 #@! TD*
G04 #@! TO.C,J3*
G36*
G01*
X144250000Y-72900000D02*
X145450000Y-72900000D01*
G75*
G02*
X145700000Y-73150000I0J-250000D01*
G01*
X145700000Y-74350000D01*
G75*
G02*
X145450000Y-74600000I-250000J0D01*
G01*
X144250000Y-74600000D01*
G75*
G02*
X144000000Y-74350000I0J250000D01*
G01*
X144000000Y-73150000D01*
G75*
G02*
X144250000Y-72900000I250000J0D01*
G01*
G37*
D12*
X142310000Y-73750000D03*
X139770000Y-73750000D03*
X144850000Y-76290000D03*
X142310000Y-76290000D03*
X139770000Y-76290000D03*
G04 #@! TD*
G04 #@! TO.C,R1*
G36*
G01*
X156225000Y-62100000D02*
X156775000Y-62100000D01*
G75*
G02*
X156975000Y-62300000I0J-200000D01*
G01*
X156975000Y-62700000D01*
G75*
G02*
X156775000Y-62900000I-200000J0D01*
G01*
X156225000Y-62900000D01*
G75*
G02*
X156025000Y-62700000I0J200000D01*
G01*
X156025000Y-62300000D01*
G75*
G02*
X156225000Y-62100000I200000J0D01*
G01*
G37*
G36*
G01*
X156225000Y-63750000D02*
X156775000Y-63750000D01*
G75*
G02*
X156975000Y-63950000I0J-200000D01*
G01*
X156975000Y-64350000D01*
G75*
G02*
X156775000Y-64550000I-200000J0D01*
G01*
X156225000Y-64550000D01*
G75*
G02*
X156025000Y-64350000I0J200000D01*
G01*
X156025000Y-63950000D01*
G75*
G02*
X156225000Y-63750000I200000J0D01*
G01*
G37*
G04 #@! TD*
D13*
G04 #@! TO.C,J4*
X128300000Y-39000000D03*
X128300000Y-40000000D03*
X128300000Y-41000000D03*
X128300000Y-42000000D03*
X128300000Y-43000000D03*
X128300000Y-44000000D03*
X128300000Y-45000000D03*
X128300000Y-46000000D03*
X128300000Y-47000000D03*
X128300000Y-48000000D03*
X128300000Y-49000000D03*
X128300000Y-50000000D03*
X128300000Y-51000000D03*
X128300000Y-52000000D03*
X128300000Y-53000000D03*
X128300000Y-54000000D03*
X128300000Y-55000000D03*
X128300000Y-56000000D03*
X128300000Y-57000000D03*
X128300000Y-58000000D03*
X128300000Y-59000000D03*
X128300000Y-60000000D03*
X128300000Y-61000000D03*
X128300000Y-62000000D03*
X128300000Y-63000000D03*
X128300000Y-64000000D03*
X128300000Y-65000000D03*
X128300000Y-66000000D03*
X128300000Y-67000000D03*
X128300000Y-68000000D03*
D14*
X125500000Y-36010000D03*
X125500000Y-70990000D03*
G04 #@! TD*
G04 #@! TO.C,C2*
G36*
G01*
X142200000Y-38850000D02*
X141700000Y-38850000D01*
G75*
G02*
X141475000Y-38625000I0J225000D01*
G01*
X141475000Y-38175000D01*
G75*
G02*
X141700000Y-37950000I225000J0D01*
G01*
X142200000Y-37950000D01*
G75*
G02*
X142425000Y-38175000I0J-225000D01*
G01*
X142425000Y-38625000D01*
G75*
G02*
X142200000Y-38850000I-225000J0D01*
G01*
G37*
G36*
G01*
X142200000Y-40400000D02*
X141700000Y-40400000D01*
G75*
G02*
X141475000Y-40175000I0J225000D01*
G01*
X141475000Y-39725000D01*
G75*
G02*
X141700000Y-39500000I225000J0D01*
G01*
X142200000Y-39500000D01*
G75*
G02*
X142425000Y-39725000I0J-225000D01*
G01*
X142425000Y-40175000D01*
G75*
G02*
X142200000Y-40400000I-225000J0D01*
G01*
G37*
G04 #@! TD*
G04 #@! TO.C,C3*
G36*
G01*
X146500000Y-37850000D02*
X146500000Y-38350000D01*
G75*
G02*
X146275000Y-38575000I-225000J0D01*
G01*
X145825000Y-38575000D01*
G75*
G02*
X145600000Y-38350000I0J225000D01*
G01*
X145600000Y-37850000D01*
G75*
G02*
X145825000Y-37625000I225000J0D01*
G01*
X146275000Y-37625000D01*
G75*
G02*
X146500000Y-37850000I0J-225000D01*
G01*
G37*
G36*
G01*
X144950000Y-37850000D02*
X144950000Y-38350000D01*
G75*
G02*
X144725000Y-38575000I-225000J0D01*
G01*
X144275000Y-38575000D01*
G75*
G02*
X144050000Y-38350000I0J225000D01*
G01*
X144050000Y-37850000D01*
G75*
G02*
X144275000Y-37625000I225000J0D01*
G01*
X144725000Y-37625000D01*
G75*
G02*
X144950000Y-37850000I0J-225000D01*
G01*
G37*
G04 #@! TD*
G04 #@! TO.C,C4*
G36*
G01*
X155500000Y-53500000D02*
X155500000Y-53000000D01*
G75*
G02*
X155725000Y-52775000I225000J0D01*
G01*
X156175000Y-52775000D01*
G75*
G02*
X156400000Y-53000000I0J-225000D01*
G01*
X156400000Y-53500000D01*
G75*
G02*
X156175000Y-53725000I-225000J0D01*
G01*
X155725000Y-53725000D01*
G75*
G02*
X155500000Y-53500000I0J225000D01*
G01*
G37*
G36*
G01*
X157050000Y-53500000D02*
X157050000Y-53000000D01*
G75*
G02*
X157275000Y-52775000I225000J0D01*
G01*
X157725000Y-52775000D01*
G75*
G02*
X157950000Y-53000000I0J-225000D01*
G01*
X157950000Y-53500000D01*
G75*
G02*
X157725000Y-53725000I-225000J0D01*
G01*
X157275000Y-53725000D01*
G75*
G02*
X157050000Y-53500000I0J225000D01*
G01*
G37*
G04 #@! TD*
G04 #@! TO.C,D1*
G36*
G01*
X157712500Y-51237500D02*
X157287500Y-51237500D01*
G75*
G02*
X157075000Y-51025000I0J212500D01*
G01*
X157075000Y-50225000D01*
G75*
G02*
X157287500Y-50012500I212500J0D01*
G01*
X157712500Y-50012500D01*
G75*
G02*
X157925000Y-50225000I0J-212500D01*
G01*
X157925000Y-51025000D01*
G75*
G02*
X157712500Y-51237500I-212500J0D01*
G01*
G37*
G36*
G01*
X157712500Y-49612500D02*
X157287500Y-49612500D01*
G75*
G02*
X157075000Y-49400000I0J212500D01*
G01*
X157075000Y-48600000D01*
G75*
G02*
X157287500Y-48387500I212500J0D01*
G01*
X157712500Y-48387500D01*
G75*
G02*
X157925000Y-48600000I0J-212500D01*
G01*
X157925000Y-49400000D01*
G75*
G02*
X157712500Y-49612500I-212500J0D01*
G01*
G37*
G04 #@! TD*
D15*
G04 #@! TO.C,J1*
X157300000Y-72210000D03*
X157300000Y-77690000D03*
D16*
X156550000Y-77910000D03*
X156550000Y-71960000D03*
D17*
X155250000Y-77810000D03*
X155230000Y-72060000D03*
D18*
X155350000Y-76260000D03*
X155350000Y-75610000D03*
X155350000Y-74960000D03*
X155350000Y-74310000D03*
X155350000Y-73660000D03*
D19*
X155230000Y-77380000D03*
X155230000Y-72540000D03*
D20*
X158230000Y-77690000D03*
X158230000Y-72230000D03*
D21*
X158500000Y-75920000D03*
X158500000Y-74000000D03*
G04 #@! TD*
G04 #@! TO.C,R2*
G36*
G01*
X157225000Y-45100000D02*
X157775000Y-45100000D01*
G75*
G02*
X157975000Y-45300000I0J-200000D01*
G01*
X157975000Y-45700000D01*
G75*
G02*
X157775000Y-45900000I-200000J0D01*
G01*
X157225000Y-45900000D01*
G75*
G02*
X157025000Y-45700000I0J200000D01*
G01*
X157025000Y-45300000D01*
G75*
G02*
X157225000Y-45100000I200000J0D01*
G01*
G37*
G36*
G01*
X157225000Y-46750000D02*
X157775000Y-46750000D01*
G75*
G02*
X157975000Y-46950000I0J-200000D01*
G01*
X157975000Y-47350000D01*
G75*
G02*
X157775000Y-47550000I-200000J0D01*
G01*
X157225000Y-47550000D01*
G75*
G02*
X157025000Y-47350000I0J200000D01*
G01*
X157025000Y-46950000D01*
G75*
G02*
X157225000Y-46750000I200000J0D01*
G01*
G37*
G04 #@! TD*
G04 #@! TO.C,R3*
G36*
G01*
X154325000Y-63750000D02*
X154875000Y-63750000D01*
G75*
G02*
X155075000Y-63950000I0J-200000D01*
G01*
X155075000Y-64350000D01*
G75*
G02*
X154875000Y-64550000I-200000J0D01*
G01*
X154325000Y-64550000D01*
G75*
G02*
X154125000Y-64350000I0J200000D01*
G01*
X154125000Y-63950000D01*
G75*
G02*
X154325000Y-63750000I200000J0D01*
G01*
G37*
G36*
G01*
X154325000Y-62100000D02*
X154875000Y-62100000D01*
G75*
G02*
X155075000Y-62300000I0J-200000D01*
G01*
X155075000Y-62700000D01*
G75*
G02*
X154875000Y-62900000I-200000J0D01*
G01*
X154325000Y-62900000D01*
G75*
G02*
X154125000Y-62700000I0J200000D01*
G01*
X154125000Y-62300000D01*
G75*
G02*
X154325000Y-62100000I200000J0D01*
G01*
G37*
G04 #@! TD*
G04 #@! TO.C,R4*
G36*
G01*
X144275000Y-67400000D02*
X143725000Y-67400000D01*
G75*
G02*
X143525000Y-67200000I0J200000D01*
G01*
X143525000Y-66800000D01*
G75*
G02*
X143725000Y-66600000I200000J0D01*
G01*
X144275000Y-66600000D01*
G75*
G02*
X144475000Y-66800000I0J-200000D01*
G01*
X144475000Y-67200000D01*
G75*
G02*
X144275000Y-67400000I-200000J0D01*
G01*
G37*
G36*
G01*
X144275000Y-69050000D02*
X143725000Y-69050000D01*
G75*
G02*
X143525000Y-68850000I0J200000D01*
G01*
X143525000Y-68450000D01*
G75*
G02*
X143725000Y-68250000I200000J0D01*
G01*
X144275000Y-68250000D01*
G75*
G02*
X144475000Y-68450000I0J-200000D01*
G01*
X144475000Y-68850000D01*
G75*
G02*
X144275000Y-69050000I-200000J0D01*
G01*
G37*
G04 #@! TD*
G04 #@! TO.C,R5*
G36*
G01*
X146275000Y-69050000D02*
X145725000Y-69050000D01*
G75*
G02*
X145525000Y-68850000I0J200000D01*
G01*
X145525000Y-68450000D01*
G75*
G02*
X145725000Y-68250000I200000J0D01*
G01*
X146275000Y-68250000D01*
G75*
G02*
X146475000Y-68450000I0J-200000D01*
G01*
X146475000Y-68850000D01*
G75*
G02*
X146275000Y-69050000I-200000J0D01*
G01*
G37*
G36*
G01*
X146275000Y-67400000D02*
X145725000Y-67400000D01*
G75*
G02*
X145525000Y-67200000I0J200000D01*
G01*
X145525000Y-66800000D01*
G75*
G02*
X145725000Y-66600000I200000J0D01*
G01*
X146275000Y-66600000D01*
G75*
G02*
X146475000Y-66800000I0J-200000D01*
G01*
X146475000Y-67200000D01*
G75*
G02*
X146275000Y-67400000I-200000J0D01*
G01*
G37*
G04 #@! TD*
G04 #@! TO.C,R6*
G36*
G01*
X148275000Y-69050000D02*
X147725000Y-69050000D01*
G75*
G02*
X147525000Y-68850000I0J200000D01*
G01*
X147525000Y-68450000D01*
G75*
G02*
X147725000Y-68250000I200000J0D01*
G01*
X148275000Y-68250000D01*
G75*
G02*
X148475000Y-68450000I0J-200000D01*
G01*
X148475000Y-68850000D01*
G75*
G02*
X148275000Y-69050000I-200000J0D01*
G01*
G37*
G36*
G01*
X148275000Y-67400000D02*
X147725000Y-67400000D01*
G75*
G02*
X147525000Y-67200000I0J200000D01*
G01*
X147525000Y-66800000D01*
G75*
G02*
X147725000Y-66600000I200000J0D01*
G01*
X148275000Y-66600000D01*
G75*
G02*
X148475000Y-66800000I0J-200000D01*
G01*
X148475000Y-67200000D01*
G75*
G02*
X148275000Y-67400000I-200000J0D01*
G01*
G37*
G04 #@! TD*
D22*
G04 #@! TO.C,SW1*
X157500000Y-41090000D03*
X157500000Y-31910000D03*
G04 #@! TD*
D23*
G04 #@! TO.C,Y1*
X143800000Y-41550000D03*
X146000000Y-41550000D03*
X146000000Y-39850000D03*
X143800000Y-39850000D03*
G04 #@! TD*
G04 #@! TO.C,R8*
G36*
G01*
X134900000Y-53725000D02*
X134900000Y-54275000D01*
G75*
G02*
X134700000Y-54475000I-200000J0D01*
G01*
X134300000Y-54475000D01*
G75*
G02*
X134100000Y-54275000I0J200000D01*
G01*
X134100000Y-53725000D01*
G75*
G02*
X134300000Y-53525000I200000J0D01*
G01*
X134700000Y-53525000D01*
G75*
G02*
X134900000Y-53725000I0J-200000D01*
G01*
G37*
G36*
G01*
X133250000Y-53725000D02*
X133250000Y-54275000D01*
G75*
G02*
X133050000Y-54475000I-200000J0D01*
G01*
X132650000Y-54475000D01*
G75*
G02*
X132450000Y-54275000I0J200000D01*
G01*
X132450000Y-53725000D01*
G75*
G02*
X132650000Y-53525000I200000J0D01*
G01*
X133050000Y-53525000D01*
G75*
G02*
X133250000Y-53725000I0J-200000D01*
G01*
G37*
G04 #@! TD*
D24*
G04 #@! TO.C,H1*
X131000000Y-35500000D03*
G04 #@! TD*
G04 #@! TO.C,H2*
X133500000Y-69000000D03*
G04 #@! TD*
G04 #@! TO.C,C1*
G36*
G01*
X150849999Y-73850000D02*
X152150001Y-73850000D01*
G75*
G02*
X152400000Y-74099999I0J-249999D01*
G01*
X152400000Y-74750001D01*
G75*
G02*
X152150001Y-75000000I-249999J0D01*
G01*
X150849999Y-75000000D01*
G75*
G02*
X150600000Y-74750001I0J249999D01*
G01*
X150600000Y-74099999D01*
G75*
G02*
X150849999Y-73850000I249999J0D01*
G01*
G37*
G36*
G01*
X150849999Y-76800000D02*
X152150001Y-76800000D01*
G75*
G02*
X152400000Y-77049999I0J-249999D01*
G01*
X152400000Y-77700001D01*
G75*
G02*
X152150001Y-77950000I-249999J0D01*
G01*
X150849999Y-77950000D01*
G75*
G02*
X150600000Y-77700001I0J249999D01*
G01*
X150600000Y-77049999D01*
G75*
G02*
X150849999Y-76800000I249999J0D01*
G01*
G37*
G04 #@! TD*
G04 #@! TO.C,C6*
G36*
G01*
X147630000Y-40720000D02*
X147970000Y-40720000D01*
G75*
G02*
X148110000Y-40860000I0J-140000D01*
G01*
X148110000Y-41140000D01*
G75*
G02*
X147970000Y-41280000I-140000J0D01*
G01*
X147630000Y-41280000D01*
G75*
G02*
X147490000Y-41140000I0J140000D01*
G01*
X147490000Y-40860000D01*
G75*
G02*
X147630000Y-40720000I140000J0D01*
G01*
G37*
G36*
G01*
X147630000Y-41680000D02*
X147970000Y-41680000D01*
G75*
G02*
X148110000Y-41820000I0J-140000D01*
G01*
X148110000Y-42100000D01*
G75*
G02*
X147970000Y-42240000I-140000J0D01*
G01*
X147630000Y-42240000D01*
G75*
G02*
X147490000Y-42100000I0J140000D01*
G01*
X147490000Y-41820000D01*
G75*
G02*
X147630000Y-41680000I140000J0D01*
G01*
G37*
G04 #@! TD*
G04 #@! TO.C,C7*
G36*
G01*
X141530000Y-61330000D02*
X141530000Y-61670000D01*
G75*
G02*
X141390000Y-61810000I-140000J0D01*
G01*
X141110000Y-61810000D01*
G75*
G02*
X140970000Y-61670000I0J140000D01*
G01*
X140970000Y-61330000D01*
G75*
G02*
X141110000Y-61190000I140000J0D01*
G01*
X141390000Y-61190000D01*
G75*
G02*
X141530000Y-61330000I0J-140000D01*
G01*
G37*
G36*
G01*
X140570000Y-61330000D02*
X140570000Y-61670000D01*
G75*
G02*
X140430000Y-61810000I-140000J0D01*
G01*
X140150000Y-61810000D01*
G75*
G02*
X140010000Y-61670000I0J140000D01*
G01*
X140010000Y-61330000D01*
G75*
G02*
X140150000Y-61190000I140000J0D01*
G01*
X140430000Y-61190000D01*
G75*
G02*
X140570000Y-61330000I0J-140000D01*
G01*
G37*
G04 #@! TD*
G04 #@! TO.C,R9*
G36*
G01*
X154700000Y-40750000D02*
X154700000Y-41300000D01*
G75*
G02*
X154500000Y-41500000I-200000J0D01*
G01*
X154100000Y-41500000D01*
G75*
G02*
X153900000Y-41300000I0J200000D01*
G01*
X153900000Y-40750000D01*
G75*
G02*
X154100000Y-40550000I200000J0D01*
G01*
X154500000Y-40550000D01*
G75*
G02*
X154700000Y-40750000I0J-200000D01*
G01*
G37*
G36*
G01*
X153050000Y-40750000D02*
X153050000Y-41300000D01*
G75*
G02*
X152850000Y-41500000I-200000J0D01*
G01*
X152450000Y-41500000D01*
G75*
G02*
X152250000Y-41300000I0J200000D01*
G01*
X152250000Y-40750000D01*
G75*
G02*
X152450000Y-40550000I200000J0D01*
G01*
X152850000Y-40550000D01*
G75*
G02*
X153050000Y-40750000I0J-200000D01*
G01*
G37*
G04 #@! TD*
D25*
G04 #@! TO.C,U2*
X156510000Y-57980000D03*
X155560000Y-57980000D03*
X154610000Y-57980000D03*
X154610000Y-60180000D03*
X156510000Y-60180000D03*
X155560000Y-60180000D03*
G04 #@! TD*
G04 #@! TO.C,C5*
G36*
G01*
X148760000Y-62170000D02*
X148760000Y-61830000D01*
G75*
G02*
X148900000Y-61690000I140000J0D01*
G01*
X149180000Y-61690000D01*
G75*
G02*
X149320000Y-61830000I0J-140000D01*
G01*
X149320000Y-62170000D01*
G75*
G02*
X149180000Y-62310000I-140000J0D01*
G01*
X148900000Y-62310000D01*
G75*
G02*
X148760000Y-62170000I0J140000D01*
G01*
G37*
G36*
G01*
X149720000Y-62170000D02*
X149720000Y-61830000D01*
G75*
G02*
X149860000Y-61690000I140000J0D01*
G01*
X150140000Y-61690000D01*
G75*
G02*
X150280000Y-61830000I0J-140000D01*
G01*
X150280000Y-62170000D01*
G75*
G02*
X150140000Y-62310000I-140000J0D01*
G01*
X149860000Y-62310000D01*
G75*
G02*
X149720000Y-62170000I0J140000D01*
G01*
G37*
G04 #@! TD*
D26*
G04 #@! TO.C,H3*
X129500000Y-73500000D03*
G04 #@! TD*
M02*
