G04 #@! TF.GenerationSoftware,KiCad,Pcbnew,(5.1.8)-1*
G04 #@! TF.CreationDate,2021-09-07T17:05:45-07:00*
G04 #@! TF.ProjectId,wired-sculpt,77697265-642d-4736-9375-6c70742e6b69,rev?*
G04 #@! TF.SameCoordinates,Original*
G04 #@! TF.FileFunction,Legend,Top*
G04 #@! TF.FilePolarity,Positive*
%FSLAX46Y46*%
G04 Gerber Fmt 4.6, Leading zero omitted, Abs format (unit mm)*
G04 Created by KiCad (PCBNEW (5.1.8)-1) date 2021-09-07 17:05:45*
%MOMM*%
%LPD*%
G01*
G04 APERTURE LIST*
%ADD10C,0.200000*%
%ADD11C,0.100000*%
%ADD12C,0.120000*%
%ADD13C,0.150000*%
G04 APERTURE END LIST*
D10*
X153100000Y-58000000D02*
G75*
G03*
X153100000Y-58000000I-100000J0D01*
G01*
D11*
X131643666Y-56820666D02*
X132343666Y-56654000D01*
X131843666Y-56520666D01*
X132343666Y-56387333D01*
X131643666Y-56220666D01*
X132343666Y-55954000D02*
X131877000Y-55954000D01*
X131643666Y-55954000D02*
X131677000Y-55987333D01*
X131710333Y-55954000D01*
X131677000Y-55920666D01*
X131643666Y-55954000D01*
X131710333Y-55954000D01*
X132343666Y-55620666D02*
X131877000Y-55620666D01*
X132010333Y-55620666D02*
X131943666Y-55587333D01*
X131910333Y-55554000D01*
X131877000Y-55487333D01*
X131877000Y-55420666D01*
X132310333Y-54920666D02*
X132343666Y-54987333D01*
X132343666Y-55120666D01*
X132310333Y-55187333D01*
X132243666Y-55220666D01*
X131977000Y-55220666D01*
X131910333Y-55187333D01*
X131877000Y-55120666D01*
X131877000Y-54987333D01*
X131910333Y-54920666D01*
X131977000Y-54887333D01*
X132043666Y-54887333D01*
X132110333Y-55220666D01*
X132343666Y-54287333D02*
X131643666Y-54287333D01*
X132310333Y-54287333D02*
X132343666Y-54354000D01*
X132343666Y-54487333D01*
X132310333Y-54554000D01*
X132277000Y-54587333D01*
X132210333Y-54620666D01*
X132010333Y-54620666D01*
X131943666Y-54587333D01*
X131910333Y-54554000D01*
X131877000Y-54487333D01*
X131877000Y-54354000D01*
X131910333Y-54287333D01*
X132310333Y-53454000D02*
X132343666Y-53354000D01*
X132343666Y-53187333D01*
X132310333Y-53120666D01*
X132277000Y-53087333D01*
X132210333Y-53054000D01*
X132143666Y-53054000D01*
X132077000Y-53087333D01*
X132043666Y-53120666D01*
X132010333Y-53187333D01*
X131977000Y-53320666D01*
X131943666Y-53387333D01*
X131910333Y-53420666D01*
X131843666Y-53454000D01*
X131777000Y-53454000D01*
X131710333Y-53420666D01*
X131677000Y-53387333D01*
X131643666Y-53320666D01*
X131643666Y-53154000D01*
X131677000Y-53054000D01*
X132310333Y-52454000D02*
X132343666Y-52520666D01*
X132343666Y-52654000D01*
X132310333Y-52720666D01*
X132277000Y-52754000D01*
X132210333Y-52787333D01*
X132010333Y-52787333D01*
X131943666Y-52754000D01*
X131910333Y-52720666D01*
X131877000Y-52654000D01*
X131877000Y-52520666D01*
X131910333Y-52454000D01*
X131877000Y-51854000D02*
X132343666Y-51854000D01*
X131877000Y-52154000D02*
X132243666Y-52154000D01*
X132310333Y-52120666D01*
X132343666Y-52054000D01*
X132343666Y-51954000D01*
X132310333Y-51887333D01*
X132277000Y-51854000D01*
X132343666Y-51420666D02*
X132310333Y-51487333D01*
X132243666Y-51520666D01*
X131643666Y-51520666D01*
X131877000Y-51154000D02*
X132577000Y-51154000D01*
X131910333Y-51154000D02*
X131877000Y-51087333D01*
X131877000Y-50954000D01*
X131910333Y-50887333D01*
X131943666Y-50854000D01*
X132010333Y-50820666D01*
X132210333Y-50820666D01*
X132277000Y-50854000D01*
X132310333Y-50887333D01*
X132343666Y-50954000D01*
X132343666Y-51087333D01*
X132310333Y-51154000D01*
X131877000Y-50620666D02*
X131877000Y-50354000D01*
X131643666Y-50520666D02*
X132243666Y-50520666D01*
X132310333Y-50487333D01*
X132343666Y-50420666D01*
X132343666Y-50354000D01*
X131643666Y-49454000D02*
X131643666Y-49387333D01*
X131677000Y-49320666D01*
X131710333Y-49287333D01*
X131777000Y-49254000D01*
X131910333Y-49220666D01*
X132077000Y-49220666D01*
X132210333Y-49254000D01*
X132277000Y-49287333D01*
X132310333Y-49320666D01*
X132343666Y-49387333D01*
X132343666Y-49454000D01*
X132310333Y-49520666D01*
X132277000Y-49554000D01*
X132210333Y-49587333D01*
X132077000Y-49620666D01*
X131910333Y-49620666D01*
X131777000Y-49587333D01*
X131710333Y-49554000D01*
X131677000Y-49520666D01*
X131643666Y-49454000D01*
X132277000Y-48920666D02*
X132310333Y-48887333D01*
X132343666Y-48920666D01*
X132310333Y-48954000D01*
X132277000Y-48920666D01*
X132343666Y-48920666D01*
X131877000Y-48287333D02*
X132343666Y-48287333D01*
X131610333Y-48454000D02*
X132110333Y-48620666D01*
X132110333Y-48187333D01*
X133427000Y-55087333D02*
X133460333Y-55120666D01*
X133493666Y-55220666D01*
X133493666Y-55287333D01*
X133460333Y-55387333D01*
X133393666Y-55454000D01*
X133327000Y-55487333D01*
X133193666Y-55520666D01*
X133093666Y-55520666D01*
X132960333Y-55487333D01*
X132893666Y-55454000D01*
X132827000Y-55387333D01*
X132793666Y-55287333D01*
X132793666Y-55220666D01*
X132827000Y-55120666D01*
X132860333Y-55087333D01*
X133493666Y-54787333D02*
X132793666Y-54787333D01*
X133493666Y-54487333D02*
X133127000Y-54487333D01*
X133060333Y-54520666D01*
X133027000Y-54587333D01*
X133027000Y-54687333D01*
X133060333Y-54754000D01*
X133093666Y-54787333D01*
X133493666Y-53854000D02*
X133127000Y-53854000D01*
X133060333Y-53887333D01*
X133027000Y-53954000D01*
X133027000Y-54087333D01*
X133060333Y-54154000D01*
X133460333Y-53854000D02*
X133493666Y-53920666D01*
X133493666Y-54087333D01*
X133460333Y-54154000D01*
X133393666Y-54187333D01*
X133327000Y-54187333D01*
X133260333Y-54154000D01*
X133227000Y-54087333D01*
X133227000Y-53920666D01*
X133193666Y-53854000D01*
X133493666Y-53220666D02*
X132793666Y-53220666D01*
X133460333Y-53220666D02*
X133493666Y-53287333D01*
X133493666Y-53420666D01*
X133460333Y-53487333D01*
X133427000Y-53520666D01*
X133360333Y-53554000D01*
X133160333Y-53554000D01*
X133093666Y-53520666D01*
X133060333Y-53487333D01*
X133027000Y-53420666D01*
X133027000Y-53287333D01*
X133060333Y-53220666D01*
X133293666Y-52387333D02*
X133293666Y-52054000D01*
X133493666Y-52454000D02*
X132793666Y-52220666D01*
X133493666Y-51987333D01*
X133027000Y-51454000D02*
X133493666Y-51454000D01*
X133027000Y-51754000D02*
X133393666Y-51754000D01*
X133460333Y-51720666D01*
X133493666Y-51654000D01*
X133493666Y-51554000D01*
X133460333Y-51487333D01*
X133427000Y-51454000D01*
X133460333Y-51154000D02*
X133493666Y-51087333D01*
X133493666Y-50954000D01*
X133460333Y-50887333D01*
X133393666Y-50854000D01*
X133360333Y-50854000D01*
X133293666Y-50887333D01*
X133260333Y-50954000D01*
X133260333Y-51054000D01*
X133227000Y-51120666D01*
X133160333Y-51154000D01*
X133127000Y-51154000D01*
X133060333Y-51120666D01*
X133027000Y-51054000D01*
X133027000Y-50954000D01*
X133060333Y-50887333D01*
X133027000Y-50654000D02*
X133027000Y-50387333D01*
X132793666Y-50554000D02*
X133393666Y-50554000D01*
X133460333Y-50520666D01*
X133493666Y-50454000D01*
X133493666Y-50387333D01*
X133493666Y-50154000D02*
X133027000Y-50154000D01*
X132793666Y-50154000D02*
X132827000Y-50187333D01*
X132860333Y-50154000D01*
X132827000Y-50120666D01*
X132793666Y-50154000D01*
X132860333Y-50154000D01*
X133027000Y-49820666D02*
X133493666Y-49820666D01*
X133093666Y-49820666D02*
X133060333Y-49787333D01*
X133027000Y-49720666D01*
X133027000Y-49620666D01*
X133060333Y-49554000D01*
X133127000Y-49520666D01*
X133493666Y-49520666D01*
X134010333Y-55904000D02*
X133977000Y-55870666D01*
X133943666Y-55804000D01*
X133943666Y-55637333D01*
X133977000Y-55570666D01*
X134010333Y-55537333D01*
X134077000Y-55504000D01*
X134143666Y-55504000D01*
X134243666Y-55537333D01*
X134643666Y-55937333D01*
X134643666Y-55504000D01*
X133943666Y-55070666D02*
X133943666Y-55004000D01*
X133977000Y-54937333D01*
X134010333Y-54904000D01*
X134077000Y-54870666D01*
X134210333Y-54837333D01*
X134377000Y-54837333D01*
X134510333Y-54870666D01*
X134577000Y-54904000D01*
X134610333Y-54937333D01*
X134643666Y-55004000D01*
X134643666Y-55070666D01*
X134610333Y-55137333D01*
X134577000Y-55170666D01*
X134510333Y-55204000D01*
X134377000Y-55237333D01*
X134210333Y-55237333D01*
X134077000Y-55204000D01*
X134010333Y-55170666D01*
X133977000Y-55137333D01*
X133943666Y-55070666D01*
X134010333Y-54570666D02*
X133977000Y-54537333D01*
X133943666Y-54470666D01*
X133943666Y-54304000D01*
X133977000Y-54237333D01*
X134010333Y-54204000D01*
X134077000Y-54170666D01*
X134143666Y-54170666D01*
X134243666Y-54204000D01*
X134643666Y-54604000D01*
X134643666Y-54170666D01*
X134643666Y-53504000D02*
X134643666Y-53904000D01*
X134643666Y-53704000D02*
X133943666Y-53704000D01*
X134043666Y-53770666D01*
X134110333Y-53837333D01*
X134143666Y-53904000D01*
X134377000Y-53204000D02*
X134377000Y-52670666D01*
X133943666Y-52204000D02*
X133943666Y-52137333D01*
X133977000Y-52070666D01*
X134010333Y-52037333D01*
X134077000Y-52004000D01*
X134210333Y-51970666D01*
X134377000Y-51970666D01*
X134510333Y-52004000D01*
X134577000Y-52037333D01*
X134610333Y-52070666D01*
X134643666Y-52137333D01*
X134643666Y-52204000D01*
X134610333Y-52270666D01*
X134577000Y-52304000D01*
X134510333Y-52337333D01*
X134377000Y-52370666D01*
X134210333Y-52370666D01*
X134077000Y-52337333D01*
X134010333Y-52304000D01*
X133977000Y-52270666D01*
X133943666Y-52204000D01*
X133943666Y-51337333D02*
X133943666Y-51670666D01*
X134277000Y-51704000D01*
X134243666Y-51670666D01*
X134210333Y-51604000D01*
X134210333Y-51437333D01*
X134243666Y-51370666D01*
X134277000Y-51337333D01*
X134343666Y-51304000D01*
X134510333Y-51304000D01*
X134577000Y-51337333D01*
X134610333Y-51370666D01*
X134643666Y-51437333D01*
X134643666Y-51604000D01*
X134610333Y-51670666D01*
X134577000Y-51704000D01*
X134377000Y-51004000D02*
X134377000Y-50470666D01*
X133943666Y-50004000D02*
X133943666Y-49937333D01*
X133977000Y-49870666D01*
X134010333Y-49837333D01*
X134077000Y-49804000D01*
X134210333Y-49770666D01*
X134377000Y-49770666D01*
X134510333Y-49804000D01*
X134577000Y-49837333D01*
X134610333Y-49870666D01*
X134643666Y-49937333D01*
X134643666Y-50004000D01*
X134610333Y-50070666D01*
X134577000Y-50104000D01*
X134510333Y-50137333D01*
X134377000Y-50170666D01*
X134210333Y-50170666D01*
X134077000Y-50137333D01*
X134010333Y-50104000D01*
X133977000Y-50070666D01*
X133943666Y-50004000D01*
X134243666Y-49370666D02*
X134210333Y-49437333D01*
X134177000Y-49470666D01*
X134110333Y-49504000D01*
X134077000Y-49504000D01*
X134010333Y-49470666D01*
X133977000Y-49437333D01*
X133943666Y-49370666D01*
X133943666Y-49237333D01*
X133977000Y-49170666D01*
X134010333Y-49137333D01*
X134077000Y-49104000D01*
X134110333Y-49104000D01*
X134177000Y-49137333D01*
X134210333Y-49170666D01*
X134243666Y-49237333D01*
X134243666Y-49370666D01*
X134277000Y-49437333D01*
X134310333Y-49470666D01*
X134377000Y-49504000D01*
X134510333Y-49504000D01*
X134577000Y-49470666D01*
X134610333Y-49437333D01*
X134643666Y-49370666D01*
X134643666Y-49237333D01*
X134610333Y-49170666D01*
X134577000Y-49137333D01*
X134510333Y-49104000D01*
X134377000Y-49104000D01*
X134310333Y-49137333D01*
X134277000Y-49170666D01*
X134243666Y-49237333D01*
D12*
G04 #@! TO.C,J3*
X129618000Y-79670000D02*
X129618000Y-70550000D01*
X129618000Y-70550000D02*
X145118000Y-70550000D01*
X145118000Y-70550000D02*
X145118000Y-79670000D01*
X145118000Y-79670000D02*
X129618000Y-79670000D01*
X135318000Y-79670000D02*
X135318000Y-78360000D01*
X135318000Y-78360000D02*
X130918000Y-78360000D01*
X130918000Y-78360000D02*
X130918000Y-71860000D01*
X130918000Y-71860000D02*
X143818000Y-71860000D01*
X143818000Y-71860000D02*
X143818000Y-78360000D01*
X143818000Y-78360000D02*
X139418000Y-78360000D01*
X139418000Y-78360000D02*
X139418000Y-78360000D01*
X139418000Y-78360000D02*
X139418000Y-79670000D01*
X134828000Y-80060000D02*
X134328000Y-81060000D01*
X134328000Y-81060000D02*
X135328000Y-81060000D01*
X135328000Y-81060000D02*
X134828000Y-80060000D01*
G04 #@! TO.C,C8*
X146637000Y-40438420D02*
X146637000Y-40719580D01*
X147657000Y-40438420D02*
X147657000Y-40719580D01*
G04 #@! TO.C,C12*
X140910580Y-61646000D02*
X140629420Y-61646000D01*
X140910580Y-62666000D02*
X140629420Y-62666000D01*
G04 #@! TO.C,R9*
X152589500Y-35494258D02*
X152589500Y-35019742D01*
X151544500Y-35494258D02*
X151544500Y-35019742D01*
G04 #@! TO.C,C3*
X147046748Y-71704000D02*
X147569252Y-71704000D01*
X147046748Y-70234000D02*
X147569252Y-70234000D01*
G04 #@! TO.C,U1*
X149390000Y-71000000D02*
X149390000Y-73450000D01*
X152610000Y-72800000D02*
X152610000Y-71000000D01*
D13*
G04 #@! TO.C,U3*
X151175000Y-58600000D02*
X152450000Y-58600000D01*
X136825000Y-59175000D02*
X137500000Y-59175000D01*
X136825000Y-44825000D02*
X137500000Y-44825000D01*
X151175000Y-44825000D02*
X150500000Y-44825000D01*
X151175000Y-59175000D02*
X150500000Y-59175000D01*
X151175000Y-44825000D02*
X151175000Y-45500000D01*
X136825000Y-44825000D02*
X136825000Y-45500000D01*
X136825000Y-59175000D02*
X136825000Y-58500000D01*
X151175000Y-59175000D02*
X151175000Y-58600000D01*
D12*
G04 #@! TO.C,R1*
X151323500Y-66935742D02*
X151323500Y-67410258D01*
X152368500Y-66935742D02*
X152368500Y-67410258D01*
G04 #@! TO.C,J2*
X123440000Y-71545000D02*
X122900000Y-71545000D01*
X122900000Y-71545000D02*
X122900000Y-72570000D01*
X122900000Y-72570000D02*
X121790000Y-72570000D01*
X121790000Y-72570000D02*
X121790000Y-34430000D01*
X121790000Y-34430000D02*
X122900000Y-34430000D01*
X122900000Y-34430000D02*
X122900000Y-35455000D01*
X122900000Y-35455000D02*
X123440000Y-35455000D01*
X127410000Y-37610000D02*
X127410000Y-38435000D01*
X127410000Y-38435000D02*
X129210000Y-38435000D01*
X127410000Y-68565000D02*
X127410000Y-69390000D01*
G04 #@! TO.C,C7*
X140287000Y-40211580D02*
X140287000Y-39930420D01*
X141307000Y-40211580D02*
X141307000Y-39930420D01*
G04 #@! TO.C,C9*
X153876000Y-52871420D02*
X153876000Y-53152580D01*
X154896000Y-52871420D02*
X154896000Y-53152580D01*
G04 #@! TO.C,D1*
X154752000Y-36829500D02*
X154752000Y-34344500D01*
X153382000Y-36829500D02*
X154752000Y-36829500D01*
X153382000Y-34344500D02*
X153382000Y-36829500D01*
G04 #@! TO.C,J1*
X154250000Y-76260000D02*
X153800000Y-76660000D01*
X153800000Y-76660000D02*
X153800000Y-75860000D01*
X153800000Y-75860000D02*
X154250000Y-76260000D01*
X159850000Y-71110000D02*
X157050000Y-71110000D01*
X157050000Y-71110000D02*
X157050000Y-70810000D01*
X157050000Y-70810000D02*
X155500000Y-70810000D01*
X159850000Y-78810000D02*
X157050000Y-78810000D01*
X157050000Y-79110000D02*
X157050000Y-78810000D01*
X157050000Y-79110000D02*
X155500000Y-79110000D01*
G04 #@! TO.C,R2*
X150590500Y-66935742D02*
X150590500Y-67410258D01*
X149545500Y-66935742D02*
X149545500Y-67410258D01*
G04 #@! TO.C,SW1*
X155690000Y-33440000D02*
X159310000Y-33440000D01*
X155690000Y-39560000D02*
X155690000Y-33440000D01*
X159310000Y-39560000D02*
X155690000Y-39560000D01*
X159310000Y-33440000D02*
X159310000Y-39560000D01*
G04 #@! TO.C,Y1*
X141908500Y-41962000D02*
X145908500Y-41962000D01*
X141908500Y-38662000D02*
X141908500Y-41962000D01*
G04 #@! TO.C,R3*
X134037258Y-60522500D02*
X133562742Y-60522500D01*
X134037258Y-59477500D02*
X133562742Y-59477500D01*
G04 #@! TO.C,R10*
X157277500Y-47212258D02*
X157277500Y-46737742D01*
X158322500Y-47212258D02*
X158322500Y-46737742D01*
G04 #@! TO.C,C1*
X147046748Y-75704000D02*
X147569252Y-75704000D01*
X147046748Y-74234000D02*
X147569252Y-74234000D01*
G04 #@! TO.C,C2*
X147046748Y-72234000D02*
X147569252Y-72234000D01*
X147046748Y-73704000D02*
X147569252Y-73704000D01*
G04 #@! TO.C,R4*
X145479258Y-61633500D02*
X145004742Y-61633500D01*
X145479258Y-62678500D02*
X145004742Y-62678500D01*
G04 #@! TO.C,SW2*
X155640000Y-67860000D02*
X154425000Y-67860000D01*
X159600000Y-67800000D02*
X161860000Y-67800000D01*
X159600000Y-67300000D02*
X161860000Y-67300000D01*
X158000000Y-64700000D02*
X158000000Y-63700000D01*
X159600000Y-64700000D02*
X158000000Y-64700000D01*
X159600000Y-63700000D02*
X159600000Y-64700000D01*
X158000000Y-63700000D02*
X159600000Y-63700000D01*
X158000000Y-67300000D02*
X158000000Y-68300000D01*
X159600000Y-67300000D02*
X158000000Y-67300000D01*
X159600000Y-68300000D02*
X159600000Y-67300000D01*
X158000000Y-68300000D02*
X159600000Y-68300000D01*
X155640000Y-62940000D02*
X155640000Y-63860000D01*
X155640000Y-69060000D02*
X155640000Y-68140000D01*
X157500000Y-65500000D02*
X161860000Y-65500000D01*
X157500000Y-66500000D02*
X157500000Y-65500000D01*
X161860000Y-66500000D02*
X157500000Y-66500000D01*
X155640000Y-63860000D02*
X155640000Y-64140000D01*
X154040000Y-63860000D02*
X155640000Y-63860000D01*
X154040000Y-62940000D02*
X154040000Y-63860000D01*
X161860000Y-62940000D02*
X154040000Y-62940000D01*
X161860000Y-69060000D02*
X161860000Y-62940000D01*
X154040000Y-69060000D02*
X161860000Y-69060000D01*
X154040000Y-68140000D02*
X154040000Y-69060000D01*
X155640000Y-68140000D02*
X154040000Y-68140000D01*
X155640000Y-67860000D02*
X155640000Y-68140000D01*
G04 #@! TO.C,C11*
X149379420Y-61646000D02*
X149660580Y-61646000D01*
X149379420Y-62666000D02*
X149660580Y-62666000D01*
G04 #@! TO.C,C10*
X149308000Y-40719580D02*
X149308000Y-40438420D01*
X148288000Y-40719580D02*
X148288000Y-40438420D01*
G04 #@! TO.C,C4*
X157039420Y-61142000D02*
X157320580Y-61142000D01*
X157039420Y-60122000D02*
X157320580Y-60122000D01*
G04 #@! TO.C,C5*
X155654000Y-53152580D02*
X155654000Y-52871420D01*
X156674000Y-53152580D02*
X156674000Y-52871420D01*
G04 #@! TO.C,C6*
X158198000Y-53152580D02*
X158198000Y-52871420D01*
X157178000Y-53152580D02*
X157178000Y-52871420D01*
G04 #@! TO.C,U2*
X158282000Y-58230000D02*
X158282000Y-55780000D01*
X155062000Y-56430000D02*
X155062000Y-58230000D01*
G04 #@! TO.C,Q1*
X135854000Y-37246000D02*
X135854000Y-35786000D01*
X139014000Y-37246000D02*
X139014000Y-35086000D01*
X139014000Y-37246000D02*
X138084000Y-37246000D01*
X135854000Y-37246000D02*
X136784000Y-37246000D01*
G04 #@! TO.C,Q2*
X134068000Y-38478000D02*
X134068000Y-39408000D01*
X134068000Y-41638000D02*
X134068000Y-40708000D01*
X134068000Y-41638000D02*
X136228000Y-41638000D01*
X134068000Y-38478000D02*
X135528000Y-38478000D01*
G04 #@! TO.C,R5*
X137732758Y-34548000D02*
X137258242Y-34548000D01*
X137732758Y-33503000D02*
X137258242Y-33503000D01*
G04 #@! TO.C,R6*
X151133000Y-41471242D02*
X151133000Y-41945758D01*
X152178000Y-41471242D02*
X152178000Y-41945758D01*
G04 #@! TO.C,R7*
X137099500Y-40295258D02*
X137099500Y-39820742D01*
X138144500Y-40295258D02*
X138144500Y-39820742D01*
G04 #@! TO.C,R8*
X139668500Y-40295258D02*
X139668500Y-39820742D01*
X138623500Y-40295258D02*
X138623500Y-39820742D01*
G04 #@! TO.C,R11*
X125763742Y-33722500D02*
X126238258Y-33722500D01*
X125763742Y-32677500D02*
X126238258Y-32677500D01*
G04 #@! TO.C,R12*
X125763742Y-31153500D02*
X126238258Y-31153500D01*
X125763742Y-32198500D02*
X126238258Y-32198500D01*
G04 #@! TO.C,J3*
D13*
X131330380Y-75663333D02*
X132044666Y-75663333D01*
X132187523Y-75710952D01*
X132282761Y-75806190D01*
X132330380Y-75949047D01*
X132330380Y-76044285D01*
X131330380Y-75282380D02*
X131330380Y-74663333D01*
X131711333Y-74996666D01*
X131711333Y-74853809D01*
X131758952Y-74758571D01*
X131806571Y-74710952D01*
X131901809Y-74663333D01*
X132139904Y-74663333D01*
X132235142Y-74710952D01*
X132282761Y-74758571D01*
X132330380Y-74853809D01*
X132330380Y-75139523D01*
X132282761Y-75234761D01*
X132235142Y-75282380D01*
G04 #@! TO.C,C8*
X147504142Y-38192666D02*
X147551761Y-38240285D01*
X147599380Y-38383142D01*
X147599380Y-38478380D01*
X147551761Y-38621238D01*
X147456523Y-38716476D01*
X147361285Y-38764095D01*
X147170809Y-38811714D01*
X147027952Y-38811714D01*
X146837476Y-38764095D01*
X146742238Y-38716476D01*
X146647000Y-38621238D01*
X146599380Y-38478380D01*
X146599380Y-38383142D01*
X146647000Y-38240285D01*
X146694619Y-38192666D01*
X147027952Y-37621238D02*
X146980333Y-37716476D01*
X146932714Y-37764095D01*
X146837476Y-37811714D01*
X146789857Y-37811714D01*
X146694619Y-37764095D01*
X146647000Y-37716476D01*
X146599380Y-37621238D01*
X146599380Y-37430761D01*
X146647000Y-37335523D01*
X146694619Y-37287904D01*
X146789857Y-37240285D01*
X146837476Y-37240285D01*
X146932714Y-37287904D01*
X146980333Y-37335523D01*
X147027952Y-37430761D01*
X147027952Y-37621238D01*
X147075571Y-37716476D01*
X147123190Y-37764095D01*
X147218428Y-37811714D01*
X147408904Y-37811714D01*
X147504142Y-37764095D01*
X147551761Y-37716476D01*
X147599380Y-37621238D01*
X147599380Y-37430761D01*
X147551761Y-37335523D01*
X147504142Y-37287904D01*
X147408904Y-37240285D01*
X147218428Y-37240285D01*
X147123190Y-37287904D01*
X147075571Y-37335523D01*
X147027952Y-37430761D01*
G04 #@! TO.C,C12*
X140127142Y-63943142D02*
X140079523Y-63990761D01*
X139936666Y-64038380D01*
X139841428Y-64038380D01*
X139698571Y-63990761D01*
X139603333Y-63895523D01*
X139555714Y-63800285D01*
X139508095Y-63609809D01*
X139508095Y-63466952D01*
X139555714Y-63276476D01*
X139603333Y-63181238D01*
X139698571Y-63086000D01*
X139841428Y-63038380D01*
X139936666Y-63038380D01*
X140079523Y-63086000D01*
X140127142Y-63133619D01*
X141079523Y-64038380D02*
X140508095Y-64038380D01*
X140793809Y-64038380D02*
X140793809Y-63038380D01*
X140698571Y-63181238D01*
X140603333Y-63276476D01*
X140508095Y-63324095D01*
X141460476Y-63133619D02*
X141508095Y-63086000D01*
X141603333Y-63038380D01*
X141841428Y-63038380D01*
X141936666Y-63086000D01*
X141984285Y-63133619D01*
X142031904Y-63228857D01*
X142031904Y-63324095D01*
X141984285Y-63466952D01*
X141412857Y-64038380D01*
X142031904Y-64038380D01*
G04 #@! TO.C,R9*
X151089380Y-35423666D02*
X150613190Y-35757000D01*
X151089380Y-35995095D02*
X150089380Y-35995095D01*
X150089380Y-35614142D01*
X150137000Y-35518904D01*
X150184619Y-35471285D01*
X150279857Y-35423666D01*
X150422714Y-35423666D01*
X150517952Y-35471285D01*
X150565571Y-35518904D01*
X150613190Y-35614142D01*
X150613190Y-35995095D01*
X151089380Y-34947476D02*
X151089380Y-34757000D01*
X151041761Y-34661761D01*
X150994142Y-34614142D01*
X150851285Y-34518904D01*
X150660809Y-34471285D01*
X150279857Y-34471285D01*
X150184619Y-34518904D01*
X150137000Y-34566523D01*
X150089380Y-34661761D01*
X150089380Y-34852238D01*
X150137000Y-34947476D01*
X150184619Y-34995095D01*
X150279857Y-35042714D01*
X150517952Y-35042714D01*
X150613190Y-34995095D01*
X150660809Y-34947476D01*
X150708428Y-34852238D01*
X150708428Y-34661761D01*
X150660809Y-34566523D01*
X150613190Y-34518904D01*
X150517952Y-34471285D01*
G04 #@! TO.C,C3*
X144567333Y-71326142D02*
X144519714Y-71373761D01*
X144376857Y-71421380D01*
X144281619Y-71421380D01*
X144138761Y-71373761D01*
X144043523Y-71278523D01*
X143995904Y-71183285D01*
X143948285Y-70992809D01*
X143948285Y-70849952D01*
X143995904Y-70659476D01*
X144043523Y-70564238D01*
X144138761Y-70469000D01*
X144281619Y-70421380D01*
X144376857Y-70421380D01*
X144519714Y-70469000D01*
X144567333Y-70516619D01*
X144900666Y-70421380D02*
X145519714Y-70421380D01*
X145186380Y-70802333D01*
X145329238Y-70802333D01*
X145424476Y-70849952D01*
X145472095Y-70897571D01*
X145519714Y-70992809D01*
X145519714Y-71230904D01*
X145472095Y-71326142D01*
X145424476Y-71373761D01*
X145329238Y-71421380D01*
X145043523Y-71421380D01*
X144948285Y-71373761D01*
X144900666Y-71326142D01*
G04 #@! TO.C,U1*
X150536380Y-75617904D02*
X151345904Y-75617904D01*
X151441142Y-75570285D01*
X151488761Y-75522666D01*
X151536380Y-75427428D01*
X151536380Y-75236952D01*
X151488761Y-75141714D01*
X151441142Y-75094095D01*
X151345904Y-75046476D01*
X150536380Y-75046476D01*
X151536380Y-74046476D02*
X151536380Y-74617904D01*
X151536380Y-74332190D02*
X150536380Y-74332190D01*
X150679238Y-74427428D01*
X150774476Y-74522666D01*
X150822095Y-74617904D01*
G04 #@! TO.C,U3*
X151238095Y-59452380D02*
X151238095Y-60261904D01*
X151285714Y-60357142D01*
X151333333Y-60404761D01*
X151428571Y-60452380D01*
X151619047Y-60452380D01*
X151714285Y-60404761D01*
X151761904Y-60357142D01*
X151809523Y-60261904D01*
X151809523Y-59452380D01*
X152190476Y-59452380D02*
X152809523Y-59452380D01*
X152476190Y-59833333D01*
X152619047Y-59833333D01*
X152714285Y-59880952D01*
X152761904Y-59928571D01*
X152809523Y-60023809D01*
X152809523Y-60261904D01*
X152761904Y-60357142D01*
X152714285Y-60404761D01*
X152619047Y-60452380D01*
X152333333Y-60452380D01*
X152238095Y-60404761D01*
X152190476Y-60357142D01*
G04 #@! TO.C,R1*
X152468380Y-64934666D02*
X151992190Y-65268000D01*
X152468380Y-65506095D02*
X151468380Y-65506095D01*
X151468380Y-65125142D01*
X151516000Y-65029904D01*
X151563619Y-64982285D01*
X151658857Y-64934666D01*
X151801714Y-64934666D01*
X151896952Y-64982285D01*
X151944571Y-65029904D01*
X151992190Y-65125142D01*
X151992190Y-65506095D01*
X152468380Y-63982285D02*
X152468380Y-64553714D01*
X152468380Y-64268000D02*
X151468380Y-64268000D01*
X151611238Y-64363238D01*
X151706476Y-64458476D01*
X151754095Y-64553714D01*
G04 #@! TO.C,J2*
X129952380Y-53833333D02*
X130666666Y-53833333D01*
X130809523Y-53880952D01*
X130904761Y-53976190D01*
X130952380Y-54119047D01*
X130952380Y-54214285D01*
X130047619Y-53404761D02*
X130000000Y-53357142D01*
X129952380Y-53261904D01*
X129952380Y-53023809D01*
X130000000Y-52928571D01*
X130047619Y-52880952D01*
X130142857Y-52833333D01*
X130238095Y-52833333D01*
X130380952Y-52880952D01*
X130952380Y-53452380D01*
X130952380Y-52833333D01*
G04 #@! TO.C,C7*
X141154142Y-37430666D02*
X141201761Y-37478285D01*
X141249380Y-37621142D01*
X141249380Y-37716380D01*
X141201761Y-37859238D01*
X141106523Y-37954476D01*
X141011285Y-38002095D01*
X140820809Y-38049714D01*
X140677952Y-38049714D01*
X140487476Y-38002095D01*
X140392238Y-37954476D01*
X140297000Y-37859238D01*
X140249380Y-37716380D01*
X140249380Y-37621142D01*
X140297000Y-37478285D01*
X140344619Y-37430666D01*
X140249380Y-37097333D02*
X140249380Y-36430666D01*
X141249380Y-36859238D01*
G04 #@! TO.C,C9*
X154806642Y-50130666D02*
X154854261Y-50178285D01*
X154901880Y-50321142D01*
X154901880Y-50416380D01*
X154854261Y-50559238D01*
X154759023Y-50654476D01*
X154663785Y-50702095D01*
X154473309Y-50749714D01*
X154330452Y-50749714D01*
X154139976Y-50702095D01*
X154044738Y-50654476D01*
X153949500Y-50559238D01*
X153901880Y-50416380D01*
X153901880Y-50321142D01*
X153949500Y-50178285D01*
X153997119Y-50130666D01*
X154901880Y-49654476D02*
X154901880Y-49464000D01*
X154854261Y-49368761D01*
X154806642Y-49321142D01*
X154663785Y-49225904D01*
X154473309Y-49178285D01*
X154092357Y-49178285D01*
X153997119Y-49225904D01*
X153949500Y-49273523D01*
X153901880Y-49368761D01*
X153901880Y-49559238D01*
X153949500Y-49654476D01*
X153997119Y-49702095D01*
X154092357Y-49749714D01*
X154330452Y-49749714D01*
X154425690Y-49702095D01*
X154473309Y-49654476D01*
X154520928Y-49559238D01*
X154520928Y-49368761D01*
X154473309Y-49273523D01*
X154425690Y-49225904D01*
X154330452Y-49178285D01*
G04 #@! TO.C,D1*
X155092380Y-33176095D02*
X154092380Y-33176095D01*
X154092380Y-32938000D01*
X154140000Y-32795142D01*
X154235238Y-32699904D01*
X154330476Y-32652285D01*
X154520952Y-32604666D01*
X154663809Y-32604666D01*
X154854285Y-32652285D01*
X154949523Y-32699904D01*
X155044761Y-32795142D01*
X155092380Y-32938000D01*
X155092380Y-33176095D01*
X155092380Y-31652285D02*
X155092380Y-32223714D01*
X155092380Y-31938000D02*
X154092380Y-31938000D01*
X154235238Y-32033238D01*
X154330476Y-32128476D01*
X154378095Y-32223714D01*
G04 #@! TO.C,J1*
X152568380Y-78491333D02*
X153282666Y-78491333D01*
X153425523Y-78538952D01*
X153520761Y-78634190D01*
X153568380Y-78777047D01*
X153568380Y-78872285D01*
X153568380Y-77491333D02*
X153568380Y-78062761D01*
X153568380Y-77777047D02*
X152568380Y-77777047D01*
X152711238Y-77872285D01*
X152806476Y-77967523D01*
X152854095Y-78062761D01*
G04 #@! TO.C,R2*
X150680380Y-64924666D02*
X150204190Y-65258000D01*
X150680380Y-65496095D02*
X149680380Y-65496095D01*
X149680380Y-65115142D01*
X149728000Y-65019904D01*
X149775619Y-64972285D01*
X149870857Y-64924666D01*
X150013714Y-64924666D01*
X150108952Y-64972285D01*
X150156571Y-65019904D01*
X150204190Y-65115142D01*
X150204190Y-65496095D01*
X149775619Y-64543714D02*
X149728000Y-64496095D01*
X149680380Y-64400857D01*
X149680380Y-64162761D01*
X149728000Y-64067523D01*
X149775619Y-64019904D01*
X149870857Y-63972285D01*
X149966095Y-63972285D01*
X150108952Y-64019904D01*
X150680380Y-64591333D01*
X150680380Y-63972285D01*
G04 #@! TO.C,SW1*
X155298761Y-42153333D02*
X155346380Y-42010476D01*
X155346380Y-41772380D01*
X155298761Y-41677142D01*
X155251142Y-41629523D01*
X155155904Y-41581904D01*
X155060666Y-41581904D01*
X154965428Y-41629523D01*
X154917809Y-41677142D01*
X154870190Y-41772380D01*
X154822571Y-41962857D01*
X154774952Y-42058095D01*
X154727333Y-42105714D01*
X154632095Y-42153333D01*
X154536857Y-42153333D01*
X154441619Y-42105714D01*
X154394000Y-42058095D01*
X154346380Y-41962857D01*
X154346380Y-41724761D01*
X154394000Y-41581904D01*
X154346380Y-41248571D02*
X155346380Y-41010476D01*
X154632095Y-40820000D01*
X155346380Y-40629523D01*
X154346380Y-40391428D01*
X155346380Y-39486666D02*
X155346380Y-40058095D01*
X155346380Y-39772380D02*
X154346380Y-39772380D01*
X154489238Y-39867619D01*
X154584476Y-39962857D01*
X154632095Y-40058095D01*
G04 #@! TO.C,Y1*
X143495809Y-37748190D02*
X143495809Y-38224380D01*
X143162476Y-37224380D02*
X143495809Y-37748190D01*
X143829142Y-37224380D01*
X144686285Y-38224380D02*
X144114857Y-38224380D01*
X144400571Y-38224380D02*
X144400571Y-37224380D01*
X144305333Y-37367238D01*
X144210095Y-37462476D01*
X144114857Y-37510095D01*
G04 #@! TO.C,R3*
X133633333Y-61882380D02*
X133300000Y-61406190D01*
X133061904Y-61882380D02*
X133061904Y-60882380D01*
X133442857Y-60882380D01*
X133538095Y-60930000D01*
X133585714Y-60977619D01*
X133633333Y-61072857D01*
X133633333Y-61215714D01*
X133585714Y-61310952D01*
X133538095Y-61358571D01*
X133442857Y-61406190D01*
X133061904Y-61406190D01*
X133966666Y-60882380D02*
X134585714Y-60882380D01*
X134252380Y-61263333D01*
X134395238Y-61263333D01*
X134490476Y-61310952D01*
X134538095Y-61358571D01*
X134585714Y-61453809D01*
X134585714Y-61691904D01*
X134538095Y-61787142D01*
X134490476Y-61834761D01*
X134395238Y-61882380D01*
X134109523Y-61882380D01*
X134014285Y-61834761D01*
X133966666Y-61787142D01*
G04 #@! TO.C,H1*
X130238095Y-32452380D02*
X130238095Y-31452380D01*
X130238095Y-31928571D02*
X130809523Y-31928571D01*
X130809523Y-32452380D02*
X130809523Y-31452380D01*
X131809523Y-32452380D02*
X131238095Y-32452380D01*
X131523809Y-32452380D02*
X131523809Y-31452380D01*
X131428571Y-31595238D01*
X131333333Y-31690476D01*
X131238095Y-31738095D01*
G04 #@! TO.C,H2*
X128732095Y-69720380D02*
X128732095Y-68720380D01*
X128732095Y-69196571D02*
X129303523Y-69196571D01*
X129303523Y-69720380D02*
X129303523Y-68720380D01*
X129732095Y-68815619D02*
X129779714Y-68768000D01*
X129874952Y-68720380D01*
X130113047Y-68720380D01*
X130208285Y-68768000D01*
X130255904Y-68815619D01*
X130303523Y-68910857D01*
X130303523Y-69006095D01*
X130255904Y-69148952D01*
X129684476Y-69720380D01*
X130303523Y-69720380D01*
G04 #@! TO.C,R10*
X158394380Y-44510857D02*
X157918190Y-44844190D01*
X158394380Y-45082285D02*
X157394380Y-45082285D01*
X157394380Y-44701333D01*
X157442000Y-44606095D01*
X157489619Y-44558476D01*
X157584857Y-44510857D01*
X157727714Y-44510857D01*
X157822952Y-44558476D01*
X157870571Y-44606095D01*
X157918190Y-44701333D01*
X157918190Y-45082285D01*
X158394380Y-43558476D02*
X158394380Y-44129904D01*
X158394380Y-43844190D02*
X157394380Y-43844190D01*
X157537238Y-43939428D01*
X157632476Y-44034666D01*
X157680095Y-44129904D01*
X157394380Y-42939428D02*
X157394380Y-42844190D01*
X157442000Y-42748952D01*
X157489619Y-42701333D01*
X157584857Y-42653714D01*
X157775333Y-42606095D01*
X158013428Y-42606095D01*
X158203904Y-42653714D01*
X158299142Y-42701333D01*
X158346761Y-42748952D01*
X158394380Y-42844190D01*
X158394380Y-42939428D01*
X158346761Y-43034666D01*
X158299142Y-43082285D01*
X158203904Y-43129904D01*
X158013428Y-43177523D01*
X157775333Y-43177523D01*
X157584857Y-43129904D01*
X157489619Y-43082285D01*
X157442000Y-43034666D01*
X157394380Y-42939428D01*
G04 #@! TO.C,H3*
X124668095Y-74800380D02*
X124668095Y-73800380D01*
X124668095Y-74276571D02*
X125239523Y-74276571D01*
X125239523Y-74800380D02*
X125239523Y-73800380D01*
X125620476Y-73800380D02*
X126239523Y-73800380D01*
X125906190Y-74181333D01*
X126049047Y-74181333D01*
X126144285Y-74228952D01*
X126191904Y-74276571D01*
X126239523Y-74371809D01*
X126239523Y-74609904D01*
X126191904Y-74705142D01*
X126144285Y-74752761D01*
X126049047Y-74800380D01*
X125763333Y-74800380D01*
X125668095Y-74752761D01*
X125620476Y-74705142D01*
G04 #@! TO.C,C1*
X144567333Y-75340142D02*
X144519714Y-75387761D01*
X144376857Y-75435380D01*
X144281619Y-75435380D01*
X144138761Y-75387761D01*
X144043523Y-75292523D01*
X143995904Y-75197285D01*
X143948285Y-75006809D01*
X143948285Y-74863952D01*
X143995904Y-74673476D01*
X144043523Y-74578238D01*
X144138761Y-74483000D01*
X144281619Y-74435380D01*
X144376857Y-74435380D01*
X144519714Y-74483000D01*
X144567333Y-74530619D01*
X145519714Y-75435380D02*
X144948285Y-75435380D01*
X145234000Y-75435380D02*
X145234000Y-74435380D01*
X145138761Y-74578238D01*
X145043523Y-74673476D01*
X144948285Y-74721095D01*
G04 #@! TO.C,C2*
X144567333Y-73326142D02*
X144519714Y-73373761D01*
X144376857Y-73421380D01*
X144281619Y-73421380D01*
X144138761Y-73373761D01*
X144043523Y-73278523D01*
X143995904Y-73183285D01*
X143948285Y-72992809D01*
X143948285Y-72849952D01*
X143995904Y-72659476D01*
X144043523Y-72564238D01*
X144138761Y-72469000D01*
X144281619Y-72421380D01*
X144376857Y-72421380D01*
X144519714Y-72469000D01*
X144567333Y-72516619D01*
X144948285Y-72516619D02*
X144995904Y-72469000D01*
X145091142Y-72421380D01*
X145329238Y-72421380D01*
X145424476Y-72469000D01*
X145472095Y-72516619D01*
X145519714Y-72611857D01*
X145519714Y-72707095D01*
X145472095Y-72849952D01*
X144900666Y-73421380D01*
X145519714Y-73421380D01*
G04 #@! TO.C,R4*
X145075333Y-63878380D02*
X144742000Y-63402190D01*
X144503904Y-63878380D02*
X144503904Y-62878380D01*
X144884857Y-62878380D01*
X144980095Y-62926000D01*
X145027714Y-62973619D01*
X145075333Y-63068857D01*
X145075333Y-63211714D01*
X145027714Y-63306952D01*
X144980095Y-63354571D01*
X144884857Y-63402190D01*
X144503904Y-63402190D01*
X145932476Y-63211714D02*
X145932476Y-63878380D01*
X145694380Y-62830761D02*
X145456285Y-63545047D01*
X146075333Y-63545047D01*
G04 #@! TO.C,SW2*
X154028761Y-67299333D02*
X154076380Y-67156476D01*
X154076380Y-66918380D01*
X154028761Y-66823142D01*
X153981142Y-66775523D01*
X153885904Y-66727904D01*
X153790666Y-66727904D01*
X153695428Y-66775523D01*
X153647809Y-66823142D01*
X153600190Y-66918380D01*
X153552571Y-67108857D01*
X153504952Y-67204095D01*
X153457333Y-67251714D01*
X153362095Y-67299333D01*
X153266857Y-67299333D01*
X153171619Y-67251714D01*
X153124000Y-67204095D01*
X153076380Y-67108857D01*
X153076380Y-66870761D01*
X153124000Y-66727904D01*
X153076380Y-66394571D02*
X154076380Y-66156476D01*
X153362095Y-65966000D01*
X154076380Y-65775523D01*
X153076380Y-65537428D01*
X153171619Y-65204095D02*
X153124000Y-65156476D01*
X153076380Y-65061238D01*
X153076380Y-64823142D01*
X153124000Y-64727904D01*
X153171619Y-64680285D01*
X153266857Y-64632666D01*
X153362095Y-64632666D01*
X153504952Y-64680285D01*
X154076380Y-65251714D01*
X154076380Y-64632666D01*
G04 #@! TO.C,C11*
X151711142Y-62513142D02*
X151663523Y-62560761D01*
X151520666Y-62608380D01*
X151425428Y-62608380D01*
X151282571Y-62560761D01*
X151187333Y-62465523D01*
X151139714Y-62370285D01*
X151092095Y-62179809D01*
X151092095Y-62036952D01*
X151139714Y-61846476D01*
X151187333Y-61751238D01*
X151282571Y-61656000D01*
X151425428Y-61608380D01*
X151520666Y-61608380D01*
X151663523Y-61656000D01*
X151711142Y-61703619D01*
X152663523Y-62608380D02*
X152092095Y-62608380D01*
X152377809Y-62608380D02*
X152377809Y-61608380D01*
X152282571Y-61751238D01*
X152187333Y-61846476D01*
X152092095Y-61894095D01*
X153615904Y-62608380D02*
X153044476Y-62608380D01*
X153330190Y-62608380D02*
X153330190Y-61608380D01*
X153234952Y-61751238D01*
X153139714Y-61846476D01*
X153044476Y-61894095D01*
G04 #@! TO.C,C10*
X149155142Y-38160857D02*
X149202761Y-38208476D01*
X149250380Y-38351333D01*
X149250380Y-38446571D01*
X149202761Y-38589428D01*
X149107523Y-38684666D01*
X149012285Y-38732285D01*
X148821809Y-38779904D01*
X148678952Y-38779904D01*
X148488476Y-38732285D01*
X148393238Y-38684666D01*
X148298000Y-38589428D01*
X148250380Y-38446571D01*
X148250380Y-38351333D01*
X148298000Y-38208476D01*
X148345619Y-38160857D01*
X149250380Y-37208476D02*
X149250380Y-37779904D01*
X149250380Y-37494190D02*
X148250380Y-37494190D01*
X148393238Y-37589428D01*
X148488476Y-37684666D01*
X148536095Y-37779904D01*
X148250380Y-36589428D02*
X148250380Y-36494190D01*
X148298000Y-36398952D01*
X148345619Y-36351333D01*
X148440857Y-36303714D01*
X148631333Y-36256095D01*
X148869428Y-36256095D01*
X149059904Y-36303714D01*
X149155142Y-36351333D01*
X149202761Y-36398952D01*
X149250380Y-36494190D01*
X149250380Y-36589428D01*
X149202761Y-36684666D01*
X149155142Y-36732285D01*
X149059904Y-36779904D01*
X148869428Y-36827523D01*
X148631333Y-36827523D01*
X148440857Y-36779904D01*
X148345619Y-36732285D01*
X148298000Y-36684666D01*
X148250380Y-36589428D01*
G04 #@! TO.C,C4*
X153978333Y-60989142D02*
X153930714Y-61036761D01*
X153787857Y-61084380D01*
X153692619Y-61084380D01*
X153549761Y-61036761D01*
X153454523Y-60941523D01*
X153406904Y-60846285D01*
X153359285Y-60655809D01*
X153359285Y-60512952D01*
X153406904Y-60322476D01*
X153454523Y-60227238D01*
X153549761Y-60132000D01*
X153692619Y-60084380D01*
X153787857Y-60084380D01*
X153930714Y-60132000D01*
X153978333Y-60179619D01*
X154835476Y-60417714D02*
X154835476Y-61084380D01*
X154597380Y-60036761D02*
X154359285Y-60751047D01*
X154978333Y-60751047D01*
G04 #@! TO.C,C5*
X156521142Y-50130666D02*
X156568761Y-50178285D01*
X156616380Y-50321142D01*
X156616380Y-50416380D01*
X156568761Y-50559238D01*
X156473523Y-50654476D01*
X156378285Y-50702095D01*
X156187809Y-50749714D01*
X156044952Y-50749714D01*
X155854476Y-50702095D01*
X155759238Y-50654476D01*
X155664000Y-50559238D01*
X155616380Y-50416380D01*
X155616380Y-50321142D01*
X155664000Y-50178285D01*
X155711619Y-50130666D01*
X155616380Y-49225904D02*
X155616380Y-49702095D01*
X156092571Y-49749714D01*
X156044952Y-49702095D01*
X155997333Y-49606857D01*
X155997333Y-49368761D01*
X156044952Y-49273523D01*
X156092571Y-49225904D01*
X156187809Y-49178285D01*
X156425904Y-49178285D01*
X156521142Y-49225904D01*
X156568761Y-49273523D01*
X156616380Y-49368761D01*
X156616380Y-49606857D01*
X156568761Y-49702095D01*
X156521142Y-49749714D01*
G04 #@! TO.C,C6*
X158045142Y-50130666D02*
X158092761Y-50178285D01*
X158140380Y-50321142D01*
X158140380Y-50416380D01*
X158092761Y-50559238D01*
X157997523Y-50654476D01*
X157902285Y-50702095D01*
X157711809Y-50749714D01*
X157568952Y-50749714D01*
X157378476Y-50702095D01*
X157283238Y-50654476D01*
X157188000Y-50559238D01*
X157140380Y-50416380D01*
X157140380Y-50321142D01*
X157188000Y-50178285D01*
X157235619Y-50130666D01*
X157140380Y-49273523D02*
X157140380Y-49464000D01*
X157188000Y-49559238D01*
X157235619Y-49606857D01*
X157378476Y-49702095D01*
X157568952Y-49749714D01*
X157949904Y-49749714D01*
X158045142Y-49702095D01*
X158092761Y-49654476D01*
X158140380Y-49559238D01*
X158140380Y-49368761D01*
X158092761Y-49273523D01*
X158045142Y-49225904D01*
X157949904Y-49178285D01*
X157711809Y-49178285D01*
X157616571Y-49225904D01*
X157568952Y-49273523D01*
X157521333Y-49368761D01*
X157521333Y-49559238D01*
X157568952Y-49654476D01*
X157616571Y-49702095D01*
X157711809Y-49749714D01*
G04 #@! TO.C,U2*
X153584380Y-58091904D02*
X154393904Y-58091904D01*
X154489142Y-58044285D01*
X154536761Y-57996666D01*
X154584380Y-57901428D01*
X154584380Y-57710952D01*
X154536761Y-57615714D01*
X154489142Y-57568095D01*
X154393904Y-57520476D01*
X153584380Y-57520476D01*
X153679619Y-57091904D02*
X153632000Y-57044285D01*
X153584380Y-56949047D01*
X153584380Y-56710952D01*
X153632000Y-56615714D01*
X153679619Y-56568095D01*
X153774857Y-56520476D01*
X153870095Y-56520476D01*
X154012952Y-56568095D01*
X154584380Y-57139523D01*
X154584380Y-56520476D01*
G04 #@! TO.C,Q1*
X135441619Y-36581238D02*
X135394000Y-36676476D01*
X135298761Y-36771714D01*
X135155904Y-36914571D01*
X135108285Y-37009809D01*
X135108285Y-37105047D01*
X135346380Y-37057428D02*
X135298761Y-37152666D01*
X135203523Y-37247904D01*
X135013047Y-37295523D01*
X134679714Y-37295523D01*
X134489238Y-37247904D01*
X134394000Y-37152666D01*
X134346380Y-37057428D01*
X134346380Y-36866952D01*
X134394000Y-36771714D01*
X134489238Y-36676476D01*
X134679714Y-36628857D01*
X135013047Y-36628857D01*
X135203523Y-36676476D01*
X135298761Y-36771714D01*
X135346380Y-36866952D01*
X135346380Y-37057428D01*
X135346380Y-35676476D02*
X135346380Y-36247904D01*
X135346380Y-35962190D02*
X134346380Y-35962190D01*
X134489238Y-36057428D01*
X134584476Y-36152666D01*
X134632095Y-36247904D01*
G04 #@! TO.C,Q2*
X134732761Y-43105619D02*
X134637523Y-43058000D01*
X134542285Y-42962761D01*
X134399428Y-42819904D01*
X134304190Y-42772285D01*
X134208952Y-42772285D01*
X134256571Y-43010380D02*
X134161333Y-42962761D01*
X134066095Y-42867523D01*
X134018476Y-42677047D01*
X134018476Y-42343714D01*
X134066095Y-42153238D01*
X134161333Y-42058000D01*
X134256571Y-42010380D01*
X134447047Y-42010380D01*
X134542285Y-42058000D01*
X134637523Y-42153238D01*
X134685142Y-42343714D01*
X134685142Y-42677047D01*
X134637523Y-42867523D01*
X134542285Y-42962761D01*
X134447047Y-43010380D01*
X134256571Y-43010380D01*
X135066095Y-42105619D02*
X135113714Y-42058000D01*
X135208952Y-42010380D01*
X135447047Y-42010380D01*
X135542285Y-42058000D01*
X135589904Y-42105619D01*
X135637523Y-42200857D01*
X135637523Y-42296095D01*
X135589904Y-42438952D01*
X135018476Y-43010380D01*
X135637523Y-43010380D01*
G04 #@! TO.C,R5*
X137328333Y-33144380D02*
X136995000Y-32668190D01*
X136756904Y-33144380D02*
X136756904Y-32144380D01*
X137137857Y-32144380D01*
X137233095Y-32192000D01*
X137280714Y-32239619D01*
X137328333Y-32334857D01*
X137328333Y-32477714D01*
X137280714Y-32572952D01*
X137233095Y-32620571D01*
X137137857Y-32668190D01*
X136756904Y-32668190D01*
X138233095Y-32144380D02*
X137756904Y-32144380D01*
X137709285Y-32620571D01*
X137756904Y-32572952D01*
X137852142Y-32525333D01*
X138090238Y-32525333D01*
X138185476Y-32572952D01*
X138233095Y-32620571D01*
X138280714Y-32715809D01*
X138280714Y-32953904D01*
X138233095Y-33049142D01*
X138185476Y-33096761D01*
X138090238Y-33144380D01*
X137852142Y-33144380D01*
X137756904Y-33096761D01*
X137709285Y-33049142D01*
G04 #@! TO.C,R6*
X152107880Y-38764166D02*
X151631690Y-39097500D01*
X152107880Y-39335595D02*
X151107880Y-39335595D01*
X151107880Y-38954642D01*
X151155500Y-38859404D01*
X151203119Y-38811785D01*
X151298357Y-38764166D01*
X151441214Y-38764166D01*
X151536452Y-38811785D01*
X151584071Y-38859404D01*
X151631690Y-38954642D01*
X151631690Y-39335595D01*
X151107880Y-37907023D02*
X151107880Y-38097500D01*
X151155500Y-38192738D01*
X151203119Y-38240357D01*
X151345976Y-38335595D01*
X151536452Y-38383214D01*
X151917404Y-38383214D01*
X152012642Y-38335595D01*
X152060261Y-38287976D01*
X152107880Y-38192738D01*
X152107880Y-38002261D01*
X152060261Y-37907023D01*
X152012642Y-37859404D01*
X151917404Y-37811785D01*
X151679309Y-37811785D01*
X151584071Y-37859404D01*
X151536452Y-37907023D01*
X151488833Y-38002261D01*
X151488833Y-38192738D01*
X151536452Y-38287976D01*
X151584071Y-38335595D01*
X151679309Y-38383214D01*
G04 #@! TO.C,R7*
X138074380Y-42510666D02*
X137598190Y-42844000D01*
X138074380Y-43082095D02*
X137074380Y-43082095D01*
X137074380Y-42701142D01*
X137122000Y-42605904D01*
X137169619Y-42558285D01*
X137264857Y-42510666D01*
X137407714Y-42510666D01*
X137502952Y-42558285D01*
X137550571Y-42605904D01*
X137598190Y-42701142D01*
X137598190Y-43082095D01*
X137074380Y-42177333D02*
X137074380Y-41510666D01*
X138074380Y-41939238D01*
G04 #@! TO.C,R8*
X139598380Y-42510666D02*
X139122190Y-42844000D01*
X139598380Y-43082095D02*
X138598380Y-43082095D01*
X138598380Y-42701142D01*
X138646000Y-42605904D01*
X138693619Y-42558285D01*
X138788857Y-42510666D01*
X138931714Y-42510666D01*
X139026952Y-42558285D01*
X139074571Y-42605904D01*
X139122190Y-42701142D01*
X139122190Y-43082095D01*
X139026952Y-41939238D02*
X138979333Y-42034476D01*
X138931714Y-42082095D01*
X138836476Y-42129714D01*
X138788857Y-42129714D01*
X138693619Y-42082095D01*
X138646000Y-42034476D01*
X138598380Y-41939238D01*
X138598380Y-41748761D01*
X138646000Y-41653523D01*
X138693619Y-41605904D01*
X138788857Y-41558285D01*
X138836476Y-41558285D01*
X138931714Y-41605904D01*
X138979333Y-41653523D01*
X139026952Y-41748761D01*
X139026952Y-41939238D01*
X139074571Y-42034476D01*
X139122190Y-42082095D01*
X139217428Y-42129714D01*
X139407904Y-42129714D01*
X139503142Y-42082095D01*
X139550761Y-42034476D01*
X139598380Y-41939238D01*
X139598380Y-41748761D01*
X139550761Y-41653523D01*
X139503142Y-41605904D01*
X139407904Y-41558285D01*
X139217428Y-41558285D01*
X139122190Y-41605904D01*
X139074571Y-41653523D01*
X139026952Y-41748761D01*
G04 #@! TO.C,R11*
X122247142Y-33652380D02*
X121913809Y-33176190D01*
X121675714Y-33652380D02*
X121675714Y-32652380D01*
X122056666Y-32652380D01*
X122151904Y-32700000D01*
X122199523Y-32747619D01*
X122247142Y-32842857D01*
X122247142Y-32985714D01*
X122199523Y-33080952D01*
X122151904Y-33128571D01*
X122056666Y-33176190D01*
X121675714Y-33176190D01*
X123199523Y-33652380D02*
X122628095Y-33652380D01*
X122913809Y-33652380D02*
X122913809Y-32652380D01*
X122818571Y-32795238D01*
X122723333Y-32890476D01*
X122628095Y-32938095D01*
X124151904Y-33652380D02*
X123580476Y-33652380D01*
X123866190Y-33652380D02*
X123866190Y-32652380D01*
X123770952Y-32795238D01*
X123675714Y-32890476D01*
X123580476Y-32938095D01*
G04 #@! TO.C,R12*
X122247142Y-32128380D02*
X121913809Y-31652190D01*
X121675714Y-32128380D02*
X121675714Y-31128380D01*
X122056666Y-31128380D01*
X122151904Y-31176000D01*
X122199523Y-31223619D01*
X122247142Y-31318857D01*
X122247142Y-31461714D01*
X122199523Y-31556952D01*
X122151904Y-31604571D01*
X122056666Y-31652190D01*
X121675714Y-31652190D01*
X123199523Y-32128380D02*
X122628095Y-32128380D01*
X122913809Y-32128380D02*
X122913809Y-31128380D01*
X122818571Y-31271238D01*
X122723333Y-31366476D01*
X122628095Y-31414095D01*
X123580476Y-31223619D02*
X123628095Y-31176000D01*
X123723333Y-31128380D01*
X123961428Y-31128380D01*
X124056666Y-31176000D01*
X124104285Y-31223619D01*
X124151904Y-31318857D01*
X124151904Y-31414095D01*
X124104285Y-31556952D01*
X123532857Y-32128380D01*
X124151904Y-32128380D01*
G04 #@! TD*
M02*
