G04 #@! TF.GenerationSoftware,KiCad,Pcbnew,(5.1.8)-1*
G04 #@! TF.CreationDate,2021-09-07T17:05:45-07:00*
G04 #@! TF.ProjectId,wired-sculpt,77697265-642d-4736-9375-6c70742e6b69,rev?*
G04 #@! TF.SameCoordinates,Original*
G04 #@! TF.FileFunction,Copper,L1,Top*
G04 #@! TF.FilePolarity,Positive*
%FSLAX46Y46*%
G04 Gerber Fmt 4.6, Leading zero omitted, Abs format (unit mm)*
G04 Created by KiCad (PCBNEW (5.1.8)-1) date 2021-09-07 17:05:45*
%MOMM*%
%LPD*%
G01*
G04 APERTURE LIST*
G04 #@! TA.AperFunction,ComponentPad*
%ADD10C,1.700000*%
G04 #@! TD*
G04 #@! TA.AperFunction,SMDPad,CuDef*
%ADD11R,0.650000X1.060000*%
G04 #@! TD*
G04 #@! TA.AperFunction,SMDPad,CuDef*
%ADD12R,1.500000X0.550000*%
G04 #@! TD*
G04 #@! TA.AperFunction,SMDPad,CuDef*
%ADD13R,0.550000X1.500000*%
G04 #@! TD*
G04 #@! TA.AperFunction,SMDPad,CuDef*
%ADD14R,2.000000X0.610000*%
G04 #@! TD*
G04 #@! TA.AperFunction,SMDPad,CuDef*
%ADD15R,3.600000X2.680000*%
G04 #@! TD*
G04 #@! TA.AperFunction,SMDPad,CuDef*
%ADD16R,2.000000X1.350000*%
G04 #@! TD*
G04 #@! TA.AperFunction,SMDPad,CuDef*
%ADD17R,0.700000X1.825000*%
G04 #@! TD*
G04 #@! TA.AperFunction,SMDPad,CuDef*
%ADD18R,1.500000X2.000000*%
G04 #@! TD*
G04 #@! TA.AperFunction,SMDPad,CuDef*
%ADD19R,1.650000X0.400000*%
G04 #@! TD*
G04 #@! TA.AperFunction,ComponentPad*
%ADD20O,1.500000X1.100000*%
G04 #@! TD*
G04 #@! TA.AperFunction,ComponentPad*
%ADD21O,1.700000X1.350000*%
G04 #@! TD*
G04 #@! TA.AperFunction,SMDPad,CuDef*
%ADD22R,2.500000X1.430000*%
G04 #@! TD*
G04 #@! TA.AperFunction,SMDPad,CuDef*
%ADD23R,1.600000X2.180000*%
G04 #@! TD*
G04 #@! TA.AperFunction,SMDPad,CuDef*
%ADD24R,1.400000X1.200000*%
G04 #@! TD*
G04 #@! TA.AperFunction,ComponentPad*
%ADD25O,1.750000X1.200000*%
G04 #@! TD*
G04 #@! TA.AperFunction,SMDPad,CuDef*
%ADD26R,0.800000X0.900000*%
G04 #@! TD*
G04 #@! TA.AperFunction,SMDPad,CuDef*
%ADD27R,0.900000X0.800000*%
G04 #@! TD*
G04 #@! TA.AperFunction,ViaPad*
%ADD28C,0.700000*%
G04 #@! TD*
G04 #@! TA.AperFunction,Conductor*
%ADD29C,0.200000*%
G04 #@! TD*
G04 #@! TA.AperFunction,Conductor*
%ADD30C,0.500000*%
G04 #@! TD*
G04 #@! TA.AperFunction,Conductor*
%ADD31C,0.400000*%
G04 #@! TD*
G04 APERTURE END LIST*
G04 #@! TO.P,J3,1*
G04 #@! TO.N,MISO*
G04 #@! TA.AperFunction,ComponentPad*
G36*
G01*
X135428000Y-77230000D02*
X134228000Y-77230000D01*
G75*
G02*
X133978000Y-76980000I0J250000D01*
G01*
X133978000Y-75780000D01*
G75*
G02*
X134228000Y-75530000I250000J0D01*
G01*
X135428000Y-75530000D01*
G75*
G02*
X135678000Y-75780000I0J-250000D01*
G01*
X135678000Y-76980000D01*
G75*
G02*
X135428000Y-77230000I-250000J0D01*
G01*
G37*
G04 #@! TD.AperFunction*
D10*
G04 #@! TO.P,J3,3*
G04 #@! TO.N,SCK*
X137368000Y-76380000D03*
G04 #@! TO.P,J3,5*
G04 #@! TO.N,RST*
X139908000Y-76380000D03*
G04 #@! TO.P,J3,2*
G04 #@! TO.N,VBUS*
X134828000Y-73840000D03*
G04 #@! TO.P,J3,4*
G04 #@! TO.N,MOSI*
X137368000Y-73840000D03*
G04 #@! TO.P,J3,6*
G04 #@! TO.N,GND*
X139908000Y-73840000D03*
G04 #@! TD*
G04 #@! TO.P,C8,1*
G04 #@! TO.N,Net-(C8-Pad1)*
G04 #@! TA.AperFunction,SMDPad,CuDef*
G36*
G01*
X146897000Y-39354000D02*
X147397000Y-39354000D01*
G75*
G02*
X147622000Y-39579000I0J-225000D01*
G01*
X147622000Y-40029000D01*
G75*
G02*
X147397000Y-40254000I-225000J0D01*
G01*
X146897000Y-40254000D01*
G75*
G02*
X146672000Y-40029000I0J225000D01*
G01*
X146672000Y-39579000D01*
G75*
G02*
X146897000Y-39354000I225000J0D01*
G01*
G37*
G04 #@! TD.AperFunction*
G04 #@! TO.P,C8,2*
G04 #@! TO.N,GND*
G04 #@! TA.AperFunction,SMDPad,CuDef*
G36*
G01*
X146897000Y-40904000D02*
X147397000Y-40904000D01*
G75*
G02*
X147622000Y-41129000I0J-225000D01*
G01*
X147622000Y-41579000D01*
G75*
G02*
X147397000Y-41804000I-225000J0D01*
G01*
X146897000Y-41804000D01*
G75*
G02*
X146672000Y-41579000I0J225000D01*
G01*
X146672000Y-41129000D01*
G75*
G02*
X146897000Y-40904000I225000J0D01*
G01*
G37*
G04 #@! TD.AperFunction*
G04 #@! TD*
G04 #@! TO.P,C12,1*
G04 #@! TO.N,GND*
G04 #@! TA.AperFunction,SMDPad,CuDef*
G36*
G01*
X141995000Y-61906000D02*
X141995000Y-62406000D01*
G75*
G02*
X141770000Y-62631000I-225000J0D01*
G01*
X141320000Y-62631000D01*
G75*
G02*
X141095000Y-62406000I0J225000D01*
G01*
X141095000Y-61906000D01*
G75*
G02*
X141320000Y-61681000I225000J0D01*
G01*
X141770000Y-61681000D01*
G75*
G02*
X141995000Y-61906000I0J-225000D01*
G01*
G37*
G04 #@! TD.AperFunction*
G04 #@! TO.P,C12,2*
G04 #@! TO.N,VBUS*
G04 #@! TA.AperFunction,SMDPad,CuDef*
G36*
G01*
X140445000Y-61906000D02*
X140445000Y-62406000D01*
G75*
G02*
X140220000Y-62631000I-225000J0D01*
G01*
X139770000Y-62631000D01*
G75*
G02*
X139545000Y-62406000I0J225000D01*
G01*
X139545000Y-61906000D01*
G75*
G02*
X139770000Y-61681000I225000J0D01*
G01*
X140220000Y-61681000D01*
G75*
G02*
X140445000Y-61906000I0J-225000D01*
G01*
G37*
G04 #@! TD.AperFunction*
G04 #@! TD*
G04 #@! TO.P,R9,1*
G04 #@! TO.N,LED*
G04 #@! TA.AperFunction,SMDPad,CuDef*
G36*
G01*
X152342000Y-36482000D02*
X151792000Y-36482000D01*
G75*
G02*
X151592000Y-36282000I0J200000D01*
G01*
X151592000Y-35882000D01*
G75*
G02*
X151792000Y-35682000I200000J0D01*
G01*
X152342000Y-35682000D01*
G75*
G02*
X152542000Y-35882000I0J-200000D01*
G01*
X152542000Y-36282000D01*
G75*
G02*
X152342000Y-36482000I-200000J0D01*
G01*
G37*
G04 #@! TD.AperFunction*
G04 #@! TO.P,R9,2*
G04 #@! TO.N,Net-(D1-Pad2)*
G04 #@! TA.AperFunction,SMDPad,CuDef*
G36*
G01*
X152342000Y-34832000D02*
X151792000Y-34832000D01*
G75*
G02*
X151592000Y-34632000I0J200000D01*
G01*
X151592000Y-34232000D01*
G75*
G02*
X151792000Y-34032000I200000J0D01*
G01*
X152342000Y-34032000D01*
G75*
G02*
X152542000Y-34232000I0J-200000D01*
G01*
X152542000Y-34632000D01*
G75*
G02*
X152342000Y-34832000I-200000J0D01*
G01*
G37*
G04 #@! TD.AperFunction*
G04 #@! TD*
G04 #@! TO.P,C3,1*
G04 #@! TO.N,GND*
G04 #@! TA.AperFunction,SMDPad,CuDef*
G36*
G01*
X145858000Y-71444000D02*
X145858000Y-70494000D01*
G75*
G02*
X146108000Y-70244000I250000J0D01*
G01*
X146608000Y-70244000D01*
G75*
G02*
X146858000Y-70494000I0J-250000D01*
G01*
X146858000Y-71444000D01*
G75*
G02*
X146608000Y-71694000I-250000J0D01*
G01*
X146108000Y-71694000D01*
G75*
G02*
X145858000Y-71444000I0J250000D01*
G01*
G37*
G04 #@! TD.AperFunction*
G04 #@! TO.P,C3,2*
G04 #@! TO.N,VBUS*
G04 #@! TA.AperFunction,SMDPad,CuDef*
G36*
G01*
X147758000Y-71444000D02*
X147758000Y-70494000D01*
G75*
G02*
X148008000Y-70244000I250000J0D01*
G01*
X148508000Y-70244000D01*
G75*
G02*
X148758000Y-70494000I0J-250000D01*
G01*
X148758000Y-71444000D01*
G75*
G02*
X148508000Y-71694000I-250000J0D01*
G01*
X148008000Y-71694000D01*
G75*
G02*
X147758000Y-71444000I0J250000D01*
G01*
G37*
G04 #@! TD.AperFunction*
G04 #@! TD*
D11*
G04 #@! TO.P,U1,1*
G04 #@! TO.N,/Din-*
X150050000Y-73000000D03*
G04 #@! TO.P,U1,2*
G04 #@! TO.N,GND*
X151000000Y-73000000D03*
G04 #@! TO.P,U1,3*
G04 #@! TO.N,/Din+*
X151950000Y-73000000D03*
G04 #@! TO.P,U1,4*
G04 #@! TO.N,/Dout+*
X151950000Y-70800000D03*
G04 #@! TO.P,U1,6*
G04 #@! TO.N,/Dout-*
X150050000Y-70800000D03*
G04 #@! TO.P,U1,5*
G04 #@! TO.N,VBUS*
X151000000Y-70800000D03*
G04 #@! TD*
D12*
G04 #@! TO.P,U3,1*
G04 #@! TO.N,Net-(U3-Pad1)*
X151700000Y-58000000D03*
G04 #@! TO.P,U3,2*
G04 #@! TO.N,Net-(U3-Pad2)*
X151700000Y-57200000D03*
G04 #@! TO.P,U3,3*
G04 #@! TO.N,VBUS*
X151700000Y-56400000D03*
G04 #@! TO.P,U3,4*
G04 #@! TO.N,/D-*
X151700000Y-55600000D03*
G04 #@! TO.P,U3,5*
G04 #@! TO.N,/D+*
X151700000Y-54800000D03*
G04 #@! TO.P,U3,6*
G04 #@! TO.N,GND*
X151700000Y-54000000D03*
G04 #@! TO.P,U3,7*
G04 #@! TO.N,Net-(C9-Pad1)*
X151700000Y-53200000D03*
G04 #@! TO.P,U3,8*
G04 #@! TO.N,VBUS*
X151700000Y-52400000D03*
G04 #@! TO.P,U3,9*
G04 #@! TO.N,Net-(U3-Pad9)*
X151700000Y-51600000D03*
G04 #@! TO.P,U3,10*
G04 #@! TO.N,PB0*
X151700000Y-50800000D03*
G04 #@! TO.P,U3,11*
G04 #@! TO.N,SCK*
X151700000Y-50000000D03*
G04 #@! TO.P,U3,12*
G04 #@! TO.N,MOSI*
X151700000Y-49200000D03*
G04 #@! TO.P,U3,13*
G04 #@! TO.N,MISO*
X151700000Y-48400000D03*
G04 #@! TO.P,U3,14*
G04 #@! TO.N,Net-(U3-Pad14)*
X151700000Y-47600000D03*
G04 #@! TO.P,U3,15*
G04 #@! TO.N,LED*
X151700000Y-46800000D03*
G04 #@! TO.P,U3,16*
G04 #@! TO.N,GREEN+*
X151700000Y-46000000D03*
D13*
G04 #@! TO.P,U3,17*
G04 #@! TO.N,RED+*
X150000000Y-44300000D03*
G04 #@! TO.P,U3,18*
G04 #@! TO.N,Net-(U3-Pad18)*
X149200000Y-44300000D03*
G04 #@! TO.P,U3,19*
G04 #@! TO.N,Net-(U3-Pad19)*
X148400000Y-44300000D03*
G04 #@! TO.P,U3,20*
G04 #@! TO.N,RST*
X147600000Y-44300000D03*
G04 #@! TO.P,U3,21*
G04 #@! TO.N,VBUS*
X146800000Y-44300000D03*
G04 #@! TO.P,U3,22*
G04 #@! TO.N,GND*
X146000000Y-44300000D03*
G04 #@! TO.P,U3,23*
G04 #@! TO.N,Net-(C8-Pad1)*
X145200000Y-44300000D03*
G04 #@! TO.P,U3,24*
G04 #@! TO.N,Net-(C7-Pad1)*
X144400000Y-44300000D03*
G04 #@! TO.P,U3,25*
G04 #@! TO.N,Net-(U3-Pad25)*
X143600000Y-44300000D03*
G04 #@! TO.P,U3,26*
G04 #@! TO.N,Net-(U3-Pad26)*
X142800000Y-44300000D03*
G04 #@! TO.P,U3,27*
G04 #@! TO.N,Net-(U3-Pad27)*
X142000000Y-44300000D03*
G04 #@! TO.P,U3,28*
G04 #@! TO.N,Net-(J2-Pad4)*
X141200000Y-44300000D03*
G04 #@! TO.P,U3,29*
G04 #@! TO.N,Net-(J2-Pad5)*
X140400000Y-44300000D03*
G04 #@! TO.P,U3,30*
G04 #@! TO.N,Net-(J2-Pad6)*
X139600000Y-44300000D03*
G04 #@! TO.P,U3,31*
G04 #@! TO.N,Net-(J2-Pad7)*
X138800000Y-44300000D03*
G04 #@! TO.P,U3,32*
G04 #@! TO.N,Net-(J2-Pad8)*
X138000000Y-44300000D03*
D12*
G04 #@! TO.P,U3,33*
G04 #@! TO.N,PE0*
X136300000Y-46000000D03*
G04 #@! TO.P,U3,34*
G04 #@! TO.N,PE1*
X136300000Y-46800000D03*
G04 #@! TO.P,U3,35*
G04 #@! TO.N,Net-(J2-Pad11)*
X136300000Y-47600000D03*
G04 #@! TO.P,U3,36*
G04 #@! TO.N,Net-(J2-Pad12)*
X136300000Y-48400000D03*
G04 #@! TO.P,U3,37*
G04 #@! TO.N,Net-(J2-Pad13)*
X136300000Y-49200000D03*
G04 #@! TO.P,U3,38*
G04 #@! TO.N,Net-(J2-Pad14)*
X136300000Y-50000000D03*
G04 #@! TO.P,U3,39*
G04 #@! TO.N,Net-(J2-Pad15)*
X136300000Y-50800000D03*
G04 #@! TO.P,U3,40*
G04 #@! TO.N,Net-(J2-Pad16)*
X136300000Y-51600000D03*
G04 #@! TO.P,U3,41*
G04 #@! TO.N,Net-(J2-Pad17)*
X136300000Y-52400000D03*
G04 #@! TO.P,U3,42*
G04 #@! TO.N,Net-(J2-Pad18)*
X136300000Y-53200000D03*
G04 #@! TO.P,U3,43*
G04 #@! TO.N,Net-(R3-Pad1)*
X136300000Y-54000000D03*
G04 #@! TO.P,U3,44*
G04 #@! TO.N,Net-(J2-Pad19)*
X136300000Y-54800000D03*
G04 #@! TO.P,U3,45*
G04 #@! TO.N,Net-(J2-Pad20)*
X136300000Y-55600000D03*
G04 #@! TO.P,U3,46*
G04 #@! TO.N,Net-(J2-Pad21)*
X136300000Y-56400000D03*
G04 #@! TO.P,U3,47*
G04 #@! TO.N,Net-(J2-Pad22)*
X136300000Y-57200000D03*
G04 #@! TO.P,U3,48*
G04 #@! TO.N,Net-(J2-Pad23)*
X136300000Y-58000000D03*
D13*
G04 #@! TO.P,U3,49*
G04 #@! TO.N,Net-(J2-Pad24)*
X138000000Y-59700000D03*
G04 #@! TO.P,U3,50*
G04 #@! TO.N,Net-(J2-Pad25)*
X138800000Y-59700000D03*
G04 #@! TO.P,U3,51*
G04 #@! TO.N,Net-(J2-Pad26)*
X139600000Y-59700000D03*
G04 #@! TO.P,U3,52*
G04 #@! TO.N,VBUS*
X140400000Y-59700000D03*
G04 #@! TO.P,U3,53*
G04 #@! TO.N,GND*
X141200000Y-59700000D03*
G04 #@! TO.P,U3,54*
G04 #@! TO.N,PF7*
X142000000Y-59700000D03*
G04 #@! TO.P,U3,55*
G04 #@! TO.N,PF6*
X142800000Y-59700000D03*
G04 #@! TO.P,U3,56*
G04 #@! TO.N,PF5*
X143600000Y-59700000D03*
G04 #@! TO.P,U3,57*
G04 #@! TO.N,PF4*
X144400000Y-59700000D03*
G04 #@! TO.P,U3,58*
G04 #@! TO.N,Net-(U3-Pad58)*
X145200000Y-59700000D03*
G04 #@! TO.P,U3,59*
G04 #@! TO.N,Net-(U3-Pad59)*
X146000000Y-59700000D03*
G04 #@! TO.P,U3,60*
G04 #@! TO.N,Net-(U3-Pad60)*
X146800000Y-59700000D03*
G04 #@! TO.P,U3,61*
G04 #@! TO.N,Net-(U3-Pad61)*
X147600000Y-59700000D03*
G04 #@! TO.P,U3,62*
G04 #@! TO.N,Net-(U3-Pad62)*
X148400000Y-59700000D03*
G04 #@! TO.P,U3,63*
G04 #@! TO.N,GND*
X149200000Y-59700000D03*
G04 #@! TO.P,U3,64*
G04 #@! TO.N,VBUS*
X150000000Y-59700000D03*
G04 #@! TD*
G04 #@! TO.P,R1,1*
G04 #@! TO.N,/D+*
G04 #@! TA.AperFunction,SMDPad,CuDef*
G36*
G01*
X151571000Y-65948000D02*
X152121000Y-65948000D01*
G75*
G02*
X152321000Y-66148000I0J-200000D01*
G01*
X152321000Y-66548000D01*
G75*
G02*
X152121000Y-66748000I-200000J0D01*
G01*
X151571000Y-66748000D01*
G75*
G02*
X151371000Y-66548000I0J200000D01*
G01*
X151371000Y-66148000D01*
G75*
G02*
X151571000Y-65948000I200000J0D01*
G01*
G37*
G04 #@! TD.AperFunction*
G04 #@! TO.P,R1,2*
G04 #@! TO.N,/Dout+*
G04 #@! TA.AperFunction,SMDPad,CuDef*
G36*
G01*
X151571000Y-67598000D02*
X152121000Y-67598000D01*
G75*
G02*
X152321000Y-67798000I0J-200000D01*
G01*
X152321000Y-68198000D01*
G75*
G02*
X152121000Y-68398000I-200000J0D01*
G01*
X151571000Y-68398000D01*
G75*
G02*
X151371000Y-68198000I0J200000D01*
G01*
X151371000Y-67798000D01*
G75*
G02*
X151571000Y-67598000I200000J0D01*
G01*
G37*
G04 #@! TD.AperFunction*
G04 #@! TD*
D14*
G04 #@! TO.P,J2,1*
G04 #@! TO.N,GND*
X128300000Y-39000000D03*
G04 #@! TO.P,J2,2*
G04 #@! TO.N,Net-(J2-Pad2)*
X128300000Y-40000000D03*
G04 #@! TO.P,J2,3*
G04 #@! TO.N,Net-(J2-Pad3)*
X128300000Y-41000000D03*
G04 #@! TO.P,J2,4*
G04 #@! TO.N,Net-(J2-Pad4)*
X128300000Y-42000000D03*
G04 #@! TO.P,J2,5*
G04 #@! TO.N,Net-(J2-Pad5)*
X128300000Y-43000000D03*
G04 #@! TO.P,J2,6*
G04 #@! TO.N,Net-(J2-Pad6)*
X128300000Y-44000000D03*
G04 #@! TO.P,J2,7*
G04 #@! TO.N,Net-(J2-Pad7)*
X128300000Y-45000000D03*
G04 #@! TO.P,J2,8*
G04 #@! TO.N,Net-(J2-Pad8)*
X128300000Y-46000000D03*
G04 #@! TO.P,J2,9*
G04 #@! TO.N,PE0*
X128300000Y-47000000D03*
G04 #@! TO.P,J2,10*
G04 #@! TO.N,PE1*
X128300000Y-48000000D03*
G04 #@! TO.P,J2,11*
G04 #@! TO.N,Net-(J2-Pad11)*
X128300000Y-49000000D03*
G04 #@! TO.P,J2,12*
G04 #@! TO.N,Net-(J2-Pad12)*
X128300000Y-50000000D03*
G04 #@! TO.P,J2,13*
G04 #@! TO.N,Net-(J2-Pad13)*
X128300000Y-51000000D03*
G04 #@! TO.P,J2,14*
G04 #@! TO.N,Net-(J2-Pad14)*
X128300000Y-52000000D03*
G04 #@! TO.P,J2,15*
G04 #@! TO.N,Net-(J2-Pad15)*
X128300000Y-53000000D03*
G04 #@! TO.P,J2,16*
G04 #@! TO.N,Net-(J2-Pad16)*
X128300000Y-54000000D03*
G04 #@! TO.P,J2,17*
G04 #@! TO.N,Net-(J2-Pad17)*
X128300000Y-55000000D03*
G04 #@! TO.P,J2,18*
G04 #@! TO.N,Net-(J2-Pad18)*
X128300000Y-56000000D03*
G04 #@! TO.P,J2,19*
G04 #@! TO.N,Net-(J2-Pad19)*
X128300000Y-57000000D03*
G04 #@! TO.P,J2,20*
G04 #@! TO.N,Net-(J2-Pad20)*
X128300000Y-58000000D03*
G04 #@! TO.P,J2,21*
G04 #@! TO.N,Net-(J2-Pad21)*
X128300000Y-59000000D03*
G04 #@! TO.P,J2,22*
G04 #@! TO.N,Net-(J2-Pad22)*
X128300000Y-60000000D03*
G04 #@! TO.P,J2,23*
G04 #@! TO.N,Net-(J2-Pad23)*
X128300000Y-61000000D03*
G04 #@! TO.P,J2,24*
G04 #@! TO.N,Net-(J2-Pad24)*
X128300000Y-62000000D03*
G04 #@! TO.P,J2,25*
G04 #@! TO.N,Net-(J2-Pad25)*
X128300000Y-63000000D03*
G04 #@! TO.P,J2,26*
G04 #@! TO.N,Net-(J2-Pad26)*
X128300000Y-64000000D03*
G04 #@! TO.P,J2,27*
G04 #@! TO.N,PF7*
X128300000Y-65000000D03*
G04 #@! TO.P,J2,28*
G04 #@! TO.N,PF6*
X128300000Y-66000000D03*
G04 #@! TO.P,J2,29*
G04 #@! TO.N,PF5*
X128300000Y-67000000D03*
G04 #@! TO.P,J2,30*
G04 #@! TO.N,PF4*
X128300000Y-68000000D03*
D15*
G04 #@! TO.P,J2,MP*
G04 #@! TO.N,N/C*
X125500000Y-36010000D03*
X125500000Y-70990000D03*
G04 #@! TD*
G04 #@! TO.P,C7,2*
G04 #@! TO.N,GND*
G04 #@! TA.AperFunction,SMDPad,CuDef*
G36*
G01*
X141047000Y-39746000D02*
X140547000Y-39746000D01*
G75*
G02*
X140322000Y-39521000I0J225000D01*
G01*
X140322000Y-39071000D01*
G75*
G02*
X140547000Y-38846000I225000J0D01*
G01*
X141047000Y-38846000D01*
G75*
G02*
X141272000Y-39071000I0J-225000D01*
G01*
X141272000Y-39521000D01*
G75*
G02*
X141047000Y-39746000I-225000J0D01*
G01*
G37*
G04 #@! TD.AperFunction*
G04 #@! TO.P,C7,1*
G04 #@! TO.N,Net-(C7-Pad1)*
G04 #@! TA.AperFunction,SMDPad,CuDef*
G36*
G01*
X141047000Y-41296000D02*
X140547000Y-41296000D01*
G75*
G02*
X140322000Y-41071000I0J225000D01*
G01*
X140322000Y-40621000D01*
G75*
G02*
X140547000Y-40396000I225000J0D01*
G01*
X141047000Y-40396000D01*
G75*
G02*
X141272000Y-40621000I0J-225000D01*
G01*
X141272000Y-41071000D01*
G75*
G02*
X141047000Y-41296000I-225000J0D01*
G01*
G37*
G04 #@! TD.AperFunction*
G04 #@! TD*
G04 #@! TO.P,C9,1*
G04 #@! TO.N,Net-(C9-Pad1)*
G04 #@! TA.AperFunction,SMDPad,CuDef*
G36*
G01*
X154136000Y-51787000D02*
X154636000Y-51787000D01*
G75*
G02*
X154861000Y-52012000I0J-225000D01*
G01*
X154861000Y-52462000D01*
G75*
G02*
X154636000Y-52687000I-225000J0D01*
G01*
X154136000Y-52687000D01*
G75*
G02*
X153911000Y-52462000I0J225000D01*
G01*
X153911000Y-52012000D01*
G75*
G02*
X154136000Y-51787000I225000J0D01*
G01*
G37*
G04 #@! TD.AperFunction*
G04 #@! TO.P,C9,2*
G04 #@! TO.N,GND*
G04 #@! TA.AperFunction,SMDPad,CuDef*
G36*
G01*
X154136000Y-53337000D02*
X154636000Y-53337000D01*
G75*
G02*
X154861000Y-53562000I0J-225000D01*
G01*
X154861000Y-54012000D01*
G75*
G02*
X154636000Y-54237000I-225000J0D01*
G01*
X154136000Y-54237000D01*
G75*
G02*
X153911000Y-54012000I0J225000D01*
G01*
X153911000Y-53562000D01*
G75*
G02*
X154136000Y-53337000I225000J0D01*
G01*
G37*
G04 #@! TD.AperFunction*
G04 #@! TD*
G04 #@! TO.P,D1,1*
G04 #@! TO.N,GND*
G04 #@! TA.AperFunction,SMDPad,CuDef*
G36*
G01*
X154279500Y-36569500D02*
X153854500Y-36569500D01*
G75*
G02*
X153642000Y-36357000I0J212500D01*
G01*
X153642000Y-35557000D01*
G75*
G02*
X153854500Y-35344500I212500J0D01*
G01*
X154279500Y-35344500D01*
G75*
G02*
X154492000Y-35557000I0J-212500D01*
G01*
X154492000Y-36357000D01*
G75*
G02*
X154279500Y-36569500I-212500J0D01*
G01*
G37*
G04 #@! TD.AperFunction*
G04 #@! TO.P,D1,2*
G04 #@! TO.N,Net-(D1-Pad2)*
G04 #@! TA.AperFunction,SMDPad,CuDef*
G36*
G01*
X154279500Y-34944500D02*
X153854500Y-34944500D01*
G75*
G02*
X153642000Y-34732000I0J212500D01*
G01*
X153642000Y-33932000D01*
G75*
G02*
X153854500Y-33719500I212500J0D01*
G01*
X154279500Y-33719500D01*
G75*
G02*
X154492000Y-33932000I0J-212500D01*
G01*
X154492000Y-34732000D01*
G75*
G02*
X154279500Y-34944500I-212500J0D01*
G01*
G37*
G04 #@! TD.AperFunction*
G04 #@! TD*
D16*
G04 #@! TO.P,J1,6*
G04 #@! TO.N,GND*
X157300000Y-72210000D03*
X157300000Y-77690000D03*
D17*
X156550000Y-77910000D03*
X156550000Y-71960000D03*
D18*
X155250000Y-77810000D03*
X155230000Y-72060000D03*
D19*
G04 #@! TO.P,J1,1*
G04 #@! TO.N,VBUS*
X155350000Y-76260000D03*
G04 #@! TO.P,J1,2*
G04 #@! TO.N,/Din-*
X155350000Y-75610000D03*
G04 #@! TO.P,J1,3*
G04 #@! TO.N,/Din+*
X155350000Y-74960000D03*
G04 #@! TO.P,J1,4*
G04 #@! TO.N,Net-(J1-Pad4)*
X155350000Y-74310000D03*
G04 #@! TO.P,J1,5*
G04 #@! TO.N,GND*
X155350000Y-73660000D03*
D20*
G04 #@! TO.P,J1,6*
X155230000Y-77380000D03*
X155230000Y-72540000D03*
D21*
X158230000Y-77690000D03*
X158230000Y-72230000D03*
D22*
X158500000Y-75920000D03*
X158500000Y-74000000D03*
G04 #@! TD*
G04 #@! TO.P,R2,2*
G04 #@! TO.N,/Dout-*
G04 #@! TA.AperFunction,SMDPad,CuDef*
G36*
G01*
X149793000Y-67598000D02*
X150343000Y-67598000D01*
G75*
G02*
X150543000Y-67798000I0J-200000D01*
G01*
X150543000Y-68198000D01*
G75*
G02*
X150343000Y-68398000I-200000J0D01*
G01*
X149793000Y-68398000D01*
G75*
G02*
X149593000Y-68198000I0J200000D01*
G01*
X149593000Y-67798000D01*
G75*
G02*
X149793000Y-67598000I200000J0D01*
G01*
G37*
G04 #@! TD.AperFunction*
G04 #@! TO.P,R2,1*
G04 #@! TO.N,/D-*
G04 #@! TA.AperFunction,SMDPad,CuDef*
G36*
G01*
X149793000Y-65948000D02*
X150343000Y-65948000D01*
G75*
G02*
X150543000Y-66148000I0J-200000D01*
G01*
X150543000Y-66548000D01*
G75*
G02*
X150343000Y-66748000I-200000J0D01*
G01*
X149793000Y-66748000D01*
G75*
G02*
X149593000Y-66548000I0J200000D01*
G01*
X149593000Y-66148000D01*
G75*
G02*
X149793000Y-65948000I200000J0D01*
G01*
G37*
G04 #@! TD.AperFunction*
G04 #@! TD*
D23*
G04 #@! TO.P,SW1,1*
G04 #@! TO.N,GND*
X157500000Y-31910000D03*
G04 #@! TO.P,SW1,2*
G04 #@! TO.N,Net-(R10-Pad2)*
X157500000Y-41090000D03*
G04 #@! TD*
D24*
G04 #@! TO.P,Y1,1*
G04 #@! TO.N,Net-(C7-Pad1)*
X142808500Y-41162000D03*
G04 #@! TO.P,Y1,2*
G04 #@! TO.N,GND*
X145008500Y-41162000D03*
G04 #@! TO.P,Y1,3*
G04 #@! TO.N,Net-(C8-Pad1)*
X145008500Y-39462000D03*
G04 #@! TO.P,Y1,4*
G04 #@! TO.N,GND*
X142808500Y-39462000D03*
G04 #@! TD*
G04 #@! TO.P,R3,1*
G04 #@! TO.N,Net-(R3-Pad1)*
G04 #@! TA.AperFunction,SMDPad,CuDef*
G36*
G01*
X135025000Y-59725000D02*
X135025000Y-60275000D01*
G75*
G02*
X134825000Y-60475000I-200000J0D01*
G01*
X134425000Y-60475000D01*
G75*
G02*
X134225000Y-60275000I0J200000D01*
G01*
X134225000Y-59725000D01*
G75*
G02*
X134425000Y-59525000I200000J0D01*
G01*
X134825000Y-59525000D01*
G75*
G02*
X135025000Y-59725000I0J-200000D01*
G01*
G37*
G04 #@! TD.AperFunction*
G04 #@! TO.P,R3,2*
G04 #@! TO.N,GND*
G04 #@! TA.AperFunction,SMDPad,CuDef*
G36*
G01*
X133375000Y-59725000D02*
X133375000Y-60275000D01*
G75*
G02*
X133175000Y-60475000I-200000J0D01*
G01*
X132775000Y-60475000D01*
G75*
G02*
X132575000Y-60275000I0J200000D01*
G01*
X132575000Y-59725000D01*
G75*
G02*
X132775000Y-59525000I200000J0D01*
G01*
X133175000Y-59525000D01*
G75*
G02*
X133375000Y-59725000I0J-200000D01*
G01*
G37*
G04 #@! TD.AperFunction*
G04 #@! TD*
G04 #@! TO.P,R10,1*
G04 #@! TO.N,RST*
G04 #@! TA.AperFunction,SMDPad,CuDef*
G36*
G01*
X158075000Y-48200000D02*
X157525000Y-48200000D01*
G75*
G02*
X157325000Y-48000000I0J200000D01*
G01*
X157325000Y-47600000D01*
G75*
G02*
X157525000Y-47400000I200000J0D01*
G01*
X158075000Y-47400000D01*
G75*
G02*
X158275000Y-47600000I0J-200000D01*
G01*
X158275000Y-48000000D01*
G75*
G02*
X158075000Y-48200000I-200000J0D01*
G01*
G37*
G04 #@! TD.AperFunction*
G04 #@! TO.P,R10,2*
G04 #@! TO.N,Net-(R10-Pad2)*
G04 #@! TA.AperFunction,SMDPad,CuDef*
G36*
G01*
X158075000Y-46550000D02*
X157525000Y-46550000D01*
G75*
G02*
X157325000Y-46350000I0J200000D01*
G01*
X157325000Y-45950000D01*
G75*
G02*
X157525000Y-45750000I200000J0D01*
G01*
X158075000Y-45750000D01*
G75*
G02*
X158275000Y-45950000I0J-200000D01*
G01*
X158275000Y-46350000D01*
G75*
G02*
X158075000Y-46550000I-200000J0D01*
G01*
G37*
G04 #@! TD.AperFunction*
G04 #@! TD*
G04 #@! TO.P,C1,1*
G04 #@! TO.N,GND*
G04 #@! TA.AperFunction,SMDPad,CuDef*
G36*
G01*
X145858000Y-75444000D02*
X145858000Y-74494000D01*
G75*
G02*
X146108000Y-74244000I250000J0D01*
G01*
X146608000Y-74244000D01*
G75*
G02*
X146858000Y-74494000I0J-250000D01*
G01*
X146858000Y-75444000D01*
G75*
G02*
X146608000Y-75694000I-250000J0D01*
G01*
X146108000Y-75694000D01*
G75*
G02*
X145858000Y-75444000I0J250000D01*
G01*
G37*
G04 #@! TD.AperFunction*
G04 #@! TO.P,C1,2*
G04 #@! TO.N,VBUS*
G04 #@! TA.AperFunction,SMDPad,CuDef*
G36*
G01*
X147758000Y-75444000D02*
X147758000Y-74494000D01*
G75*
G02*
X148008000Y-74244000I250000J0D01*
G01*
X148508000Y-74244000D01*
G75*
G02*
X148758000Y-74494000I0J-250000D01*
G01*
X148758000Y-75444000D01*
G75*
G02*
X148508000Y-75694000I-250000J0D01*
G01*
X148008000Y-75694000D01*
G75*
G02*
X147758000Y-75444000I0J250000D01*
G01*
G37*
G04 #@! TD.AperFunction*
G04 #@! TD*
G04 #@! TO.P,C2,2*
G04 #@! TO.N,VBUS*
G04 #@! TA.AperFunction,SMDPad,CuDef*
G36*
G01*
X147758000Y-73444000D02*
X147758000Y-72494000D01*
G75*
G02*
X148008000Y-72244000I250000J0D01*
G01*
X148508000Y-72244000D01*
G75*
G02*
X148758000Y-72494000I0J-250000D01*
G01*
X148758000Y-73444000D01*
G75*
G02*
X148508000Y-73694000I-250000J0D01*
G01*
X148008000Y-73694000D01*
G75*
G02*
X147758000Y-73444000I0J250000D01*
G01*
G37*
G04 #@! TD.AperFunction*
G04 #@! TO.P,C2,1*
G04 #@! TO.N,GND*
G04 #@! TA.AperFunction,SMDPad,CuDef*
G36*
G01*
X145858000Y-73444000D02*
X145858000Y-72494000D01*
G75*
G02*
X146108000Y-72244000I250000J0D01*
G01*
X146608000Y-72244000D01*
G75*
G02*
X146858000Y-72494000I0J-250000D01*
G01*
X146858000Y-73444000D01*
G75*
G02*
X146608000Y-73694000I-250000J0D01*
G01*
X146108000Y-73694000D01*
G75*
G02*
X145858000Y-73444000I0J250000D01*
G01*
G37*
G04 #@! TD.AperFunction*
G04 #@! TD*
G04 #@! TO.P,R4,1*
G04 #@! TO.N,VBUS*
G04 #@! TA.AperFunction,SMDPad,CuDef*
G36*
G01*
X146467000Y-61881000D02*
X146467000Y-62431000D01*
G75*
G02*
X146267000Y-62631000I-200000J0D01*
G01*
X145867000Y-62631000D01*
G75*
G02*
X145667000Y-62431000I0J200000D01*
G01*
X145667000Y-61881000D01*
G75*
G02*
X145867000Y-61681000I200000J0D01*
G01*
X146267000Y-61681000D01*
G75*
G02*
X146467000Y-61881000I0J-200000D01*
G01*
G37*
G04 #@! TD.AperFunction*
G04 #@! TO.P,R4,2*
G04 #@! TO.N,PF4*
G04 #@! TA.AperFunction,SMDPad,CuDef*
G36*
G01*
X144817000Y-61881000D02*
X144817000Y-62431000D01*
G75*
G02*
X144617000Y-62631000I-200000J0D01*
G01*
X144217000Y-62631000D01*
G75*
G02*
X144017000Y-62431000I0J200000D01*
G01*
X144017000Y-61881000D01*
G75*
G02*
X144217000Y-61681000I200000J0D01*
G01*
X144617000Y-61681000D01*
G75*
G02*
X144817000Y-61881000I0J-200000D01*
G01*
G37*
G04 #@! TD.AperFunction*
G04 #@! TD*
G04 #@! TO.P,SW2,1*
G04 #@! TO.N,Net-(R10-Pad2)*
G04 #@! TA.AperFunction,ComponentPad*
G36*
G01*
X156125001Y-67600000D02*
X154874999Y-67600000D01*
G75*
G02*
X154625000Y-67350001I0J249999D01*
G01*
X154625000Y-66649999D01*
G75*
G02*
X154874999Y-66400000I249999J0D01*
G01*
X156125001Y-66400000D01*
G75*
G02*
X156375000Y-66649999I0J-249999D01*
G01*
X156375000Y-67350001D01*
G75*
G02*
X156125001Y-67600000I-249999J0D01*
G01*
G37*
G04 #@! TD.AperFunction*
D25*
G04 #@! TO.P,SW2,2*
G04 #@! TO.N,GND*
X155500000Y-65000000D03*
G04 #@! TD*
G04 #@! TO.P,C11,2*
G04 #@! TO.N,VBUS*
G04 #@! TA.AperFunction,SMDPad,CuDef*
G36*
G01*
X149845000Y-62406000D02*
X149845000Y-61906000D01*
G75*
G02*
X150070000Y-61681000I225000J0D01*
G01*
X150520000Y-61681000D01*
G75*
G02*
X150745000Y-61906000I0J-225000D01*
G01*
X150745000Y-62406000D01*
G75*
G02*
X150520000Y-62631000I-225000J0D01*
G01*
X150070000Y-62631000D01*
G75*
G02*
X149845000Y-62406000I0J225000D01*
G01*
G37*
G04 #@! TD.AperFunction*
G04 #@! TO.P,C11,1*
G04 #@! TO.N,GND*
G04 #@! TA.AperFunction,SMDPad,CuDef*
G36*
G01*
X148295000Y-62406000D02*
X148295000Y-61906000D01*
G75*
G02*
X148520000Y-61681000I225000J0D01*
G01*
X148970000Y-61681000D01*
G75*
G02*
X149195000Y-61906000I0J-225000D01*
G01*
X149195000Y-62406000D01*
G75*
G02*
X148970000Y-62631000I-225000J0D01*
G01*
X148520000Y-62631000D01*
G75*
G02*
X148295000Y-62406000I0J225000D01*
G01*
G37*
G04 #@! TD.AperFunction*
G04 #@! TD*
G04 #@! TO.P,C10,1*
G04 #@! TO.N,GND*
G04 #@! TA.AperFunction,SMDPad,CuDef*
G36*
G01*
X149048000Y-41804000D02*
X148548000Y-41804000D01*
G75*
G02*
X148323000Y-41579000I0J225000D01*
G01*
X148323000Y-41129000D01*
G75*
G02*
X148548000Y-40904000I225000J0D01*
G01*
X149048000Y-40904000D01*
G75*
G02*
X149273000Y-41129000I0J-225000D01*
G01*
X149273000Y-41579000D01*
G75*
G02*
X149048000Y-41804000I-225000J0D01*
G01*
G37*
G04 #@! TD.AperFunction*
G04 #@! TO.P,C10,2*
G04 #@! TO.N,VBUS*
G04 #@! TA.AperFunction,SMDPad,CuDef*
G36*
G01*
X149048000Y-40254000D02*
X148548000Y-40254000D01*
G75*
G02*
X148323000Y-40029000I0J225000D01*
G01*
X148323000Y-39579000D01*
G75*
G02*
X148548000Y-39354000I225000J0D01*
G01*
X149048000Y-39354000D01*
G75*
G02*
X149273000Y-39579000I0J-225000D01*
G01*
X149273000Y-40029000D01*
G75*
G02*
X149048000Y-40254000I-225000J0D01*
G01*
G37*
G04 #@! TD.AperFunction*
G04 #@! TD*
G04 #@! TO.P,C4,1*
G04 #@! TO.N,Net-(C4-Pad1)*
G04 #@! TA.AperFunction,SMDPad,CuDef*
G36*
G01*
X155955000Y-60882000D02*
X155955000Y-60382000D01*
G75*
G02*
X156180000Y-60157000I225000J0D01*
G01*
X156630000Y-60157000D01*
G75*
G02*
X156855000Y-60382000I0J-225000D01*
G01*
X156855000Y-60882000D01*
G75*
G02*
X156630000Y-61107000I-225000J0D01*
G01*
X156180000Y-61107000D01*
G75*
G02*
X155955000Y-60882000I0J225000D01*
G01*
G37*
G04 #@! TD.AperFunction*
G04 #@! TO.P,C4,2*
G04 #@! TO.N,Net-(C4-Pad2)*
G04 #@! TA.AperFunction,SMDPad,CuDef*
G36*
G01*
X157505000Y-60882000D02*
X157505000Y-60382000D01*
G75*
G02*
X157730000Y-60157000I225000J0D01*
G01*
X158180000Y-60157000D01*
G75*
G02*
X158405000Y-60382000I0J-225000D01*
G01*
X158405000Y-60882000D01*
G75*
G02*
X158180000Y-61107000I-225000J0D01*
G01*
X157730000Y-61107000D01*
G75*
G02*
X157505000Y-60882000I0J225000D01*
G01*
G37*
G04 #@! TD.AperFunction*
G04 #@! TD*
G04 #@! TO.P,C5,2*
G04 #@! TO.N,VBUS*
G04 #@! TA.AperFunction,SMDPad,CuDef*
G36*
G01*
X156414000Y-52687000D02*
X155914000Y-52687000D01*
G75*
G02*
X155689000Y-52462000I0J225000D01*
G01*
X155689000Y-52012000D01*
G75*
G02*
X155914000Y-51787000I225000J0D01*
G01*
X156414000Y-51787000D01*
G75*
G02*
X156639000Y-52012000I0J-225000D01*
G01*
X156639000Y-52462000D01*
G75*
G02*
X156414000Y-52687000I-225000J0D01*
G01*
G37*
G04 #@! TD.AperFunction*
G04 #@! TO.P,C5,1*
G04 #@! TO.N,GND*
G04 #@! TA.AperFunction,SMDPad,CuDef*
G36*
G01*
X156414000Y-54237000D02*
X155914000Y-54237000D01*
G75*
G02*
X155689000Y-54012000I0J225000D01*
G01*
X155689000Y-53562000D01*
G75*
G02*
X155914000Y-53337000I225000J0D01*
G01*
X156414000Y-53337000D01*
G75*
G02*
X156639000Y-53562000I0J-225000D01*
G01*
X156639000Y-54012000D01*
G75*
G02*
X156414000Y-54237000I-225000J0D01*
G01*
G37*
G04 #@! TD.AperFunction*
G04 #@! TD*
G04 #@! TO.P,C6,1*
G04 #@! TO.N,GND*
G04 #@! TA.AperFunction,SMDPad,CuDef*
G36*
G01*
X157938000Y-54237000D02*
X157438000Y-54237000D01*
G75*
G02*
X157213000Y-54012000I0J225000D01*
G01*
X157213000Y-53562000D01*
G75*
G02*
X157438000Y-53337000I225000J0D01*
G01*
X157938000Y-53337000D01*
G75*
G02*
X158163000Y-53562000I0J-225000D01*
G01*
X158163000Y-54012000D01*
G75*
G02*
X157938000Y-54237000I-225000J0D01*
G01*
G37*
G04 #@! TD.AperFunction*
G04 #@! TO.P,C6,2*
G04 #@! TO.N,-5V*
G04 #@! TA.AperFunction,SMDPad,CuDef*
G36*
G01*
X157938000Y-52687000D02*
X157438000Y-52687000D01*
G75*
G02*
X157213000Y-52462000I0J225000D01*
G01*
X157213000Y-52012000D01*
G75*
G02*
X157438000Y-51787000I225000J0D01*
G01*
X157938000Y-51787000D01*
G75*
G02*
X158163000Y-52012000I0J-225000D01*
G01*
X158163000Y-52462000D01*
G75*
G02*
X157938000Y-52687000I-225000J0D01*
G01*
G37*
G04 #@! TD.AperFunction*
G04 #@! TD*
D11*
G04 #@! TO.P,U2,1*
G04 #@! TO.N,-5V*
X157622000Y-56230000D03*
G04 #@! TO.P,U2,2*
G04 #@! TO.N,GND*
X156672000Y-56230000D03*
G04 #@! TO.P,U2,3*
G04 #@! TO.N,VBUS*
X155722000Y-56230000D03*
G04 #@! TO.P,U2,4*
G04 #@! TO.N,PB0*
X155722000Y-58430000D03*
G04 #@! TO.P,U2,6*
G04 #@! TO.N,Net-(C4-Pad2)*
X157622000Y-58430000D03*
G04 #@! TO.P,U2,5*
G04 #@! TO.N,Net-(C4-Pad1)*
X156672000Y-58430000D03*
G04 #@! TD*
D26*
G04 #@! TO.P,Q1,1*
G04 #@! TO.N,Net-(Q1-Pad1)*
X138384000Y-35486000D03*
G04 #@! TO.P,Q1,2*
G04 #@! TO.N,VBUS*
X136484000Y-35486000D03*
G04 #@! TO.P,Q1,3*
G04 #@! TO.N,Net-(Q1-Pad3)*
X137434000Y-37486000D03*
G04 #@! TD*
D27*
G04 #@! TO.P,Q2,3*
G04 #@! TO.N,GREEN-*
X133828000Y-40058000D03*
G04 #@! TO.P,Q2,2*
G04 #@! TO.N,-5V*
X135828000Y-39108000D03*
G04 #@! TO.P,Q2,1*
G04 #@! TO.N,Net-(Q2-Pad1)*
X135828000Y-41008000D03*
G04 #@! TD*
G04 #@! TO.P,R5,2*
G04 #@! TO.N,VBUS*
G04 #@! TA.AperFunction,SMDPad,CuDef*
G36*
G01*
X137070500Y-33750500D02*
X137070500Y-34300500D01*
G75*
G02*
X136870500Y-34500500I-200000J0D01*
G01*
X136470500Y-34500500D01*
G75*
G02*
X136270500Y-34300500I0J200000D01*
G01*
X136270500Y-33750500D01*
G75*
G02*
X136470500Y-33550500I200000J0D01*
G01*
X136870500Y-33550500D01*
G75*
G02*
X137070500Y-33750500I0J-200000D01*
G01*
G37*
G04 #@! TD.AperFunction*
G04 #@! TO.P,R5,1*
G04 #@! TO.N,Net-(Q1-Pad1)*
G04 #@! TA.AperFunction,SMDPad,CuDef*
G36*
G01*
X138720500Y-33750500D02*
X138720500Y-34300500D01*
G75*
G02*
X138520500Y-34500500I-200000J0D01*
G01*
X138120500Y-34500500D01*
G75*
G02*
X137920500Y-34300500I0J200000D01*
G01*
X137920500Y-33750500D01*
G75*
G02*
X138120500Y-33550500I200000J0D01*
G01*
X138520500Y-33550500D01*
G75*
G02*
X138720500Y-33750500I0J-200000D01*
G01*
G37*
G04 #@! TD.AperFunction*
G04 #@! TD*
G04 #@! TO.P,R6,1*
G04 #@! TO.N,Net-(Q1-Pad1)*
G04 #@! TA.AperFunction,SMDPad,CuDef*
G36*
G01*
X151380500Y-40483500D02*
X151930500Y-40483500D01*
G75*
G02*
X152130500Y-40683500I0J-200000D01*
G01*
X152130500Y-41083500D01*
G75*
G02*
X151930500Y-41283500I-200000J0D01*
G01*
X151380500Y-41283500D01*
G75*
G02*
X151180500Y-41083500I0J200000D01*
G01*
X151180500Y-40683500D01*
G75*
G02*
X151380500Y-40483500I200000J0D01*
G01*
G37*
G04 #@! TD.AperFunction*
G04 #@! TO.P,R6,2*
G04 #@! TO.N,GREEN+*
G04 #@! TA.AperFunction,SMDPad,CuDef*
G36*
G01*
X151380500Y-42133500D02*
X151930500Y-42133500D01*
G75*
G02*
X152130500Y-42333500I0J-200000D01*
G01*
X152130500Y-42733500D01*
G75*
G02*
X151930500Y-42933500I-200000J0D01*
G01*
X151380500Y-42933500D01*
G75*
G02*
X151180500Y-42733500I0J200000D01*
G01*
X151180500Y-42333500D01*
G75*
G02*
X151380500Y-42133500I200000J0D01*
G01*
G37*
G04 #@! TD.AperFunction*
G04 #@! TD*
G04 #@! TO.P,R7,2*
G04 #@! TO.N,Net-(Q1-Pad3)*
G04 #@! TA.AperFunction,SMDPad,CuDef*
G36*
G01*
X137897000Y-39633000D02*
X137347000Y-39633000D01*
G75*
G02*
X137147000Y-39433000I0J200000D01*
G01*
X137147000Y-39033000D01*
G75*
G02*
X137347000Y-38833000I200000J0D01*
G01*
X137897000Y-38833000D01*
G75*
G02*
X138097000Y-39033000I0J-200000D01*
G01*
X138097000Y-39433000D01*
G75*
G02*
X137897000Y-39633000I-200000J0D01*
G01*
G37*
G04 #@! TD.AperFunction*
G04 #@! TO.P,R7,1*
G04 #@! TO.N,Net-(Q2-Pad1)*
G04 #@! TA.AperFunction,SMDPad,CuDef*
G36*
G01*
X137897000Y-41283000D02*
X137347000Y-41283000D01*
G75*
G02*
X137147000Y-41083000I0J200000D01*
G01*
X137147000Y-40683000D01*
G75*
G02*
X137347000Y-40483000I200000J0D01*
G01*
X137897000Y-40483000D01*
G75*
G02*
X138097000Y-40683000I0J-200000D01*
G01*
X138097000Y-41083000D01*
G75*
G02*
X137897000Y-41283000I-200000J0D01*
G01*
G37*
G04 #@! TD.AperFunction*
G04 #@! TD*
G04 #@! TO.P,R8,1*
G04 #@! TO.N,-5V*
G04 #@! TA.AperFunction,SMDPad,CuDef*
G36*
G01*
X139421000Y-41283000D02*
X138871000Y-41283000D01*
G75*
G02*
X138671000Y-41083000I0J200000D01*
G01*
X138671000Y-40683000D01*
G75*
G02*
X138871000Y-40483000I200000J0D01*
G01*
X139421000Y-40483000D01*
G75*
G02*
X139621000Y-40683000I0J-200000D01*
G01*
X139621000Y-41083000D01*
G75*
G02*
X139421000Y-41283000I-200000J0D01*
G01*
G37*
G04 #@! TD.AperFunction*
G04 #@! TO.P,R8,2*
G04 #@! TO.N,Net-(Q1-Pad3)*
G04 #@! TA.AperFunction,SMDPad,CuDef*
G36*
G01*
X139421000Y-39633000D02*
X138871000Y-39633000D01*
G75*
G02*
X138671000Y-39433000I0J200000D01*
G01*
X138671000Y-39033000D01*
G75*
G02*
X138871000Y-38833000I200000J0D01*
G01*
X139421000Y-38833000D01*
G75*
G02*
X139621000Y-39033000I0J-200000D01*
G01*
X139621000Y-39433000D01*
G75*
G02*
X139421000Y-39633000I-200000J0D01*
G01*
G37*
G04 #@! TD.AperFunction*
G04 #@! TD*
G04 #@! TO.P,R11,2*
G04 #@! TO.N,Net-(J2-Pad3)*
G04 #@! TA.AperFunction,SMDPad,CuDef*
G36*
G01*
X126426000Y-33475000D02*
X126426000Y-32925000D01*
G75*
G02*
X126626000Y-32725000I200000J0D01*
G01*
X127026000Y-32725000D01*
G75*
G02*
X127226000Y-32925000I0J-200000D01*
G01*
X127226000Y-33475000D01*
G75*
G02*
X127026000Y-33675000I-200000J0D01*
G01*
X126626000Y-33675000D01*
G75*
G02*
X126426000Y-33475000I0J200000D01*
G01*
G37*
G04 #@! TD.AperFunction*
G04 #@! TO.P,R11,1*
G04 #@! TO.N,RED+*
G04 #@! TA.AperFunction,SMDPad,CuDef*
G36*
G01*
X124776000Y-33475000D02*
X124776000Y-32925000D01*
G75*
G02*
X124976000Y-32725000I200000J0D01*
G01*
X125376000Y-32725000D01*
G75*
G02*
X125576000Y-32925000I0J-200000D01*
G01*
X125576000Y-33475000D01*
G75*
G02*
X125376000Y-33675000I-200000J0D01*
G01*
X124976000Y-33675000D01*
G75*
G02*
X124776000Y-33475000I0J200000D01*
G01*
G37*
G04 #@! TD.AperFunction*
G04 #@! TD*
G04 #@! TO.P,R12,1*
G04 #@! TO.N,GREEN-*
G04 #@! TA.AperFunction,SMDPad,CuDef*
G36*
G01*
X124776000Y-31951000D02*
X124776000Y-31401000D01*
G75*
G02*
X124976000Y-31201000I200000J0D01*
G01*
X125376000Y-31201000D01*
G75*
G02*
X125576000Y-31401000I0J-200000D01*
G01*
X125576000Y-31951000D01*
G75*
G02*
X125376000Y-32151000I-200000J0D01*
G01*
X124976000Y-32151000D01*
G75*
G02*
X124776000Y-31951000I0J200000D01*
G01*
G37*
G04 #@! TD.AperFunction*
G04 #@! TO.P,R12,2*
G04 #@! TO.N,Net-(J2-Pad2)*
G04 #@! TA.AperFunction,SMDPad,CuDef*
G36*
G01*
X126426000Y-31951000D02*
X126426000Y-31401000D01*
G75*
G02*
X126626000Y-31201000I200000J0D01*
G01*
X127026000Y-31201000D01*
G75*
G02*
X127226000Y-31401000I0J-200000D01*
G01*
X127226000Y-31951000D01*
G75*
G02*
X127026000Y-32151000I-200000J0D01*
G01*
X126626000Y-32151000D01*
G75*
G02*
X126426000Y-31951000I0J200000D01*
G01*
G37*
G04 #@! TD.AperFunction*
G04 #@! TD*
D28*
G04 #@! TO.N,GND*
X141200000Y-57950000D03*
X149200000Y-57950000D03*
X124668000Y-39042000D03*
X157500000Y-36500000D03*
X154259000Y-37518000D03*
X156672000Y-57330000D03*
X131600000Y-60000000D03*
X145623000Y-42471000D03*
X140797000Y-38153000D03*
X146385000Y-76634000D03*
X140924000Y-72316000D03*
X146004000Y-45963500D03*
X150068000Y-54028000D03*
G04 #@! TO.N,LED*
X153116000Y-44122000D03*
X152100000Y-37518000D03*
G04 #@! TO.N,MISO*
X150068000Y-48417994D03*
X145974000Y-64686338D03*
G04 #@! TO.N,MOSI*
X150068000Y-49317997D03*
X146624000Y-65329603D03*
G04 #@! TO.N,SCK*
X150068000Y-50218000D03*
X147274000Y-65966000D03*
G04 #@! TO.N,RST*
X147591500Y-45963500D03*
X156354500Y-46852500D03*
X147274000Y-66982000D03*
G04 #@! TO.N,-5V*
X139146000Y-38026000D03*
X147528000Y-37518000D03*
G04 #@! TO.N,RED+*
X132796000Y-44884000D03*
X125938000Y-44884000D03*
G04 #@! TO.N,PB0*
X155719500Y-57330000D03*
X153167697Y-50771063D03*
G04 #@! TD*
D29*
G04 #@! TO.N,GND*
X146020000Y-44280000D02*
X146000000Y-44300000D01*
D30*
X158230000Y-73730000D02*
X158500000Y-74000000D01*
X158230000Y-72230000D02*
X158230000Y-73730000D01*
X158500000Y-77420000D02*
X158230000Y-77690000D01*
X158500000Y-75920000D02*
X158500000Y-77420000D01*
X141200000Y-59700000D02*
X141200000Y-57950000D01*
X149200000Y-57950000D02*
X149200000Y-59700000D01*
X155350000Y-72660000D02*
X155230000Y-72540000D01*
X155350000Y-73660000D02*
X155350000Y-72660000D01*
D31*
X154759999Y-72069999D02*
X155230000Y-72540000D01*
X151304999Y-72069999D02*
X154759999Y-72069999D01*
X151000000Y-72374998D02*
X151304999Y-72069999D01*
X151000000Y-73000000D02*
X151000000Y-72374998D01*
D30*
X146358000Y-74969000D02*
X146358000Y-72969000D01*
X146358000Y-72969000D02*
X146358000Y-70969000D01*
D31*
X124710000Y-39000000D02*
X124668000Y-39042000D01*
X128300000Y-39000000D02*
X124710000Y-39000000D01*
D29*
X154067000Y-37326000D02*
X154259000Y-37518000D01*
X154067000Y-35957000D02*
X154067000Y-37326000D01*
D31*
X157500000Y-36500000D02*
X157500000Y-31910000D01*
X156672000Y-54295000D02*
X156672000Y-56230000D01*
X156164000Y-53787000D02*
X156672000Y-54295000D01*
X156672000Y-54803000D02*
X156672000Y-56230000D01*
X157688000Y-53787000D02*
X156672000Y-54803000D01*
D29*
X156672000Y-57330000D02*
X156672000Y-56230000D01*
D31*
X149200000Y-61701000D02*
X148745000Y-62156000D01*
X149200000Y-59700000D02*
X149200000Y-61701000D01*
X141200000Y-61811000D02*
X141545000Y-62156000D01*
X141200000Y-59700000D02*
X141200000Y-61811000D01*
D30*
X154173000Y-54000000D02*
X151700000Y-54000000D01*
X154386000Y-53787000D02*
X154173000Y-54000000D01*
D29*
X131600000Y-60000000D02*
X132975000Y-60000000D01*
X145200500Y-41354000D02*
X145008500Y-41162000D01*
X147147000Y-41354000D02*
X145200500Y-41354000D01*
X148798000Y-42005780D02*
X148798000Y-41354000D01*
X148153791Y-42649989D02*
X148798000Y-42005780D01*
X146768891Y-42649989D02*
X148153791Y-42649989D01*
X146000000Y-43418880D02*
X146768891Y-42649989D01*
X146000000Y-44300000D02*
X146000000Y-43418880D01*
X146030000Y-42471000D02*
X147147000Y-41354000D01*
X145623000Y-42471000D02*
X146030000Y-42471000D01*
X142642500Y-39296000D02*
X142808500Y-39462000D01*
X140797000Y-39296000D02*
X142642500Y-39296000D01*
X140797000Y-38153000D02*
X140797000Y-39296000D01*
X146358000Y-76607000D02*
X146385000Y-76634000D01*
X146358000Y-74969000D02*
X146358000Y-76607000D01*
X140924000Y-72824000D02*
X139908000Y-73840000D01*
X140924000Y-72316000D02*
X140924000Y-72824000D01*
X146000000Y-45959500D02*
X146004000Y-45963500D01*
X146000000Y-44300000D02*
X146000000Y-45959500D01*
X150096000Y-54000000D02*
X150068000Y-54028000D01*
X151700000Y-54000000D02*
X150096000Y-54000000D01*
G04 #@! TO.N,Net-(D1-Pad2)*
X153967000Y-34432000D02*
X154067000Y-34332000D01*
X152067000Y-34432000D02*
X153967000Y-34432000D01*
G04 #@! TO.N,LED*
X152017000Y-36132000D02*
X152067000Y-36082000D01*
X153116000Y-46334000D02*
X153116000Y-44122000D01*
X152650000Y-46800000D02*
X153116000Y-46334000D01*
X151700000Y-46800000D02*
X152650000Y-46800000D01*
X152100000Y-36115000D02*
X152067000Y-36082000D01*
X152100000Y-37518000D02*
X152100000Y-36115000D01*
G04 #@! TO.N,MISO*
X150085994Y-48400000D02*
X150068000Y-48417994D01*
X151700000Y-48400000D02*
X150085994Y-48400000D01*
X135978001Y-73527997D02*
X136815999Y-72689999D01*
X135978001Y-75229999D02*
X135978001Y-73527997D01*
X134828000Y-76380000D02*
X135978001Y-75229999D01*
X136815999Y-72689999D02*
X138148604Y-72689999D01*
X145974000Y-64864603D02*
X145974000Y-64686338D01*
X138148604Y-72689999D02*
X145974000Y-64864603D01*
G04 #@! TO.N,MOSI*
X151700000Y-49200000D02*
X150185997Y-49200000D01*
X150185997Y-49200000D02*
X150068000Y-49317997D01*
X137564301Y-73840000D02*
X138352313Y-73051989D01*
X137368000Y-73840000D02*
X137564301Y-73840000D01*
X146074699Y-65329603D02*
X146624000Y-65329603D01*
X138352313Y-73051989D02*
X146074699Y-65329603D01*
G04 #@! TO.N,SCK*
X150286000Y-50000000D02*
X150068000Y-50218000D01*
X151700000Y-50000000D02*
X150286000Y-50000000D01*
X138518001Y-75229999D02*
X137368000Y-76380000D01*
X138518001Y-73451999D02*
X138518001Y-75229999D01*
X145654001Y-66315999D02*
X138518001Y-73451999D01*
X146924001Y-66315999D02*
X145654001Y-66315999D01*
X147274000Y-65966000D02*
X146924001Y-66315999D01*
G04 #@! TO.N,RST*
X147600000Y-45955000D02*
X147591500Y-45963500D01*
X147600000Y-44300000D02*
X147600000Y-45955000D01*
X156852500Y-46852500D02*
X157800000Y-47800000D01*
X156354500Y-46852500D02*
X156852500Y-46852500D01*
X141574001Y-74713999D02*
X141574001Y-70961697D01*
X139908000Y-76380000D02*
X141574001Y-74713999D01*
X145553698Y-66982000D02*
X147274000Y-66982000D01*
X141574001Y-70961697D02*
X145553698Y-66982000D01*
D31*
G04 #@! TO.N,Net-(C4-Pad1)*
X156672000Y-60365000D02*
X156405000Y-60632000D01*
X156672000Y-58430000D02*
X156672000Y-60365000D01*
D29*
G04 #@! TO.N,PE0*
X128300000Y-47000000D02*
X130000000Y-47000000D01*
X131000000Y-46000000D02*
X136300000Y-46000000D01*
X130000000Y-47000000D02*
X131000000Y-46000000D01*
G04 #@! TO.N,PE1*
X128300000Y-48000000D02*
X130000000Y-48000000D01*
X131200000Y-46800000D02*
X136300000Y-46800000D01*
X130000000Y-48000000D02*
X131200000Y-46800000D01*
G04 #@! TO.N,PF7*
X142069110Y-59769110D02*
X142000000Y-59700000D01*
X142295010Y-62623468D02*
X141987468Y-62931010D01*
X141987468Y-62931010D02*
X132809010Y-62931010D01*
X142295010Y-61688532D02*
X142295010Y-62623468D01*
X142000000Y-61393522D02*
X142295010Y-61688532D01*
X142000000Y-59700000D02*
X142000000Y-61393522D01*
X130740020Y-65000000D02*
X128300000Y-65000000D01*
X132809010Y-62931010D02*
X130740020Y-65000000D01*
G04 #@! TO.N,PF6*
X142750000Y-59750000D02*
X142800000Y-59700000D01*
X142673488Y-59826512D02*
X142800000Y-59700000D01*
X142800000Y-62684176D02*
X142153157Y-63331020D01*
X142800000Y-59700000D02*
X142800000Y-62684176D01*
X142153157Y-63331020D02*
X132974698Y-63331020D01*
X130305718Y-66000000D02*
X128300000Y-66000000D01*
X132974698Y-63331020D02*
X130305718Y-66000000D01*
G04 #@! TO.N,PF5*
X143590379Y-59709621D02*
X143600000Y-59700000D01*
X143600000Y-62449875D02*
X142318846Y-63731030D01*
X143600000Y-59700000D02*
X143600000Y-62449875D01*
X142318846Y-63731030D02*
X133140386Y-63731030D01*
X129871417Y-67000000D02*
X128300000Y-67000000D01*
X133140386Y-63731030D02*
X129871417Y-67000000D01*
G04 #@! TO.N,PF4*
X144500000Y-59800000D02*
X144400000Y-59700000D01*
X129145002Y-68000000D02*
X128300000Y-68000000D01*
X144350000Y-59750000D02*
X144400000Y-59700000D01*
X144400000Y-59700000D02*
X144400000Y-61631000D01*
X144400000Y-62215575D02*
X142484535Y-64131040D01*
X144400000Y-59700000D02*
X144400000Y-62215575D01*
X142484535Y-64131040D02*
X133306075Y-64131040D01*
X129437115Y-68000000D02*
X128300000Y-68000000D01*
X133306075Y-64131040D02*
X129437115Y-68000000D01*
D30*
G04 #@! TO.N,VBUS*
X148258000Y-74969000D02*
X148258000Y-72969000D01*
X148258000Y-72969000D02*
X148258000Y-70969000D01*
D29*
X150899999Y-71630001D02*
X151000000Y-71530000D01*
X150024997Y-71630001D02*
X150899999Y-71630001D01*
X151000000Y-71530000D02*
X151000000Y-70800000D01*
X149424999Y-72229999D02*
X150024997Y-71630001D01*
X150295000Y-62455000D02*
X150295000Y-62000000D01*
X150295000Y-62000000D02*
X150732000Y-62000000D01*
X152650000Y-56400000D02*
X151700000Y-56400000D01*
X152750001Y-56500001D02*
X152650000Y-56400000D01*
X152750001Y-59981999D02*
X152750001Y-56500001D01*
X150732000Y-62000000D02*
X152750001Y-59981999D01*
X149424999Y-73770001D02*
X149424999Y-72229999D01*
X151914998Y-76260000D02*
X149424999Y-73770001D01*
X155350000Y-76260000D02*
X151914998Y-76260000D01*
D31*
X150000000Y-61861000D02*
X150295000Y-62156000D01*
X150000000Y-59700000D02*
X150000000Y-61861000D01*
X140400000Y-61751000D02*
X139995000Y-62156000D01*
X140400000Y-59700000D02*
X140400000Y-61751000D01*
D29*
X155388990Y-53012010D02*
X156164000Y-52237000D01*
X155388990Y-55896990D02*
X155388990Y-53012010D01*
X155722000Y-56230000D02*
X155388990Y-55896990D01*
X152465002Y-52400000D02*
X151700000Y-52400000D01*
X153378012Y-51486990D02*
X152465002Y-52400000D01*
X155413990Y-51486990D02*
X153378012Y-51486990D01*
X156164000Y-52237000D02*
X155413990Y-51486990D01*
X150000000Y-57787998D02*
X150000000Y-59700000D01*
X140887999Y-57299999D02*
X149512001Y-57299999D01*
X140400000Y-57787998D02*
X140887999Y-57299999D01*
X149512001Y-57299999D02*
X150000000Y-57787998D01*
X140400000Y-59700000D02*
X140400000Y-57787998D01*
X136670500Y-35299500D02*
X136484000Y-35486000D01*
X136670500Y-34025500D02*
X136670500Y-35299500D01*
X149585888Y-67297990D02*
X149292990Y-67590888D01*
X149292990Y-67590888D02*
X149292990Y-69889990D01*
X150550112Y-67297990D02*
X149585888Y-67297990D01*
X151000000Y-67747878D02*
X150550112Y-67297990D01*
X151000000Y-70800000D02*
X151000000Y-67747878D01*
X148258000Y-70924980D02*
X148258000Y-70969000D01*
X149292990Y-69889990D02*
X148258000Y-70924980D01*
D31*
X148258000Y-64193000D02*
X150295000Y-62156000D01*
X148258000Y-70969000D02*
X148258000Y-64193000D01*
D29*
X153378012Y-51486990D02*
X153413772Y-51486990D01*
X146221000Y-62156000D02*
X148258000Y-64193000D01*
X146067000Y-62156000D02*
X146221000Y-62156000D01*
X149417999Y-53715999D02*
X150733998Y-52400000D01*
X149417999Y-54340001D02*
X149417999Y-53715999D01*
X150000000Y-54922002D02*
X149417999Y-54340001D01*
X150733998Y-52400000D02*
X151700000Y-52400000D01*
X150000000Y-59700000D02*
X150000000Y-54922002D01*
X133677990Y-74990010D02*
X133677990Y-77207824D01*
X133677990Y-77207824D02*
X134000176Y-77530010D01*
X134828000Y-73840000D02*
X133677990Y-74990010D01*
X148258000Y-75723002D02*
X148258000Y-74969000D01*
X146450992Y-77530010D02*
X148258000Y-75723002D01*
X134000176Y-77530010D02*
X146450992Y-77530010D01*
D31*
X149673010Y-41837890D02*
X148360901Y-43149999D01*
X149673010Y-40870110D02*
X149673010Y-41837890D01*
X148798000Y-39995100D02*
X149673010Y-40870110D01*
X148798000Y-39804000D02*
X148798000Y-39995100D01*
X146800000Y-43354998D02*
X146800000Y-44300000D01*
X147004999Y-43149999D02*
X146800000Y-43354998D01*
X148360901Y-43149999D02*
X147004999Y-43149999D01*
D29*
X150415001Y-43149999D02*
X148360901Y-43149999D01*
X150576000Y-43310998D02*
X150415001Y-43149999D01*
X150576000Y-45289002D02*
X150576000Y-43310998D01*
X149417999Y-46447003D02*
X150576000Y-45289002D01*
X149417999Y-51067999D02*
X149417999Y-46447003D01*
X150750000Y-52400000D02*
X149417999Y-51067999D01*
X151700000Y-52400000D02*
X150750000Y-52400000D01*
X136824002Y-35486000D02*
X136484000Y-35486000D01*
X138714001Y-37375999D02*
X136824002Y-35486000D01*
X146369999Y-37375999D02*
X138714001Y-37375999D01*
X148798000Y-39804000D02*
X146369999Y-37375999D01*
G04 #@! TO.N,Net-(C8-Pad1)*
X145200000Y-44300000D02*
X145200000Y-43193502D01*
X145200000Y-43193502D02*
X144008499Y-42002001D01*
X144008499Y-40321999D02*
X144868498Y-39462000D01*
X144008499Y-42002001D02*
X144008499Y-40321999D01*
X144868498Y-39462000D02*
X145008500Y-39462000D01*
X145350500Y-39804000D02*
X145008500Y-39462000D01*
X147147000Y-39804000D02*
X145350500Y-39804000D01*
D30*
G04 #@! TO.N,Net-(C9-Pad1)*
X153423000Y-53200000D02*
X154386000Y-52237000D01*
X151700000Y-53200000D02*
X153423000Y-53200000D01*
D29*
G04 #@! TO.N,/Din-*
X154112499Y-75610000D02*
X155350000Y-75610000D01*
X152560000Y-75510000D02*
X154012499Y-75510000D01*
X150880001Y-73830001D02*
X152560000Y-75510000D01*
X154012499Y-75510000D02*
X154112499Y-75610000D01*
X150434999Y-73830001D02*
X150880001Y-73830001D01*
X150374999Y-73770001D02*
X150434999Y-73830001D01*
X150374999Y-73324999D02*
X150374999Y-73770001D01*
X150050000Y-73000000D02*
X150374999Y-73324999D01*
G04 #@! TO.N,/Din+*
X154112499Y-74960000D02*
X155350000Y-74960000D01*
X154012499Y-75060000D02*
X154112499Y-74960000D01*
X152746397Y-75060000D02*
X154012499Y-75060000D01*
X151950000Y-74263603D02*
X152746397Y-75060000D01*
X151950000Y-73000000D02*
X151950000Y-74263603D01*
G04 #@! TO.N,/Dout+*
X151950000Y-68102000D02*
X151846000Y-67998000D01*
X151950000Y-70800000D02*
X151950000Y-68102000D01*
G04 #@! TO.N,/Dout-*
X150050000Y-68016000D02*
X150068000Y-67998000D01*
X150050000Y-70800000D02*
X150050000Y-68016000D01*
G04 #@! TO.N,-5V*
X158463010Y-53012010D02*
X157688000Y-52237000D01*
X158463010Y-55388990D02*
X158463010Y-53012010D01*
X157622000Y-56230000D02*
X158463010Y-55388990D01*
X138196010Y-39933010D02*
X139146000Y-40883000D01*
X136653010Y-39933010D02*
X138196010Y-39933010D01*
X135828000Y-39108000D02*
X136653010Y-39933010D01*
X139921010Y-40107990D02*
X139921010Y-38801010D01*
X139921010Y-38801010D02*
X139146000Y-38026000D01*
X139146000Y-40883000D02*
X139921010Y-40107990D01*
X151887632Y-41583510D02*
X153878000Y-43573878D01*
X151173388Y-41583510D02*
X151887632Y-41583510D01*
X150880490Y-41290612D02*
X151173388Y-41583510D01*
X150880490Y-40375516D02*
X150880490Y-41290612D01*
X148022974Y-37518000D02*
X150880490Y-40375516D01*
X147528000Y-37518000D02*
X148022974Y-37518000D01*
X153878000Y-48427000D02*
X157688000Y-52237000D01*
X153878000Y-43573878D02*
X153878000Y-48427000D01*
G04 #@! TO.N,RED+*
X150000000Y-44300000D02*
X150000000Y-45250000D01*
X148636499Y-46613501D02*
X138748499Y-46613501D01*
X137018998Y-44884000D02*
X132796000Y-44884000D01*
X138748499Y-46613501D02*
X137018998Y-44884000D01*
X150000000Y-45250000D02*
X148636499Y-46613501D01*
X124629998Y-33200000D02*
X125176000Y-33200000D01*
X123399999Y-34429999D02*
X124629998Y-33200000D01*
X123399999Y-42345999D02*
X123399999Y-34429999D01*
X125938000Y-44884000D02*
X123399999Y-42345999D01*
G04 #@! TO.N,GREEN-*
X125951010Y-30900990D02*
X125176000Y-31676000D01*
X131702690Y-30900990D02*
X125951010Y-30900990D01*
X134600011Y-33798311D02*
X131702690Y-30900990D01*
X134600011Y-39935989D02*
X134600011Y-33798311D01*
X134478000Y-40058000D02*
X134600011Y-39935989D01*
X133828000Y-40058000D02*
X134478000Y-40058000D01*
G04 #@! TO.N,/D+*
X151846000Y-66348000D02*
X151182000Y-65684000D01*
X152825001Y-54800000D02*
X151700000Y-54800000D01*
X154611000Y-60725200D02*
X154611000Y-55712800D01*
X154611000Y-55712800D02*
X153873200Y-54975000D01*
X151182000Y-65684000D02*
X151182000Y-64154200D01*
X153873200Y-54975000D02*
X153000001Y-54975000D01*
X153000001Y-54975000D02*
X152825001Y-54800000D01*
X151182000Y-64154200D02*
X154611000Y-60725200D01*
G04 #@! TO.N,/D-*
X153000001Y-55425000D02*
X152825001Y-55600000D01*
X153686800Y-55425000D02*
X153000001Y-55425000D01*
X152825001Y-55600000D02*
X151700000Y-55600000D01*
X154161000Y-55899200D02*
X153686800Y-55425000D01*
X150068000Y-66348000D02*
X150732000Y-65684000D01*
X150732000Y-65684000D02*
X150732000Y-63967800D01*
X150732000Y-63967800D02*
X154161000Y-60538800D01*
X154161000Y-60538800D02*
X154161000Y-55899200D01*
G04 #@! TO.N,Net-(Q1-Pad1)*
X138320500Y-35422500D02*
X138384000Y-35486000D01*
X138320500Y-34025500D02*
X138320500Y-35422500D01*
X138384000Y-35486000D02*
X139704490Y-36806490D01*
X147924492Y-36806490D02*
X151655500Y-40537498D01*
X151655500Y-40537498D02*
X151655500Y-40883500D01*
X139704490Y-36806490D02*
X147924492Y-36806490D01*
G04 #@! TO.N,Net-(Q1-Pad3)*
X137434000Y-39045000D02*
X137622000Y-39233000D01*
X137434000Y-37486000D02*
X137434000Y-39045000D01*
X137622000Y-39233000D02*
X139400000Y-39233000D01*
G04 #@! TO.N,Net-(Q2-Pad1)*
X135953000Y-40883000D02*
X135828000Y-41008000D01*
X137622000Y-40883000D02*
X135953000Y-40883000D01*
G04 #@! TO.N,GREEN+*
X151700000Y-42578000D02*
X151655500Y-42533500D01*
X151700000Y-46000000D02*
X151700000Y-42578000D01*
G04 #@! TO.N,PB0*
X155722000Y-57332500D02*
X155719500Y-57330000D01*
X155722000Y-58430000D02*
X155722000Y-57332500D01*
X151728937Y-50771063D02*
X151700000Y-50800000D01*
X153167697Y-50771063D02*
X151728937Y-50771063D01*
D31*
G04 #@! TO.N,Net-(C4-Pad2)*
X157622000Y-60299000D02*
X157955000Y-60632000D01*
X157622000Y-58430000D02*
X157622000Y-60299000D01*
D29*
G04 #@! TO.N,Net-(C7-Pad1)*
X142808500Y-41758500D02*
X142808500Y-41162000D01*
X144400000Y-43350000D02*
X142808500Y-41758500D01*
X144400000Y-44300000D02*
X144400000Y-43350000D01*
X142492500Y-40846000D02*
X142808500Y-41162000D01*
X140797000Y-40846000D02*
X142492500Y-40846000D01*
G04 #@! TO.N,Net-(J2-Pad4)*
X128349969Y-42049969D02*
X128300000Y-42000000D01*
X139899969Y-42049969D02*
X128349969Y-42049969D01*
X141200000Y-43350000D02*
X139899969Y-42049969D01*
X141200000Y-44300000D02*
X141200000Y-43350000D01*
G04 #@! TO.N,Net-(J2-Pad5)*
X139499979Y-42449979D02*
X140400000Y-43350000D01*
X130997927Y-42449979D02*
X139499979Y-42449979D01*
X130447907Y-43000000D02*
X130997927Y-42449979D01*
X140400000Y-43350000D02*
X140400000Y-44300000D01*
X128300000Y-43000000D02*
X130447907Y-43000000D01*
G04 #@! TO.N,Net-(J2-Pad6)*
X139099989Y-42849989D02*
X139600000Y-43350000D01*
X131163616Y-42849989D02*
X139099989Y-42849989D01*
X139600000Y-43350000D02*
X139600000Y-44300000D01*
X130013606Y-44000000D02*
X131163616Y-42849989D01*
X128300000Y-44000000D02*
X130013606Y-44000000D01*
G04 #@! TO.N,Net-(J2-Pad7)*
X138800000Y-43534998D02*
X138800000Y-44300000D01*
X131329305Y-43249999D02*
X138515001Y-43249999D01*
X138515001Y-43249999D02*
X138800000Y-43534998D01*
X129579304Y-45000000D02*
X131329305Y-43249999D01*
X128300000Y-45000000D02*
X129579304Y-45000000D01*
G04 #@! TO.N,Net-(J2-Pad8)*
X129145002Y-46000000D02*
X128300000Y-46000000D01*
X137850009Y-43650009D02*
X131494993Y-43650009D01*
X138000000Y-43800000D02*
X137850009Y-43650009D01*
X131494993Y-43650009D02*
X129145002Y-46000000D01*
X138000000Y-44300000D02*
X138000000Y-43800000D01*
G04 #@! TO.N,Net-(J2-Pad11)*
X128300000Y-49000000D02*
X130000000Y-49000000D01*
X131400000Y-47600000D02*
X136300000Y-47600000D01*
X130000000Y-49000000D02*
X131400000Y-47600000D01*
G04 #@! TO.N,Net-(J2-Pad12)*
X128300000Y-50000000D02*
X130000000Y-50000000D01*
X130000000Y-50000000D02*
X131600000Y-48400000D01*
X131600000Y-48400000D02*
X136300000Y-48400000D01*
G04 #@! TO.N,Net-(J2-Pad13)*
X128300000Y-51000000D02*
X130000000Y-51000000D01*
X131800000Y-49200000D02*
X136300000Y-49200000D01*
X130000000Y-51000000D02*
X131800000Y-49200000D01*
G04 #@! TO.N,Net-(J2-Pad14)*
X128300000Y-52000000D02*
X130000000Y-52000000D01*
X132000000Y-50000000D02*
X136300000Y-50000000D01*
X130000000Y-52000000D02*
X132000000Y-50000000D01*
G04 #@! TO.N,Net-(J2-Pad15)*
X128300000Y-53000000D02*
X130000000Y-53000000D01*
X132200000Y-50800000D02*
X136300000Y-50800000D01*
X130000000Y-53000000D02*
X132200000Y-50800000D01*
G04 #@! TO.N,Net-(J2-Pad16)*
X128300000Y-54000000D02*
X130000000Y-54000000D01*
X132400000Y-51600000D02*
X136300000Y-51600000D01*
X130000000Y-54000000D02*
X132400000Y-51600000D01*
G04 #@! TO.N,Net-(J2-Pad17)*
X128300000Y-55000000D02*
X130000000Y-55000000D01*
X132600000Y-52400000D02*
X136300000Y-52400000D01*
X130000000Y-55000000D02*
X132600000Y-52400000D01*
G04 #@! TO.N,Net-(J2-Pad18)*
X128300000Y-56000000D02*
X130000000Y-56000000D01*
X132800000Y-53200000D02*
X136300000Y-53200000D01*
X130000000Y-56000000D02*
X132800000Y-53200000D01*
G04 #@! TO.N,Net-(J2-Pad19)*
X128300000Y-57000000D02*
X130000000Y-57000000D01*
X132200000Y-54800000D02*
X136300000Y-54800000D01*
X130000000Y-57000000D02*
X132200000Y-54800000D01*
G04 #@! TO.N,Net-(J2-Pad20)*
X128300000Y-58000000D02*
X130000000Y-58000000D01*
X132400000Y-55600000D02*
X136300000Y-55600000D01*
X130000000Y-58000000D02*
X132400000Y-55600000D01*
G04 #@! TO.N,Net-(J2-Pad21)*
X128300000Y-59000000D02*
X130000000Y-59000000D01*
X132600000Y-56400000D02*
X136300000Y-56400000D01*
X130000000Y-59000000D02*
X132600000Y-56400000D01*
G04 #@! TO.N,Net-(J2-Pad22)*
X128300000Y-60000000D02*
X130000000Y-60000000D01*
X132800000Y-57200000D02*
X136300000Y-57200000D01*
X130000000Y-60000000D02*
X132800000Y-57200000D01*
G04 #@! TO.N,Net-(J2-Pad23)*
X135442878Y-58000000D02*
X136300000Y-58000000D01*
X133924990Y-59517888D02*
X135442878Y-58000000D01*
X133924990Y-60232132D02*
X133924990Y-59517888D01*
X133157122Y-61000000D02*
X133924990Y-60232132D01*
X128300000Y-61000000D02*
X133157122Y-61000000D01*
G04 #@! TO.N,Net-(J2-Pad24)*
X132042923Y-62000000D02*
X128300000Y-62000000D01*
X132311943Y-61730980D02*
X132042923Y-62000000D01*
X137669020Y-61730980D02*
X132311943Y-61730980D01*
X138000000Y-61400000D02*
X137669020Y-61730980D01*
X138000000Y-59700000D02*
X138000000Y-61400000D01*
G04 #@! TO.N,Net-(J2-Pad25)*
X131608622Y-63000000D02*
X128300000Y-63000000D01*
X132477632Y-62130990D02*
X131608622Y-63000000D01*
X137869010Y-62130990D02*
X132477632Y-62130990D01*
X138800000Y-61200000D02*
X137869010Y-62130990D01*
X138800000Y-59700000D02*
X138800000Y-61200000D01*
G04 #@! TO.N,Net-(J2-Pad26)*
X131174321Y-64000000D02*
X128300000Y-64000000D01*
X138069000Y-62531000D02*
X132643321Y-62531000D01*
X139600000Y-61000000D02*
X138069000Y-62531000D01*
X132643321Y-62531000D02*
X131174321Y-64000000D01*
X139600000Y-59700000D02*
X139600000Y-61000000D01*
G04 #@! TO.N,Net-(R3-Pad1)*
X137250000Y-54000000D02*
X136300000Y-54000000D01*
X137350001Y-54100001D02*
X137250000Y-54000000D01*
X137350001Y-58515001D02*
X137350001Y-54100001D01*
X137215003Y-58649999D02*
X137350001Y-58515001D01*
X135975001Y-58649999D02*
X137215003Y-58649999D01*
X134625000Y-60000000D02*
X135975001Y-58649999D01*
G04 #@! TO.N,Net-(R10-Pad2)*
X158863020Y-47213020D02*
X157800000Y-46150000D01*
X158863020Y-63636980D02*
X158863020Y-47213020D01*
X155500000Y-67000000D02*
X158863020Y-63636980D01*
X157500000Y-45850000D02*
X157800000Y-46150000D01*
X157500000Y-41090000D02*
X157500000Y-45850000D01*
G04 #@! TO.N,Net-(J2-Pad2)*
X134200001Y-37036001D02*
X131236002Y-40000000D01*
X134200001Y-33963999D02*
X134200001Y-37036001D01*
X131912002Y-31676000D02*
X134200001Y-33963999D01*
X131236002Y-40000000D02*
X128300000Y-40000000D01*
X126826000Y-31676000D02*
X131912002Y-31676000D01*
G04 #@! TO.N,Net-(J2-Pad3)*
X127454998Y-41000000D02*
X128300000Y-41000000D01*
X124017999Y-39354001D02*
X125663998Y-41000000D01*
X125663998Y-41000000D02*
X128300000Y-41000000D01*
X124017999Y-38729999D02*
X124017999Y-39354001D01*
X124355999Y-38391999D02*
X124017999Y-38729999D01*
X126798003Y-38391999D02*
X124355999Y-38391999D01*
X127600001Y-33974001D02*
X127600001Y-37590001D01*
X127600001Y-37590001D02*
X126798003Y-38391999D01*
X126826000Y-33200000D02*
X127600001Y-33974001D01*
G04 #@! TD*
M02*
