G04 #@! TF.GenerationSoftware,KiCad,Pcbnew,(5.1.8)-1*
G04 #@! TF.CreationDate,2021-09-07T17:05:45-07:00*
G04 #@! TF.ProjectId,wired-sculpt,77697265-642d-4736-9375-6c70742e6b69,rev?*
G04 #@! TF.SameCoordinates,Original*
G04 #@! TF.FileFunction,Copper,L2,Bot*
G04 #@! TF.FilePolarity,Positive*
%FSLAX46Y46*%
G04 Gerber Fmt 4.6, Leading zero omitted, Abs format (unit mm)*
G04 Created by KiCad (PCBNEW (5.1.8)-1) date 2021-09-07 17:05:45*
%MOMM*%
%LPD*%
G01*
G04 APERTURE LIST*
G04 #@! TA.AperFunction,ComponentPad*
%ADD10C,1.700000*%
G04 #@! TD*
G04 #@! TA.AperFunction,ComponentPad*
%ADD11O,1.500000X1.100000*%
G04 #@! TD*
G04 #@! TA.AperFunction,ComponentPad*
%ADD12O,1.700000X1.350000*%
G04 #@! TD*
G04 #@! TA.AperFunction,ComponentPad*
%ADD13O,1.750000X1.200000*%
G04 #@! TD*
G04 #@! TA.AperFunction,ViaPad*
%ADD14C,0.700000*%
G04 #@! TD*
G04 #@! TA.AperFunction,Conductor*
%ADD15C,0.200000*%
G04 #@! TD*
G04 #@! TA.AperFunction,Conductor*
%ADD16C,0.100000*%
G04 #@! TD*
G04 APERTURE END LIST*
G04 #@! TO.P,J3,1*
G04 #@! TO.N,MISO*
G04 #@! TA.AperFunction,ComponentPad*
G36*
G01*
X135428000Y-77230000D02*
X134228000Y-77230000D01*
G75*
G02*
X133978000Y-76980000I0J250000D01*
G01*
X133978000Y-75780000D01*
G75*
G02*
X134228000Y-75530000I250000J0D01*
G01*
X135428000Y-75530000D01*
G75*
G02*
X135678000Y-75780000I0J-250000D01*
G01*
X135678000Y-76980000D01*
G75*
G02*
X135428000Y-77230000I-250000J0D01*
G01*
G37*
G04 #@! TD.AperFunction*
D10*
G04 #@! TO.P,J3,3*
G04 #@! TO.N,SCK*
X137368000Y-76380000D03*
G04 #@! TO.P,J3,5*
G04 #@! TO.N,RST*
X139908000Y-76380000D03*
G04 #@! TO.P,J3,2*
G04 #@! TO.N,VBUS*
X134828000Y-73840000D03*
G04 #@! TO.P,J3,4*
G04 #@! TO.N,MOSI*
X137368000Y-73840000D03*
G04 #@! TO.P,J3,6*
G04 #@! TO.N,GND*
X139908000Y-73840000D03*
G04 #@! TD*
D11*
G04 #@! TO.P,J1,6*
G04 #@! TO.N,GND*
X155230000Y-77380000D03*
X155230000Y-72540000D03*
D12*
X158230000Y-77690000D03*
X158230000Y-72230000D03*
G04 #@! TD*
G04 #@! TO.P,SW2,1*
G04 #@! TO.N,Net-(R10-Pad2)*
G04 #@! TA.AperFunction,ComponentPad*
G36*
G01*
X156125001Y-67600000D02*
X154874999Y-67600000D01*
G75*
G02*
X154625000Y-67350001I0J249999D01*
G01*
X154625000Y-66649999D01*
G75*
G02*
X154874999Y-66400000I249999J0D01*
G01*
X156125001Y-66400000D01*
G75*
G02*
X156375000Y-66649999I0J-249999D01*
G01*
X156375000Y-67350001D01*
G75*
G02*
X156125001Y-67600000I-249999J0D01*
G01*
G37*
G04 #@! TD.AperFunction*
D13*
G04 #@! TO.P,SW2,2*
G04 #@! TO.N,GND*
X155500000Y-65000000D03*
G04 #@! TD*
D14*
G04 #@! TO.N,GND*
X141200000Y-57950000D03*
X149200000Y-57950000D03*
X124668000Y-39042000D03*
X157500000Y-36500000D03*
X154259000Y-37518000D03*
X156672000Y-57330000D03*
X131600000Y-60000000D03*
X145623000Y-42471000D03*
X140797000Y-38153000D03*
X146385000Y-76634000D03*
X140924000Y-72316000D03*
X146004000Y-45963500D03*
X150068000Y-54028000D03*
G04 #@! TO.N,LED*
X153116000Y-44122000D03*
X152100000Y-37518000D03*
G04 #@! TO.N,MISO*
X150068000Y-48417994D03*
X145974000Y-64686338D03*
G04 #@! TO.N,MOSI*
X150068000Y-49317997D03*
X146624000Y-65329603D03*
G04 #@! TO.N,SCK*
X150068000Y-50218000D03*
X147274000Y-65966000D03*
G04 #@! TO.N,RST*
X147591500Y-45963500D03*
X156354500Y-46852500D03*
X147274000Y-66982000D03*
G04 #@! TO.N,-5V*
X139146000Y-38026000D03*
X147528000Y-37518000D03*
G04 #@! TO.N,RED+*
X132796000Y-44884000D03*
X125938000Y-44884000D03*
G04 #@! TO.N,PB0*
X155719500Y-57330000D03*
X153167697Y-50771063D03*
G04 #@! TD*
D15*
G04 #@! TO.N,LED*
X153116000Y-38534000D02*
X152100000Y-37518000D01*
X153116000Y-44122000D02*
X153116000Y-38534000D01*
G04 #@! TO.N,MISO*
X145974000Y-52017020D02*
X145974000Y-64686338D01*
X149573026Y-48417994D02*
X145974000Y-52017020D01*
X150068000Y-48417994D02*
X149573026Y-48417994D01*
G04 #@! TO.N,MOSI*
X150068000Y-49317997D02*
X149573026Y-49317997D01*
X149253503Y-49317997D02*
X146374010Y-52197490D01*
X150068000Y-49317997D02*
X149253503Y-49317997D01*
X146374010Y-64124346D02*
X146624000Y-64374336D01*
X146624000Y-64374336D02*
X146624000Y-65329603D01*
X146374010Y-52197490D02*
X146374010Y-64124346D01*
G04 #@! TO.N,SCK*
X150068000Y-50218000D02*
X148919198Y-50218000D01*
X148919198Y-50218000D02*
X146774020Y-52363178D01*
X147274000Y-64458638D02*
X147274000Y-65966000D01*
X146774020Y-63958658D02*
X147274000Y-64458638D01*
X146774020Y-52363178D02*
X146774020Y-63958658D01*
G04 #@! TO.N,RST*
X148480500Y-46852500D02*
X156354500Y-46852500D01*
X147591500Y-45963500D02*
X148480500Y-46852500D01*
X145323999Y-65031999D02*
X147274000Y-66982000D01*
X145323999Y-64374337D02*
X145323999Y-65031999D01*
X145573990Y-64124346D02*
X145323999Y-64374337D01*
X145573990Y-51851331D02*
X145573990Y-64124346D01*
X148480500Y-48944822D02*
X145573990Y-51851331D01*
X148480500Y-46852500D02*
X148480500Y-48944822D01*
G04 #@! TO.N,-5V*
X147512999Y-37502999D02*
X147528000Y-37518000D01*
X139669001Y-37502999D02*
X147512999Y-37502999D01*
X139146000Y-38026000D02*
X139669001Y-37502999D01*
G04 #@! TO.N,RED+*
X132796000Y-44884000D02*
X125938000Y-44884000D01*
G04 #@! TO.N,PB0*
X155719500Y-57330000D02*
X155719500Y-51297500D01*
X155193063Y-50771063D02*
X153167697Y-50771063D01*
X155719500Y-51297500D02*
X155193063Y-50771063D01*
G04 #@! TD*
G04 #@! TO.N,GND*
X142675001Y-33515961D02*
X142675112Y-33517083D01*
X142675252Y-33537177D01*
X142676795Y-33551856D01*
X142676795Y-33566619D01*
X142677269Y-33571132D01*
X142731656Y-34056006D01*
X142737781Y-34084821D01*
X142743502Y-34113714D01*
X142744844Y-34118049D01*
X142892375Y-34583125D01*
X142903977Y-34610194D01*
X142915204Y-34637432D01*
X142917362Y-34641425D01*
X143152416Y-35068987D01*
X143169048Y-35093278D01*
X143185359Y-35117827D01*
X143188252Y-35121324D01*
X143501878Y-35495088D01*
X143522917Y-35515691D01*
X143543679Y-35536598D01*
X143547196Y-35539467D01*
X143927446Y-35845196D01*
X143952098Y-35861328D01*
X143976514Y-35877796D01*
X143980521Y-35879927D01*
X144412913Y-36105976D01*
X144440236Y-36117015D01*
X144467379Y-36128425D01*
X144471723Y-36129737D01*
X144939786Y-36267495D01*
X144968713Y-36273013D01*
X144997575Y-36278937D01*
X145002091Y-36279380D01*
X145487997Y-36323601D01*
X145517419Y-36323396D01*
X145546908Y-36323601D01*
X145551425Y-36323159D01*
X146036667Y-36272158D01*
X146065541Y-36266231D01*
X146094455Y-36260715D01*
X146098800Y-36259404D01*
X146564894Y-36115124D01*
X146592069Y-36103700D01*
X146619360Y-36092674D01*
X146623367Y-36090544D01*
X147052560Y-35858480D01*
X147076987Y-35842003D01*
X147101628Y-35825879D01*
X147105144Y-35823011D01*
X147481090Y-35512003D01*
X147501855Y-35491092D01*
X147522891Y-35470492D01*
X147525784Y-35466995D01*
X147834160Y-35088888D01*
X147850455Y-35064361D01*
X147867102Y-35040049D01*
X147869261Y-35036057D01*
X148098323Y-34605254D01*
X148109538Y-34578044D01*
X148121152Y-34550947D01*
X148122494Y-34546611D01*
X148263517Y-34079522D01*
X148269239Y-34050624D01*
X148275362Y-34021814D01*
X148275837Y-34017300D01*
X148323449Y-33531714D01*
X148323449Y-33531708D01*
X148325000Y-33515961D01*
X148325000Y-30325000D01*
X150175001Y-30325000D01*
X150175000Y-31515960D01*
X150175112Y-31517094D01*
X150175179Y-31526709D01*
X150176722Y-31541385D01*
X150176722Y-31556148D01*
X150177196Y-31560661D01*
X150215267Y-31900072D01*
X150221392Y-31928887D01*
X150227113Y-31957780D01*
X150228455Y-31962115D01*
X150331726Y-32287668D01*
X150343329Y-32314740D01*
X150354555Y-32341976D01*
X150356713Y-32345968D01*
X150521251Y-32645262D01*
X150537880Y-32669547D01*
X150554194Y-32694101D01*
X150557087Y-32697598D01*
X150776624Y-32959233D01*
X150797683Y-32979855D01*
X150818426Y-33000743D01*
X150821942Y-33003611D01*
X151088117Y-33217622D01*
X151112768Y-33233753D01*
X151137186Y-33250223D01*
X151141193Y-33252354D01*
X151443867Y-33410588D01*
X151471190Y-33421627D01*
X151498333Y-33433037D01*
X151502677Y-33434349D01*
X151830322Y-33530780D01*
X151859257Y-33536299D01*
X151888112Y-33542222D01*
X151892628Y-33542665D01*
X152232762Y-33573620D01*
X152262222Y-33573414D01*
X152291672Y-33573619D01*
X152296188Y-33573177D01*
X152635857Y-33537477D01*
X152664718Y-33531552D01*
X152693646Y-33526034D01*
X152697991Y-33524723D01*
X153024257Y-33423727D01*
X153051432Y-33412303D01*
X153078723Y-33401277D01*
X153082730Y-33399147D01*
X153383166Y-33236702D01*
X153407578Y-33220235D01*
X153432234Y-33204101D01*
X153435751Y-33201233D01*
X153698912Y-32983527D01*
X153719677Y-32962616D01*
X153740713Y-32942016D01*
X153743606Y-32938519D01*
X153959469Y-32673844D01*
X153975768Y-32649313D01*
X153992411Y-32625006D01*
X153994570Y-32621014D01*
X154154914Y-32319452D01*
X154166133Y-32292230D01*
X154177743Y-32265143D01*
X154179085Y-32260808D01*
X154277801Y-31933845D01*
X154283524Y-31904940D01*
X154289646Y-31876137D01*
X154290121Y-31871624D01*
X154323449Y-31531714D01*
X154323449Y-31531708D01*
X154325000Y-31515961D01*
X154325000Y-30325000D01*
X159650000Y-30325000D01*
X159650001Y-79675000D01*
X128134619Y-79675000D01*
X126118655Y-77659036D01*
X154227106Y-77659036D01*
X154275019Y-77783109D01*
X154368168Y-77922653D01*
X154486751Y-78041343D01*
X154626211Y-78134618D01*
X154781188Y-78198894D01*
X154945727Y-78231700D01*
X155080000Y-78159397D01*
X155080000Y-77530000D01*
X155380000Y-77530000D01*
X155380000Y-78159397D01*
X155514273Y-78231700D01*
X155678812Y-78198894D01*
X155833789Y-78134618D01*
X155973249Y-78041343D01*
X156025683Y-77988861D01*
X157126934Y-77988861D01*
X157178284Y-78121700D01*
X157279350Y-78284444D01*
X157410224Y-78424344D01*
X157565877Y-78536023D01*
X157740326Y-78615190D01*
X157926868Y-78658803D01*
X158080000Y-78591920D01*
X158080000Y-77840000D01*
X158380000Y-77840000D01*
X158380000Y-78591920D01*
X158533132Y-78658803D01*
X158719674Y-78615190D01*
X158894123Y-78536023D01*
X159049776Y-78424344D01*
X159180650Y-78284444D01*
X159281716Y-78121700D01*
X159333066Y-77988861D01*
X159292412Y-77840000D01*
X158380000Y-77840000D01*
X158080000Y-77840000D01*
X157167588Y-77840000D01*
X157126934Y-77988861D01*
X156025683Y-77988861D01*
X156091832Y-77922653D01*
X156184981Y-77783109D01*
X156232894Y-77659036D01*
X156190345Y-77530000D01*
X155380000Y-77530000D01*
X155080000Y-77530000D01*
X154269655Y-77530000D01*
X154227106Y-77659036D01*
X126118655Y-77659036D01*
X124239619Y-75780000D01*
X133676549Y-75780000D01*
X133676549Y-76980000D01*
X133687145Y-77087583D01*
X133718526Y-77191031D01*
X133769485Y-77286370D01*
X133838065Y-77369935D01*
X133921630Y-77438515D01*
X134016969Y-77489474D01*
X134120417Y-77520855D01*
X134228000Y-77531451D01*
X135428000Y-77531451D01*
X135535583Y-77520855D01*
X135639031Y-77489474D01*
X135734370Y-77438515D01*
X135817935Y-77369935D01*
X135886515Y-77286370D01*
X135937474Y-77191031D01*
X135968855Y-77087583D01*
X135979451Y-76980000D01*
X135979451Y-76266735D01*
X136218000Y-76266735D01*
X136218000Y-76493265D01*
X136262194Y-76715443D01*
X136348884Y-76924729D01*
X136474737Y-77113082D01*
X136634918Y-77273263D01*
X136823271Y-77399116D01*
X137032557Y-77485806D01*
X137254735Y-77530000D01*
X137481265Y-77530000D01*
X137703443Y-77485806D01*
X137912729Y-77399116D01*
X138101082Y-77273263D01*
X138261263Y-77113082D01*
X138387116Y-76924729D01*
X138473806Y-76715443D01*
X138518000Y-76493265D01*
X138518000Y-76266735D01*
X138758000Y-76266735D01*
X138758000Y-76493265D01*
X138802194Y-76715443D01*
X138888884Y-76924729D01*
X139014737Y-77113082D01*
X139174918Y-77273263D01*
X139363271Y-77399116D01*
X139572557Y-77485806D01*
X139794735Y-77530000D01*
X140021265Y-77530000D01*
X140243443Y-77485806D01*
X140452729Y-77399116D01*
X140464667Y-77391139D01*
X157126934Y-77391139D01*
X157167588Y-77540000D01*
X158080000Y-77540000D01*
X158080000Y-76788080D01*
X158380000Y-76788080D01*
X158380000Y-77540000D01*
X159292412Y-77540000D01*
X159333066Y-77391139D01*
X159281716Y-77258300D01*
X159180650Y-77095556D01*
X159049776Y-76955656D01*
X158894123Y-76843977D01*
X158719674Y-76764810D01*
X158533132Y-76721197D01*
X158380000Y-76788080D01*
X158080000Y-76788080D01*
X157926868Y-76721197D01*
X157740326Y-76764810D01*
X157565877Y-76843977D01*
X157410224Y-76955656D01*
X157279350Y-77095556D01*
X157178284Y-77258300D01*
X157126934Y-77391139D01*
X140464667Y-77391139D01*
X140641082Y-77273263D01*
X140801263Y-77113082D01*
X140809359Y-77100964D01*
X154227106Y-77100964D01*
X154269655Y-77230000D01*
X155080000Y-77230000D01*
X155080000Y-76600603D01*
X155380000Y-76600603D01*
X155380000Y-77230000D01*
X156190345Y-77230000D01*
X156232894Y-77100964D01*
X156184981Y-76976891D01*
X156091832Y-76837347D01*
X155973249Y-76718657D01*
X155833789Y-76625382D01*
X155678812Y-76561106D01*
X155514273Y-76528300D01*
X155380000Y-76600603D01*
X155080000Y-76600603D01*
X154945727Y-76528300D01*
X154781188Y-76561106D01*
X154626211Y-76625382D01*
X154486751Y-76718657D01*
X154368168Y-76837347D01*
X154275019Y-76976891D01*
X154227106Y-77100964D01*
X140809359Y-77100964D01*
X140927116Y-76924729D01*
X141013806Y-76715443D01*
X141058000Y-76493265D01*
X141058000Y-76266735D01*
X141013806Y-76044557D01*
X140927116Y-75835271D01*
X140801263Y-75646918D01*
X140641082Y-75486737D01*
X140452729Y-75360884D01*
X140243443Y-75274194D01*
X140021265Y-75230000D01*
X139794735Y-75230000D01*
X139572557Y-75274194D01*
X139363271Y-75360884D01*
X139174918Y-75486737D01*
X139014737Y-75646918D01*
X138888884Y-75835271D01*
X138802194Y-76044557D01*
X138758000Y-76266735D01*
X138518000Y-76266735D01*
X138473806Y-76044557D01*
X138387116Y-75835271D01*
X138261263Y-75646918D01*
X138101082Y-75486737D01*
X137912729Y-75360884D01*
X137703443Y-75274194D01*
X137481265Y-75230000D01*
X137254735Y-75230000D01*
X137032557Y-75274194D01*
X136823271Y-75360884D01*
X136634918Y-75486737D01*
X136474737Y-75646918D01*
X136348884Y-75835271D01*
X136262194Y-76044557D01*
X136218000Y-76266735D01*
X135979451Y-76266735D01*
X135979451Y-75780000D01*
X135968855Y-75672417D01*
X135937474Y-75568969D01*
X135886515Y-75473630D01*
X135817935Y-75390065D01*
X135734370Y-75321485D01*
X135639031Y-75270526D01*
X135535583Y-75239145D01*
X135428000Y-75228549D01*
X134228000Y-75228549D01*
X134120417Y-75239145D01*
X134016969Y-75270526D01*
X133921630Y-75321485D01*
X133838065Y-75390065D01*
X133769485Y-75473630D01*
X133718526Y-75568969D01*
X133687145Y-75672417D01*
X133676549Y-75780000D01*
X124239619Y-75780000D01*
X121797108Y-73337489D01*
X127850000Y-73337489D01*
X127850000Y-73662511D01*
X127913408Y-73981287D01*
X128037789Y-74281568D01*
X128218361Y-74551814D01*
X128448186Y-74781639D01*
X128718432Y-74962211D01*
X129018713Y-75086592D01*
X129337489Y-75150000D01*
X129662511Y-75150000D01*
X129981287Y-75086592D01*
X130281568Y-74962211D01*
X130551814Y-74781639D01*
X130781639Y-74551814D01*
X130962211Y-74281568D01*
X131086592Y-73981287D01*
X131137225Y-73726735D01*
X133678000Y-73726735D01*
X133678000Y-73953265D01*
X133722194Y-74175443D01*
X133808884Y-74384729D01*
X133934737Y-74573082D01*
X134094918Y-74733263D01*
X134283271Y-74859116D01*
X134492557Y-74945806D01*
X134714735Y-74990000D01*
X134941265Y-74990000D01*
X135163443Y-74945806D01*
X135372729Y-74859116D01*
X135561082Y-74733263D01*
X135721263Y-74573082D01*
X135847116Y-74384729D01*
X135933806Y-74175443D01*
X135978000Y-73953265D01*
X135978000Y-73726735D01*
X136218000Y-73726735D01*
X136218000Y-73953265D01*
X136262194Y-74175443D01*
X136348884Y-74384729D01*
X136474737Y-74573082D01*
X136634918Y-74733263D01*
X136823271Y-74859116D01*
X137032557Y-74945806D01*
X137254735Y-74990000D01*
X137481265Y-74990000D01*
X137703443Y-74945806D01*
X137912729Y-74859116D01*
X138101082Y-74733263D01*
X138131603Y-74702742D01*
X139257390Y-74702742D01*
X139355876Y-74855129D01*
X139564526Y-74943338D01*
X139786377Y-74989145D01*
X140012901Y-74990792D01*
X140235393Y-74948215D01*
X140445305Y-74863049D01*
X140460124Y-74855129D01*
X140558610Y-74702742D01*
X139908000Y-74052132D01*
X139257390Y-74702742D01*
X138131603Y-74702742D01*
X138261263Y-74573082D01*
X138387116Y-74384729D01*
X138473806Y-74175443D01*
X138518000Y-73953265D01*
X138518000Y-73944901D01*
X138757208Y-73944901D01*
X138799785Y-74167393D01*
X138884951Y-74377305D01*
X138892871Y-74392124D01*
X139045258Y-74490610D01*
X139695868Y-73840000D01*
X140120132Y-73840000D01*
X140770742Y-74490610D01*
X140923129Y-74392124D01*
X141011338Y-74183474D01*
X141057145Y-73961623D01*
X141058792Y-73735099D01*
X141016215Y-73512607D01*
X140931049Y-73302695D01*
X140923129Y-73287876D01*
X140770742Y-73189390D01*
X140120132Y-73840000D01*
X139695868Y-73840000D01*
X139045258Y-73189390D01*
X138892871Y-73287876D01*
X138804662Y-73496526D01*
X138758855Y-73718377D01*
X138757208Y-73944901D01*
X138518000Y-73944901D01*
X138518000Y-73726735D01*
X138473806Y-73504557D01*
X138387116Y-73295271D01*
X138261263Y-73106918D01*
X138131603Y-72977258D01*
X139257390Y-72977258D01*
X139908000Y-73627868D01*
X140558610Y-72977258D01*
X140460124Y-72824871D01*
X140446322Y-72819036D01*
X154227106Y-72819036D01*
X154275019Y-72943109D01*
X154368168Y-73082653D01*
X154486751Y-73201343D01*
X154626211Y-73294618D01*
X154781188Y-73358894D01*
X154945727Y-73391700D01*
X155080000Y-73319397D01*
X155080000Y-72690000D01*
X155380000Y-72690000D01*
X155380000Y-73319397D01*
X155514273Y-73391700D01*
X155678812Y-73358894D01*
X155833789Y-73294618D01*
X155973249Y-73201343D01*
X156091832Y-73082653D01*
X156184981Y-72943109D01*
X156232894Y-72819036D01*
X156190345Y-72690000D01*
X155380000Y-72690000D01*
X155080000Y-72690000D01*
X154269655Y-72690000D01*
X154227106Y-72819036D01*
X140446322Y-72819036D01*
X140251474Y-72736662D01*
X140029623Y-72690855D01*
X139803099Y-72689208D01*
X139580607Y-72731785D01*
X139370695Y-72816951D01*
X139355876Y-72824871D01*
X139257390Y-72977258D01*
X138131603Y-72977258D01*
X138101082Y-72946737D01*
X137912729Y-72820884D01*
X137703443Y-72734194D01*
X137481265Y-72690000D01*
X137254735Y-72690000D01*
X137032557Y-72734194D01*
X136823271Y-72820884D01*
X136634918Y-72946737D01*
X136474737Y-73106918D01*
X136348884Y-73295271D01*
X136262194Y-73504557D01*
X136218000Y-73726735D01*
X135978000Y-73726735D01*
X135933806Y-73504557D01*
X135847116Y-73295271D01*
X135721263Y-73106918D01*
X135561082Y-72946737D01*
X135372729Y-72820884D01*
X135163443Y-72734194D01*
X134941265Y-72690000D01*
X134714735Y-72690000D01*
X134492557Y-72734194D01*
X134283271Y-72820884D01*
X134094918Y-72946737D01*
X133934737Y-73106918D01*
X133808884Y-73295271D01*
X133722194Y-73504557D01*
X133678000Y-73726735D01*
X131137225Y-73726735D01*
X131150000Y-73662511D01*
X131150000Y-73337489D01*
X131086592Y-73018713D01*
X130962211Y-72718432D01*
X130835545Y-72528861D01*
X157126934Y-72528861D01*
X157178284Y-72661700D01*
X157279350Y-72824444D01*
X157410224Y-72964344D01*
X157565877Y-73076023D01*
X157740326Y-73155190D01*
X157926868Y-73198803D01*
X158080000Y-73131920D01*
X158080000Y-72380000D01*
X158380000Y-72380000D01*
X158380000Y-73131920D01*
X158533132Y-73198803D01*
X158719674Y-73155190D01*
X158894123Y-73076023D01*
X159049776Y-72964344D01*
X159180650Y-72824444D01*
X159281716Y-72661700D01*
X159333066Y-72528861D01*
X159292412Y-72380000D01*
X158380000Y-72380000D01*
X158080000Y-72380000D01*
X157167588Y-72380000D01*
X157126934Y-72528861D01*
X130835545Y-72528861D01*
X130781639Y-72448186D01*
X130594417Y-72260964D01*
X154227106Y-72260964D01*
X154269655Y-72390000D01*
X155080000Y-72390000D01*
X155080000Y-71760603D01*
X155380000Y-71760603D01*
X155380000Y-72390000D01*
X156190345Y-72390000D01*
X156232894Y-72260964D01*
X156184981Y-72136891D01*
X156091832Y-71997347D01*
X156025684Y-71931139D01*
X157126934Y-71931139D01*
X157167588Y-72080000D01*
X158080000Y-72080000D01*
X158080000Y-71328080D01*
X158380000Y-71328080D01*
X158380000Y-72080000D01*
X159292412Y-72080000D01*
X159333066Y-71931139D01*
X159281716Y-71798300D01*
X159180650Y-71635556D01*
X159049776Y-71495656D01*
X158894123Y-71383977D01*
X158719674Y-71304810D01*
X158533132Y-71261197D01*
X158380000Y-71328080D01*
X158080000Y-71328080D01*
X157926868Y-71261197D01*
X157740326Y-71304810D01*
X157565877Y-71383977D01*
X157410224Y-71495656D01*
X157279350Y-71635556D01*
X157178284Y-71798300D01*
X157126934Y-71931139D01*
X156025684Y-71931139D01*
X155973249Y-71878657D01*
X155833789Y-71785382D01*
X155678812Y-71721106D01*
X155514273Y-71688300D01*
X155380000Y-71760603D01*
X155080000Y-71760603D01*
X154945727Y-71688300D01*
X154781188Y-71721106D01*
X154626211Y-71785382D01*
X154486751Y-71878657D01*
X154368168Y-71997347D01*
X154275019Y-72136891D01*
X154227106Y-72260964D01*
X130594417Y-72260964D01*
X130551814Y-72218361D01*
X130281568Y-72037789D01*
X129981287Y-71913408D01*
X129662511Y-71850000D01*
X129337489Y-71850000D01*
X129018713Y-71913408D01*
X128718432Y-72037789D01*
X128448186Y-72218361D01*
X128218361Y-72448186D01*
X128037789Y-72718432D01*
X127913408Y-73018713D01*
X127850000Y-73337489D01*
X121797108Y-73337489D01*
X120350000Y-71890382D01*
X120350000Y-68684828D01*
X130300000Y-68684828D01*
X130300000Y-69315172D01*
X130422975Y-69933405D01*
X130664197Y-70515768D01*
X131014398Y-71039881D01*
X131460119Y-71485602D01*
X131984232Y-71835803D01*
X132566595Y-72077025D01*
X133184828Y-72200000D01*
X133815172Y-72200000D01*
X134433405Y-72077025D01*
X135015768Y-71835803D01*
X135539881Y-71485602D01*
X135985602Y-71039881D01*
X136335803Y-70515768D01*
X136577025Y-69933405D01*
X136700000Y-69315172D01*
X136700000Y-68684828D01*
X136577025Y-68066595D01*
X136335803Y-67484232D01*
X135985602Y-66960119D01*
X135539881Y-66514398D01*
X135015768Y-66164197D01*
X134433405Y-65922975D01*
X133815172Y-65800000D01*
X133184828Y-65800000D01*
X132566595Y-65922975D01*
X131984232Y-66164197D01*
X131460119Y-66514398D01*
X131014398Y-66960119D01*
X130664197Y-67484232D01*
X130422975Y-68066595D01*
X130300000Y-68684828D01*
X120350000Y-68684828D01*
X120350000Y-64374337D01*
X144922064Y-64374337D01*
X144923999Y-64393984D01*
X144924000Y-65012343D01*
X144922064Y-65031999D01*
X144929787Y-65110412D01*
X144952660Y-65185813D01*
X144989802Y-65255301D01*
X145027264Y-65300949D01*
X145027267Y-65300952D01*
X145039789Y-65316210D01*
X145055047Y-65328732D01*
X146627367Y-66901053D01*
X146624000Y-66917981D01*
X146624000Y-67046019D01*
X146648979Y-67171598D01*
X146697978Y-67289890D01*
X146769112Y-67396351D01*
X146859649Y-67486888D01*
X146966110Y-67558022D01*
X147084402Y-67607021D01*
X147209981Y-67632000D01*
X147338019Y-67632000D01*
X147463598Y-67607021D01*
X147581890Y-67558022D01*
X147688351Y-67486888D01*
X147778888Y-67396351D01*
X147850022Y-67289890D01*
X147899021Y-67171598D01*
X147924000Y-67046019D01*
X147924000Y-66917981D01*
X147899021Y-66792402D01*
X147850022Y-66674110D01*
X147833912Y-66649999D01*
X154323549Y-66649999D01*
X154323549Y-67350001D01*
X154334145Y-67457584D01*
X154365526Y-67561032D01*
X154416485Y-67656370D01*
X154485065Y-67739935D01*
X154568630Y-67808515D01*
X154663968Y-67859474D01*
X154767416Y-67890855D01*
X154874999Y-67901451D01*
X156125001Y-67901451D01*
X156232584Y-67890855D01*
X156336032Y-67859474D01*
X156431370Y-67808515D01*
X156514935Y-67739935D01*
X156583515Y-67656370D01*
X156634474Y-67561032D01*
X156665855Y-67457584D01*
X156676451Y-67350001D01*
X156676451Y-66649999D01*
X156665855Y-66542416D01*
X156634474Y-66438968D01*
X156583515Y-66343630D01*
X156514935Y-66260065D01*
X156431370Y-66191485D01*
X156336032Y-66140526D01*
X156232584Y-66109145D01*
X156125001Y-66098549D01*
X154874999Y-66098549D01*
X154767416Y-66109145D01*
X154663968Y-66140526D01*
X154568630Y-66191485D01*
X154485065Y-66260065D01*
X154416485Y-66343630D01*
X154365526Y-66438968D01*
X154334145Y-66542416D01*
X154323549Y-66649999D01*
X147833912Y-66649999D01*
X147778888Y-66567649D01*
X147688351Y-66477112D01*
X147683693Y-66474000D01*
X147688351Y-66470888D01*
X147778888Y-66380351D01*
X147850022Y-66273890D01*
X147899021Y-66155598D01*
X147924000Y-66030019D01*
X147924000Y-65901981D01*
X147899021Y-65776402D01*
X147850022Y-65658110D01*
X147778888Y-65551649D01*
X147688351Y-65461112D01*
X147674000Y-65451523D01*
X147674000Y-65286975D01*
X154371979Y-65286975D01*
X154450606Y-65494644D01*
X154561986Y-65636216D01*
X154698845Y-65753339D01*
X154855924Y-65841512D01*
X155027187Y-65897346D01*
X155206051Y-65918695D01*
X155350000Y-65835349D01*
X155350000Y-65150000D01*
X155650000Y-65150000D01*
X155650000Y-65835349D01*
X155793949Y-65918695D01*
X155972813Y-65897346D01*
X156144076Y-65841512D01*
X156301155Y-65753339D01*
X156438014Y-65636216D01*
X156549394Y-65494644D01*
X156628021Y-65286975D01*
X156586249Y-65150000D01*
X155650000Y-65150000D01*
X155350000Y-65150000D01*
X154413751Y-65150000D01*
X154371979Y-65286975D01*
X147674000Y-65286975D01*
X147674000Y-64713025D01*
X154371979Y-64713025D01*
X154413751Y-64850000D01*
X155350000Y-64850000D01*
X155350000Y-64164651D01*
X155650000Y-64164651D01*
X155650000Y-64850000D01*
X156586249Y-64850000D01*
X156628021Y-64713025D01*
X156549394Y-64505356D01*
X156438014Y-64363784D01*
X156301155Y-64246661D01*
X156144076Y-64158488D01*
X155972813Y-64102654D01*
X155793949Y-64081305D01*
X155650000Y-64164651D01*
X155350000Y-64164651D01*
X155206051Y-64081305D01*
X155027187Y-64102654D01*
X154855924Y-64158488D01*
X154698845Y-64246661D01*
X154561986Y-64363784D01*
X154450606Y-64505356D01*
X154371979Y-64713025D01*
X147674000Y-64713025D01*
X147674000Y-64478273D01*
X147675934Y-64458637D01*
X147674000Y-64439001D01*
X147674000Y-64438991D01*
X147668212Y-64380224D01*
X147645340Y-64304824D01*
X147608197Y-64235335D01*
X147558211Y-64174427D01*
X147542949Y-64161902D01*
X147174020Y-63792973D01*
X147174020Y-52528863D01*
X149084884Y-50618000D01*
X149553523Y-50618000D01*
X149563112Y-50632351D01*
X149653649Y-50722888D01*
X149760110Y-50794022D01*
X149878402Y-50843021D01*
X150003981Y-50868000D01*
X150132019Y-50868000D01*
X150257598Y-50843021D01*
X150375890Y-50794022D01*
X150482351Y-50722888D01*
X150498195Y-50707044D01*
X152517697Y-50707044D01*
X152517697Y-50835082D01*
X152542676Y-50960661D01*
X152591675Y-51078953D01*
X152662809Y-51185414D01*
X152753346Y-51275951D01*
X152859807Y-51347085D01*
X152978099Y-51396084D01*
X153103678Y-51421063D01*
X153231716Y-51421063D01*
X153357295Y-51396084D01*
X153475587Y-51347085D01*
X153582048Y-51275951D01*
X153672585Y-51185414D01*
X153682174Y-51171063D01*
X155027378Y-51171063D01*
X155319501Y-51463186D01*
X155319500Y-56815523D01*
X155305149Y-56825112D01*
X155214612Y-56915649D01*
X155143478Y-57022110D01*
X155094479Y-57140402D01*
X155069500Y-57265981D01*
X155069500Y-57394019D01*
X155094479Y-57519598D01*
X155143478Y-57637890D01*
X155214612Y-57744351D01*
X155305149Y-57834888D01*
X155411610Y-57906022D01*
X155529902Y-57955021D01*
X155655481Y-57980000D01*
X155783519Y-57980000D01*
X155909098Y-57955021D01*
X156027390Y-57906022D01*
X156133851Y-57834888D01*
X156224388Y-57744351D01*
X156295522Y-57637890D01*
X156344521Y-57519598D01*
X156369500Y-57394019D01*
X156369500Y-57265981D01*
X156344521Y-57140402D01*
X156295522Y-57022110D01*
X156224388Y-56915649D01*
X156133851Y-56825112D01*
X156119500Y-56815523D01*
X156119500Y-51317135D01*
X156121434Y-51297499D01*
X156119500Y-51277863D01*
X156119500Y-51277853D01*
X156113712Y-51219086D01*
X156090840Y-51143686D01*
X156053697Y-51074197D01*
X156003711Y-51013289D01*
X155988448Y-51000763D01*
X155489800Y-50502115D01*
X155477274Y-50486852D01*
X155416366Y-50436866D01*
X155346877Y-50399723D01*
X155271477Y-50376851D01*
X155212710Y-50371063D01*
X155212709Y-50371063D01*
X155193063Y-50369128D01*
X155173417Y-50371063D01*
X153682174Y-50371063D01*
X153672585Y-50356712D01*
X153582048Y-50266175D01*
X153475587Y-50195041D01*
X153357295Y-50146042D01*
X153231716Y-50121063D01*
X153103678Y-50121063D01*
X152978099Y-50146042D01*
X152859807Y-50195041D01*
X152753346Y-50266175D01*
X152662809Y-50356712D01*
X152591675Y-50463173D01*
X152542676Y-50581465D01*
X152517697Y-50707044D01*
X150498195Y-50707044D01*
X150572888Y-50632351D01*
X150644022Y-50525890D01*
X150693021Y-50407598D01*
X150718000Y-50282019D01*
X150718000Y-50153981D01*
X150693021Y-50028402D01*
X150644022Y-49910110D01*
X150572888Y-49803649D01*
X150537238Y-49767999D01*
X150572888Y-49732348D01*
X150644022Y-49625887D01*
X150693021Y-49507595D01*
X150718000Y-49382016D01*
X150718000Y-49253978D01*
X150693021Y-49128399D01*
X150644022Y-49010107D01*
X150572888Y-48903646D01*
X150537238Y-48867996D01*
X150572888Y-48832345D01*
X150644022Y-48725884D01*
X150693021Y-48607592D01*
X150718000Y-48482013D01*
X150718000Y-48353975D01*
X150693021Y-48228396D01*
X150644022Y-48110104D01*
X150572888Y-48003643D01*
X150482351Y-47913106D01*
X150375890Y-47841972D01*
X150257598Y-47792973D01*
X150132019Y-47767994D01*
X150003981Y-47767994D01*
X149878402Y-47792973D01*
X149760110Y-47841972D01*
X149653649Y-47913106D01*
X149563112Y-48003643D01*
X149553533Y-48017980D01*
X149553389Y-48017994D01*
X149553379Y-48017994D01*
X149494612Y-48023782D01*
X149419212Y-48046654D01*
X149349723Y-48083797D01*
X149288815Y-48133783D01*
X149276289Y-48149046D01*
X148880500Y-48544835D01*
X148880500Y-47252500D01*
X155840023Y-47252500D01*
X155849612Y-47266851D01*
X155940149Y-47357388D01*
X156046610Y-47428522D01*
X156164902Y-47477521D01*
X156290481Y-47502500D01*
X156418519Y-47502500D01*
X156544098Y-47477521D01*
X156662390Y-47428522D01*
X156768851Y-47357388D01*
X156859388Y-47266851D01*
X156930522Y-47160390D01*
X156979521Y-47042098D01*
X157004500Y-46916519D01*
X157004500Y-46788481D01*
X156979521Y-46662902D01*
X156930522Y-46544610D01*
X156859388Y-46438149D01*
X156768851Y-46347612D01*
X156662390Y-46276478D01*
X156544098Y-46227479D01*
X156418519Y-46202500D01*
X156290481Y-46202500D01*
X156164902Y-46227479D01*
X156046610Y-46276478D01*
X155940149Y-46347612D01*
X155849612Y-46438149D01*
X155840023Y-46452500D01*
X148646186Y-46452500D01*
X148238133Y-46044447D01*
X148241500Y-46027519D01*
X148241500Y-45899481D01*
X148216521Y-45773902D01*
X148167522Y-45655610D01*
X148096388Y-45549149D01*
X148005851Y-45458612D01*
X147899390Y-45387478D01*
X147781098Y-45338479D01*
X147655519Y-45313500D01*
X147527481Y-45313500D01*
X147401902Y-45338479D01*
X147283610Y-45387478D01*
X147177149Y-45458612D01*
X147086612Y-45549149D01*
X147015478Y-45655610D01*
X146966479Y-45773902D01*
X146941500Y-45899481D01*
X146941500Y-46027519D01*
X146966479Y-46153098D01*
X147015478Y-46271390D01*
X147086612Y-46377851D01*
X147177149Y-46468388D01*
X147283610Y-46539522D01*
X147401902Y-46588521D01*
X147527481Y-46613500D01*
X147655519Y-46613500D01*
X147672447Y-46610133D01*
X148080500Y-47018186D01*
X148080501Y-48779135D01*
X145305042Y-51554594D01*
X145289779Y-51567120D01*
X145239793Y-51628029D01*
X145202650Y-51697518D01*
X145179778Y-51772917D01*
X145179778Y-51772918D01*
X145172055Y-51851331D01*
X145173990Y-51870977D01*
X145173991Y-63958661D01*
X145055052Y-64077599D01*
X145039788Y-64090126D01*
X144989802Y-64151035D01*
X144952659Y-64220524D01*
X144948166Y-64235336D01*
X144929787Y-64295924D01*
X144922064Y-64374337D01*
X120350000Y-64374337D01*
X120350000Y-44819981D01*
X125288000Y-44819981D01*
X125288000Y-44948019D01*
X125312979Y-45073598D01*
X125361978Y-45191890D01*
X125433112Y-45298351D01*
X125523649Y-45388888D01*
X125630110Y-45460022D01*
X125748402Y-45509021D01*
X125873981Y-45534000D01*
X126002019Y-45534000D01*
X126127598Y-45509021D01*
X126245890Y-45460022D01*
X126352351Y-45388888D01*
X126442888Y-45298351D01*
X126452477Y-45284000D01*
X132281523Y-45284000D01*
X132291112Y-45298351D01*
X132381649Y-45388888D01*
X132488110Y-45460022D01*
X132606402Y-45509021D01*
X132731981Y-45534000D01*
X132860019Y-45534000D01*
X132985598Y-45509021D01*
X133103890Y-45460022D01*
X133210351Y-45388888D01*
X133300888Y-45298351D01*
X133372022Y-45191890D01*
X133421021Y-45073598D01*
X133446000Y-44948019D01*
X133446000Y-44819981D01*
X133421021Y-44694402D01*
X133372022Y-44576110D01*
X133300888Y-44469649D01*
X133210351Y-44379112D01*
X133103890Y-44307978D01*
X132985598Y-44258979D01*
X132860019Y-44234000D01*
X132731981Y-44234000D01*
X132606402Y-44258979D01*
X132488110Y-44307978D01*
X132381649Y-44379112D01*
X132291112Y-44469649D01*
X132281523Y-44484000D01*
X126452477Y-44484000D01*
X126442888Y-44469649D01*
X126352351Y-44379112D01*
X126245890Y-44307978D01*
X126127598Y-44258979D01*
X126002019Y-44234000D01*
X125873981Y-44234000D01*
X125748402Y-44258979D01*
X125630110Y-44307978D01*
X125523649Y-44379112D01*
X125433112Y-44469649D01*
X125361978Y-44576110D01*
X125312979Y-44694402D01*
X125288000Y-44819981D01*
X120350000Y-44819981D01*
X120350000Y-35184828D01*
X127800000Y-35184828D01*
X127800000Y-35815172D01*
X127922975Y-36433405D01*
X128164197Y-37015768D01*
X128514398Y-37539881D01*
X128960119Y-37985602D01*
X129484232Y-38335803D01*
X130066595Y-38577025D01*
X130684828Y-38700000D01*
X131315172Y-38700000D01*
X131933405Y-38577025D01*
X132515768Y-38335803D01*
X133039881Y-37985602D01*
X133063502Y-37961981D01*
X138496000Y-37961981D01*
X138496000Y-38090019D01*
X138520979Y-38215598D01*
X138569978Y-38333890D01*
X138641112Y-38440351D01*
X138731649Y-38530888D01*
X138838110Y-38602022D01*
X138956402Y-38651021D01*
X139081981Y-38676000D01*
X139210019Y-38676000D01*
X139335598Y-38651021D01*
X139453890Y-38602022D01*
X139560351Y-38530888D01*
X139650888Y-38440351D01*
X139722022Y-38333890D01*
X139771021Y-38215598D01*
X139796000Y-38090019D01*
X139796000Y-37961981D01*
X139792633Y-37945053D01*
X139834687Y-37902999D01*
X147003500Y-37902999D01*
X147023112Y-37932351D01*
X147113649Y-38022888D01*
X147220110Y-38094022D01*
X147338402Y-38143021D01*
X147463981Y-38168000D01*
X147592019Y-38168000D01*
X147717598Y-38143021D01*
X147835890Y-38094022D01*
X147942351Y-38022888D01*
X148032888Y-37932351D01*
X148104022Y-37825890D01*
X148153021Y-37707598D01*
X148178000Y-37582019D01*
X148178000Y-37453981D01*
X151450000Y-37453981D01*
X151450000Y-37582019D01*
X151474979Y-37707598D01*
X151523978Y-37825890D01*
X151595112Y-37932351D01*
X151685649Y-38022888D01*
X151792110Y-38094022D01*
X151910402Y-38143021D01*
X152035981Y-38168000D01*
X152164019Y-38168000D01*
X152180947Y-38164633D01*
X152716001Y-38699687D01*
X152716000Y-43607523D01*
X152701649Y-43617112D01*
X152611112Y-43707649D01*
X152539978Y-43814110D01*
X152490979Y-43932402D01*
X152466000Y-44057981D01*
X152466000Y-44186019D01*
X152490979Y-44311598D01*
X152539978Y-44429890D01*
X152611112Y-44536351D01*
X152701649Y-44626888D01*
X152808110Y-44698022D01*
X152926402Y-44747021D01*
X153051981Y-44772000D01*
X153180019Y-44772000D01*
X153305598Y-44747021D01*
X153423890Y-44698022D01*
X153530351Y-44626888D01*
X153620888Y-44536351D01*
X153692022Y-44429890D01*
X153741021Y-44311598D01*
X153766000Y-44186019D01*
X153766000Y-44057981D01*
X153741021Y-43932402D01*
X153692022Y-43814110D01*
X153620888Y-43707649D01*
X153530351Y-43617112D01*
X153516000Y-43607523D01*
X153516000Y-38553646D01*
X153517935Y-38534000D01*
X153510212Y-38455586D01*
X153487340Y-38380186D01*
X153450197Y-38310697D01*
X153400211Y-38249789D01*
X153384953Y-38237267D01*
X152746633Y-37598947D01*
X152750000Y-37582019D01*
X152750000Y-37453981D01*
X152725021Y-37328402D01*
X152676022Y-37210110D01*
X152604888Y-37103649D01*
X152514351Y-37013112D01*
X152407890Y-36941978D01*
X152289598Y-36892979D01*
X152164019Y-36868000D01*
X152035981Y-36868000D01*
X151910402Y-36892979D01*
X151792110Y-36941978D01*
X151685649Y-37013112D01*
X151595112Y-37103649D01*
X151523978Y-37210110D01*
X151474979Y-37328402D01*
X151450000Y-37453981D01*
X148178000Y-37453981D01*
X148153021Y-37328402D01*
X148104022Y-37210110D01*
X148032888Y-37103649D01*
X147942351Y-37013112D01*
X147835890Y-36941978D01*
X147717598Y-36892979D01*
X147592019Y-36868000D01*
X147463981Y-36868000D01*
X147338402Y-36892979D01*
X147220110Y-36941978D01*
X147113649Y-37013112D01*
X147023762Y-37102999D01*
X139688636Y-37102999D01*
X139669000Y-37101065D01*
X139649364Y-37102999D01*
X139649354Y-37102999D01*
X139590587Y-37108787D01*
X139515187Y-37131659D01*
X139445698Y-37168802D01*
X139413496Y-37195230D01*
X139400050Y-37206264D01*
X139400048Y-37206266D01*
X139384790Y-37218788D01*
X139372268Y-37234046D01*
X139226947Y-37379367D01*
X139210019Y-37376000D01*
X139081981Y-37376000D01*
X138956402Y-37400979D01*
X138838110Y-37449978D01*
X138731649Y-37521112D01*
X138641112Y-37611649D01*
X138569978Y-37718110D01*
X138520979Y-37836402D01*
X138496000Y-37961981D01*
X133063502Y-37961981D01*
X133485602Y-37539881D01*
X133835803Y-37015768D01*
X134077025Y-36433405D01*
X134200000Y-35815172D01*
X134200000Y-35184828D01*
X134077025Y-34566595D01*
X133835803Y-33984232D01*
X133485602Y-33460119D01*
X133039881Y-33014398D01*
X132515768Y-32664197D01*
X131933405Y-32422975D01*
X131315172Y-32300000D01*
X130684828Y-32300000D01*
X130066595Y-32422975D01*
X129484232Y-32664197D01*
X128960119Y-33014398D01*
X128514398Y-33460119D01*
X128164197Y-33984232D01*
X127922975Y-34566595D01*
X127800000Y-35184828D01*
X120350000Y-35184828D01*
X120350000Y-30325000D01*
X142675000Y-30325000D01*
X142675001Y-33515961D01*
G04 #@! TA.AperFunction,Conductor*
D16*
G36*
X142675001Y-33515961D02*
G01*
X142675112Y-33517083D01*
X142675252Y-33537177D01*
X142676795Y-33551856D01*
X142676795Y-33566619D01*
X142677269Y-33571132D01*
X142731656Y-34056006D01*
X142737781Y-34084821D01*
X142743502Y-34113714D01*
X142744844Y-34118049D01*
X142892375Y-34583125D01*
X142903977Y-34610194D01*
X142915204Y-34637432D01*
X142917362Y-34641425D01*
X143152416Y-35068987D01*
X143169048Y-35093278D01*
X143185359Y-35117827D01*
X143188252Y-35121324D01*
X143501878Y-35495088D01*
X143522917Y-35515691D01*
X143543679Y-35536598D01*
X143547196Y-35539467D01*
X143927446Y-35845196D01*
X143952098Y-35861328D01*
X143976514Y-35877796D01*
X143980521Y-35879927D01*
X144412913Y-36105976D01*
X144440236Y-36117015D01*
X144467379Y-36128425D01*
X144471723Y-36129737D01*
X144939786Y-36267495D01*
X144968713Y-36273013D01*
X144997575Y-36278937D01*
X145002091Y-36279380D01*
X145487997Y-36323601D01*
X145517419Y-36323396D01*
X145546908Y-36323601D01*
X145551425Y-36323159D01*
X146036667Y-36272158D01*
X146065541Y-36266231D01*
X146094455Y-36260715D01*
X146098800Y-36259404D01*
X146564894Y-36115124D01*
X146592069Y-36103700D01*
X146619360Y-36092674D01*
X146623367Y-36090544D01*
X147052560Y-35858480D01*
X147076987Y-35842003D01*
X147101628Y-35825879D01*
X147105144Y-35823011D01*
X147481090Y-35512003D01*
X147501855Y-35491092D01*
X147522891Y-35470492D01*
X147525784Y-35466995D01*
X147834160Y-35088888D01*
X147850455Y-35064361D01*
X147867102Y-35040049D01*
X147869261Y-35036057D01*
X148098323Y-34605254D01*
X148109538Y-34578044D01*
X148121152Y-34550947D01*
X148122494Y-34546611D01*
X148263517Y-34079522D01*
X148269239Y-34050624D01*
X148275362Y-34021814D01*
X148275837Y-34017300D01*
X148323449Y-33531714D01*
X148323449Y-33531708D01*
X148325000Y-33515961D01*
X148325000Y-30325000D01*
X150175001Y-30325000D01*
X150175000Y-31515960D01*
X150175112Y-31517094D01*
X150175179Y-31526709D01*
X150176722Y-31541385D01*
X150176722Y-31556148D01*
X150177196Y-31560661D01*
X150215267Y-31900072D01*
X150221392Y-31928887D01*
X150227113Y-31957780D01*
X150228455Y-31962115D01*
X150331726Y-32287668D01*
X150343329Y-32314740D01*
X150354555Y-32341976D01*
X150356713Y-32345968D01*
X150521251Y-32645262D01*
X150537880Y-32669547D01*
X150554194Y-32694101D01*
X150557087Y-32697598D01*
X150776624Y-32959233D01*
X150797683Y-32979855D01*
X150818426Y-33000743D01*
X150821942Y-33003611D01*
X151088117Y-33217622D01*
X151112768Y-33233753D01*
X151137186Y-33250223D01*
X151141193Y-33252354D01*
X151443867Y-33410588D01*
X151471190Y-33421627D01*
X151498333Y-33433037D01*
X151502677Y-33434349D01*
X151830322Y-33530780D01*
X151859257Y-33536299D01*
X151888112Y-33542222D01*
X151892628Y-33542665D01*
X152232762Y-33573620D01*
X152262222Y-33573414D01*
X152291672Y-33573619D01*
X152296188Y-33573177D01*
X152635857Y-33537477D01*
X152664718Y-33531552D01*
X152693646Y-33526034D01*
X152697991Y-33524723D01*
X153024257Y-33423727D01*
X153051432Y-33412303D01*
X153078723Y-33401277D01*
X153082730Y-33399147D01*
X153383166Y-33236702D01*
X153407578Y-33220235D01*
X153432234Y-33204101D01*
X153435751Y-33201233D01*
X153698912Y-32983527D01*
X153719677Y-32962616D01*
X153740713Y-32942016D01*
X153743606Y-32938519D01*
X153959469Y-32673844D01*
X153975768Y-32649313D01*
X153992411Y-32625006D01*
X153994570Y-32621014D01*
X154154914Y-32319452D01*
X154166133Y-32292230D01*
X154177743Y-32265143D01*
X154179085Y-32260808D01*
X154277801Y-31933845D01*
X154283524Y-31904940D01*
X154289646Y-31876137D01*
X154290121Y-31871624D01*
X154323449Y-31531714D01*
X154323449Y-31531708D01*
X154325000Y-31515961D01*
X154325000Y-30325000D01*
X159650000Y-30325000D01*
X159650001Y-79675000D01*
X128134619Y-79675000D01*
X126118655Y-77659036D01*
X154227106Y-77659036D01*
X154275019Y-77783109D01*
X154368168Y-77922653D01*
X154486751Y-78041343D01*
X154626211Y-78134618D01*
X154781188Y-78198894D01*
X154945727Y-78231700D01*
X155080000Y-78159397D01*
X155080000Y-77530000D01*
X155380000Y-77530000D01*
X155380000Y-78159397D01*
X155514273Y-78231700D01*
X155678812Y-78198894D01*
X155833789Y-78134618D01*
X155973249Y-78041343D01*
X156025683Y-77988861D01*
X157126934Y-77988861D01*
X157178284Y-78121700D01*
X157279350Y-78284444D01*
X157410224Y-78424344D01*
X157565877Y-78536023D01*
X157740326Y-78615190D01*
X157926868Y-78658803D01*
X158080000Y-78591920D01*
X158080000Y-77840000D01*
X158380000Y-77840000D01*
X158380000Y-78591920D01*
X158533132Y-78658803D01*
X158719674Y-78615190D01*
X158894123Y-78536023D01*
X159049776Y-78424344D01*
X159180650Y-78284444D01*
X159281716Y-78121700D01*
X159333066Y-77988861D01*
X159292412Y-77840000D01*
X158380000Y-77840000D01*
X158080000Y-77840000D01*
X157167588Y-77840000D01*
X157126934Y-77988861D01*
X156025683Y-77988861D01*
X156091832Y-77922653D01*
X156184981Y-77783109D01*
X156232894Y-77659036D01*
X156190345Y-77530000D01*
X155380000Y-77530000D01*
X155080000Y-77530000D01*
X154269655Y-77530000D01*
X154227106Y-77659036D01*
X126118655Y-77659036D01*
X124239619Y-75780000D01*
X133676549Y-75780000D01*
X133676549Y-76980000D01*
X133687145Y-77087583D01*
X133718526Y-77191031D01*
X133769485Y-77286370D01*
X133838065Y-77369935D01*
X133921630Y-77438515D01*
X134016969Y-77489474D01*
X134120417Y-77520855D01*
X134228000Y-77531451D01*
X135428000Y-77531451D01*
X135535583Y-77520855D01*
X135639031Y-77489474D01*
X135734370Y-77438515D01*
X135817935Y-77369935D01*
X135886515Y-77286370D01*
X135937474Y-77191031D01*
X135968855Y-77087583D01*
X135979451Y-76980000D01*
X135979451Y-76266735D01*
X136218000Y-76266735D01*
X136218000Y-76493265D01*
X136262194Y-76715443D01*
X136348884Y-76924729D01*
X136474737Y-77113082D01*
X136634918Y-77273263D01*
X136823271Y-77399116D01*
X137032557Y-77485806D01*
X137254735Y-77530000D01*
X137481265Y-77530000D01*
X137703443Y-77485806D01*
X137912729Y-77399116D01*
X138101082Y-77273263D01*
X138261263Y-77113082D01*
X138387116Y-76924729D01*
X138473806Y-76715443D01*
X138518000Y-76493265D01*
X138518000Y-76266735D01*
X138758000Y-76266735D01*
X138758000Y-76493265D01*
X138802194Y-76715443D01*
X138888884Y-76924729D01*
X139014737Y-77113082D01*
X139174918Y-77273263D01*
X139363271Y-77399116D01*
X139572557Y-77485806D01*
X139794735Y-77530000D01*
X140021265Y-77530000D01*
X140243443Y-77485806D01*
X140452729Y-77399116D01*
X140464667Y-77391139D01*
X157126934Y-77391139D01*
X157167588Y-77540000D01*
X158080000Y-77540000D01*
X158080000Y-76788080D01*
X158380000Y-76788080D01*
X158380000Y-77540000D01*
X159292412Y-77540000D01*
X159333066Y-77391139D01*
X159281716Y-77258300D01*
X159180650Y-77095556D01*
X159049776Y-76955656D01*
X158894123Y-76843977D01*
X158719674Y-76764810D01*
X158533132Y-76721197D01*
X158380000Y-76788080D01*
X158080000Y-76788080D01*
X157926868Y-76721197D01*
X157740326Y-76764810D01*
X157565877Y-76843977D01*
X157410224Y-76955656D01*
X157279350Y-77095556D01*
X157178284Y-77258300D01*
X157126934Y-77391139D01*
X140464667Y-77391139D01*
X140641082Y-77273263D01*
X140801263Y-77113082D01*
X140809359Y-77100964D01*
X154227106Y-77100964D01*
X154269655Y-77230000D01*
X155080000Y-77230000D01*
X155080000Y-76600603D01*
X155380000Y-76600603D01*
X155380000Y-77230000D01*
X156190345Y-77230000D01*
X156232894Y-77100964D01*
X156184981Y-76976891D01*
X156091832Y-76837347D01*
X155973249Y-76718657D01*
X155833789Y-76625382D01*
X155678812Y-76561106D01*
X155514273Y-76528300D01*
X155380000Y-76600603D01*
X155080000Y-76600603D01*
X154945727Y-76528300D01*
X154781188Y-76561106D01*
X154626211Y-76625382D01*
X154486751Y-76718657D01*
X154368168Y-76837347D01*
X154275019Y-76976891D01*
X154227106Y-77100964D01*
X140809359Y-77100964D01*
X140927116Y-76924729D01*
X141013806Y-76715443D01*
X141058000Y-76493265D01*
X141058000Y-76266735D01*
X141013806Y-76044557D01*
X140927116Y-75835271D01*
X140801263Y-75646918D01*
X140641082Y-75486737D01*
X140452729Y-75360884D01*
X140243443Y-75274194D01*
X140021265Y-75230000D01*
X139794735Y-75230000D01*
X139572557Y-75274194D01*
X139363271Y-75360884D01*
X139174918Y-75486737D01*
X139014737Y-75646918D01*
X138888884Y-75835271D01*
X138802194Y-76044557D01*
X138758000Y-76266735D01*
X138518000Y-76266735D01*
X138473806Y-76044557D01*
X138387116Y-75835271D01*
X138261263Y-75646918D01*
X138101082Y-75486737D01*
X137912729Y-75360884D01*
X137703443Y-75274194D01*
X137481265Y-75230000D01*
X137254735Y-75230000D01*
X137032557Y-75274194D01*
X136823271Y-75360884D01*
X136634918Y-75486737D01*
X136474737Y-75646918D01*
X136348884Y-75835271D01*
X136262194Y-76044557D01*
X136218000Y-76266735D01*
X135979451Y-76266735D01*
X135979451Y-75780000D01*
X135968855Y-75672417D01*
X135937474Y-75568969D01*
X135886515Y-75473630D01*
X135817935Y-75390065D01*
X135734370Y-75321485D01*
X135639031Y-75270526D01*
X135535583Y-75239145D01*
X135428000Y-75228549D01*
X134228000Y-75228549D01*
X134120417Y-75239145D01*
X134016969Y-75270526D01*
X133921630Y-75321485D01*
X133838065Y-75390065D01*
X133769485Y-75473630D01*
X133718526Y-75568969D01*
X133687145Y-75672417D01*
X133676549Y-75780000D01*
X124239619Y-75780000D01*
X121797108Y-73337489D01*
X127850000Y-73337489D01*
X127850000Y-73662511D01*
X127913408Y-73981287D01*
X128037789Y-74281568D01*
X128218361Y-74551814D01*
X128448186Y-74781639D01*
X128718432Y-74962211D01*
X129018713Y-75086592D01*
X129337489Y-75150000D01*
X129662511Y-75150000D01*
X129981287Y-75086592D01*
X130281568Y-74962211D01*
X130551814Y-74781639D01*
X130781639Y-74551814D01*
X130962211Y-74281568D01*
X131086592Y-73981287D01*
X131137225Y-73726735D01*
X133678000Y-73726735D01*
X133678000Y-73953265D01*
X133722194Y-74175443D01*
X133808884Y-74384729D01*
X133934737Y-74573082D01*
X134094918Y-74733263D01*
X134283271Y-74859116D01*
X134492557Y-74945806D01*
X134714735Y-74990000D01*
X134941265Y-74990000D01*
X135163443Y-74945806D01*
X135372729Y-74859116D01*
X135561082Y-74733263D01*
X135721263Y-74573082D01*
X135847116Y-74384729D01*
X135933806Y-74175443D01*
X135978000Y-73953265D01*
X135978000Y-73726735D01*
X136218000Y-73726735D01*
X136218000Y-73953265D01*
X136262194Y-74175443D01*
X136348884Y-74384729D01*
X136474737Y-74573082D01*
X136634918Y-74733263D01*
X136823271Y-74859116D01*
X137032557Y-74945806D01*
X137254735Y-74990000D01*
X137481265Y-74990000D01*
X137703443Y-74945806D01*
X137912729Y-74859116D01*
X138101082Y-74733263D01*
X138131603Y-74702742D01*
X139257390Y-74702742D01*
X139355876Y-74855129D01*
X139564526Y-74943338D01*
X139786377Y-74989145D01*
X140012901Y-74990792D01*
X140235393Y-74948215D01*
X140445305Y-74863049D01*
X140460124Y-74855129D01*
X140558610Y-74702742D01*
X139908000Y-74052132D01*
X139257390Y-74702742D01*
X138131603Y-74702742D01*
X138261263Y-74573082D01*
X138387116Y-74384729D01*
X138473806Y-74175443D01*
X138518000Y-73953265D01*
X138518000Y-73944901D01*
X138757208Y-73944901D01*
X138799785Y-74167393D01*
X138884951Y-74377305D01*
X138892871Y-74392124D01*
X139045258Y-74490610D01*
X139695868Y-73840000D01*
X140120132Y-73840000D01*
X140770742Y-74490610D01*
X140923129Y-74392124D01*
X141011338Y-74183474D01*
X141057145Y-73961623D01*
X141058792Y-73735099D01*
X141016215Y-73512607D01*
X140931049Y-73302695D01*
X140923129Y-73287876D01*
X140770742Y-73189390D01*
X140120132Y-73840000D01*
X139695868Y-73840000D01*
X139045258Y-73189390D01*
X138892871Y-73287876D01*
X138804662Y-73496526D01*
X138758855Y-73718377D01*
X138757208Y-73944901D01*
X138518000Y-73944901D01*
X138518000Y-73726735D01*
X138473806Y-73504557D01*
X138387116Y-73295271D01*
X138261263Y-73106918D01*
X138131603Y-72977258D01*
X139257390Y-72977258D01*
X139908000Y-73627868D01*
X140558610Y-72977258D01*
X140460124Y-72824871D01*
X140446322Y-72819036D01*
X154227106Y-72819036D01*
X154275019Y-72943109D01*
X154368168Y-73082653D01*
X154486751Y-73201343D01*
X154626211Y-73294618D01*
X154781188Y-73358894D01*
X154945727Y-73391700D01*
X155080000Y-73319397D01*
X155080000Y-72690000D01*
X155380000Y-72690000D01*
X155380000Y-73319397D01*
X155514273Y-73391700D01*
X155678812Y-73358894D01*
X155833789Y-73294618D01*
X155973249Y-73201343D01*
X156091832Y-73082653D01*
X156184981Y-72943109D01*
X156232894Y-72819036D01*
X156190345Y-72690000D01*
X155380000Y-72690000D01*
X155080000Y-72690000D01*
X154269655Y-72690000D01*
X154227106Y-72819036D01*
X140446322Y-72819036D01*
X140251474Y-72736662D01*
X140029623Y-72690855D01*
X139803099Y-72689208D01*
X139580607Y-72731785D01*
X139370695Y-72816951D01*
X139355876Y-72824871D01*
X139257390Y-72977258D01*
X138131603Y-72977258D01*
X138101082Y-72946737D01*
X137912729Y-72820884D01*
X137703443Y-72734194D01*
X137481265Y-72690000D01*
X137254735Y-72690000D01*
X137032557Y-72734194D01*
X136823271Y-72820884D01*
X136634918Y-72946737D01*
X136474737Y-73106918D01*
X136348884Y-73295271D01*
X136262194Y-73504557D01*
X136218000Y-73726735D01*
X135978000Y-73726735D01*
X135933806Y-73504557D01*
X135847116Y-73295271D01*
X135721263Y-73106918D01*
X135561082Y-72946737D01*
X135372729Y-72820884D01*
X135163443Y-72734194D01*
X134941265Y-72690000D01*
X134714735Y-72690000D01*
X134492557Y-72734194D01*
X134283271Y-72820884D01*
X134094918Y-72946737D01*
X133934737Y-73106918D01*
X133808884Y-73295271D01*
X133722194Y-73504557D01*
X133678000Y-73726735D01*
X131137225Y-73726735D01*
X131150000Y-73662511D01*
X131150000Y-73337489D01*
X131086592Y-73018713D01*
X130962211Y-72718432D01*
X130835545Y-72528861D01*
X157126934Y-72528861D01*
X157178284Y-72661700D01*
X157279350Y-72824444D01*
X157410224Y-72964344D01*
X157565877Y-73076023D01*
X157740326Y-73155190D01*
X157926868Y-73198803D01*
X158080000Y-73131920D01*
X158080000Y-72380000D01*
X158380000Y-72380000D01*
X158380000Y-73131920D01*
X158533132Y-73198803D01*
X158719674Y-73155190D01*
X158894123Y-73076023D01*
X159049776Y-72964344D01*
X159180650Y-72824444D01*
X159281716Y-72661700D01*
X159333066Y-72528861D01*
X159292412Y-72380000D01*
X158380000Y-72380000D01*
X158080000Y-72380000D01*
X157167588Y-72380000D01*
X157126934Y-72528861D01*
X130835545Y-72528861D01*
X130781639Y-72448186D01*
X130594417Y-72260964D01*
X154227106Y-72260964D01*
X154269655Y-72390000D01*
X155080000Y-72390000D01*
X155080000Y-71760603D01*
X155380000Y-71760603D01*
X155380000Y-72390000D01*
X156190345Y-72390000D01*
X156232894Y-72260964D01*
X156184981Y-72136891D01*
X156091832Y-71997347D01*
X156025684Y-71931139D01*
X157126934Y-71931139D01*
X157167588Y-72080000D01*
X158080000Y-72080000D01*
X158080000Y-71328080D01*
X158380000Y-71328080D01*
X158380000Y-72080000D01*
X159292412Y-72080000D01*
X159333066Y-71931139D01*
X159281716Y-71798300D01*
X159180650Y-71635556D01*
X159049776Y-71495656D01*
X158894123Y-71383977D01*
X158719674Y-71304810D01*
X158533132Y-71261197D01*
X158380000Y-71328080D01*
X158080000Y-71328080D01*
X157926868Y-71261197D01*
X157740326Y-71304810D01*
X157565877Y-71383977D01*
X157410224Y-71495656D01*
X157279350Y-71635556D01*
X157178284Y-71798300D01*
X157126934Y-71931139D01*
X156025684Y-71931139D01*
X155973249Y-71878657D01*
X155833789Y-71785382D01*
X155678812Y-71721106D01*
X155514273Y-71688300D01*
X155380000Y-71760603D01*
X155080000Y-71760603D01*
X154945727Y-71688300D01*
X154781188Y-71721106D01*
X154626211Y-71785382D01*
X154486751Y-71878657D01*
X154368168Y-71997347D01*
X154275019Y-72136891D01*
X154227106Y-72260964D01*
X130594417Y-72260964D01*
X130551814Y-72218361D01*
X130281568Y-72037789D01*
X129981287Y-71913408D01*
X129662511Y-71850000D01*
X129337489Y-71850000D01*
X129018713Y-71913408D01*
X128718432Y-72037789D01*
X128448186Y-72218361D01*
X128218361Y-72448186D01*
X128037789Y-72718432D01*
X127913408Y-73018713D01*
X127850000Y-73337489D01*
X121797108Y-73337489D01*
X120350000Y-71890382D01*
X120350000Y-68684828D01*
X130300000Y-68684828D01*
X130300000Y-69315172D01*
X130422975Y-69933405D01*
X130664197Y-70515768D01*
X131014398Y-71039881D01*
X131460119Y-71485602D01*
X131984232Y-71835803D01*
X132566595Y-72077025D01*
X133184828Y-72200000D01*
X133815172Y-72200000D01*
X134433405Y-72077025D01*
X135015768Y-71835803D01*
X135539881Y-71485602D01*
X135985602Y-71039881D01*
X136335803Y-70515768D01*
X136577025Y-69933405D01*
X136700000Y-69315172D01*
X136700000Y-68684828D01*
X136577025Y-68066595D01*
X136335803Y-67484232D01*
X135985602Y-66960119D01*
X135539881Y-66514398D01*
X135015768Y-66164197D01*
X134433405Y-65922975D01*
X133815172Y-65800000D01*
X133184828Y-65800000D01*
X132566595Y-65922975D01*
X131984232Y-66164197D01*
X131460119Y-66514398D01*
X131014398Y-66960119D01*
X130664197Y-67484232D01*
X130422975Y-68066595D01*
X130300000Y-68684828D01*
X120350000Y-68684828D01*
X120350000Y-64374337D01*
X144922064Y-64374337D01*
X144923999Y-64393984D01*
X144924000Y-65012343D01*
X144922064Y-65031999D01*
X144929787Y-65110412D01*
X144952660Y-65185813D01*
X144989802Y-65255301D01*
X145027264Y-65300949D01*
X145027267Y-65300952D01*
X145039789Y-65316210D01*
X145055047Y-65328732D01*
X146627367Y-66901053D01*
X146624000Y-66917981D01*
X146624000Y-67046019D01*
X146648979Y-67171598D01*
X146697978Y-67289890D01*
X146769112Y-67396351D01*
X146859649Y-67486888D01*
X146966110Y-67558022D01*
X147084402Y-67607021D01*
X147209981Y-67632000D01*
X147338019Y-67632000D01*
X147463598Y-67607021D01*
X147581890Y-67558022D01*
X147688351Y-67486888D01*
X147778888Y-67396351D01*
X147850022Y-67289890D01*
X147899021Y-67171598D01*
X147924000Y-67046019D01*
X147924000Y-66917981D01*
X147899021Y-66792402D01*
X147850022Y-66674110D01*
X147833912Y-66649999D01*
X154323549Y-66649999D01*
X154323549Y-67350001D01*
X154334145Y-67457584D01*
X154365526Y-67561032D01*
X154416485Y-67656370D01*
X154485065Y-67739935D01*
X154568630Y-67808515D01*
X154663968Y-67859474D01*
X154767416Y-67890855D01*
X154874999Y-67901451D01*
X156125001Y-67901451D01*
X156232584Y-67890855D01*
X156336032Y-67859474D01*
X156431370Y-67808515D01*
X156514935Y-67739935D01*
X156583515Y-67656370D01*
X156634474Y-67561032D01*
X156665855Y-67457584D01*
X156676451Y-67350001D01*
X156676451Y-66649999D01*
X156665855Y-66542416D01*
X156634474Y-66438968D01*
X156583515Y-66343630D01*
X156514935Y-66260065D01*
X156431370Y-66191485D01*
X156336032Y-66140526D01*
X156232584Y-66109145D01*
X156125001Y-66098549D01*
X154874999Y-66098549D01*
X154767416Y-66109145D01*
X154663968Y-66140526D01*
X154568630Y-66191485D01*
X154485065Y-66260065D01*
X154416485Y-66343630D01*
X154365526Y-66438968D01*
X154334145Y-66542416D01*
X154323549Y-66649999D01*
X147833912Y-66649999D01*
X147778888Y-66567649D01*
X147688351Y-66477112D01*
X147683693Y-66474000D01*
X147688351Y-66470888D01*
X147778888Y-66380351D01*
X147850022Y-66273890D01*
X147899021Y-66155598D01*
X147924000Y-66030019D01*
X147924000Y-65901981D01*
X147899021Y-65776402D01*
X147850022Y-65658110D01*
X147778888Y-65551649D01*
X147688351Y-65461112D01*
X147674000Y-65451523D01*
X147674000Y-65286975D01*
X154371979Y-65286975D01*
X154450606Y-65494644D01*
X154561986Y-65636216D01*
X154698845Y-65753339D01*
X154855924Y-65841512D01*
X155027187Y-65897346D01*
X155206051Y-65918695D01*
X155350000Y-65835349D01*
X155350000Y-65150000D01*
X155650000Y-65150000D01*
X155650000Y-65835349D01*
X155793949Y-65918695D01*
X155972813Y-65897346D01*
X156144076Y-65841512D01*
X156301155Y-65753339D01*
X156438014Y-65636216D01*
X156549394Y-65494644D01*
X156628021Y-65286975D01*
X156586249Y-65150000D01*
X155650000Y-65150000D01*
X155350000Y-65150000D01*
X154413751Y-65150000D01*
X154371979Y-65286975D01*
X147674000Y-65286975D01*
X147674000Y-64713025D01*
X154371979Y-64713025D01*
X154413751Y-64850000D01*
X155350000Y-64850000D01*
X155350000Y-64164651D01*
X155650000Y-64164651D01*
X155650000Y-64850000D01*
X156586249Y-64850000D01*
X156628021Y-64713025D01*
X156549394Y-64505356D01*
X156438014Y-64363784D01*
X156301155Y-64246661D01*
X156144076Y-64158488D01*
X155972813Y-64102654D01*
X155793949Y-64081305D01*
X155650000Y-64164651D01*
X155350000Y-64164651D01*
X155206051Y-64081305D01*
X155027187Y-64102654D01*
X154855924Y-64158488D01*
X154698845Y-64246661D01*
X154561986Y-64363784D01*
X154450606Y-64505356D01*
X154371979Y-64713025D01*
X147674000Y-64713025D01*
X147674000Y-64478273D01*
X147675934Y-64458637D01*
X147674000Y-64439001D01*
X147674000Y-64438991D01*
X147668212Y-64380224D01*
X147645340Y-64304824D01*
X147608197Y-64235335D01*
X147558211Y-64174427D01*
X147542949Y-64161902D01*
X147174020Y-63792973D01*
X147174020Y-52528863D01*
X149084884Y-50618000D01*
X149553523Y-50618000D01*
X149563112Y-50632351D01*
X149653649Y-50722888D01*
X149760110Y-50794022D01*
X149878402Y-50843021D01*
X150003981Y-50868000D01*
X150132019Y-50868000D01*
X150257598Y-50843021D01*
X150375890Y-50794022D01*
X150482351Y-50722888D01*
X150498195Y-50707044D01*
X152517697Y-50707044D01*
X152517697Y-50835082D01*
X152542676Y-50960661D01*
X152591675Y-51078953D01*
X152662809Y-51185414D01*
X152753346Y-51275951D01*
X152859807Y-51347085D01*
X152978099Y-51396084D01*
X153103678Y-51421063D01*
X153231716Y-51421063D01*
X153357295Y-51396084D01*
X153475587Y-51347085D01*
X153582048Y-51275951D01*
X153672585Y-51185414D01*
X153682174Y-51171063D01*
X155027378Y-51171063D01*
X155319501Y-51463186D01*
X155319500Y-56815523D01*
X155305149Y-56825112D01*
X155214612Y-56915649D01*
X155143478Y-57022110D01*
X155094479Y-57140402D01*
X155069500Y-57265981D01*
X155069500Y-57394019D01*
X155094479Y-57519598D01*
X155143478Y-57637890D01*
X155214612Y-57744351D01*
X155305149Y-57834888D01*
X155411610Y-57906022D01*
X155529902Y-57955021D01*
X155655481Y-57980000D01*
X155783519Y-57980000D01*
X155909098Y-57955021D01*
X156027390Y-57906022D01*
X156133851Y-57834888D01*
X156224388Y-57744351D01*
X156295522Y-57637890D01*
X156344521Y-57519598D01*
X156369500Y-57394019D01*
X156369500Y-57265981D01*
X156344521Y-57140402D01*
X156295522Y-57022110D01*
X156224388Y-56915649D01*
X156133851Y-56825112D01*
X156119500Y-56815523D01*
X156119500Y-51317135D01*
X156121434Y-51297499D01*
X156119500Y-51277863D01*
X156119500Y-51277853D01*
X156113712Y-51219086D01*
X156090840Y-51143686D01*
X156053697Y-51074197D01*
X156003711Y-51013289D01*
X155988448Y-51000763D01*
X155489800Y-50502115D01*
X155477274Y-50486852D01*
X155416366Y-50436866D01*
X155346877Y-50399723D01*
X155271477Y-50376851D01*
X155212710Y-50371063D01*
X155212709Y-50371063D01*
X155193063Y-50369128D01*
X155173417Y-50371063D01*
X153682174Y-50371063D01*
X153672585Y-50356712D01*
X153582048Y-50266175D01*
X153475587Y-50195041D01*
X153357295Y-50146042D01*
X153231716Y-50121063D01*
X153103678Y-50121063D01*
X152978099Y-50146042D01*
X152859807Y-50195041D01*
X152753346Y-50266175D01*
X152662809Y-50356712D01*
X152591675Y-50463173D01*
X152542676Y-50581465D01*
X152517697Y-50707044D01*
X150498195Y-50707044D01*
X150572888Y-50632351D01*
X150644022Y-50525890D01*
X150693021Y-50407598D01*
X150718000Y-50282019D01*
X150718000Y-50153981D01*
X150693021Y-50028402D01*
X150644022Y-49910110D01*
X150572888Y-49803649D01*
X150537238Y-49767999D01*
X150572888Y-49732348D01*
X150644022Y-49625887D01*
X150693021Y-49507595D01*
X150718000Y-49382016D01*
X150718000Y-49253978D01*
X150693021Y-49128399D01*
X150644022Y-49010107D01*
X150572888Y-48903646D01*
X150537238Y-48867996D01*
X150572888Y-48832345D01*
X150644022Y-48725884D01*
X150693021Y-48607592D01*
X150718000Y-48482013D01*
X150718000Y-48353975D01*
X150693021Y-48228396D01*
X150644022Y-48110104D01*
X150572888Y-48003643D01*
X150482351Y-47913106D01*
X150375890Y-47841972D01*
X150257598Y-47792973D01*
X150132019Y-47767994D01*
X150003981Y-47767994D01*
X149878402Y-47792973D01*
X149760110Y-47841972D01*
X149653649Y-47913106D01*
X149563112Y-48003643D01*
X149553533Y-48017980D01*
X149553389Y-48017994D01*
X149553379Y-48017994D01*
X149494612Y-48023782D01*
X149419212Y-48046654D01*
X149349723Y-48083797D01*
X149288815Y-48133783D01*
X149276289Y-48149046D01*
X148880500Y-48544835D01*
X148880500Y-47252500D01*
X155840023Y-47252500D01*
X155849612Y-47266851D01*
X155940149Y-47357388D01*
X156046610Y-47428522D01*
X156164902Y-47477521D01*
X156290481Y-47502500D01*
X156418519Y-47502500D01*
X156544098Y-47477521D01*
X156662390Y-47428522D01*
X156768851Y-47357388D01*
X156859388Y-47266851D01*
X156930522Y-47160390D01*
X156979521Y-47042098D01*
X157004500Y-46916519D01*
X157004500Y-46788481D01*
X156979521Y-46662902D01*
X156930522Y-46544610D01*
X156859388Y-46438149D01*
X156768851Y-46347612D01*
X156662390Y-46276478D01*
X156544098Y-46227479D01*
X156418519Y-46202500D01*
X156290481Y-46202500D01*
X156164902Y-46227479D01*
X156046610Y-46276478D01*
X155940149Y-46347612D01*
X155849612Y-46438149D01*
X155840023Y-46452500D01*
X148646186Y-46452500D01*
X148238133Y-46044447D01*
X148241500Y-46027519D01*
X148241500Y-45899481D01*
X148216521Y-45773902D01*
X148167522Y-45655610D01*
X148096388Y-45549149D01*
X148005851Y-45458612D01*
X147899390Y-45387478D01*
X147781098Y-45338479D01*
X147655519Y-45313500D01*
X147527481Y-45313500D01*
X147401902Y-45338479D01*
X147283610Y-45387478D01*
X147177149Y-45458612D01*
X147086612Y-45549149D01*
X147015478Y-45655610D01*
X146966479Y-45773902D01*
X146941500Y-45899481D01*
X146941500Y-46027519D01*
X146966479Y-46153098D01*
X147015478Y-46271390D01*
X147086612Y-46377851D01*
X147177149Y-46468388D01*
X147283610Y-46539522D01*
X147401902Y-46588521D01*
X147527481Y-46613500D01*
X147655519Y-46613500D01*
X147672447Y-46610133D01*
X148080500Y-47018186D01*
X148080501Y-48779135D01*
X145305042Y-51554594D01*
X145289779Y-51567120D01*
X145239793Y-51628029D01*
X145202650Y-51697518D01*
X145179778Y-51772917D01*
X145179778Y-51772918D01*
X145172055Y-51851331D01*
X145173990Y-51870977D01*
X145173991Y-63958661D01*
X145055052Y-64077599D01*
X145039788Y-64090126D01*
X144989802Y-64151035D01*
X144952659Y-64220524D01*
X144948166Y-64235336D01*
X144929787Y-64295924D01*
X144922064Y-64374337D01*
X120350000Y-64374337D01*
X120350000Y-44819981D01*
X125288000Y-44819981D01*
X125288000Y-44948019D01*
X125312979Y-45073598D01*
X125361978Y-45191890D01*
X125433112Y-45298351D01*
X125523649Y-45388888D01*
X125630110Y-45460022D01*
X125748402Y-45509021D01*
X125873981Y-45534000D01*
X126002019Y-45534000D01*
X126127598Y-45509021D01*
X126245890Y-45460022D01*
X126352351Y-45388888D01*
X126442888Y-45298351D01*
X126452477Y-45284000D01*
X132281523Y-45284000D01*
X132291112Y-45298351D01*
X132381649Y-45388888D01*
X132488110Y-45460022D01*
X132606402Y-45509021D01*
X132731981Y-45534000D01*
X132860019Y-45534000D01*
X132985598Y-45509021D01*
X133103890Y-45460022D01*
X133210351Y-45388888D01*
X133300888Y-45298351D01*
X133372022Y-45191890D01*
X133421021Y-45073598D01*
X133446000Y-44948019D01*
X133446000Y-44819981D01*
X133421021Y-44694402D01*
X133372022Y-44576110D01*
X133300888Y-44469649D01*
X133210351Y-44379112D01*
X133103890Y-44307978D01*
X132985598Y-44258979D01*
X132860019Y-44234000D01*
X132731981Y-44234000D01*
X132606402Y-44258979D01*
X132488110Y-44307978D01*
X132381649Y-44379112D01*
X132291112Y-44469649D01*
X132281523Y-44484000D01*
X126452477Y-44484000D01*
X126442888Y-44469649D01*
X126352351Y-44379112D01*
X126245890Y-44307978D01*
X126127598Y-44258979D01*
X126002019Y-44234000D01*
X125873981Y-44234000D01*
X125748402Y-44258979D01*
X125630110Y-44307978D01*
X125523649Y-44379112D01*
X125433112Y-44469649D01*
X125361978Y-44576110D01*
X125312979Y-44694402D01*
X125288000Y-44819981D01*
X120350000Y-44819981D01*
X120350000Y-35184828D01*
X127800000Y-35184828D01*
X127800000Y-35815172D01*
X127922975Y-36433405D01*
X128164197Y-37015768D01*
X128514398Y-37539881D01*
X128960119Y-37985602D01*
X129484232Y-38335803D01*
X130066595Y-38577025D01*
X130684828Y-38700000D01*
X131315172Y-38700000D01*
X131933405Y-38577025D01*
X132515768Y-38335803D01*
X133039881Y-37985602D01*
X133063502Y-37961981D01*
X138496000Y-37961981D01*
X138496000Y-38090019D01*
X138520979Y-38215598D01*
X138569978Y-38333890D01*
X138641112Y-38440351D01*
X138731649Y-38530888D01*
X138838110Y-38602022D01*
X138956402Y-38651021D01*
X139081981Y-38676000D01*
X139210019Y-38676000D01*
X139335598Y-38651021D01*
X139453890Y-38602022D01*
X139560351Y-38530888D01*
X139650888Y-38440351D01*
X139722022Y-38333890D01*
X139771021Y-38215598D01*
X139796000Y-38090019D01*
X139796000Y-37961981D01*
X139792633Y-37945053D01*
X139834687Y-37902999D01*
X147003500Y-37902999D01*
X147023112Y-37932351D01*
X147113649Y-38022888D01*
X147220110Y-38094022D01*
X147338402Y-38143021D01*
X147463981Y-38168000D01*
X147592019Y-38168000D01*
X147717598Y-38143021D01*
X147835890Y-38094022D01*
X147942351Y-38022888D01*
X148032888Y-37932351D01*
X148104022Y-37825890D01*
X148153021Y-37707598D01*
X148178000Y-37582019D01*
X148178000Y-37453981D01*
X151450000Y-37453981D01*
X151450000Y-37582019D01*
X151474979Y-37707598D01*
X151523978Y-37825890D01*
X151595112Y-37932351D01*
X151685649Y-38022888D01*
X151792110Y-38094022D01*
X151910402Y-38143021D01*
X152035981Y-38168000D01*
X152164019Y-38168000D01*
X152180947Y-38164633D01*
X152716001Y-38699687D01*
X152716000Y-43607523D01*
X152701649Y-43617112D01*
X152611112Y-43707649D01*
X152539978Y-43814110D01*
X152490979Y-43932402D01*
X152466000Y-44057981D01*
X152466000Y-44186019D01*
X152490979Y-44311598D01*
X152539978Y-44429890D01*
X152611112Y-44536351D01*
X152701649Y-44626888D01*
X152808110Y-44698022D01*
X152926402Y-44747021D01*
X153051981Y-44772000D01*
X153180019Y-44772000D01*
X153305598Y-44747021D01*
X153423890Y-44698022D01*
X153530351Y-44626888D01*
X153620888Y-44536351D01*
X153692022Y-44429890D01*
X153741021Y-44311598D01*
X153766000Y-44186019D01*
X153766000Y-44057981D01*
X153741021Y-43932402D01*
X153692022Y-43814110D01*
X153620888Y-43707649D01*
X153530351Y-43617112D01*
X153516000Y-43607523D01*
X153516000Y-38553646D01*
X153517935Y-38534000D01*
X153510212Y-38455586D01*
X153487340Y-38380186D01*
X153450197Y-38310697D01*
X153400211Y-38249789D01*
X153384953Y-38237267D01*
X152746633Y-37598947D01*
X152750000Y-37582019D01*
X152750000Y-37453981D01*
X152725021Y-37328402D01*
X152676022Y-37210110D01*
X152604888Y-37103649D01*
X152514351Y-37013112D01*
X152407890Y-36941978D01*
X152289598Y-36892979D01*
X152164019Y-36868000D01*
X152035981Y-36868000D01*
X151910402Y-36892979D01*
X151792110Y-36941978D01*
X151685649Y-37013112D01*
X151595112Y-37103649D01*
X151523978Y-37210110D01*
X151474979Y-37328402D01*
X151450000Y-37453981D01*
X148178000Y-37453981D01*
X148153021Y-37328402D01*
X148104022Y-37210110D01*
X148032888Y-37103649D01*
X147942351Y-37013112D01*
X147835890Y-36941978D01*
X147717598Y-36892979D01*
X147592019Y-36868000D01*
X147463981Y-36868000D01*
X147338402Y-36892979D01*
X147220110Y-36941978D01*
X147113649Y-37013112D01*
X147023762Y-37102999D01*
X139688636Y-37102999D01*
X139669000Y-37101065D01*
X139649364Y-37102999D01*
X139649354Y-37102999D01*
X139590587Y-37108787D01*
X139515187Y-37131659D01*
X139445698Y-37168802D01*
X139413496Y-37195230D01*
X139400050Y-37206264D01*
X139400048Y-37206266D01*
X139384790Y-37218788D01*
X139372268Y-37234046D01*
X139226947Y-37379367D01*
X139210019Y-37376000D01*
X139081981Y-37376000D01*
X138956402Y-37400979D01*
X138838110Y-37449978D01*
X138731649Y-37521112D01*
X138641112Y-37611649D01*
X138569978Y-37718110D01*
X138520979Y-37836402D01*
X138496000Y-37961981D01*
X133063502Y-37961981D01*
X133485602Y-37539881D01*
X133835803Y-37015768D01*
X134077025Y-36433405D01*
X134200000Y-35815172D01*
X134200000Y-35184828D01*
X134077025Y-34566595D01*
X133835803Y-33984232D01*
X133485602Y-33460119D01*
X133039881Y-33014398D01*
X132515768Y-32664197D01*
X131933405Y-32422975D01*
X131315172Y-32300000D01*
X130684828Y-32300000D01*
X130066595Y-32422975D01*
X129484232Y-32664197D01*
X128960119Y-33014398D01*
X128514398Y-33460119D01*
X128164197Y-33984232D01*
X127922975Y-34566595D01*
X127800000Y-35184828D01*
X120350000Y-35184828D01*
X120350000Y-30325000D01*
X142675000Y-30325000D01*
X142675001Y-33515961D01*
G37*
G04 #@! TD.AperFunction*
G04 #@! TD*
M02*
