M48
INCH,TZ
T1C0.0118
T2C0.0157
T3C0.0256
T4C0.0276
T5C0.0295
T6C0.0394
T7C0.0866
T8C0.1063
%
G90
G05
T1
X49082Y-15371
X49582Y-17671
X51811Y-23622
X52282Y-17671
X54782Y-14971
X55432Y-15021
X55482Y-28471
X55591Y-22815
X57332Y-16721
X57470Y-25467
X57482Y-18096
X57632Y-30171
X57726Y-25720
X57982Y-25971
X57982Y-26371
X58082Y-14771
X58107Y-18096
X58740Y-22815
X59082Y-19062
X59082Y-19417
X59082Y-19771
X59082Y-21271
X59882Y-14771
X60282Y-17371
X60302Y-19989
X60732Y-14771
X61307Y-22571
X61557Y-18446
X61682Y-22571
T2
X62008Y-14370
T5
X61220Y-25591
X61220Y-26378
T6
X53082Y-29071
X53082Y-30071
X54082Y-29071
X54082Y-30071
X55082Y-29071
X55082Y-30071
T7
X51575Y-13976
X52559Y-27165
T8
X50984Y-28937
T3
G00X61193Y-28559
M15
G01X61035Y-28559
M16
G05
G00X61193Y-30465
M15
G01X61035Y-30465
M16
G05
T4
G00X62394Y-28437
M15
G01X62197Y-28437
M16
G05
G00X62394Y-30587
M15
G01X62197Y-30587
M16
G05
T0
M30
