G04 #@! TF.GenerationSoftware,KiCad,Pcbnew,(5.1.8)-1*
G04 #@! TF.CreationDate,2020-12-20T21:52:24-08:00*
G04 #@! TF.ProjectId,wired-sculpt,77697265-642d-4736-9375-6c70742e6b69,rev?*
G04 #@! TF.SameCoordinates,Original*
G04 #@! TF.FileFunction,Copper,L1,Top*
G04 #@! TF.FilePolarity,Positive*
%FSLAX46Y46*%
G04 Gerber Fmt 4.6, Leading zero omitted, Abs format (unit mm)*
G04 Created by KiCad (PCBNEW (5.1.8)-1) date 2020-12-20 21:52:24*
%MOMM*%
%LPD*%
G01*
G04 APERTURE LIST*
G04 #@! TA.AperFunction,SMDPad,CuDef*
%ADD10R,1.500000X0.550000*%
G04 #@! TD*
G04 #@! TA.AperFunction,SMDPad,CuDef*
%ADD11R,0.550000X1.500000*%
G04 #@! TD*
G04 #@! TA.AperFunction,ComponentPad*
%ADD12C,1.700000*%
G04 #@! TD*
G04 #@! TA.AperFunction,SMDPad,CuDef*
%ADD13R,2.000000X0.610000*%
G04 #@! TD*
G04 #@! TA.AperFunction,SMDPad,CuDef*
%ADD14R,3.600000X2.680000*%
G04 #@! TD*
G04 #@! TA.AperFunction,SMDPad,CuDef*
%ADD15R,2.000000X1.350000*%
G04 #@! TD*
G04 #@! TA.AperFunction,SMDPad,CuDef*
%ADD16R,0.700000X1.825000*%
G04 #@! TD*
G04 #@! TA.AperFunction,SMDPad,CuDef*
%ADD17R,1.500000X2.000000*%
G04 #@! TD*
G04 #@! TA.AperFunction,SMDPad,CuDef*
%ADD18R,1.650000X0.400000*%
G04 #@! TD*
G04 #@! TA.AperFunction,ComponentPad*
%ADD19O,1.500000X1.100000*%
G04 #@! TD*
G04 #@! TA.AperFunction,ComponentPad*
%ADD20O,1.700000X1.350000*%
G04 #@! TD*
G04 #@! TA.AperFunction,SMDPad,CuDef*
%ADD21R,2.500000X1.430000*%
G04 #@! TD*
G04 #@! TA.AperFunction,SMDPad,CuDef*
%ADD22R,1.600000X2.180000*%
G04 #@! TD*
G04 #@! TA.AperFunction,SMDPad,CuDef*
%ADD23R,1.400000X1.200000*%
G04 #@! TD*
G04 #@! TA.AperFunction,SMDPad,CuDef*
%ADD24R,0.650000X1.060000*%
G04 #@! TD*
G04 #@! TA.AperFunction,ViaPad*
%ADD25C,0.900000*%
G04 #@! TD*
G04 #@! TA.AperFunction,ViaPad*
%ADD26C,0.700000*%
G04 #@! TD*
G04 #@! TA.AperFunction,Conductor*
%ADD27C,0.200000*%
G04 #@! TD*
G04 #@! TA.AperFunction,Conductor*
%ADD28C,0.500000*%
G04 #@! TD*
G04 #@! TA.AperFunction,Conductor*
%ADD29C,0.400000*%
G04 #@! TD*
G04 APERTURE END LIST*
D10*
G04 #@! TO.P,U1,1*
G04 #@! TO.N,Net-(U1-Pad1)*
X151700000Y-58000000D03*
G04 #@! TO.P,U1,2*
G04 #@! TO.N,Net-(U1-Pad2)*
X151700000Y-57200000D03*
G04 #@! TO.P,U1,3*
G04 #@! TO.N,VBUS*
X151700000Y-56400000D03*
G04 #@! TO.P,U1,4*
G04 #@! TO.N,D-*
X151700000Y-55600000D03*
G04 #@! TO.P,U1,5*
G04 #@! TO.N,D+*
X151700000Y-54800000D03*
G04 #@! TO.P,U1,6*
G04 #@! TO.N,GND*
X151700000Y-54000000D03*
G04 #@! TO.P,U1,7*
G04 #@! TO.N,Net-(C4-Pad1)*
X151700000Y-53200000D03*
G04 #@! TO.P,U1,8*
G04 #@! TO.N,VBUS*
X151700000Y-52400000D03*
G04 #@! TO.P,U1,9*
G04 #@! TO.N,Net-(U1-Pad9)*
X151700000Y-51600000D03*
G04 #@! TO.P,U1,10*
G04 #@! TO.N,Net-(U1-Pad10)*
X151700000Y-50800000D03*
G04 #@! TO.P,U1,11*
G04 #@! TO.N,SCK*
X151700000Y-50000000D03*
G04 #@! TO.P,U1,12*
G04 #@! TO.N,MOSI*
X151700000Y-49200000D03*
G04 #@! TO.P,U1,13*
G04 #@! TO.N,MISO*
X151700000Y-48400000D03*
G04 #@! TO.P,U1,14*
G04 #@! TO.N,Net-(U1-Pad14)*
X151700000Y-47600000D03*
G04 #@! TO.P,U1,15*
G04 #@! TO.N,LED*
X151700000Y-46800000D03*
G04 #@! TO.P,U1,16*
G04 #@! TO.N,Net-(U1-Pad16)*
X151700000Y-46000000D03*
D11*
G04 #@! TO.P,U1,17*
G04 #@! TO.N,Net-(U1-Pad17)*
X150000000Y-44300000D03*
G04 #@! TO.P,U1,18*
G04 #@! TO.N,Net-(U1-Pad18)*
X149200000Y-44300000D03*
G04 #@! TO.P,U1,19*
G04 #@! TO.N,Net-(U1-Pad19)*
X148400000Y-44300000D03*
G04 #@! TO.P,U1,20*
G04 #@! TO.N,RST*
X147600000Y-44300000D03*
G04 #@! TO.P,U1,21*
G04 #@! TO.N,VBUS*
X146800000Y-44300000D03*
G04 #@! TO.P,U1,22*
G04 #@! TO.N,GND*
X146000000Y-44300000D03*
G04 #@! TO.P,U1,23*
G04 #@! TO.N,Net-(C3-Pad1)*
X145200000Y-44300000D03*
G04 #@! TO.P,U1,24*
G04 #@! TO.N,Net-(C2-Pad1)*
X144400000Y-44300000D03*
G04 #@! TO.P,U1,25*
G04 #@! TO.N,Net-(U1-Pad25)*
X143600000Y-44300000D03*
G04 #@! TO.P,U1,26*
G04 #@! TO.N,Net-(J4-Pad2)*
X142800000Y-44300000D03*
G04 #@! TO.P,U1,27*
G04 #@! TO.N,Net-(J4-Pad3)*
X142000000Y-44300000D03*
G04 #@! TO.P,U1,28*
G04 #@! TO.N,Net-(J4-Pad4)*
X141200000Y-44300000D03*
G04 #@! TO.P,U1,29*
G04 #@! TO.N,Net-(J4-Pad5)*
X140400000Y-44300000D03*
G04 #@! TO.P,U1,30*
G04 #@! TO.N,Net-(J4-Pad6)*
X139600000Y-44300000D03*
G04 #@! TO.P,U1,31*
G04 #@! TO.N,Net-(J4-Pad7)*
X138800000Y-44300000D03*
G04 #@! TO.P,U1,32*
G04 #@! TO.N,Net-(J4-Pad8)*
X138000000Y-44300000D03*
D10*
G04 #@! TO.P,U1,33*
G04 #@! TO.N,PE0*
X136300000Y-46000000D03*
G04 #@! TO.P,U1,34*
G04 #@! TO.N,PE1*
X136300000Y-46800000D03*
G04 #@! TO.P,U1,35*
G04 #@! TO.N,Net-(J4-Pad11)*
X136300000Y-47600000D03*
G04 #@! TO.P,U1,36*
G04 #@! TO.N,Net-(J4-Pad12)*
X136300000Y-48400000D03*
G04 #@! TO.P,U1,37*
G04 #@! TO.N,Net-(J4-Pad13)*
X136300000Y-49200000D03*
G04 #@! TO.P,U1,38*
G04 #@! TO.N,Net-(J4-Pad14)*
X136300000Y-50000000D03*
G04 #@! TO.P,U1,39*
G04 #@! TO.N,Net-(J4-Pad15)*
X136300000Y-50800000D03*
G04 #@! TO.P,U1,40*
G04 #@! TO.N,Net-(J4-Pad16)*
X136300000Y-51600000D03*
G04 #@! TO.P,U1,41*
G04 #@! TO.N,Net-(J4-Pad17)*
X136300000Y-52400000D03*
G04 #@! TO.P,U1,42*
G04 #@! TO.N,Net-(J4-Pad18)*
X136300000Y-53200000D03*
G04 #@! TO.P,U1,43*
G04 #@! TO.N,Net-(R8-Pad1)*
X136300000Y-54000000D03*
G04 #@! TO.P,U1,44*
G04 #@! TO.N,Net-(J4-Pad19)*
X136300000Y-54800000D03*
G04 #@! TO.P,U1,45*
G04 #@! TO.N,Net-(J4-Pad20)*
X136300000Y-55600000D03*
G04 #@! TO.P,U1,46*
G04 #@! TO.N,Net-(J4-Pad21)*
X136300000Y-56400000D03*
G04 #@! TO.P,U1,47*
G04 #@! TO.N,Net-(J4-Pad22)*
X136300000Y-57200000D03*
G04 #@! TO.P,U1,48*
G04 #@! TO.N,Net-(J4-Pad23)*
X136300000Y-58000000D03*
D11*
G04 #@! TO.P,U1,49*
G04 #@! TO.N,Net-(J4-Pad24)*
X138000000Y-59700000D03*
G04 #@! TO.P,U1,50*
G04 #@! TO.N,Net-(J4-Pad25)*
X138800000Y-59700000D03*
G04 #@! TO.P,U1,51*
G04 #@! TO.N,Net-(J4-Pad26)*
X139600000Y-59700000D03*
G04 #@! TO.P,U1,52*
G04 #@! TO.N,VBUS*
X140400000Y-59700000D03*
G04 #@! TO.P,U1,53*
G04 #@! TO.N,GND*
X141200000Y-59700000D03*
G04 #@! TO.P,U1,54*
G04 #@! TO.N,PF7*
X142000000Y-59700000D03*
G04 #@! TO.P,U1,55*
G04 #@! TO.N,PF6*
X142800000Y-59700000D03*
G04 #@! TO.P,U1,56*
G04 #@! TO.N,PF5*
X143600000Y-59700000D03*
G04 #@! TO.P,U1,57*
G04 #@! TO.N,PF4*
X144400000Y-59700000D03*
G04 #@! TO.P,U1,58*
G04 #@! TO.N,Net-(U1-Pad58)*
X145200000Y-59700000D03*
G04 #@! TO.P,U1,59*
G04 #@! TO.N,Net-(U1-Pad59)*
X146000000Y-59700000D03*
G04 #@! TO.P,U1,60*
G04 #@! TO.N,Net-(U1-Pad60)*
X146800000Y-59700000D03*
G04 #@! TO.P,U1,61*
G04 #@! TO.N,Net-(U1-Pad61)*
X147600000Y-59700000D03*
G04 #@! TO.P,U1,62*
G04 #@! TO.N,Net-(U1-Pad62)*
X148400000Y-59700000D03*
G04 #@! TO.P,U1,63*
G04 #@! TO.N,GND*
X149200000Y-59700000D03*
G04 #@! TO.P,U1,64*
G04 #@! TO.N,VBUS*
X150000000Y-59700000D03*
G04 #@! TD*
G04 #@! TO.P,J3,1*
G04 #@! TO.N,Net-(J3-Pad1)*
G04 #@! TA.AperFunction,ComponentPad*
G36*
G01*
X144250000Y-72900000D02*
X145450000Y-72900000D01*
G75*
G02*
X145700000Y-73150000I0J-250000D01*
G01*
X145700000Y-74350000D01*
G75*
G02*
X145450000Y-74600000I-250000J0D01*
G01*
X144250000Y-74600000D01*
G75*
G02*
X144000000Y-74350000I0J250000D01*
G01*
X144000000Y-73150000D01*
G75*
G02*
X144250000Y-72900000I250000J0D01*
G01*
G37*
G04 #@! TD.AperFunction*
D12*
G04 #@! TO.P,J3,3*
G04 #@! TO.N,Net-(J3-Pad3)*
X142310000Y-73750000D03*
G04 #@! TO.P,J3,5*
G04 #@! TO.N,RST*
X139770000Y-73750000D03*
G04 #@! TO.P,J3,2*
G04 #@! TO.N,VBUS*
X144850000Y-76290000D03*
G04 #@! TO.P,J3,4*
G04 #@! TO.N,Net-(J3-Pad4)*
X142310000Y-76290000D03*
G04 #@! TO.P,J3,6*
G04 #@! TO.N,GND*
X139770000Y-76290000D03*
G04 #@! TD*
G04 #@! TO.P,R1,1*
G04 #@! TO.N,Net-(R1-Pad1)*
G04 #@! TA.AperFunction,SMDPad,CuDef*
G36*
G01*
X156225000Y-62100000D02*
X156775000Y-62100000D01*
G75*
G02*
X156975000Y-62300000I0J-200000D01*
G01*
X156975000Y-62700000D01*
G75*
G02*
X156775000Y-62900000I-200000J0D01*
G01*
X156225000Y-62900000D01*
G75*
G02*
X156025000Y-62700000I0J200000D01*
G01*
X156025000Y-62300000D01*
G75*
G02*
X156225000Y-62100000I200000J0D01*
G01*
G37*
G04 #@! TD.AperFunction*
G04 #@! TO.P,R1,2*
G04 #@! TO.N,Din+*
G04 #@! TA.AperFunction,SMDPad,CuDef*
G36*
G01*
X156225000Y-63750000D02*
X156775000Y-63750000D01*
G75*
G02*
X156975000Y-63950000I0J-200000D01*
G01*
X156975000Y-64350000D01*
G75*
G02*
X156775000Y-64550000I-200000J0D01*
G01*
X156225000Y-64550000D01*
G75*
G02*
X156025000Y-64350000I0J200000D01*
G01*
X156025000Y-63950000D01*
G75*
G02*
X156225000Y-63750000I200000J0D01*
G01*
G37*
G04 #@! TD.AperFunction*
G04 #@! TD*
D13*
G04 #@! TO.P,J4,1*
G04 #@! TO.N,GND*
X128300000Y-39000000D03*
G04 #@! TO.P,J4,2*
G04 #@! TO.N,Net-(J4-Pad2)*
X128300000Y-40000000D03*
G04 #@! TO.P,J4,3*
G04 #@! TO.N,Net-(J4-Pad3)*
X128300000Y-41000000D03*
G04 #@! TO.P,J4,4*
G04 #@! TO.N,Net-(J4-Pad4)*
X128300000Y-42000000D03*
G04 #@! TO.P,J4,5*
G04 #@! TO.N,Net-(J4-Pad5)*
X128300000Y-43000000D03*
G04 #@! TO.P,J4,6*
G04 #@! TO.N,Net-(J4-Pad6)*
X128300000Y-44000000D03*
G04 #@! TO.P,J4,7*
G04 #@! TO.N,Net-(J4-Pad7)*
X128300000Y-45000000D03*
G04 #@! TO.P,J4,8*
G04 #@! TO.N,Net-(J4-Pad8)*
X128300000Y-46000000D03*
G04 #@! TO.P,J4,9*
G04 #@! TO.N,PE0*
X128300000Y-47000000D03*
G04 #@! TO.P,J4,10*
G04 #@! TO.N,PE1*
X128300000Y-48000000D03*
G04 #@! TO.P,J4,11*
G04 #@! TO.N,Net-(J4-Pad11)*
X128300000Y-49000000D03*
G04 #@! TO.P,J4,12*
G04 #@! TO.N,Net-(J4-Pad12)*
X128300000Y-50000000D03*
G04 #@! TO.P,J4,13*
G04 #@! TO.N,Net-(J4-Pad13)*
X128300000Y-51000000D03*
G04 #@! TO.P,J4,14*
G04 #@! TO.N,Net-(J4-Pad14)*
X128300000Y-52000000D03*
G04 #@! TO.P,J4,15*
G04 #@! TO.N,Net-(J4-Pad15)*
X128300000Y-53000000D03*
G04 #@! TO.P,J4,16*
G04 #@! TO.N,Net-(J4-Pad16)*
X128300000Y-54000000D03*
G04 #@! TO.P,J4,17*
G04 #@! TO.N,Net-(J4-Pad17)*
X128300000Y-55000000D03*
G04 #@! TO.P,J4,18*
G04 #@! TO.N,Net-(J4-Pad18)*
X128300000Y-56000000D03*
G04 #@! TO.P,J4,19*
G04 #@! TO.N,Net-(J4-Pad19)*
X128300000Y-57000000D03*
G04 #@! TO.P,J4,20*
G04 #@! TO.N,Net-(J4-Pad20)*
X128300000Y-58000000D03*
G04 #@! TO.P,J4,21*
G04 #@! TO.N,Net-(J4-Pad21)*
X128300000Y-59000000D03*
G04 #@! TO.P,J4,22*
G04 #@! TO.N,Net-(J4-Pad22)*
X128300000Y-60000000D03*
G04 #@! TO.P,J4,23*
G04 #@! TO.N,Net-(J4-Pad23)*
X128300000Y-61000000D03*
G04 #@! TO.P,J4,24*
G04 #@! TO.N,Net-(J4-Pad24)*
X128300000Y-62000000D03*
G04 #@! TO.P,J4,25*
G04 #@! TO.N,Net-(J4-Pad25)*
X128300000Y-63000000D03*
G04 #@! TO.P,J4,26*
G04 #@! TO.N,Net-(J4-Pad26)*
X128300000Y-64000000D03*
G04 #@! TO.P,J4,27*
G04 #@! TO.N,PF7*
X128300000Y-65000000D03*
G04 #@! TO.P,J4,28*
G04 #@! TO.N,PF6*
X128300000Y-66000000D03*
G04 #@! TO.P,J4,29*
G04 #@! TO.N,PF5*
X128300000Y-67000000D03*
G04 #@! TO.P,J4,30*
G04 #@! TO.N,PF4*
X128300000Y-68000000D03*
D14*
G04 #@! TO.P,J4,MP*
G04 #@! TO.N,GND*
X125500000Y-36010000D03*
X125500000Y-70990000D03*
G04 #@! TD*
G04 #@! TO.P,C2,2*
G04 #@! TO.N,GND*
G04 #@! TA.AperFunction,SMDPad,CuDef*
G36*
G01*
X142200000Y-38850000D02*
X141700000Y-38850000D01*
G75*
G02*
X141475000Y-38625000I0J225000D01*
G01*
X141475000Y-38175000D01*
G75*
G02*
X141700000Y-37950000I225000J0D01*
G01*
X142200000Y-37950000D01*
G75*
G02*
X142425000Y-38175000I0J-225000D01*
G01*
X142425000Y-38625000D01*
G75*
G02*
X142200000Y-38850000I-225000J0D01*
G01*
G37*
G04 #@! TD.AperFunction*
G04 #@! TO.P,C2,1*
G04 #@! TO.N,Net-(C2-Pad1)*
G04 #@! TA.AperFunction,SMDPad,CuDef*
G36*
G01*
X142200000Y-40400000D02*
X141700000Y-40400000D01*
G75*
G02*
X141475000Y-40175000I0J225000D01*
G01*
X141475000Y-39725000D01*
G75*
G02*
X141700000Y-39500000I225000J0D01*
G01*
X142200000Y-39500000D01*
G75*
G02*
X142425000Y-39725000I0J-225000D01*
G01*
X142425000Y-40175000D01*
G75*
G02*
X142200000Y-40400000I-225000J0D01*
G01*
G37*
G04 #@! TD.AperFunction*
G04 #@! TD*
G04 #@! TO.P,C3,1*
G04 #@! TO.N,Net-(C3-Pad1)*
G04 #@! TA.AperFunction,SMDPad,CuDef*
G36*
G01*
X146500000Y-37850000D02*
X146500000Y-38350000D01*
G75*
G02*
X146275000Y-38575000I-225000J0D01*
G01*
X145825000Y-38575000D01*
G75*
G02*
X145600000Y-38350000I0J225000D01*
G01*
X145600000Y-37850000D01*
G75*
G02*
X145825000Y-37625000I225000J0D01*
G01*
X146275000Y-37625000D01*
G75*
G02*
X146500000Y-37850000I0J-225000D01*
G01*
G37*
G04 #@! TD.AperFunction*
G04 #@! TO.P,C3,2*
G04 #@! TO.N,GND*
G04 #@! TA.AperFunction,SMDPad,CuDef*
G36*
G01*
X144950000Y-37850000D02*
X144950000Y-38350000D01*
G75*
G02*
X144725000Y-38575000I-225000J0D01*
G01*
X144275000Y-38575000D01*
G75*
G02*
X144050000Y-38350000I0J225000D01*
G01*
X144050000Y-37850000D01*
G75*
G02*
X144275000Y-37625000I225000J0D01*
G01*
X144725000Y-37625000D01*
G75*
G02*
X144950000Y-37850000I0J-225000D01*
G01*
G37*
G04 #@! TD.AperFunction*
G04 #@! TD*
G04 #@! TO.P,C4,1*
G04 #@! TO.N,Net-(C4-Pad1)*
G04 #@! TA.AperFunction,SMDPad,CuDef*
G36*
G01*
X155500000Y-53500000D02*
X155500000Y-53000000D01*
G75*
G02*
X155725000Y-52775000I225000J0D01*
G01*
X156175000Y-52775000D01*
G75*
G02*
X156400000Y-53000000I0J-225000D01*
G01*
X156400000Y-53500000D01*
G75*
G02*
X156175000Y-53725000I-225000J0D01*
G01*
X155725000Y-53725000D01*
G75*
G02*
X155500000Y-53500000I0J225000D01*
G01*
G37*
G04 #@! TD.AperFunction*
G04 #@! TO.P,C4,2*
G04 #@! TO.N,GND*
G04 #@! TA.AperFunction,SMDPad,CuDef*
G36*
G01*
X157050000Y-53500000D02*
X157050000Y-53000000D01*
G75*
G02*
X157275000Y-52775000I225000J0D01*
G01*
X157725000Y-52775000D01*
G75*
G02*
X157950000Y-53000000I0J-225000D01*
G01*
X157950000Y-53500000D01*
G75*
G02*
X157725000Y-53725000I-225000J0D01*
G01*
X157275000Y-53725000D01*
G75*
G02*
X157050000Y-53500000I0J225000D01*
G01*
G37*
G04 #@! TD.AperFunction*
G04 #@! TD*
G04 #@! TO.P,D1,1*
G04 #@! TO.N,GND*
G04 #@! TA.AperFunction,SMDPad,CuDef*
G36*
G01*
X157712500Y-51237500D02*
X157287500Y-51237500D01*
G75*
G02*
X157075000Y-51025000I0J212500D01*
G01*
X157075000Y-50225000D01*
G75*
G02*
X157287500Y-50012500I212500J0D01*
G01*
X157712500Y-50012500D01*
G75*
G02*
X157925000Y-50225000I0J-212500D01*
G01*
X157925000Y-51025000D01*
G75*
G02*
X157712500Y-51237500I-212500J0D01*
G01*
G37*
G04 #@! TD.AperFunction*
G04 #@! TO.P,D1,2*
G04 #@! TO.N,Net-(D1-Pad2)*
G04 #@! TA.AperFunction,SMDPad,CuDef*
G36*
G01*
X157712500Y-49612500D02*
X157287500Y-49612500D01*
G75*
G02*
X157075000Y-49400000I0J212500D01*
G01*
X157075000Y-48600000D01*
G75*
G02*
X157287500Y-48387500I212500J0D01*
G01*
X157712500Y-48387500D01*
G75*
G02*
X157925000Y-48600000I0J-212500D01*
G01*
X157925000Y-49400000D01*
G75*
G02*
X157712500Y-49612500I-212500J0D01*
G01*
G37*
G04 #@! TD.AperFunction*
G04 #@! TD*
D15*
G04 #@! TO.P,J1,6*
G04 #@! TO.N,GND*
X157300000Y-72210000D03*
X157300000Y-77690000D03*
D16*
X156550000Y-77910000D03*
X156550000Y-71960000D03*
D17*
X155250000Y-77810000D03*
X155230000Y-72060000D03*
D18*
G04 #@! TO.P,J1,1*
G04 #@! TO.N,VBUS*
X155350000Y-76260000D03*
G04 #@! TO.P,J1,2*
G04 #@! TO.N,Din-*
X155350000Y-75610000D03*
G04 #@! TO.P,J1,3*
G04 #@! TO.N,Din+*
X155350000Y-74960000D03*
G04 #@! TO.P,J1,4*
G04 #@! TO.N,Net-(J1-Pad4)*
X155350000Y-74310000D03*
G04 #@! TO.P,J1,5*
G04 #@! TO.N,GND*
X155350000Y-73660000D03*
D19*
G04 #@! TO.P,J1,6*
X155230000Y-77380000D03*
X155230000Y-72540000D03*
D20*
X158230000Y-77690000D03*
X158230000Y-72230000D03*
D21*
X158500000Y-75920000D03*
X158500000Y-74000000D03*
G04 #@! TD*
G04 #@! TO.P,R2,1*
G04 #@! TO.N,LED*
G04 #@! TA.AperFunction,SMDPad,CuDef*
G36*
G01*
X157225000Y-45100000D02*
X157775000Y-45100000D01*
G75*
G02*
X157975000Y-45300000I0J-200000D01*
G01*
X157975000Y-45700000D01*
G75*
G02*
X157775000Y-45900000I-200000J0D01*
G01*
X157225000Y-45900000D01*
G75*
G02*
X157025000Y-45700000I0J200000D01*
G01*
X157025000Y-45300000D01*
G75*
G02*
X157225000Y-45100000I200000J0D01*
G01*
G37*
G04 #@! TD.AperFunction*
G04 #@! TO.P,R2,2*
G04 #@! TO.N,Net-(D1-Pad2)*
G04 #@! TA.AperFunction,SMDPad,CuDef*
G36*
G01*
X157225000Y-46750000D02*
X157775000Y-46750000D01*
G75*
G02*
X157975000Y-46950000I0J-200000D01*
G01*
X157975000Y-47350000D01*
G75*
G02*
X157775000Y-47550000I-200000J0D01*
G01*
X157225000Y-47550000D01*
G75*
G02*
X157025000Y-47350000I0J200000D01*
G01*
X157025000Y-46950000D01*
G75*
G02*
X157225000Y-46750000I200000J0D01*
G01*
G37*
G04 #@! TD.AperFunction*
G04 #@! TD*
G04 #@! TO.P,R3,2*
G04 #@! TO.N,Din-*
G04 #@! TA.AperFunction,SMDPad,CuDef*
G36*
G01*
X154325000Y-63750000D02*
X154875000Y-63750000D01*
G75*
G02*
X155075000Y-63950000I0J-200000D01*
G01*
X155075000Y-64350000D01*
G75*
G02*
X154875000Y-64550000I-200000J0D01*
G01*
X154325000Y-64550000D01*
G75*
G02*
X154125000Y-64350000I0J200000D01*
G01*
X154125000Y-63950000D01*
G75*
G02*
X154325000Y-63750000I200000J0D01*
G01*
G37*
G04 #@! TD.AperFunction*
G04 #@! TO.P,R3,1*
G04 #@! TO.N,Net-(R3-Pad1)*
G04 #@! TA.AperFunction,SMDPad,CuDef*
G36*
G01*
X154325000Y-62100000D02*
X154875000Y-62100000D01*
G75*
G02*
X155075000Y-62300000I0J-200000D01*
G01*
X155075000Y-62700000D01*
G75*
G02*
X154875000Y-62900000I-200000J0D01*
G01*
X154325000Y-62900000D01*
G75*
G02*
X154125000Y-62700000I0J200000D01*
G01*
X154125000Y-62300000D01*
G75*
G02*
X154325000Y-62100000I200000J0D01*
G01*
G37*
G04 #@! TD.AperFunction*
G04 #@! TD*
G04 #@! TO.P,R4,2*
G04 #@! TO.N,MISO*
G04 #@! TA.AperFunction,SMDPad,CuDef*
G36*
G01*
X144275000Y-67400000D02*
X143725000Y-67400000D01*
G75*
G02*
X143525000Y-67200000I0J200000D01*
G01*
X143525000Y-66800000D01*
G75*
G02*
X143725000Y-66600000I200000J0D01*
G01*
X144275000Y-66600000D01*
G75*
G02*
X144475000Y-66800000I0J-200000D01*
G01*
X144475000Y-67200000D01*
G75*
G02*
X144275000Y-67400000I-200000J0D01*
G01*
G37*
G04 #@! TD.AperFunction*
G04 #@! TO.P,R4,1*
G04 #@! TO.N,Net-(J3-Pad1)*
G04 #@! TA.AperFunction,SMDPad,CuDef*
G36*
G01*
X144275000Y-69050000D02*
X143725000Y-69050000D01*
G75*
G02*
X143525000Y-68850000I0J200000D01*
G01*
X143525000Y-68450000D01*
G75*
G02*
X143725000Y-68250000I200000J0D01*
G01*
X144275000Y-68250000D01*
G75*
G02*
X144475000Y-68450000I0J-200000D01*
G01*
X144475000Y-68850000D01*
G75*
G02*
X144275000Y-69050000I-200000J0D01*
G01*
G37*
G04 #@! TD.AperFunction*
G04 #@! TD*
G04 #@! TO.P,R5,1*
G04 #@! TO.N,Net-(J3-Pad4)*
G04 #@! TA.AperFunction,SMDPad,CuDef*
G36*
G01*
X146275000Y-69050000D02*
X145725000Y-69050000D01*
G75*
G02*
X145525000Y-68850000I0J200000D01*
G01*
X145525000Y-68450000D01*
G75*
G02*
X145725000Y-68250000I200000J0D01*
G01*
X146275000Y-68250000D01*
G75*
G02*
X146475000Y-68450000I0J-200000D01*
G01*
X146475000Y-68850000D01*
G75*
G02*
X146275000Y-69050000I-200000J0D01*
G01*
G37*
G04 #@! TD.AperFunction*
G04 #@! TO.P,R5,2*
G04 #@! TO.N,MOSI*
G04 #@! TA.AperFunction,SMDPad,CuDef*
G36*
G01*
X146275000Y-67400000D02*
X145725000Y-67400000D01*
G75*
G02*
X145525000Y-67200000I0J200000D01*
G01*
X145525000Y-66800000D01*
G75*
G02*
X145725000Y-66600000I200000J0D01*
G01*
X146275000Y-66600000D01*
G75*
G02*
X146475000Y-66800000I0J-200000D01*
G01*
X146475000Y-67200000D01*
G75*
G02*
X146275000Y-67400000I-200000J0D01*
G01*
G37*
G04 #@! TD.AperFunction*
G04 #@! TD*
G04 #@! TO.P,R6,1*
G04 #@! TO.N,Net-(J3-Pad3)*
G04 #@! TA.AperFunction,SMDPad,CuDef*
G36*
G01*
X148275000Y-69050000D02*
X147725000Y-69050000D01*
G75*
G02*
X147525000Y-68850000I0J200000D01*
G01*
X147525000Y-68450000D01*
G75*
G02*
X147725000Y-68250000I200000J0D01*
G01*
X148275000Y-68250000D01*
G75*
G02*
X148475000Y-68450000I0J-200000D01*
G01*
X148475000Y-68850000D01*
G75*
G02*
X148275000Y-69050000I-200000J0D01*
G01*
G37*
G04 #@! TD.AperFunction*
G04 #@! TO.P,R6,2*
G04 #@! TO.N,SCK*
G04 #@! TA.AperFunction,SMDPad,CuDef*
G36*
G01*
X148275000Y-67400000D02*
X147725000Y-67400000D01*
G75*
G02*
X147525000Y-67200000I0J200000D01*
G01*
X147525000Y-66800000D01*
G75*
G02*
X147725000Y-66600000I200000J0D01*
G01*
X148275000Y-66600000D01*
G75*
G02*
X148475000Y-66800000I0J-200000D01*
G01*
X148475000Y-67200000D01*
G75*
G02*
X148275000Y-67400000I-200000J0D01*
G01*
G37*
G04 #@! TD.AperFunction*
G04 #@! TD*
D22*
G04 #@! TO.P,SW1,1*
G04 #@! TO.N,Net-(R9-Pad1)*
X157500000Y-41090000D03*
G04 #@! TO.P,SW1,2*
G04 #@! TO.N,GND*
X157500000Y-31910000D03*
G04 #@! TD*
D23*
G04 #@! TO.P,Y1,1*
G04 #@! TO.N,Net-(C2-Pad1)*
X143800000Y-41550000D03*
G04 #@! TO.P,Y1,2*
G04 #@! TO.N,GND*
X146000000Y-41550000D03*
G04 #@! TO.P,Y1,3*
G04 #@! TO.N,Net-(C3-Pad1)*
X146000000Y-39850000D03*
G04 #@! TO.P,Y1,4*
G04 #@! TO.N,GND*
X143800000Y-39850000D03*
G04 #@! TD*
G04 #@! TO.P,R8,1*
G04 #@! TO.N,Net-(R8-Pad1)*
G04 #@! TA.AperFunction,SMDPad,CuDef*
G36*
G01*
X134900000Y-53725000D02*
X134900000Y-54275000D01*
G75*
G02*
X134700000Y-54475000I-200000J0D01*
G01*
X134300000Y-54475000D01*
G75*
G02*
X134100000Y-54275000I0J200000D01*
G01*
X134100000Y-53725000D01*
G75*
G02*
X134300000Y-53525000I200000J0D01*
G01*
X134700000Y-53525000D01*
G75*
G02*
X134900000Y-53725000I0J-200000D01*
G01*
G37*
G04 #@! TD.AperFunction*
G04 #@! TO.P,R8,2*
G04 #@! TO.N,GND*
G04 #@! TA.AperFunction,SMDPad,CuDef*
G36*
G01*
X133250000Y-53725000D02*
X133250000Y-54275000D01*
G75*
G02*
X133050000Y-54475000I-200000J0D01*
G01*
X132650000Y-54475000D01*
G75*
G02*
X132450000Y-54275000I0J200000D01*
G01*
X132450000Y-53725000D01*
G75*
G02*
X132650000Y-53525000I200000J0D01*
G01*
X133050000Y-53525000D01*
G75*
G02*
X133250000Y-53725000I0J-200000D01*
G01*
G37*
G04 #@! TD.AperFunction*
G04 #@! TD*
G04 #@! TO.P,C1,1*
G04 #@! TO.N,VBUS*
G04 #@! TA.AperFunction,SMDPad,CuDef*
G36*
G01*
X150849999Y-73850000D02*
X152150001Y-73850000D01*
G75*
G02*
X152400000Y-74099999I0J-249999D01*
G01*
X152400000Y-74750001D01*
G75*
G02*
X152150001Y-75000000I-249999J0D01*
G01*
X150849999Y-75000000D01*
G75*
G02*
X150600000Y-74750001I0J249999D01*
G01*
X150600000Y-74099999D01*
G75*
G02*
X150849999Y-73850000I249999J0D01*
G01*
G37*
G04 #@! TD.AperFunction*
G04 #@! TO.P,C1,2*
G04 #@! TO.N,GND*
G04 #@! TA.AperFunction,SMDPad,CuDef*
G36*
G01*
X150849999Y-76800000D02*
X152150001Y-76800000D01*
G75*
G02*
X152400000Y-77049999I0J-249999D01*
G01*
X152400000Y-77700001D01*
G75*
G02*
X152150001Y-77950000I-249999J0D01*
G01*
X150849999Y-77950000D01*
G75*
G02*
X150600000Y-77700001I0J249999D01*
G01*
X150600000Y-77049999D01*
G75*
G02*
X150849999Y-76800000I249999J0D01*
G01*
G37*
G04 #@! TD.AperFunction*
G04 #@! TD*
G04 #@! TO.P,C6,1*
G04 #@! TO.N,GND*
G04 #@! TA.AperFunction,SMDPad,CuDef*
G36*
G01*
X147630000Y-40720000D02*
X147970000Y-40720000D01*
G75*
G02*
X148110000Y-40860000I0J-140000D01*
G01*
X148110000Y-41140000D01*
G75*
G02*
X147970000Y-41280000I-140000J0D01*
G01*
X147630000Y-41280000D01*
G75*
G02*
X147490000Y-41140000I0J140000D01*
G01*
X147490000Y-40860000D01*
G75*
G02*
X147630000Y-40720000I140000J0D01*
G01*
G37*
G04 #@! TD.AperFunction*
G04 #@! TO.P,C6,2*
G04 #@! TO.N,VBUS*
G04 #@! TA.AperFunction,SMDPad,CuDef*
G36*
G01*
X147630000Y-41680000D02*
X147970000Y-41680000D01*
G75*
G02*
X148110000Y-41820000I0J-140000D01*
G01*
X148110000Y-42100000D01*
G75*
G02*
X147970000Y-42240000I-140000J0D01*
G01*
X147630000Y-42240000D01*
G75*
G02*
X147490000Y-42100000I0J140000D01*
G01*
X147490000Y-41820000D01*
G75*
G02*
X147630000Y-41680000I140000J0D01*
G01*
G37*
G04 #@! TD.AperFunction*
G04 #@! TD*
G04 #@! TO.P,C7,1*
G04 #@! TO.N,GND*
G04 #@! TA.AperFunction,SMDPad,CuDef*
G36*
G01*
X141530000Y-61330000D02*
X141530000Y-61670000D01*
G75*
G02*
X141390000Y-61810000I-140000J0D01*
G01*
X141110000Y-61810000D01*
G75*
G02*
X140970000Y-61670000I0J140000D01*
G01*
X140970000Y-61330000D01*
G75*
G02*
X141110000Y-61190000I140000J0D01*
G01*
X141390000Y-61190000D01*
G75*
G02*
X141530000Y-61330000I0J-140000D01*
G01*
G37*
G04 #@! TD.AperFunction*
G04 #@! TO.P,C7,2*
G04 #@! TO.N,VBUS*
G04 #@! TA.AperFunction,SMDPad,CuDef*
G36*
G01*
X140570000Y-61330000D02*
X140570000Y-61670000D01*
G75*
G02*
X140430000Y-61810000I-140000J0D01*
G01*
X140150000Y-61810000D01*
G75*
G02*
X140010000Y-61670000I0J140000D01*
G01*
X140010000Y-61330000D01*
G75*
G02*
X140150000Y-61190000I140000J0D01*
G01*
X140430000Y-61190000D01*
G75*
G02*
X140570000Y-61330000I0J-140000D01*
G01*
G37*
G04 #@! TD.AperFunction*
G04 #@! TD*
G04 #@! TO.P,R9,1*
G04 #@! TO.N,Net-(R9-Pad1)*
G04 #@! TA.AperFunction,SMDPad,CuDef*
G36*
G01*
X154700000Y-40750000D02*
X154700000Y-41300000D01*
G75*
G02*
X154500000Y-41500000I-200000J0D01*
G01*
X154100000Y-41500000D01*
G75*
G02*
X153900000Y-41300000I0J200000D01*
G01*
X153900000Y-40750000D01*
G75*
G02*
X154100000Y-40550000I200000J0D01*
G01*
X154500000Y-40550000D01*
G75*
G02*
X154700000Y-40750000I0J-200000D01*
G01*
G37*
G04 #@! TD.AperFunction*
G04 #@! TO.P,R9,2*
G04 #@! TO.N,RST*
G04 #@! TA.AperFunction,SMDPad,CuDef*
G36*
G01*
X153050000Y-40750000D02*
X153050000Y-41300000D01*
G75*
G02*
X152850000Y-41500000I-200000J0D01*
G01*
X152450000Y-41500000D01*
G75*
G02*
X152250000Y-41300000I0J200000D01*
G01*
X152250000Y-40750000D01*
G75*
G02*
X152450000Y-40550000I200000J0D01*
G01*
X152850000Y-40550000D01*
G75*
G02*
X153050000Y-40750000I0J-200000D01*
G01*
G37*
G04 #@! TD.AperFunction*
G04 #@! TD*
D24*
G04 #@! TO.P,U2,1*
G04 #@! TO.N,D+*
X156510000Y-57980000D03*
G04 #@! TO.P,U2,2*
G04 #@! TO.N,GND*
X155560000Y-57980000D03*
G04 #@! TO.P,U2,3*
G04 #@! TO.N,D-*
X154610000Y-57980000D03*
G04 #@! TO.P,U2,4*
G04 #@! TO.N,Net-(R3-Pad1)*
X154610000Y-60180000D03*
G04 #@! TO.P,U2,6*
G04 #@! TO.N,Net-(R1-Pad1)*
X156510000Y-60180000D03*
G04 #@! TO.P,U2,5*
G04 #@! TO.N,VBUS*
X155560000Y-60180000D03*
G04 #@! TD*
G04 #@! TO.P,C5,1*
G04 #@! TO.N,GND*
G04 #@! TA.AperFunction,SMDPad,CuDef*
G36*
G01*
X148760000Y-62170000D02*
X148760000Y-61830000D01*
G75*
G02*
X148900000Y-61690000I140000J0D01*
G01*
X149180000Y-61690000D01*
G75*
G02*
X149320000Y-61830000I0J-140000D01*
G01*
X149320000Y-62170000D01*
G75*
G02*
X149180000Y-62310000I-140000J0D01*
G01*
X148900000Y-62310000D01*
G75*
G02*
X148760000Y-62170000I0J140000D01*
G01*
G37*
G04 #@! TD.AperFunction*
G04 #@! TO.P,C5,2*
G04 #@! TO.N,VBUS*
G04 #@! TA.AperFunction,SMDPad,CuDef*
G36*
G01*
X149720000Y-62170000D02*
X149720000Y-61830000D01*
G75*
G02*
X149860000Y-61690000I140000J0D01*
G01*
X150140000Y-61690000D01*
G75*
G02*
X150280000Y-61830000I0J-140000D01*
G01*
X150280000Y-62170000D01*
G75*
G02*
X150140000Y-62310000I-140000J0D01*
G01*
X149860000Y-62310000D01*
G75*
G02*
X149720000Y-62170000I0J140000D01*
G01*
G37*
G04 #@! TD.AperFunction*
G04 #@! TD*
D25*
G04 #@! TO.N,GND*
X137050000Y-76400000D03*
X157500000Y-52000000D03*
X143250000Y-38100000D03*
D26*
X131200000Y-55300000D03*
D25*
X154500000Y-70250000D03*
D26*
X141200000Y-57950000D03*
D25*
X154800000Y-31890000D03*
X157900000Y-59200000D03*
D26*
X149200000Y-57950000D03*
D25*
X154000000Y-54200000D03*
X147800000Y-39700000D03*
D26*
X131000000Y-40000000D03*
G04 #@! TO.N,MISO*
X150100000Y-48400000D03*
X146000000Y-65500000D03*
G04 #@! TO.N,MOSI*
X149600000Y-49200000D03*
X147000000Y-65000000D03*
G04 #@! TO.N,SCK*
X150100000Y-50000000D03*
X148000000Y-65500000D03*
G04 #@! TO.N,RST*
X145000000Y-65000000D03*
X147600000Y-48100000D03*
G04 #@! TO.N,PF7*
X142200000Y-61900000D03*
X139300000Y-62300000D03*
G04 #@! TO.N,PF6*
X142800000Y-62700000D03*
X138600000Y-63100000D03*
G04 #@! TO.N,PF5*
X139300000Y-63900000D03*
X143600000Y-61900000D03*
G04 #@! TO.N,PF4*
X138600000Y-64700000D03*
X144400000Y-62700000D03*
G04 #@! TD*
D27*
G04 #@! TO.N,GND*
X157500000Y-50625000D02*
X157500000Y-52000000D01*
X146020000Y-44280000D02*
X146000000Y-44300000D01*
X132850000Y-54000000D02*
X132850000Y-54150000D01*
D28*
X157480000Y-31890000D02*
X157500000Y-31910000D01*
X154800000Y-31890000D02*
X154800000Y-31890000D01*
D27*
X157500000Y-53250000D02*
X157500000Y-52000000D01*
D28*
X154500000Y-71330000D02*
X155230000Y-72060000D01*
X154500000Y-70250000D02*
X154500000Y-71330000D01*
X154800000Y-31890000D02*
X157480000Y-31890000D01*
X141200000Y-61450000D02*
X141250000Y-61500000D01*
X141200000Y-59700000D02*
X141200000Y-61450000D01*
X149200000Y-61840000D02*
X149200000Y-59700000D01*
X149040000Y-62000000D02*
X149200000Y-61840000D01*
X155350000Y-72660000D02*
X155230000Y-72540000D01*
X155350000Y-73660000D02*
X155350000Y-72660000D01*
D29*
X155560000Y-57980000D02*
X155560000Y-58545746D01*
X156214254Y-59200000D02*
X157900000Y-59200000D01*
X155560000Y-58545746D02*
X156214254Y-59200000D01*
D28*
X153800000Y-54000000D02*
X154000000Y-54200000D01*
X151700000Y-54000000D02*
X153800000Y-54000000D01*
X146000000Y-44300000D02*
X146000000Y-41550000D01*
X146550000Y-41000000D02*
X147800000Y-41000000D01*
X146000000Y-41550000D02*
X146550000Y-41000000D01*
X144500000Y-38100000D02*
X143250000Y-38100000D01*
X142950000Y-38400000D02*
X143250000Y-38100000D01*
X141950000Y-38400000D02*
X142950000Y-38400000D01*
X143250000Y-39300000D02*
X143800000Y-39850000D01*
X143250000Y-38100000D02*
X143250000Y-39300000D01*
X147800000Y-41000000D02*
X147800000Y-39700000D01*
X158230000Y-73730000D02*
X158500000Y-74000000D01*
X158230000Y-72230000D02*
X158230000Y-73730000D01*
X158500000Y-77420000D02*
X158230000Y-77690000D01*
X158500000Y-75920000D02*
X158500000Y-77420000D01*
X141200000Y-59700000D02*
X141200000Y-57950000D01*
X149200000Y-57950000D02*
X149200000Y-59700000D01*
X137160000Y-76290000D02*
X137050000Y-76400000D01*
X139770000Y-76290000D02*
X137160000Y-76290000D01*
X130000000Y-39000000D02*
X131000000Y-40000000D01*
X128300000Y-39000000D02*
X130000000Y-39000000D01*
X154815000Y-77375000D02*
X155250000Y-77810000D01*
X151500000Y-77375000D02*
X154815000Y-77375000D01*
X129070000Y-76400000D02*
X137050000Y-76400000D01*
X125500000Y-72830000D02*
X129070000Y-76400000D01*
X125500000Y-70990000D02*
X125500000Y-72830000D01*
X125500000Y-36200000D02*
X128300000Y-39000000D01*
X125500000Y-36010000D02*
X125500000Y-36200000D01*
D27*
X132500000Y-54000000D02*
X132850000Y-54000000D01*
X131200000Y-55300000D02*
X132500000Y-54000000D01*
G04 #@! TO.N,Net-(C2-Pad1)*
X143550000Y-41550000D02*
X143800000Y-41550000D01*
X141950000Y-39950000D02*
X143550000Y-41550000D01*
X144400000Y-42150000D02*
X144400000Y-44300000D01*
X143800000Y-41550000D02*
X144400000Y-42150000D01*
G04 #@! TO.N,Net-(C3-Pad1)*
X145100000Y-39850000D02*
X146000000Y-39850000D01*
X144999999Y-39950001D02*
X145100000Y-39850000D01*
X144999999Y-44099999D02*
X144999999Y-39950001D01*
X145200000Y-44300000D02*
X144999999Y-44099999D01*
X146000000Y-38150000D02*
X146050000Y-38100000D01*
X146000000Y-39850000D02*
X146000000Y-38150000D01*
G04 #@! TO.N,Net-(D1-Pad2)*
X157500000Y-47150000D02*
X157500000Y-49000000D01*
G04 #@! TO.N,Net-(J3-Pad1)*
X146775010Y-71824990D02*
X144850000Y-73750000D01*
X146775010Y-68242888D02*
X146775010Y-71824990D01*
X146482112Y-67949990D02*
X146775010Y-68242888D01*
X144700010Y-67949990D02*
X146482112Y-67949990D01*
X144000000Y-68650000D02*
X144700010Y-67949990D01*
G04 #@! TO.N,Net-(J3-Pad4)*
X143460001Y-75139999D02*
X142310000Y-76290000D01*
X143460001Y-71189999D02*
X143460001Y-75139999D01*
X146000000Y-68650000D02*
X143460001Y-71189999D01*
G04 #@! TO.N,Net-(J3-Pad3)*
X142425000Y-73750000D02*
X142310000Y-73750000D01*
X141159999Y-76842001D02*
X141159999Y-74900001D01*
X141159999Y-74900001D02*
X142310000Y-73750000D01*
X142862001Y-77440001D02*
X141757999Y-77440001D01*
X141757999Y-77440001D02*
X141159999Y-76842001D01*
X143460001Y-76842001D02*
X142862001Y-77440001D01*
X143460001Y-75737999D02*
X143460001Y-76842001D01*
X144297990Y-74900010D02*
X143460001Y-75737999D01*
X145677824Y-74900010D02*
X144297990Y-74900010D01*
X148000000Y-72577834D02*
X145677824Y-74900010D01*
X148000000Y-68650000D02*
X148000000Y-72577834D01*
G04 #@! TO.N,Net-(J4-Pad2)*
X142800000Y-43584307D02*
X140465648Y-41249949D01*
X142800000Y-44300000D02*
X142800000Y-43584307D01*
X140465648Y-41249949D02*
X130665688Y-41249949D01*
X129415740Y-40000000D02*
X128300000Y-40000000D01*
X130665688Y-41249949D02*
X129415740Y-40000000D01*
G04 #@! TO.N,Net-(J4-Pad3)*
X129850041Y-41000000D02*
X128300000Y-41000000D01*
X130500000Y-41649959D02*
X129850041Y-41000000D01*
X140299959Y-41649959D02*
X130500000Y-41649959D01*
X142000000Y-43350000D02*
X140299959Y-41649959D01*
X142000000Y-44300000D02*
X142000000Y-43350000D01*
G04 #@! TO.N,Net-(J4-Pad4)*
X128349969Y-42049969D02*
X128300000Y-42000000D01*
X139899969Y-42049969D02*
X128349969Y-42049969D01*
X141200000Y-43350000D02*
X139899969Y-42049969D01*
X141200000Y-44300000D02*
X141200000Y-43350000D01*
G04 #@! TO.N,Net-(J4-Pad5)*
X139499979Y-42449979D02*
X140400000Y-43350000D01*
X130997927Y-42449979D02*
X139499979Y-42449979D01*
X130447907Y-43000000D02*
X130997927Y-42449979D01*
X140400000Y-43350000D02*
X140400000Y-44300000D01*
X128300000Y-43000000D02*
X130447907Y-43000000D01*
G04 #@! TO.N,Net-(J4-Pad6)*
X139099989Y-42849989D02*
X139600000Y-43350000D01*
X131163616Y-42849989D02*
X139099989Y-42849989D01*
X139600000Y-43350000D02*
X139600000Y-44300000D01*
X130013606Y-44000000D02*
X131163616Y-42849989D01*
X128300000Y-44000000D02*
X130013606Y-44000000D01*
G04 #@! TO.N,Net-(J4-Pad7)*
X138800000Y-43534998D02*
X138800000Y-44300000D01*
X131329305Y-43249999D02*
X138515001Y-43249999D01*
X138515001Y-43249999D02*
X138800000Y-43534998D01*
X129579304Y-45000000D02*
X131329305Y-43249999D01*
X128300000Y-45000000D02*
X129579304Y-45000000D01*
G04 #@! TO.N,Net-(J4-Pad8)*
X129145002Y-46000000D02*
X128300000Y-46000000D01*
X130845002Y-44300000D02*
X129145002Y-46000000D01*
X138000000Y-44300000D02*
X130845002Y-44300000D01*
G04 #@! TO.N,Net-(J4-Pad11)*
X129145002Y-49000000D02*
X128300000Y-49000000D01*
X130545002Y-47600000D02*
X129145002Y-49000000D01*
X136300000Y-47600000D02*
X130545002Y-47600000D01*
G04 #@! TO.N,Net-(J4-Pad12)*
X129145002Y-50000000D02*
X128300000Y-50000000D01*
X130745002Y-48400000D02*
X129145002Y-50000000D01*
X136300000Y-48400000D02*
X130745002Y-48400000D01*
G04 #@! TO.N,Net-(J4-Pad13)*
X129145002Y-51000000D02*
X128300000Y-51000000D01*
X130945002Y-49200000D02*
X129145002Y-51000000D01*
X136300000Y-49200000D02*
X130945002Y-49200000D01*
G04 #@! TO.N,Net-(J4-Pad14)*
X129145002Y-52000000D02*
X128300000Y-52000000D01*
X131145002Y-50000000D02*
X129145002Y-52000000D01*
X136300000Y-50000000D02*
X131145002Y-50000000D01*
G04 #@! TO.N,Net-(J4-Pad15)*
X129145002Y-53000000D02*
X128300000Y-53000000D01*
X131345002Y-50800000D02*
X129145002Y-53000000D01*
X136300000Y-50800000D02*
X131345002Y-50800000D01*
G04 #@! TO.N,Net-(J4-Pad16)*
X129145002Y-54000000D02*
X128300000Y-54000000D01*
X131545002Y-51600000D02*
X129145002Y-54000000D01*
X136300000Y-51600000D02*
X131545002Y-51600000D01*
G04 #@! TO.N,Net-(J4-Pad17)*
X129145002Y-55000000D02*
X128300000Y-55000000D01*
X131745002Y-52400000D02*
X129145002Y-55000000D01*
X136300000Y-52400000D02*
X131745002Y-52400000D01*
G04 #@! TO.N,Net-(J4-Pad18)*
X129145002Y-56000000D02*
X128300000Y-56000000D01*
X131945002Y-53200000D02*
X129145002Y-56000000D01*
X136300000Y-53200000D02*
X131945002Y-53200000D01*
G04 #@! TO.N,Net-(J4-Pad19)*
X130962002Y-57000000D02*
X128300000Y-57000000D01*
X133162002Y-54800000D02*
X130962002Y-57000000D01*
X136300000Y-54800000D02*
X133162002Y-54800000D01*
G04 #@! TO.N,Net-(J4-Pad20)*
X130527700Y-58000000D02*
X128300000Y-58000000D01*
X132927700Y-55600000D02*
X130527700Y-58000000D01*
X136300000Y-55600000D02*
X132927700Y-55600000D01*
G04 #@! TO.N,Net-(J4-Pad21)*
X130093398Y-59000000D02*
X128300000Y-59000000D01*
X132693398Y-56400000D02*
X130093398Y-59000000D01*
X136300000Y-56400000D02*
X132693398Y-56400000D01*
G04 #@! TO.N,Net-(J4-Pad22)*
X129659096Y-60000000D02*
X128300000Y-60000000D01*
X132459096Y-57200000D02*
X129659096Y-60000000D01*
X136300000Y-57200000D02*
X132459096Y-57200000D01*
G04 #@! TO.N,Net-(J4-Pad23)*
X129224794Y-61000000D02*
X128300000Y-61000000D01*
X132224794Y-58000000D02*
X129224794Y-61000000D01*
X136300000Y-58000000D02*
X132224794Y-58000000D01*
G04 #@! TO.N,Net-(J4-Pad24)*
X128300000Y-62000000D02*
X129800000Y-62000000D01*
X129800000Y-62000000D02*
X132100000Y-59700000D01*
X132100000Y-59700000D02*
X138000000Y-59700000D01*
G04 #@! TO.N,Net-(J4-Pad25)*
X130000000Y-63000000D02*
X128300000Y-63000000D01*
X132200000Y-60800000D02*
X130000000Y-63000000D01*
X138800000Y-60465002D02*
X138800000Y-59700000D01*
X138465002Y-60800000D02*
X138800000Y-60465002D01*
X132200000Y-60800000D02*
X138465002Y-60800000D01*
G04 #@! TO.N,Net-(J4-Pad26)*
X128300000Y-64000000D02*
X129900000Y-64000000D01*
X129900000Y-64000000D02*
X132200000Y-61700000D01*
X132200000Y-61700000D02*
X138500000Y-61700000D01*
X139600000Y-60600000D02*
X139600000Y-59700000D01*
X138500000Y-61700000D02*
X139600000Y-60600000D01*
G04 #@! TO.N,Net-(R1-Pad1)*
X156510000Y-60830000D02*
X156510000Y-60180000D01*
X156500000Y-60190000D02*
X156510000Y-60180000D01*
X156500000Y-62500000D02*
X156500000Y-60190000D01*
G04 #@! TO.N,LED*
X156200000Y-46800000D02*
X151700000Y-46800000D01*
X157500000Y-45500000D02*
X156200000Y-46800000D01*
G04 #@! TO.N,Net-(R3-Pad1)*
X154610000Y-60980000D02*
X154610000Y-60180000D01*
X154600000Y-60990000D02*
X154610000Y-60980000D01*
X154600000Y-62500000D02*
X154600000Y-60990000D01*
G04 #@! TO.N,MISO*
X151700000Y-48400000D02*
X150100000Y-48400000D01*
X144500000Y-67000000D02*
X146000000Y-65500000D01*
X144000000Y-67000000D02*
X144500000Y-67000000D01*
G04 #@! TO.N,MOSI*
X149600000Y-49200000D02*
X151700000Y-49200000D01*
X147000000Y-66000000D02*
X147000000Y-65000000D01*
X146000000Y-67000000D02*
X147000000Y-66000000D01*
G04 #@! TO.N,SCK*
X150100000Y-50000000D02*
X151700000Y-50000000D01*
X148000000Y-67000000D02*
X148000000Y-65500000D01*
G04 #@! TO.N,RST*
X149925000Y-41025000D02*
X152650000Y-41025000D01*
X147600000Y-43350000D02*
X149925000Y-41025000D01*
X147600000Y-44300000D02*
X147600000Y-43350000D01*
X147600000Y-48100000D02*
X147600000Y-44300000D01*
X144817878Y-65000000D02*
X145000000Y-65000000D01*
X139770000Y-70047878D02*
X144817878Y-65000000D01*
X139770000Y-73750000D02*
X139770000Y-70047878D01*
D28*
G04 #@! TO.N,Net-(C4-Pad1)*
X155900000Y-53200000D02*
X155950000Y-53250000D01*
X151700000Y-53200000D02*
X155900000Y-53200000D01*
D27*
G04 #@! TO.N,PE0*
X129145002Y-47000000D02*
X128300000Y-47000000D01*
X130145002Y-46000000D02*
X129145002Y-47000000D01*
X136300000Y-46000000D02*
X130145002Y-46000000D01*
G04 #@! TO.N,PE1*
X129145002Y-48000000D02*
X128300000Y-48000000D01*
X130345002Y-46800000D02*
X129145002Y-48000000D01*
X136300000Y-46800000D02*
X130345002Y-46800000D01*
G04 #@! TO.N,PF7*
X142069110Y-59769110D02*
X142000000Y-59700000D01*
X132165698Y-62300000D02*
X129465698Y-65000000D01*
X129465698Y-65000000D02*
X128300000Y-65000000D01*
X132165698Y-62300000D02*
X139300000Y-62300000D01*
X142000000Y-61700000D02*
X142200000Y-61900000D01*
X142000000Y-59700000D02*
X142000000Y-61700000D01*
G04 #@! TO.N,PF6*
X142750000Y-59750000D02*
X142800000Y-59700000D01*
X142673488Y-59826512D02*
X142800000Y-59700000D01*
X129145002Y-66000000D02*
X128300000Y-66000000D01*
X132045002Y-63100000D02*
X129145002Y-66000000D01*
X132045002Y-63100000D02*
X138600000Y-63100000D01*
X142850001Y-62649999D02*
X142800000Y-62700000D01*
X142850001Y-61587999D02*
X142850001Y-62649999D01*
X142800000Y-61537998D02*
X142850001Y-61587999D01*
X142800000Y-59700000D02*
X142800000Y-61537998D01*
G04 #@! TO.N,PF5*
X143590379Y-59709621D02*
X143600000Y-59700000D01*
X129145002Y-67000000D02*
X128300000Y-67000000D01*
X132245002Y-63900000D02*
X129145002Y-67000000D01*
X139300000Y-63900000D02*
X132245002Y-63900000D01*
X143600000Y-59700000D02*
X143600000Y-61900000D01*
G04 #@! TO.N,PF4*
X144500000Y-59800000D02*
X144400000Y-59700000D01*
X132445002Y-64700000D02*
X129145002Y-68000000D01*
X129145002Y-68000000D02*
X128300000Y-68000000D01*
X132445002Y-64700000D02*
X138600000Y-64700000D01*
X144400000Y-59700000D02*
X144400000Y-62700000D01*
G04 #@! TO.N,Net-(R8-Pad1)*
X134500000Y-54000000D02*
X136300000Y-54000000D01*
D28*
G04 #@! TO.N,VBUS*
X155350000Y-76260000D02*
X153240000Y-76260000D01*
D27*
X155560000Y-60597878D02*
X155560000Y-60180000D01*
X155350000Y-76260000D02*
X154409301Y-76260000D01*
D28*
X150000000Y-62000000D02*
X150000000Y-59700000D01*
X150664998Y-56400000D02*
X151700000Y-56400000D01*
X150000000Y-57064998D02*
X150664998Y-56400000D01*
X150000000Y-59700000D02*
X150000000Y-57064998D01*
X150664998Y-52400000D02*
X151700000Y-52400000D01*
X150000000Y-53064998D02*
X150664998Y-52400000D01*
X150000000Y-57064998D02*
X150000000Y-53064998D01*
X146800000Y-48750000D02*
X146800000Y-44300000D01*
X150450000Y-52400000D02*
X146800000Y-48750000D01*
X151700000Y-52400000D02*
X150450000Y-52400000D01*
X153924999Y-59199999D02*
X151500000Y-61624998D01*
X155295001Y-59199999D02*
X153924999Y-59199999D01*
X155560000Y-59464998D02*
X155295001Y-59199999D01*
X155560000Y-60180000D02*
X155560000Y-59464998D01*
X153240000Y-76240000D02*
X151500000Y-74500000D01*
X153240000Y-76260000D02*
X153240000Y-76240000D01*
X150000000Y-62000000D02*
X151500000Y-62000000D01*
X151500000Y-62000000D02*
X151500000Y-61624998D01*
X151500000Y-73917998D02*
X151500000Y-74500000D01*
X140290000Y-61500000D02*
X140290000Y-62707998D01*
X146800000Y-42960000D02*
X146800000Y-44300000D01*
X147800000Y-41960000D02*
X146800000Y-42960000D01*
X140400000Y-61390000D02*
X140290000Y-61500000D01*
X140400000Y-59700000D02*
X140400000Y-61390000D01*
X151399999Y-64050001D02*
X151500000Y-63950000D01*
X141632003Y-64050001D02*
X151399999Y-64050001D01*
X140290000Y-62707998D02*
X141632003Y-64050001D01*
X151500000Y-63950000D02*
X151500000Y-74425000D01*
X151500000Y-62000000D02*
X151500000Y-63950000D01*
X149635000Y-76290000D02*
X151500000Y-74425000D01*
X144850000Y-76290000D02*
X149635000Y-76290000D01*
D27*
G04 #@! TO.N,Net-(R9-Pad1)*
X156840000Y-41750000D02*
X157500000Y-41090000D01*
X154365000Y-41090000D02*
X154300000Y-41025000D01*
X157435000Y-41025000D02*
X157500000Y-41090000D01*
X154300000Y-41025000D02*
X157435000Y-41025000D01*
G04 #@! TO.N,D-*
X153318603Y-55425000D02*
X154610000Y-56716397D01*
X152825001Y-55600000D02*
X153000001Y-55425000D01*
X151700000Y-55600000D02*
X152825001Y-55600000D01*
X153000001Y-55425000D02*
X153318603Y-55425000D01*
X154610000Y-56716397D02*
X154610000Y-57980000D01*
G04 #@! TO.N,D+*
X156185001Y-57655001D02*
X156510000Y-57980000D01*
X156185001Y-57209999D02*
X156185001Y-57655001D01*
X156125001Y-57149999D02*
X156185001Y-57209999D01*
X155679999Y-57149999D02*
X156125001Y-57149999D01*
X153505000Y-54975000D02*
X155679999Y-57149999D01*
X152825001Y-54800000D02*
X153000001Y-54975000D01*
X153000001Y-54975000D02*
X153505000Y-54975000D01*
X151700000Y-54800000D02*
X152825001Y-54800000D01*
G04 #@! TO.N,Din-*
X154600000Y-65600000D02*
X154600000Y-64150000D01*
X154600000Y-68403615D02*
X154600000Y-65600000D01*
X153300008Y-69703607D02*
X154600000Y-68403615D01*
X153300008Y-74475010D02*
X153300008Y-69703607D01*
X155350000Y-75610000D02*
X155200001Y-75460001D01*
X155200001Y-75460001D02*
X154284999Y-75460001D01*
X154284999Y-75460001D02*
X153300008Y-74475010D01*
G04 #@! TO.N,Din+*
X155350000Y-74960000D02*
X155336397Y-74960000D01*
X155336397Y-74960000D02*
X155186398Y-74810001D01*
X155050000Y-65600000D02*
X156500000Y-64150000D01*
X155186398Y-74810001D02*
X154284999Y-74810001D01*
X154284999Y-74810001D02*
X153749999Y-74275001D01*
X153749999Y-74275001D02*
X153749999Y-69889999D01*
X153749999Y-69889999D02*
X155050000Y-68589998D01*
X155050000Y-68589998D02*
X155050000Y-65600000D01*
G04 #@! TD*
M02*
