M48
METRIC,TZ
T1C0.300
T2C0.500
T3C0.650
T4C0.700
T5C1.000
%
G90
G05
T1
X131000Y-40000
X131200Y-55300
X138600Y-63100
X138600Y-64700
X139300Y-62300
X139300Y-63900
X141200Y-57950
X142200Y-61900
X142800Y-62700
X143600Y-61900
X144400Y-62700
X145000Y-65000
X146000Y-65500
X147000Y-65000
X147600Y-48100
X148000Y-65500
X149200Y-57950
X149600Y-49200
X150100Y-48400
X150100Y-50000
T2
X137050Y-76400
X143250Y-38100
X147800Y-39700
X154000Y-54200
X154500Y-70250
X154800Y-31890
X157500Y-52000
X157900Y-59200
T5
X139770Y-73750
X139770Y-76290
X142310Y-73750
X142310Y-76290
X144850Y-73750
X144850Y-76290
T3
G00X155430Y-72540
M15
G01X155030Y-72540
M16
G05
G00X155430Y-77380
M15
G01X155030Y-77380
M16
G05
T4
G00X158480Y-72230
M15
G01X157980Y-72230
M16
G05
G00X158480Y-77690
M15
G01X157980Y-77690
M16
G05
T0
M30
