M48
METRIC
T1C0.300
T2C0.400
T3C0.650
T4C0.700
T5C0.750
T6C1.000
T7C2.200
T8C2.700
%
G90
G05
T1
X124.668Y-39.042
X125.938Y-44.884
X131.6Y-60.0
X132.796Y-44.884
X140.797Y-38.153
X140.924Y-72.316
X141.2Y-57.95
X145.623Y-42.471
X145.974Y-64.686
X146.004Y-45.963
X146.385Y-76.634
X146.624Y-65.33
X147.274Y-65.966
X147.274Y-66.982
X147.591Y-45.963
X149.2Y-57.95
X150.068Y-48.418
X150.068Y-49.318
X150.068Y-50.218
X150.068Y-54.028
X152.1Y-37.518
X153.116Y-44.122
X153.168Y-50.771
X154.259Y-37.518
X155.719Y-57.33
X156.355Y-46.852
X156.672Y-57.33
T2
X157.5Y-36.5
T5
X155.5Y-65.0
X155.5Y-67.0
T6
X134.828Y-73.84
X134.828Y-76.38
X137.368Y-73.84
X137.368Y-76.38
X139.908Y-73.84
X139.908Y-76.38
T7
X131.0Y-35.5
X133.5Y-69.0
T8
X129.5Y-73.5
T3
G00X155.43Y-72.54
M15
G01X155.03Y-72.54
M16
G05
G00X155.43Y-77.38
M15
G01X155.03Y-77.38
M16
G05
T4
G00X158.48Y-72.23
M15
G01X157.98Y-72.23
M16
G05
G00X158.48Y-77.69
M15
G01X157.98Y-77.69
M16
G05
T0
M30
