G04 #@! TF.GenerationSoftware,KiCad,Pcbnew,(5.1.8)-1*
G04 #@! TF.CreationDate,2021-05-08T18:02:40-07:00*
G04 #@! TF.ProjectId,wired-sculpt,77697265-642d-4736-9375-6c70742e6b69,rev?*
G04 #@! TF.SameCoordinates,Original*
G04 #@! TF.FileFunction,Soldermask,Top*
G04 #@! TF.FilePolarity,Negative*
%FSLAX46Y46*%
G04 Gerber Fmt 4.6, Leading zero omitted, Abs format (unit mm)*
G04 Created by KiCad (PCBNEW (5.1.8)-1) date 2021-05-08 18:02:40*
%MOMM*%
%LPD*%
G01*
G04 APERTURE LIST*
%ADD10C,1.801600*%
%ADD11O,1.601600X1.201600*%
%ADD12O,1.801600X1.451600*%
%ADD13C,5.800000*%
%ADD14C,2.801600*%
%ADD15O,1.851600X1.301600*%
G04 APERTURE END LIST*
G04 #@! TO.C,J3*
G36*
G01*
X135463859Y-77280800D02*
X134192141Y-77280800D01*
G75*
G02*
X133927200Y-77015859I0J264941D01*
G01*
X133927200Y-75744141D01*
G75*
G02*
X134192141Y-75479200I264941J0D01*
G01*
X135463859Y-75479200D01*
G75*
G02*
X135728800Y-75744141I0J-264941D01*
G01*
X135728800Y-77015859D01*
G75*
G02*
X135463859Y-77280800I-264941J0D01*
G01*
G37*
D10*
X137368000Y-76380000D03*
X139908000Y-76380000D03*
X134828000Y-73840000D03*
X137368000Y-73840000D03*
X139908000Y-73840000D03*
G04 #@! TD*
G04 #@! TO.C,C8*
G36*
G01*
X146871600Y-39303200D02*
X147422400Y-39303200D01*
G75*
G02*
X147672800Y-39553600I0J-250400D01*
G01*
X147672800Y-40054400D01*
G75*
G02*
X147422400Y-40304800I-250400J0D01*
G01*
X146871600Y-40304800D01*
G75*
G02*
X146621200Y-40054400I0J250400D01*
G01*
X146621200Y-39553600D01*
G75*
G02*
X146871600Y-39303200I250400J0D01*
G01*
G37*
G36*
G01*
X146871600Y-40853200D02*
X147422400Y-40853200D01*
G75*
G02*
X147672800Y-41103600I0J-250400D01*
G01*
X147672800Y-41604400D01*
G75*
G02*
X147422400Y-41854800I-250400J0D01*
G01*
X146871600Y-41854800D01*
G75*
G02*
X146621200Y-41604400I0J250400D01*
G01*
X146621200Y-41103600D01*
G75*
G02*
X146871600Y-40853200I250400J0D01*
G01*
G37*
G04 #@! TD*
G04 #@! TO.C,C12*
G36*
G01*
X142045800Y-61880600D02*
X142045800Y-62431400D01*
G75*
G02*
X141795400Y-62681800I-250400J0D01*
G01*
X141294600Y-62681800D01*
G75*
G02*
X141044200Y-62431400I0J250400D01*
G01*
X141044200Y-61880600D01*
G75*
G02*
X141294600Y-61630200I250400J0D01*
G01*
X141795400Y-61630200D01*
G75*
G02*
X142045800Y-61880600I0J-250400D01*
G01*
G37*
G36*
G01*
X140495800Y-61880600D02*
X140495800Y-62431400D01*
G75*
G02*
X140245400Y-62681800I-250400J0D01*
G01*
X139744600Y-62681800D01*
G75*
G02*
X139494200Y-62431400I0J250400D01*
G01*
X139494200Y-61880600D01*
G75*
G02*
X139744600Y-61630200I250400J0D01*
G01*
X140245400Y-61630200D01*
G75*
G02*
X140495800Y-61880600I0J-250400D01*
G01*
G37*
G04 #@! TD*
G04 #@! TO.C,R9*
G36*
G01*
X152367400Y-36532800D02*
X151766600Y-36532800D01*
G75*
G02*
X151541200Y-36307400I0J225400D01*
G01*
X151541200Y-35856600D01*
G75*
G02*
X151766600Y-35631200I225400J0D01*
G01*
X152367400Y-35631200D01*
G75*
G02*
X152592800Y-35856600I0J-225400D01*
G01*
X152592800Y-36307400D01*
G75*
G02*
X152367400Y-36532800I-225400J0D01*
G01*
G37*
G36*
G01*
X152367400Y-34882800D02*
X151766600Y-34882800D01*
G75*
G02*
X151541200Y-34657400I0J225400D01*
G01*
X151541200Y-34206600D01*
G75*
G02*
X151766600Y-33981200I225400J0D01*
G01*
X152367400Y-33981200D01*
G75*
G02*
X152592800Y-34206600I0J-225400D01*
G01*
X152592800Y-34657400D01*
G75*
G02*
X152367400Y-34882800I-225400J0D01*
G01*
G37*
G04 #@! TD*
G04 #@! TO.C,C3*
G36*
G01*
X145807200Y-71469400D02*
X145807200Y-70468600D01*
G75*
G02*
X146082600Y-70193200I275400J0D01*
G01*
X146633400Y-70193200D01*
G75*
G02*
X146908800Y-70468600I0J-275400D01*
G01*
X146908800Y-71469400D01*
G75*
G02*
X146633400Y-71744800I-275400J0D01*
G01*
X146082600Y-71744800D01*
G75*
G02*
X145807200Y-71469400I0J275400D01*
G01*
G37*
G36*
G01*
X147707200Y-71469400D02*
X147707200Y-70468600D01*
G75*
G02*
X147982600Y-70193200I275400J0D01*
G01*
X148533400Y-70193200D01*
G75*
G02*
X148808800Y-70468600I0J-275400D01*
G01*
X148808800Y-71469400D01*
G75*
G02*
X148533400Y-71744800I-275400J0D01*
G01*
X147982600Y-71744800D01*
G75*
G02*
X147707200Y-71469400I0J275400D01*
G01*
G37*
G04 #@! TD*
G04 #@! TO.C,U1*
G36*
G01*
X150375000Y-73580800D02*
X149725000Y-73580800D01*
G75*
G02*
X149674200Y-73530000I0J50800D01*
G01*
X149674200Y-72470000D01*
G75*
G02*
X149725000Y-72419200I50800J0D01*
G01*
X150375000Y-72419200D01*
G75*
G02*
X150425800Y-72470000I0J-50800D01*
G01*
X150425800Y-73530000D01*
G75*
G02*
X150375000Y-73580800I-50800J0D01*
G01*
G37*
G36*
G01*
X151325000Y-73580800D02*
X150675000Y-73580800D01*
G75*
G02*
X150624200Y-73530000I0J50800D01*
G01*
X150624200Y-72470000D01*
G75*
G02*
X150675000Y-72419200I50800J0D01*
G01*
X151325000Y-72419200D01*
G75*
G02*
X151375800Y-72470000I0J-50800D01*
G01*
X151375800Y-73530000D01*
G75*
G02*
X151325000Y-73580800I-50800J0D01*
G01*
G37*
G36*
G01*
X152275000Y-73580800D02*
X151625000Y-73580800D01*
G75*
G02*
X151574200Y-73530000I0J50800D01*
G01*
X151574200Y-72470000D01*
G75*
G02*
X151625000Y-72419200I50800J0D01*
G01*
X152275000Y-72419200D01*
G75*
G02*
X152325800Y-72470000I0J-50800D01*
G01*
X152325800Y-73530000D01*
G75*
G02*
X152275000Y-73580800I-50800J0D01*
G01*
G37*
G36*
G01*
X152275000Y-71380800D02*
X151625000Y-71380800D01*
G75*
G02*
X151574200Y-71330000I0J50800D01*
G01*
X151574200Y-70270000D01*
G75*
G02*
X151625000Y-70219200I50800J0D01*
G01*
X152275000Y-70219200D01*
G75*
G02*
X152325800Y-70270000I0J-50800D01*
G01*
X152325800Y-71330000D01*
G75*
G02*
X152275000Y-71380800I-50800J0D01*
G01*
G37*
G36*
G01*
X150375000Y-71380800D02*
X149725000Y-71380800D01*
G75*
G02*
X149674200Y-71330000I0J50800D01*
G01*
X149674200Y-70270000D01*
G75*
G02*
X149725000Y-70219200I50800J0D01*
G01*
X150375000Y-70219200D01*
G75*
G02*
X150425800Y-70270000I0J-50800D01*
G01*
X150425800Y-71330000D01*
G75*
G02*
X150375000Y-71380800I-50800J0D01*
G01*
G37*
G36*
G01*
X151325000Y-71380800D02*
X150675000Y-71380800D01*
G75*
G02*
X150624200Y-71330000I0J50800D01*
G01*
X150624200Y-70270000D01*
G75*
G02*
X150675000Y-70219200I50800J0D01*
G01*
X151325000Y-70219200D01*
G75*
G02*
X151375800Y-70270000I0J-50800D01*
G01*
X151375800Y-71330000D01*
G75*
G02*
X151325000Y-71380800I-50800J0D01*
G01*
G37*
G04 #@! TD*
G04 #@! TO.C,U3*
G36*
G01*
X152500800Y-57725000D02*
X152500800Y-58275000D01*
G75*
G02*
X152450000Y-58325800I-50800J0D01*
G01*
X150950000Y-58325800D01*
G75*
G02*
X150899200Y-58275000I0J50800D01*
G01*
X150899200Y-57725000D01*
G75*
G02*
X150950000Y-57674200I50800J0D01*
G01*
X152450000Y-57674200D01*
G75*
G02*
X152500800Y-57725000I0J-50800D01*
G01*
G37*
G36*
G01*
X152500800Y-56925000D02*
X152500800Y-57475000D01*
G75*
G02*
X152450000Y-57525800I-50800J0D01*
G01*
X150950000Y-57525800D01*
G75*
G02*
X150899200Y-57475000I0J50800D01*
G01*
X150899200Y-56925000D01*
G75*
G02*
X150950000Y-56874200I50800J0D01*
G01*
X152450000Y-56874200D01*
G75*
G02*
X152500800Y-56925000I0J-50800D01*
G01*
G37*
G36*
G01*
X152500800Y-56125000D02*
X152500800Y-56675000D01*
G75*
G02*
X152450000Y-56725800I-50800J0D01*
G01*
X150950000Y-56725800D01*
G75*
G02*
X150899200Y-56675000I0J50800D01*
G01*
X150899200Y-56125000D01*
G75*
G02*
X150950000Y-56074200I50800J0D01*
G01*
X152450000Y-56074200D01*
G75*
G02*
X152500800Y-56125000I0J-50800D01*
G01*
G37*
G36*
G01*
X152500800Y-55325000D02*
X152500800Y-55875000D01*
G75*
G02*
X152450000Y-55925800I-50800J0D01*
G01*
X150950000Y-55925800D01*
G75*
G02*
X150899200Y-55875000I0J50800D01*
G01*
X150899200Y-55325000D01*
G75*
G02*
X150950000Y-55274200I50800J0D01*
G01*
X152450000Y-55274200D01*
G75*
G02*
X152500800Y-55325000I0J-50800D01*
G01*
G37*
G36*
G01*
X152500800Y-54525000D02*
X152500800Y-55075000D01*
G75*
G02*
X152450000Y-55125800I-50800J0D01*
G01*
X150950000Y-55125800D01*
G75*
G02*
X150899200Y-55075000I0J50800D01*
G01*
X150899200Y-54525000D01*
G75*
G02*
X150950000Y-54474200I50800J0D01*
G01*
X152450000Y-54474200D01*
G75*
G02*
X152500800Y-54525000I0J-50800D01*
G01*
G37*
G36*
G01*
X152500800Y-53725000D02*
X152500800Y-54275000D01*
G75*
G02*
X152450000Y-54325800I-50800J0D01*
G01*
X150950000Y-54325800D01*
G75*
G02*
X150899200Y-54275000I0J50800D01*
G01*
X150899200Y-53725000D01*
G75*
G02*
X150950000Y-53674200I50800J0D01*
G01*
X152450000Y-53674200D01*
G75*
G02*
X152500800Y-53725000I0J-50800D01*
G01*
G37*
G36*
G01*
X152500800Y-52925000D02*
X152500800Y-53475000D01*
G75*
G02*
X152450000Y-53525800I-50800J0D01*
G01*
X150950000Y-53525800D01*
G75*
G02*
X150899200Y-53475000I0J50800D01*
G01*
X150899200Y-52925000D01*
G75*
G02*
X150950000Y-52874200I50800J0D01*
G01*
X152450000Y-52874200D01*
G75*
G02*
X152500800Y-52925000I0J-50800D01*
G01*
G37*
G36*
G01*
X152500800Y-52125000D02*
X152500800Y-52675000D01*
G75*
G02*
X152450000Y-52725800I-50800J0D01*
G01*
X150950000Y-52725800D01*
G75*
G02*
X150899200Y-52675000I0J50800D01*
G01*
X150899200Y-52125000D01*
G75*
G02*
X150950000Y-52074200I50800J0D01*
G01*
X152450000Y-52074200D01*
G75*
G02*
X152500800Y-52125000I0J-50800D01*
G01*
G37*
G36*
G01*
X152500800Y-51325000D02*
X152500800Y-51875000D01*
G75*
G02*
X152450000Y-51925800I-50800J0D01*
G01*
X150950000Y-51925800D01*
G75*
G02*
X150899200Y-51875000I0J50800D01*
G01*
X150899200Y-51325000D01*
G75*
G02*
X150950000Y-51274200I50800J0D01*
G01*
X152450000Y-51274200D01*
G75*
G02*
X152500800Y-51325000I0J-50800D01*
G01*
G37*
G36*
G01*
X152500800Y-50525000D02*
X152500800Y-51075000D01*
G75*
G02*
X152450000Y-51125800I-50800J0D01*
G01*
X150950000Y-51125800D01*
G75*
G02*
X150899200Y-51075000I0J50800D01*
G01*
X150899200Y-50525000D01*
G75*
G02*
X150950000Y-50474200I50800J0D01*
G01*
X152450000Y-50474200D01*
G75*
G02*
X152500800Y-50525000I0J-50800D01*
G01*
G37*
G36*
G01*
X152500800Y-49725000D02*
X152500800Y-50275000D01*
G75*
G02*
X152450000Y-50325800I-50800J0D01*
G01*
X150950000Y-50325800D01*
G75*
G02*
X150899200Y-50275000I0J50800D01*
G01*
X150899200Y-49725000D01*
G75*
G02*
X150950000Y-49674200I50800J0D01*
G01*
X152450000Y-49674200D01*
G75*
G02*
X152500800Y-49725000I0J-50800D01*
G01*
G37*
G36*
G01*
X152500800Y-48925000D02*
X152500800Y-49475000D01*
G75*
G02*
X152450000Y-49525800I-50800J0D01*
G01*
X150950000Y-49525800D01*
G75*
G02*
X150899200Y-49475000I0J50800D01*
G01*
X150899200Y-48925000D01*
G75*
G02*
X150950000Y-48874200I50800J0D01*
G01*
X152450000Y-48874200D01*
G75*
G02*
X152500800Y-48925000I0J-50800D01*
G01*
G37*
G36*
G01*
X152500800Y-48125000D02*
X152500800Y-48675000D01*
G75*
G02*
X152450000Y-48725800I-50800J0D01*
G01*
X150950000Y-48725800D01*
G75*
G02*
X150899200Y-48675000I0J50800D01*
G01*
X150899200Y-48125000D01*
G75*
G02*
X150950000Y-48074200I50800J0D01*
G01*
X152450000Y-48074200D01*
G75*
G02*
X152500800Y-48125000I0J-50800D01*
G01*
G37*
G36*
G01*
X152500800Y-47325000D02*
X152500800Y-47875000D01*
G75*
G02*
X152450000Y-47925800I-50800J0D01*
G01*
X150950000Y-47925800D01*
G75*
G02*
X150899200Y-47875000I0J50800D01*
G01*
X150899200Y-47325000D01*
G75*
G02*
X150950000Y-47274200I50800J0D01*
G01*
X152450000Y-47274200D01*
G75*
G02*
X152500800Y-47325000I0J-50800D01*
G01*
G37*
G36*
G01*
X152500800Y-46525000D02*
X152500800Y-47075000D01*
G75*
G02*
X152450000Y-47125800I-50800J0D01*
G01*
X150950000Y-47125800D01*
G75*
G02*
X150899200Y-47075000I0J50800D01*
G01*
X150899200Y-46525000D01*
G75*
G02*
X150950000Y-46474200I50800J0D01*
G01*
X152450000Y-46474200D01*
G75*
G02*
X152500800Y-46525000I0J-50800D01*
G01*
G37*
G36*
G01*
X152500800Y-45725000D02*
X152500800Y-46275000D01*
G75*
G02*
X152450000Y-46325800I-50800J0D01*
G01*
X150950000Y-46325800D01*
G75*
G02*
X150899200Y-46275000I0J50800D01*
G01*
X150899200Y-45725000D01*
G75*
G02*
X150950000Y-45674200I50800J0D01*
G01*
X152450000Y-45674200D01*
G75*
G02*
X152500800Y-45725000I0J-50800D01*
G01*
G37*
G36*
G01*
X149725000Y-43499200D02*
X150275000Y-43499200D01*
G75*
G02*
X150325800Y-43550000I0J-50800D01*
G01*
X150325800Y-45050000D01*
G75*
G02*
X150275000Y-45100800I-50800J0D01*
G01*
X149725000Y-45100800D01*
G75*
G02*
X149674200Y-45050000I0J50800D01*
G01*
X149674200Y-43550000D01*
G75*
G02*
X149725000Y-43499200I50800J0D01*
G01*
G37*
G36*
G01*
X148925000Y-43499200D02*
X149475000Y-43499200D01*
G75*
G02*
X149525800Y-43550000I0J-50800D01*
G01*
X149525800Y-45050000D01*
G75*
G02*
X149475000Y-45100800I-50800J0D01*
G01*
X148925000Y-45100800D01*
G75*
G02*
X148874200Y-45050000I0J50800D01*
G01*
X148874200Y-43550000D01*
G75*
G02*
X148925000Y-43499200I50800J0D01*
G01*
G37*
G36*
G01*
X148125000Y-43499200D02*
X148675000Y-43499200D01*
G75*
G02*
X148725800Y-43550000I0J-50800D01*
G01*
X148725800Y-45050000D01*
G75*
G02*
X148675000Y-45100800I-50800J0D01*
G01*
X148125000Y-45100800D01*
G75*
G02*
X148074200Y-45050000I0J50800D01*
G01*
X148074200Y-43550000D01*
G75*
G02*
X148125000Y-43499200I50800J0D01*
G01*
G37*
G36*
G01*
X147325000Y-43499200D02*
X147875000Y-43499200D01*
G75*
G02*
X147925800Y-43550000I0J-50800D01*
G01*
X147925800Y-45050000D01*
G75*
G02*
X147875000Y-45100800I-50800J0D01*
G01*
X147325000Y-45100800D01*
G75*
G02*
X147274200Y-45050000I0J50800D01*
G01*
X147274200Y-43550000D01*
G75*
G02*
X147325000Y-43499200I50800J0D01*
G01*
G37*
G36*
G01*
X146525000Y-43499200D02*
X147075000Y-43499200D01*
G75*
G02*
X147125800Y-43550000I0J-50800D01*
G01*
X147125800Y-45050000D01*
G75*
G02*
X147075000Y-45100800I-50800J0D01*
G01*
X146525000Y-45100800D01*
G75*
G02*
X146474200Y-45050000I0J50800D01*
G01*
X146474200Y-43550000D01*
G75*
G02*
X146525000Y-43499200I50800J0D01*
G01*
G37*
G36*
G01*
X145725000Y-43499200D02*
X146275000Y-43499200D01*
G75*
G02*
X146325800Y-43550000I0J-50800D01*
G01*
X146325800Y-45050000D01*
G75*
G02*
X146275000Y-45100800I-50800J0D01*
G01*
X145725000Y-45100800D01*
G75*
G02*
X145674200Y-45050000I0J50800D01*
G01*
X145674200Y-43550000D01*
G75*
G02*
X145725000Y-43499200I50800J0D01*
G01*
G37*
G36*
G01*
X144925000Y-43499200D02*
X145475000Y-43499200D01*
G75*
G02*
X145525800Y-43550000I0J-50800D01*
G01*
X145525800Y-45050000D01*
G75*
G02*
X145475000Y-45100800I-50800J0D01*
G01*
X144925000Y-45100800D01*
G75*
G02*
X144874200Y-45050000I0J50800D01*
G01*
X144874200Y-43550000D01*
G75*
G02*
X144925000Y-43499200I50800J0D01*
G01*
G37*
G36*
G01*
X144125000Y-43499200D02*
X144675000Y-43499200D01*
G75*
G02*
X144725800Y-43550000I0J-50800D01*
G01*
X144725800Y-45050000D01*
G75*
G02*
X144675000Y-45100800I-50800J0D01*
G01*
X144125000Y-45100800D01*
G75*
G02*
X144074200Y-45050000I0J50800D01*
G01*
X144074200Y-43550000D01*
G75*
G02*
X144125000Y-43499200I50800J0D01*
G01*
G37*
G36*
G01*
X143325000Y-43499200D02*
X143875000Y-43499200D01*
G75*
G02*
X143925800Y-43550000I0J-50800D01*
G01*
X143925800Y-45050000D01*
G75*
G02*
X143875000Y-45100800I-50800J0D01*
G01*
X143325000Y-45100800D01*
G75*
G02*
X143274200Y-45050000I0J50800D01*
G01*
X143274200Y-43550000D01*
G75*
G02*
X143325000Y-43499200I50800J0D01*
G01*
G37*
G36*
G01*
X142525000Y-43499200D02*
X143075000Y-43499200D01*
G75*
G02*
X143125800Y-43550000I0J-50800D01*
G01*
X143125800Y-45050000D01*
G75*
G02*
X143075000Y-45100800I-50800J0D01*
G01*
X142525000Y-45100800D01*
G75*
G02*
X142474200Y-45050000I0J50800D01*
G01*
X142474200Y-43550000D01*
G75*
G02*
X142525000Y-43499200I50800J0D01*
G01*
G37*
G36*
G01*
X141725000Y-43499200D02*
X142275000Y-43499200D01*
G75*
G02*
X142325800Y-43550000I0J-50800D01*
G01*
X142325800Y-45050000D01*
G75*
G02*
X142275000Y-45100800I-50800J0D01*
G01*
X141725000Y-45100800D01*
G75*
G02*
X141674200Y-45050000I0J50800D01*
G01*
X141674200Y-43550000D01*
G75*
G02*
X141725000Y-43499200I50800J0D01*
G01*
G37*
G36*
G01*
X140925000Y-43499200D02*
X141475000Y-43499200D01*
G75*
G02*
X141525800Y-43550000I0J-50800D01*
G01*
X141525800Y-45050000D01*
G75*
G02*
X141475000Y-45100800I-50800J0D01*
G01*
X140925000Y-45100800D01*
G75*
G02*
X140874200Y-45050000I0J50800D01*
G01*
X140874200Y-43550000D01*
G75*
G02*
X140925000Y-43499200I50800J0D01*
G01*
G37*
G36*
G01*
X140125000Y-43499200D02*
X140675000Y-43499200D01*
G75*
G02*
X140725800Y-43550000I0J-50800D01*
G01*
X140725800Y-45050000D01*
G75*
G02*
X140675000Y-45100800I-50800J0D01*
G01*
X140125000Y-45100800D01*
G75*
G02*
X140074200Y-45050000I0J50800D01*
G01*
X140074200Y-43550000D01*
G75*
G02*
X140125000Y-43499200I50800J0D01*
G01*
G37*
G36*
G01*
X139325000Y-43499200D02*
X139875000Y-43499200D01*
G75*
G02*
X139925800Y-43550000I0J-50800D01*
G01*
X139925800Y-45050000D01*
G75*
G02*
X139875000Y-45100800I-50800J0D01*
G01*
X139325000Y-45100800D01*
G75*
G02*
X139274200Y-45050000I0J50800D01*
G01*
X139274200Y-43550000D01*
G75*
G02*
X139325000Y-43499200I50800J0D01*
G01*
G37*
G36*
G01*
X138525000Y-43499200D02*
X139075000Y-43499200D01*
G75*
G02*
X139125800Y-43550000I0J-50800D01*
G01*
X139125800Y-45050000D01*
G75*
G02*
X139075000Y-45100800I-50800J0D01*
G01*
X138525000Y-45100800D01*
G75*
G02*
X138474200Y-45050000I0J50800D01*
G01*
X138474200Y-43550000D01*
G75*
G02*
X138525000Y-43499200I50800J0D01*
G01*
G37*
G36*
G01*
X137725000Y-43499200D02*
X138275000Y-43499200D01*
G75*
G02*
X138325800Y-43550000I0J-50800D01*
G01*
X138325800Y-45050000D01*
G75*
G02*
X138275000Y-45100800I-50800J0D01*
G01*
X137725000Y-45100800D01*
G75*
G02*
X137674200Y-45050000I0J50800D01*
G01*
X137674200Y-43550000D01*
G75*
G02*
X137725000Y-43499200I50800J0D01*
G01*
G37*
G36*
G01*
X137100800Y-45725000D02*
X137100800Y-46275000D01*
G75*
G02*
X137050000Y-46325800I-50800J0D01*
G01*
X135550000Y-46325800D01*
G75*
G02*
X135499200Y-46275000I0J50800D01*
G01*
X135499200Y-45725000D01*
G75*
G02*
X135550000Y-45674200I50800J0D01*
G01*
X137050000Y-45674200D01*
G75*
G02*
X137100800Y-45725000I0J-50800D01*
G01*
G37*
G36*
G01*
X137100800Y-46525000D02*
X137100800Y-47075000D01*
G75*
G02*
X137050000Y-47125800I-50800J0D01*
G01*
X135550000Y-47125800D01*
G75*
G02*
X135499200Y-47075000I0J50800D01*
G01*
X135499200Y-46525000D01*
G75*
G02*
X135550000Y-46474200I50800J0D01*
G01*
X137050000Y-46474200D01*
G75*
G02*
X137100800Y-46525000I0J-50800D01*
G01*
G37*
G36*
G01*
X137100800Y-47325000D02*
X137100800Y-47875000D01*
G75*
G02*
X137050000Y-47925800I-50800J0D01*
G01*
X135550000Y-47925800D01*
G75*
G02*
X135499200Y-47875000I0J50800D01*
G01*
X135499200Y-47325000D01*
G75*
G02*
X135550000Y-47274200I50800J0D01*
G01*
X137050000Y-47274200D01*
G75*
G02*
X137100800Y-47325000I0J-50800D01*
G01*
G37*
G36*
G01*
X137100800Y-48125000D02*
X137100800Y-48675000D01*
G75*
G02*
X137050000Y-48725800I-50800J0D01*
G01*
X135550000Y-48725800D01*
G75*
G02*
X135499200Y-48675000I0J50800D01*
G01*
X135499200Y-48125000D01*
G75*
G02*
X135550000Y-48074200I50800J0D01*
G01*
X137050000Y-48074200D01*
G75*
G02*
X137100800Y-48125000I0J-50800D01*
G01*
G37*
G36*
G01*
X137100800Y-48925000D02*
X137100800Y-49475000D01*
G75*
G02*
X137050000Y-49525800I-50800J0D01*
G01*
X135550000Y-49525800D01*
G75*
G02*
X135499200Y-49475000I0J50800D01*
G01*
X135499200Y-48925000D01*
G75*
G02*
X135550000Y-48874200I50800J0D01*
G01*
X137050000Y-48874200D01*
G75*
G02*
X137100800Y-48925000I0J-50800D01*
G01*
G37*
G36*
G01*
X137100800Y-49725000D02*
X137100800Y-50275000D01*
G75*
G02*
X137050000Y-50325800I-50800J0D01*
G01*
X135550000Y-50325800D01*
G75*
G02*
X135499200Y-50275000I0J50800D01*
G01*
X135499200Y-49725000D01*
G75*
G02*
X135550000Y-49674200I50800J0D01*
G01*
X137050000Y-49674200D01*
G75*
G02*
X137100800Y-49725000I0J-50800D01*
G01*
G37*
G36*
G01*
X137100800Y-50525000D02*
X137100800Y-51075000D01*
G75*
G02*
X137050000Y-51125800I-50800J0D01*
G01*
X135550000Y-51125800D01*
G75*
G02*
X135499200Y-51075000I0J50800D01*
G01*
X135499200Y-50525000D01*
G75*
G02*
X135550000Y-50474200I50800J0D01*
G01*
X137050000Y-50474200D01*
G75*
G02*
X137100800Y-50525000I0J-50800D01*
G01*
G37*
G36*
G01*
X137100800Y-51325000D02*
X137100800Y-51875000D01*
G75*
G02*
X137050000Y-51925800I-50800J0D01*
G01*
X135550000Y-51925800D01*
G75*
G02*
X135499200Y-51875000I0J50800D01*
G01*
X135499200Y-51325000D01*
G75*
G02*
X135550000Y-51274200I50800J0D01*
G01*
X137050000Y-51274200D01*
G75*
G02*
X137100800Y-51325000I0J-50800D01*
G01*
G37*
G36*
G01*
X137100800Y-52125000D02*
X137100800Y-52675000D01*
G75*
G02*
X137050000Y-52725800I-50800J0D01*
G01*
X135550000Y-52725800D01*
G75*
G02*
X135499200Y-52675000I0J50800D01*
G01*
X135499200Y-52125000D01*
G75*
G02*
X135550000Y-52074200I50800J0D01*
G01*
X137050000Y-52074200D01*
G75*
G02*
X137100800Y-52125000I0J-50800D01*
G01*
G37*
G36*
G01*
X137100800Y-52925000D02*
X137100800Y-53475000D01*
G75*
G02*
X137050000Y-53525800I-50800J0D01*
G01*
X135550000Y-53525800D01*
G75*
G02*
X135499200Y-53475000I0J50800D01*
G01*
X135499200Y-52925000D01*
G75*
G02*
X135550000Y-52874200I50800J0D01*
G01*
X137050000Y-52874200D01*
G75*
G02*
X137100800Y-52925000I0J-50800D01*
G01*
G37*
G36*
G01*
X137100800Y-53725000D02*
X137100800Y-54275000D01*
G75*
G02*
X137050000Y-54325800I-50800J0D01*
G01*
X135550000Y-54325800D01*
G75*
G02*
X135499200Y-54275000I0J50800D01*
G01*
X135499200Y-53725000D01*
G75*
G02*
X135550000Y-53674200I50800J0D01*
G01*
X137050000Y-53674200D01*
G75*
G02*
X137100800Y-53725000I0J-50800D01*
G01*
G37*
G36*
G01*
X137100800Y-54525000D02*
X137100800Y-55075000D01*
G75*
G02*
X137050000Y-55125800I-50800J0D01*
G01*
X135550000Y-55125800D01*
G75*
G02*
X135499200Y-55075000I0J50800D01*
G01*
X135499200Y-54525000D01*
G75*
G02*
X135550000Y-54474200I50800J0D01*
G01*
X137050000Y-54474200D01*
G75*
G02*
X137100800Y-54525000I0J-50800D01*
G01*
G37*
G36*
G01*
X137100800Y-55325000D02*
X137100800Y-55875000D01*
G75*
G02*
X137050000Y-55925800I-50800J0D01*
G01*
X135550000Y-55925800D01*
G75*
G02*
X135499200Y-55875000I0J50800D01*
G01*
X135499200Y-55325000D01*
G75*
G02*
X135550000Y-55274200I50800J0D01*
G01*
X137050000Y-55274200D01*
G75*
G02*
X137100800Y-55325000I0J-50800D01*
G01*
G37*
G36*
G01*
X137100800Y-56125000D02*
X137100800Y-56675000D01*
G75*
G02*
X137050000Y-56725800I-50800J0D01*
G01*
X135550000Y-56725800D01*
G75*
G02*
X135499200Y-56675000I0J50800D01*
G01*
X135499200Y-56125000D01*
G75*
G02*
X135550000Y-56074200I50800J0D01*
G01*
X137050000Y-56074200D01*
G75*
G02*
X137100800Y-56125000I0J-50800D01*
G01*
G37*
G36*
G01*
X137100800Y-56925000D02*
X137100800Y-57475000D01*
G75*
G02*
X137050000Y-57525800I-50800J0D01*
G01*
X135550000Y-57525800D01*
G75*
G02*
X135499200Y-57475000I0J50800D01*
G01*
X135499200Y-56925000D01*
G75*
G02*
X135550000Y-56874200I50800J0D01*
G01*
X137050000Y-56874200D01*
G75*
G02*
X137100800Y-56925000I0J-50800D01*
G01*
G37*
G36*
G01*
X137100800Y-57725000D02*
X137100800Y-58275000D01*
G75*
G02*
X137050000Y-58325800I-50800J0D01*
G01*
X135550000Y-58325800D01*
G75*
G02*
X135499200Y-58275000I0J50800D01*
G01*
X135499200Y-57725000D01*
G75*
G02*
X135550000Y-57674200I50800J0D01*
G01*
X137050000Y-57674200D01*
G75*
G02*
X137100800Y-57725000I0J-50800D01*
G01*
G37*
G36*
G01*
X137725000Y-58899200D02*
X138275000Y-58899200D01*
G75*
G02*
X138325800Y-58950000I0J-50800D01*
G01*
X138325800Y-60450000D01*
G75*
G02*
X138275000Y-60500800I-50800J0D01*
G01*
X137725000Y-60500800D01*
G75*
G02*
X137674200Y-60450000I0J50800D01*
G01*
X137674200Y-58950000D01*
G75*
G02*
X137725000Y-58899200I50800J0D01*
G01*
G37*
G36*
G01*
X138525000Y-58899200D02*
X139075000Y-58899200D01*
G75*
G02*
X139125800Y-58950000I0J-50800D01*
G01*
X139125800Y-60450000D01*
G75*
G02*
X139075000Y-60500800I-50800J0D01*
G01*
X138525000Y-60500800D01*
G75*
G02*
X138474200Y-60450000I0J50800D01*
G01*
X138474200Y-58950000D01*
G75*
G02*
X138525000Y-58899200I50800J0D01*
G01*
G37*
G36*
G01*
X139325000Y-58899200D02*
X139875000Y-58899200D01*
G75*
G02*
X139925800Y-58950000I0J-50800D01*
G01*
X139925800Y-60450000D01*
G75*
G02*
X139875000Y-60500800I-50800J0D01*
G01*
X139325000Y-60500800D01*
G75*
G02*
X139274200Y-60450000I0J50800D01*
G01*
X139274200Y-58950000D01*
G75*
G02*
X139325000Y-58899200I50800J0D01*
G01*
G37*
G36*
G01*
X140125000Y-58899200D02*
X140675000Y-58899200D01*
G75*
G02*
X140725800Y-58950000I0J-50800D01*
G01*
X140725800Y-60450000D01*
G75*
G02*
X140675000Y-60500800I-50800J0D01*
G01*
X140125000Y-60500800D01*
G75*
G02*
X140074200Y-60450000I0J50800D01*
G01*
X140074200Y-58950000D01*
G75*
G02*
X140125000Y-58899200I50800J0D01*
G01*
G37*
G36*
G01*
X140925000Y-58899200D02*
X141475000Y-58899200D01*
G75*
G02*
X141525800Y-58950000I0J-50800D01*
G01*
X141525800Y-60450000D01*
G75*
G02*
X141475000Y-60500800I-50800J0D01*
G01*
X140925000Y-60500800D01*
G75*
G02*
X140874200Y-60450000I0J50800D01*
G01*
X140874200Y-58950000D01*
G75*
G02*
X140925000Y-58899200I50800J0D01*
G01*
G37*
G36*
G01*
X141725000Y-58899200D02*
X142275000Y-58899200D01*
G75*
G02*
X142325800Y-58950000I0J-50800D01*
G01*
X142325800Y-60450000D01*
G75*
G02*
X142275000Y-60500800I-50800J0D01*
G01*
X141725000Y-60500800D01*
G75*
G02*
X141674200Y-60450000I0J50800D01*
G01*
X141674200Y-58950000D01*
G75*
G02*
X141725000Y-58899200I50800J0D01*
G01*
G37*
G36*
G01*
X142525000Y-58899200D02*
X143075000Y-58899200D01*
G75*
G02*
X143125800Y-58950000I0J-50800D01*
G01*
X143125800Y-60450000D01*
G75*
G02*
X143075000Y-60500800I-50800J0D01*
G01*
X142525000Y-60500800D01*
G75*
G02*
X142474200Y-60450000I0J50800D01*
G01*
X142474200Y-58950000D01*
G75*
G02*
X142525000Y-58899200I50800J0D01*
G01*
G37*
G36*
G01*
X143325000Y-58899200D02*
X143875000Y-58899200D01*
G75*
G02*
X143925800Y-58950000I0J-50800D01*
G01*
X143925800Y-60450000D01*
G75*
G02*
X143875000Y-60500800I-50800J0D01*
G01*
X143325000Y-60500800D01*
G75*
G02*
X143274200Y-60450000I0J50800D01*
G01*
X143274200Y-58950000D01*
G75*
G02*
X143325000Y-58899200I50800J0D01*
G01*
G37*
G36*
G01*
X144125000Y-58899200D02*
X144675000Y-58899200D01*
G75*
G02*
X144725800Y-58950000I0J-50800D01*
G01*
X144725800Y-60450000D01*
G75*
G02*
X144675000Y-60500800I-50800J0D01*
G01*
X144125000Y-60500800D01*
G75*
G02*
X144074200Y-60450000I0J50800D01*
G01*
X144074200Y-58950000D01*
G75*
G02*
X144125000Y-58899200I50800J0D01*
G01*
G37*
G36*
G01*
X144925000Y-58899200D02*
X145475000Y-58899200D01*
G75*
G02*
X145525800Y-58950000I0J-50800D01*
G01*
X145525800Y-60450000D01*
G75*
G02*
X145475000Y-60500800I-50800J0D01*
G01*
X144925000Y-60500800D01*
G75*
G02*
X144874200Y-60450000I0J50800D01*
G01*
X144874200Y-58950000D01*
G75*
G02*
X144925000Y-58899200I50800J0D01*
G01*
G37*
G36*
G01*
X145725000Y-58899200D02*
X146275000Y-58899200D01*
G75*
G02*
X146325800Y-58950000I0J-50800D01*
G01*
X146325800Y-60450000D01*
G75*
G02*
X146275000Y-60500800I-50800J0D01*
G01*
X145725000Y-60500800D01*
G75*
G02*
X145674200Y-60450000I0J50800D01*
G01*
X145674200Y-58950000D01*
G75*
G02*
X145725000Y-58899200I50800J0D01*
G01*
G37*
G36*
G01*
X146525000Y-58899200D02*
X147075000Y-58899200D01*
G75*
G02*
X147125800Y-58950000I0J-50800D01*
G01*
X147125800Y-60450000D01*
G75*
G02*
X147075000Y-60500800I-50800J0D01*
G01*
X146525000Y-60500800D01*
G75*
G02*
X146474200Y-60450000I0J50800D01*
G01*
X146474200Y-58950000D01*
G75*
G02*
X146525000Y-58899200I50800J0D01*
G01*
G37*
G36*
G01*
X147325000Y-58899200D02*
X147875000Y-58899200D01*
G75*
G02*
X147925800Y-58950000I0J-50800D01*
G01*
X147925800Y-60450000D01*
G75*
G02*
X147875000Y-60500800I-50800J0D01*
G01*
X147325000Y-60500800D01*
G75*
G02*
X147274200Y-60450000I0J50800D01*
G01*
X147274200Y-58950000D01*
G75*
G02*
X147325000Y-58899200I50800J0D01*
G01*
G37*
G36*
G01*
X148125000Y-58899200D02*
X148675000Y-58899200D01*
G75*
G02*
X148725800Y-58950000I0J-50800D01*
G01*
X148725800Y-60450000D01*
G75*
G02*
X148675000Y-60500800I-50800J0D01*
G01*
X148125000Y-60500800D01*
G75*
G02*
X148074200Y-60450000I0J50800D01*
G01*
X148074200Y-58950000D01*
G75*
G02*
X148125000Y-58899200I50800J0D01*
G01*
G37*
G36*
G01*
X148925000Y-58899200D02*
X149475000Y-58899200D01*
G75*
G02*
X149525800Y-58950000I0J-50800D01*
G01*
X149525800Y-60450000D01*
G75*
G02*
X149475000Y-60500800I-50800J0D01*
G01*
X148925000Y-60500800D01*
G75*
G02*
X148874200Y-60450000I0J50800D01*
G01*
X148874200Y-58950000D01*
G75*
G02*
X148925000Y-58899200I50800J0D01*
G01*
G37*
G36*
G01*
X149725000Y-58899200D02*
X150275000Y-58899200D01*
G75*
G02*
X150325800Y-58950000I0J-50800D01*
G01*
X150325800Y-60450000D01*
G75*
G02*
X150275000Y-60500800I-50800J0D01*
G01*
X149725000Y-60500800D01*
G75*
G02*
X149674200Y-60450000I0J50800D01*
G01*
X149674200Y-58950000D01*
G75*
G02*
X149725000Y-58899200I50800J0D01*
G01*
G37*
G04 #@! TD*
G04 #@! TO.C,R1*
G36*
G01*
X151545600Y-65897200D02*
X152146400Y-65897200D01*
G75*
G02*
X152371800Y-66122600I0J-225400D01*
G01*
X152371800Y-66573400D01*
G75*
G02*
X152146400Y-66798800I-225400J0D01*
G01*
X151545600Y-66798800D01*
G75*
G02*
X151320200Y-66573400I0J225400D01*
G01*
X151320200Y-66122600D01*
G75*
G02*
X151545600Y-65897200I225400J0D01*
G01*
G37*
G36*
G01*
X151545600Y-67547200D02*
X152146400Y-67547200D01*
G75*
G02*
X152371800Y-67772600I0J-225400D01*
G01*
X152371800Y-68223400D01*
G75*
G02*
X152146400Y-68448800I-225400J0D01*
G01*
X151545600Y-68448800D01*
G75*
G02*
X151320200Y-68223400I0J225400D01*
G01*
X151320200Y-67772600D01*
G75*
G02*
X151545600Y-67547200I225400J0D01*
G01*
G37*
G04 #@! TD*
G04 #@! TO.C,J2*
G36*
G01*
X127300000Y-38644200D02*
X129300000Y-38644200D01*
G75*
G02*
X129350800Y-38695000I0J-50800D01*
G01*
X129350800Y-39305000D01*
G75*
G02*
X129300000Y-39355800I-50800J0D01*
G01*
X127300000Y-39355800D01*
G75*
G02*
X127249200Y-39305000I0J50800D01*
G01*
X127249200Y-38695000D01*
G75*
G02*
X127300000Y-38644200I50800J0D01*
G01*
G37*
G36*
G01*
X127300000Y-39644200D02*
X129300000Y-39644200D01*
G75*
G02*
X129350800Y-39695000I0J-50800D01*
G01*
X129350800Y-40305000D01*
G75*
G02*
X129300000Y-40355800I-50800J0D01*
G01*
X127300000Y-40355800D01*
G75*
G02*
X127249200Y-40305000I0J50800D01*
G01*
X127249200Y-39695000D01*
G75*
G02*
X127300000Y-39644200I50800J0D01*
G01*
G37*
G36*
G01*
X127300000Y-40644200D02*
X129300000Y-40644200D01*
G75*
G02*
X129350800Y-40695000I0J-50800D01*
G01*
X129350800Y-41305000D01*
G75*
G02*
X129300000Y-41355800I-50800J0D01*
G01*
X127300000Y-41355800D01*
G75*
G02*
X127249200Y-41305000I0J50800D01*
G01*
X127249200Y-40695000D01*
G75*
G02*
X127300000Y-40644200I50800J0D01*
G01*
G37*
G36*
G01*
X127300000Y-41644200D02*
X129300000Y-41644200D01*
G75*
G02*
X129350800Y-41695000I0J-50800D01*
G01*
X129350800Y-42305000D01*
G75*
G02*
X129300000Y-42355800I-50800J0D01*
G01*
X127300000Y-42355800D01*
G75*
G02*
X127249200Y-42305000I0J50800D01*
G01*
X127249200Y-41695000D01*
G75*
G02*
X127300000Y-41644200I50800J0D01*
G01*
G37*
G36*
G01*
X127300000Y-42644200D02*
X129300000Y-42644200D01*
G75*
G02*
X129350800Y-42695000I0J-50800D01*
G01*
X129350800Y-43305000D01*
G75*
G02*
X129300000Y-43355800I-50800J0D01*
G01*
X127300000Y-43355800D01*
G75*
G02*
X127249200Y-43305000I0J50800D01*
G01*
X127249200Y-42695000D01*
G75*
G02*
X127300000Y-42644200I50800J0D01*
G01*
G37*
G36*
G01*
X127300000Y-43644200D02*
X129300000Y-43644200D01*
G75*
G02*
X129350800Y-43695000I0J-50800D01*
G01*
X129350800Y-44305000D01*
G75*
G02*
X129300000Y-44355800I-50800J0D01*
G01*
X127300000Y-44355800D01*
G75*
G02*
X127249200Y-44305000I0J50800D01*
G01*
X127249200Y-43695000D01*
G75*
G02*
X127300000Y-43644200I50800J0D01*
G01*
G37*
G36*
G01*
X127300000Y-44644200D02*
X129300000Y-44644200D01*
G75*
G02*
X129350800Y-44695000I0J-50800D01*
G01*
X129350800Y-45305000D01*
G75*
G02*
X129300000Y-45355800I-50800J0D01*
G01*
X127300000Y-45355800D01*
G75*
G02*
X127249200Y-45305000I0J50800D01*
G01*
X127249200Y-44695000D01*
G75*
G02*
X127300000Y-44644200I50800J0D01*
G01*
G37*
G36*
G01*
X127300000Y-45644200D02*
X129300000Y-45644200D01*
G75*
G02*
X129350800Y-45695000I0J-50800D01*
G01*
X129350800Y-46305000D01*
G75*
G02*
X129300000Y-46355800I-50800J0D01*
G01*
X127300000Y-46355800D01*
G75*
G02*
X127249200Y-46305000I0J50800D01*
G01*
X127249200Y-45695000D01*
G75*
G02*
X127300000Y-45644200I50800J0D01*
G01*
G37*
G36*
G01*
X127300000Y-46644200D02*
X129300000Y-46644200D01*
G75*
G02*
X129350800Y-46695000I0J-50800D01*
G01*
X129350800Y-47305000D01*
G75*
G02*
X129300000Y-47355800I-50800J0D01*
G01*
X127300000Y-47355800D01*
G75*
G02*
X127249200Y-47305000I0J50800D01*
G01*
X127249200Y-46695000D01*
G75*
G02*
X127300000Y-46644200I50800J0D01*
G01*
G37*
G36*
G01*
X127300000Y-47644200D02*
X129300000Y-47644200D01*
G75*
G02*
X129350800Y-47695000I0J-50800D01*
G01*
X129350800Y-48305000D01*
G75*
G02*
X129300000Y-48355800I-50800J0D01*
G01*
X127300000Y-48355800D01*
G75*
G02*
X127249200Y-48305000I0J50800D01*
G01*
X127249200Y-47695000D01*
G75*
G02*
X127300000Y-47644200I50800J0D01*
G01*
G37*
G36*
G01*
X127300000Y-48644200D02*
X129300000Y-48644200D01*
G75*
G02*
X129350800Y-48695000I0J-50800D01*
G01*
X129350800Y-49305000D01*
G75*
G02*
X129300000Y-49355800I-50800J0D01*
G01*
X127300000Y-49355800D01*
G75*
G02*
X127249200Y-49305000I0J50800D01*
G01*
X127249200Y-48695000D01*
G75*
G02*
X127300000Y-48644200I50800J0D01*
G01*
G37*
G36*
G01*
X127300000Y-49644200D02*
X129300000Y-49644200D01*
G75*
G02*
X129350800Y-49695000I0J-50800D01*
G01*
X129350800Y-50305000D01*
G75*
G02*
X129300000Y-50355800I-50800J0D01*
G01*
X127300000Y-50355800D01*
G75*
G02*
X127249200Y-50305000I0J50800D01*
G01*
X127249200Y-49695000D01*
G75*
G02*
X127300000Y-49644200I50800J0D01*
G01*
G37*
G36*
G01*
X127300000Y-50644200D02*
X129300000Y-50644200D01*
G75*
G02*
X129350800Y-50695000I0J-50800D01*
G01*
X129350800Y-51305000D01*
G75*
G02*
X129300000Y-51355800I-50800J0D01*
G01*
X127300000Y-51355800D01*
G75*
G02*
X127249200Y-51305000I0J50800D01*
G01*
X127249200Y-50695000D01*
G75*
G02*
X127300000Y-50644200I50800J0D01*
G01*
G37*
G36*
G01*
X127300000Y-51644200D02*
X129300000Y-51644200D01*
G75*
G02*
X129350800Y-51695000I0J-50800D01*
G01*
X129350800Y-52305000D01*
G75*
G02*
X129300000Y-52355800I-50800J0D01*
G01*
X127300000Y-52355800D01*
G75*
G02*
X127249200Y-52305000I0J50800D01*
G01*
X127249200Y-51695000D01*
G75*
G02*
X127300000Y-51644200I50800J0D01*
G01*
G37*
G36*
G01*
X127300000Y-52644200D02*
X129300000Y-52644200D01*
G75*
G02*
X129350800Y-52695000I0J-50800D01*
G01*
X129350800Y-53305000D01*
G75*
G02*
X129300000Y-53355800I-50800J0D01*
G01*
X127300000Y-53355800D01*
G75*
G02*
X127249200Y-53305000I0J50800D01*
G01*
X127249200Y-52695000D01*
G75*
G02*
X127300000Y-52644200I50800J0D01*
G01*
G37*
G36*
G01*
X127300000Y-53644200D02*
X129300000Y-53644200D01*
G75*
G02*
X129350800Y-53695000I0J-50800D01*
G01*
X129350800Y-54305000D01*
G75*
G02*
X129300000Y-54355800I-50800J0D01*
G01*
X127300000Y-54355800D01*
G75*
G02*
X127249200Y-54305000I0J50800D01*
G01*
X127249200Y-53695000D01*
G75*
G02*
X127300000Y-53644200I50800J0D01*
G01*
G37*
G36*
G01*
X127300000Y-54644200D02*
X129300000Y-54644200D01*
G75*
G02*
X129350800Y-54695000I0J-50800D01*
G01*
X129350800Y-55305000D01*
G75*
G02*
X129300000Y-55355800I-50800J0D01*
G01*
X127300000Y-55355800D01*
G75*
G02*
X127249200Y-55305000I0J50800D01*
G01*
X127249200Y-54695000D01*
G75*
G02*
X127300000Y-54644200I50800J0D01*
G01*
G37*
G36*
G01*
X127300000Y-55644200D02*
X129300000Y-55644200D01*
G75*
G02*
X129350800Y-55695000I0J-50800D01*
G01*
X129350800Y-56305000D01*
G75*
G02*
X129300000Y-56355800I-50800J0D01*
G01*
X127300000Y-56355800D01*
G75*
G02*
X127249200Y-56305000I0J50800D01*
G01*
X127249200Y-55695000D01*
G75*
G02*
X127300000Y-55644200I50800J0D01*
G01*
G37*
G36*
G01*
X127300000Y-56644200D02*
X129300000Y-56644200D01*
G75*
G02*
X129350800Y-56695000I0J-50800D01*
G01*
X129350800Y-57305000D01*
G75*
G02*
X129300000Y-57355800I-50800J0D01*
G01*
X127300000Y-57355800D01*
G75*
G02*
X127249200Y-57305000I0J50800D01*
G01*
X127249200Y-56695000D01*
G75*
G02*
X127300000Y-56644200I50800J0D01*
G01*
G37*
G36*
G01*
X127300000Y-57644200D02*
X129300000Y-57644200D01*
G75*
G02*
X129350800Y-57695000I0J-50800D01*
G01*
X129350800Y-58305000D01*
G75*
G02*
X129300000Y-58355800I-50800J0D01*
G01*
X127300000Y-58355800D01*
G75*
G02*
X127249200Y-58305000I0J50800D01*
G01*
X127249200Y-57695000D01*
G75*
G02*
X127300000Y-57644200I50800J0D01*
G01*
G37*
G36*
G01*
X127300000Y-58644200D02*
X129300000Y-58644200D01*
G75*
G02*
X129350800Y-58695000I0J-50800D01*
G01*
X129350800Y-59305000D01*
G75*
G02*
X129300000Y-59355800I-50800J0D01*
G01*
X127300000Y-59355800D01*
G75*
G02*
X127249200Y-59305000I0J50800D01*
G01*
X127249200Y-58695000D01*
G75*
G02*
X127300000Y-58644200I50800J0D01*
G01*
G37*
G36*
G01*
X127300000Y-59644200D02*
X129300000Y-59644200D01*
G75*
G02*
X129350800Y-59695000I0J-50800D01*
G01*
X129350800Y-60305000D01*
G75*
G02*
X129300000Y-60355800I-50800J0D01*
G01*
X127300000Y-60355800D01*
G75*
G02*
X127249200Y-60305000I0J50800D01*
G01*
X127249200Y-59695000D01*
G75*
G02*
X127300000Y-59644200I50800J0D01*
G01*
G37*
G36*
G01*
X127300000Y-60644200D02*
X129300000Y-60644200D01*
G75*
G02*
X129350800Y-60695000I0J-50800D01*
G01*
X129350800Y-61305000D01*
G75*
G02*
X129300000Y-61355800I-50800J0D01*
G01*
X127300000Y-61355800D01*
G75*
G02*
X127249200Y-61305000I0J50800D01*
G01*
X127249200Y-60695000D01*
G75*
G02*
X127300000Y-60644200I50800J0D01*
G01*
G37*
G36*
G01*
X127300000Y-61644200D02*
X129300000Y-61644200D01*
G75*
G02*
X129350800Y-61695000I0J-50800D01*
G01*
X129350800Y-62305000D01*
G75*
G02*
X129300000Y-62355800I-50800J0D01*
G01*
X127300000Y-62355800D01*
G75*
G02*
X127249200Y-62305000I0J50800D01*
G01*
X127249200Y-61695000D01*
G75*
G02*
X127300000Y-61644200I50800J0D01*
G01*
G37*
G36*
G01*
X127300000Y-62644200D02*
X129300000Y-62644200D01*
G75*
G02*
X129350800Y-62695000I0J-50800D01*
G01*
X129350800Y-63305000D01*
G75*
G02*
X129300000Y-63355800I-50800J0D01*
G01*
X127300000Y-63355800D01*
G75*
G02*
X127249200Y-63305000I0J50800D01*
G01*
X127249200Y-62695000D01*
G75*
G02*
X127300000Y-62644200I50800J0D01*
G01*
G37*
G36*
G01*
X127300000Y-63644200D02*
X129300000Y-63644200D01*
G75*
G02*
X129350800Y-63695000I0J-50800D01*
G01*
X129350800Y-64305000D01*
G75*
G02*
X129300000Y-64355800I-50800J0D01*
G01*
X127300000Y-64355800D01*
G75*
G02*
X127249200Y-64305000I0J50800D01*
G01*
X127249200Y-63695000D01*
G75*
G02*
X127300000Y-63644200I50800J0D01*
G01*
G37*
G36*
G01*
X127300000Y-64644200D02*
X129300000Y-64644200D01*
G75*
G02*
X129350800Y-64695000I0J-50800D01*
G01*
X129350800Y-65305000D01*
G75*
G02*
X129300000Y-65355800I-50800J0D01*
G01*
X127300000Y-65355800D01*
G75*
G02*
X127249200Y-65305000I0J50800D01*
G01*
X127249200Y-64695000D01*
G75*
G02*
X127300000Y-64644200I50800J0D01*
G01*
G37*
G36*
G01*
X127300000Y-65644200D02*
X129300000Y-65644200D01*
G75*
G02*
X129350800Y-65695000I0J-50800D01*
G01*
X129350800Y-66305000D01*
G75*
G02*
X129300000Y-66355800I-50800J0D01*
G01*
X127300000Y-66355800D01*
G75*
G02*
X127249200Y-66305000I0J50800D01*
G01*
X127249200Y-65695000D01*
G75*
G02*
X127300000Y-65644200I50800J0D01*
G01*
G37*
G36*
G01*
X127300000Y-66644200D02*
X129300000Y-66644200D01*
G75*
G02*
X129350800Y-66695000I0J-50800D01*
G01*
X129350800Y-67305000D01*
G75*
G02*
X129300000Y-67355800I-50800J0D01*
G01*
X127300000Y-67355800D01*
G75*
G02*
X127249200Y-67305000I0J50800D01*
G01*
X127249200Y-66695000D01*
G75*
G02*
X127300000Y-66644200I50800J0D01*
G01*
G37*
G36*
G01*
X127300000Y-67644200D02*
X129300000Y-67644200D01*
G75*
G02*
X129350800Y-67695000I0J-50800D01*
G01*
X129350800Y-68305000D01*
G75*
G02*
X129300000Y-68355800I-50800J0D01*
G01*
X127300000Y-68355800D01*
G75*
G02*
X127249200Y-68305000I0J50800D01*
G01*
X127249200Y-67695000D01*
G75*
G02*
X127300000Y-67644200I50800J0D01*
G01*
G37*
G36*
G01*
X123700000Y-34619200D02*
X127300000Y-34619200D01*
G75*
G02*
X127350800Y-34670000I0J-50800D01*
G01*
X127350800Y-37350000D01*
G75*
G02*
X127300000Y-37400800I-50800J0D01*
G01*
X123700000Y-37400800D01*
G75*
G02*
X123649200Y-37350000I0J50800D01*
G01*
X123649200Y-34670000D01*
G75*
G02*
X123700000Y-34619200I50800J0D01*
G01*
G37*
G36*
G01*
X123700000Y-69599200D02*
X127300000Y-69599200D01*
G75*
G02*
X127350800Y-69650000I0J-50800D01*
G01*
X127350800Y-72330000D01*
G75*
G02*
X127300000Y-72380800I-50800J0D01*
G01*
X123700000Y-72380800D01*
G75*
G02*
X123649200Y-72330000I0J50800D01*
G01*
X123649200Y-69650000D01*
G75*
G02*
X123700000Y-69599200I50800J0D01*
G01*
G37*
G04 #@! TD*
G04 #@! TO.C,C7*
G36*
G01*
X141072400Y-39796800D02*
X140521600Y-39796800D01*
G75*
G02*
X140271200Y-39546400I0J250400D01*
G01*
X140271200Y-39045600D01*
G75*
G02*
X140521600Y-38795200I250400J0D01*
G01*
X141072400Y-38795200D01*
G75*
G02*
X141322800Y-39045600I0J-250400D01*
G01*
X141322800Y-39546400D01*
G75*
G02*
X141072400Y-39796800I-250400J0D01*
G01*
G37*
G36*
G01*
X141072400Y-41346800D02*
X140521600Y-41346800D01*
G75*
G02*
X140271200Y-41096400I0J250400D01*
G01*
X140271200Y-40595600D01*
G75*
G02*
X140521600Y-40345200I250400J0D01*
G01*
X141072400Y-40345200D01*
G75*
G02*
X141322800Y-40595600I0J-250400D01*
G01*
X141322800Y-41096400D01*
G75*
G02*
X141072400Y-41346800I-250400J0D01*
G01*
G37*
G04 #@! TD*
G04 #@! TO.C,C9*
G36*
G01*
X154110600Y-51736200D02*
X154661400Y-51736200D01*
G75*
G02*
X154911800Y-51986600I0J-250400D01*
G01*
X154911800Y-52487400D01*
G75*
G02*
X154661400Y-52737800I-250400J0D01*
G01*
X154110600Y-52737800D01*
G75*
G02*
X153860200Y-52487400I0J250400D01*
G01*
X153860200Y-51986600D01*
G75*
G02*
X154110600Y-51736200I250400J0D01*
G01*
G37*
G36*
G01*
X154110600Y-53286200D02*
X154661400Y-53286200D01*
G75*
G02*
X154911800Y-53536600I0J-250400D01*
G01*
X154911800Y-54037400D01*
G75*
G02*
X154661400Y-54287800I-250400J0D01*
G01*
X154110600Y-54287800D01*
G75*
G02*
X153860200Y-54037400I0J250400D01*
G01*
X153860200Y-53536600D01*
G75*
G02*
X154110600Y-53286200I250400J0D01*
G01*
G37*
G04 #@! TD*
G04 #@! TO.C,D1*
G36*
G01*
X154304900Y-36620300D02*
X153829100Y-36620300D01*
G75*
G02*
X153591200Y-36382400I0J237900D01*
G01*
X153591200Y-35531600D01*
G75*
G02*
X153829100Y-35293700I237900J0D01*
G01*
X154304900Y-35293700D01*
G75*
G02*
X154542800Y-35531600I0J-237900D01*
G01*
X154542800Y-36382400D01*
G75*
G02*
X154304900Y-36620300I-237900J0D01*
G01*
G37*
G36*
G01*
X154304900Y-34995300D02*
X153829100Y-34995300D01*
G75*
G02*
X153591200Y-34757400I0J237900D01*
G01*
X153591200Y-33906600D01*
G75*
G02*
X153829100Y-33668700I237900J0D01*
G01*
X154304900Y-33668700D01*
G75*
G02*
X154542800Y-33906600I0J-237900D01*
G01*
X154542800Y-34757400D01*
G75*
G02*
X154304900Y-34995300I-237900J0D01*
G01*
G37*
G04 #@! TD*
G04 #@! TO.C,J1*
G36*
G01*
X158300000Y-72935800D02*
X156300000Y-72935800D01*
G75*
G02*
X156249200Y-72885000I0J50800D01*
G01*
X156249200Y-71535000D01*
G75*
G02*
X156300000Y-71484200I50800J0D01*
G01*
X158300000Y-71484200D01*
G75*
G02*
X158350800Y-71535000I0J-50800D01*
G01*
X158350800Y-72885000D01*
G75*
G02*
X158300000Y-72935800I-50800J0D01*
G01*
G37*
G36*
G01*
X158300000Y-78415800D02*
X156300000Y-78415800D01*
G75*
G02*
X156249200Y-78365000I0J50800D01*
G01*
X156249200Y-77015000D01*
G75*
G02*
X156300000Y-76964200I50800J0D01*
G01*
X158300000Y-76964200D01*
G75*
G02*
X158350800Y-77015000I0J-50800D01*
G01*
X158350800Y-78365000D01*
G75*
G02*
X158300000Y-78415800I-50800J0D01*
G01*
G37*
G36*
G01*
X156900001Y-78873300D02*
X156199999Y-78873300D01*
G75*
G02*
X156149200Y-78822501I0J50799D01*
G01*
X156149200Y-76997499D01*
G75*
G02*
X156199999Y-76946700I50799J0D01*
G01*
X156900001Y-76946700D01*
G75*
G02*
X156950800Y-76997499I0J-50799D01*
G01*
X156950800Y-78822501D01*
G75*
G02*
X156900001Y-78873300I-50799J0D01*
G01*
G37*
G36*
G01*
X156900001Y-72923300D02*
X156199999Y-72923300D01*
G75*
G02*
X156149200Y-72872501I0J50799D01*
G01*
X156149200Y-71047499D01*
G75*
G02*
X156199999Y-70996700I50799J0D01*
G01*
X156900001Y-70996700D01*
G75*
G02*
X156950800Y-71047499I0J-50799D01*
G01*
X156950800Y-72872501D01*
G75*
G02*
X156900001Y-72923300I-50799J0D01*
G01*
G37*
G36*
G01*
X156000000Y-78860800D02*
X154500000Y-78860800D01*
G75*
G02*
X154449200Y-78810000I0J50800D01*
G01*
X154449200Y-76810000D01*
G75*
G02*
X154500000Y-76759200I50800J0D01*
G01*
X156000000Y-76759200D01*
G75*
G02*
X156050800Y-76810000I0J-50800D01*
G01*
X156050800Y-78810000D01*
G75*
G02*
X156000000Y-78860800I-50800J0D01*
G01*
G37*
G36*
G01*
X155980000Y-73110800D02*
X154480000Y-73110800D01*
G75*
G02*
X154429200Y-73060000I0J50800D01*
G01*
X154429200Y-71060000D01*
G75*
G02*
X154480000Y-71009200I50800J0D01*
G01*
X155980000Y-71009200D01*
G75*
G02*
X156030800Y-71060000I0J-50800D01*
G01*
X156030800Y-73060000D01*
G75*
G02*
X155980000Y-73110800I-50800J0D01*
G01*
G37*
G36*
G01*
X156225800Y-76060000D02*
X156225800Y-76460000D01*
G75*
G02*
X156175000Y-76510800I-50800J0D01*
G01*
X154525000Y-76510800D01*
G75*
G02*
X154474200Y-76460000I0J50800D01*
G01*
X154474200Y-76060000D01*
G75*
G02*
X154525000Y-76009200I50800J0D01*
G01*
X156175000Y-76009200D01*
G75*
G02*
X156225800Y-76060000I0J-50800D01*
G01*
G37*
G36*
G01*
X156225800Y-75410000D02*
X156225800Y-75810000D01*
G75*
G02*
X156175000Y-75860800I-50800J0D01*
G01*
X154525000Y-75860800D01*
G75*
G02*
X154474200Y-75810000I0J50800D01*
G01*
X154474200Y-75410000D01*
G75*
G02*
X154525000Y-75359200I50800J0D01*
G01*
X156175000Y-75359200D01*
G75*
G02*
X156225800Y-75410000I0J-50800D01*
G01*
G37*
G36*
G01*
X156225800Y-74760000D02*
X156225800Y-75160000D01*
G75*
G02*
X156175000Y-75210800I-50800J0D01*
G01*
X154525000Y-75210800D01*
G75*
G02*
X154474200Y-75160000I0J50800D01*
G01*
X154474200Y-74760000D01*
G75*
G02*
X154525000Y-74709200I50800J0D01*
G01*
X156175000Y-74709200D01*
G75*
G02*
X156225800Y-74760000I0J-50800D01*
G01*
G37*
G36*
G01*
X156225800Y-74110000D02*
X156225800Y-74510000D01*
G75*
G02*
X156175000Y-74560800I-50800J0D01*
G01*
X154525000Y-74560800D01*
G75*
G02*
X154474200Y-74510000I0J50800D01*
G01*
X154474200Y-74110000D01*
G75*
G02*
X154525000Y-74059200I50800J0D01*
G01*
X156175000Y-74059200D01*
G75*
G02*
X156225800Y-74110000I0J-50800D01*
G01*
G37*
G36*
G01*
X156225800Y-73460000D02*
X156225800Y-73860000D01*
G75*
G02*
X156175000Y-73910800I-50800J0D01*
G01*
X154525000Y-73910800D01*
G75*
G02*
X154474200Y-73860000I0J50800D01*
G01*
X154474200Y-73460000D01*
G75*
G02*
X154525000Y-73409200I50800J0D01*
G01*
X156175000Y-73409200D01*
G75*
G02*
X156225800Y-73460000I0J-50800D01*
G01*
G37*
D11*
X155230000Y-77380000D03*
X155230000Y-72540000D03*
D12*
X158230000Y-77690000D03*
X158230000Y-72230000D03*
G36*
G01*
X159800800Y-75204999D02*
X159800800Y-76635001D01*
G75*
G02*
X159750001Y-76685800I-50799J0D01*
G01*
X157249999Y-76685800D01*
G75*
G02*
X157199200Y-76635001I0J50799D01*
G01*
X157199200Y-75204999D01*
G75*
G02*
X157249999Y-75154200I50799J0D01*
G01*
X159750001Y-75154200D01*
G75*
G02*
X159800800Y-75204999I0J-50799D01*
G01*
G37*
G36*
G01*
X159800800Y-73284999D02*
X159800800Y-74715001D01*
G75*
G02*
X159750001Y-74765800I-50799J0D01*
G01*
X157249999Y-74765800D01*
G75*
G02*
X157199200Y-74715001I0J50799D01*
G01*
X157199200Y-73284999D01*
G75*
G02*
X157249999Y-73234200I50799J0D01*
G01*
X159750001Y-73234200D01*
G75*
G02*
X159800800Y-73284999I0J-50799D01*
G01*
G37*
G04 #@! TD*
G04 #@! TO.C,R2*
G36*
G01*
X149767600Y-67547200D02*
X150368400Y-67547200D01*
G75*
G02*
X150593800Y-67772600I0J-225400D01*
G01*
X150593800Y-68223400D01*
G75*
G02*
X150368400Y-68448800I-225400J0D01*
G01*
X149767600Y-68448800D01*
G75*
G02*
X149542200Y-68223400I0J225400D01*
G01*
X149542200Y-67772600D01*
G75*
G02*
X149767600Y-67547200I225400J0D01*
G01*
G37*
G36*
G01*
X149767600Y-65897200D02*
X150368400Y-65897200D01*
G75*
G02*
X150593800Y-66122600I0J-225400D01*
G01*
X150593800Y-66573400D01*
G75*
G02*
X150368400Y-66798800I-225400J0D01*
G01*
X149767600Y-66798800D01*
G75*
G02*
X149542200Y-66573400I0J225400D01*
G01*
X149542200Y-66122600D01*
G75*
G02*
X149767600Y-65897200I225400J0D01*
G01*
G37*
G04 #@! TD*
G04 #@! TO.C,SW1*
G36*
G01*
X156700000Y-30769200D02*
X158300000Y-30769200D01*
G75*
G02*
X158350800Y-30820000I0J-50800D01*
G01*
X158350800Y-33000000D01*
G75*
G02*
X158300000Y-33050800I-50800J0D01*
G01*
X156700000Y-33050800D01*
G75*
G02*
X156649200Y-33000000I0J50800D01*
G01*
X156649200Y-30820000D01*
G75*
G02*
X156700000Y-30769200I50800J0D01*
G01*
G37*
G36*
G01*
X156700000Y-39949200D02*
X158300000Y-39949200D01*
G75*
G02*
X158350800Y-40000000I0J-50800D01*
G01*
X158350800Y-42180000D01*
G75*
G02*
X158300000Y-42230800I-50800J0D01*
G01*
X156700000Y-42230800D01*
G75*
G02*
X156649200Y-42180000I0J50800D01*
G01*
X156649200Y-40000000D01*
G75*
G02*
X156700000Y-39949200I50800J0D01*
G01*
G37*
G04 #@! TD*
G04 #@! TO.C,Y1*
G36*
G01*
X142057700Y-41762000D02*
X142057700Y-40562000D01*
G75*
G02*
X142108500Y-40511200I50800J0D01*
G01*
X143508500Y-40511200D01*
G75*
G02*
X143559300Y-40562000I0J-50800D01*
G01*
X143559300Y-41762000D01*
G75*
G02*
X143508500Y-41812800I-50800J0D01*
G01*
X142108500Y-41812800D01*
G75*
G02*
X142057700Y-41762000I0J50800D01*
G01*
G37*
G36*
G01*
X144257700Y-41762000D02*
X144257700Y-40562000D01*
G75*
G02*
X144308500Y-40511200I50800J0D01*
G01*
X145708500Y-40511200D01*
G75*
G02*
X145759300Y-40562000I0J-50800D01*
G01*
X145759300Y-41762000D01*
G75*
G02*
X145708500Y-41812800I-50800J0D01*
G01*
X144308500Y-41812800D01*
G75*
G02*
X144257700Y-41762000I0J50800D01*
G01*
G37*
G36*
G01*
X144257700Y-40062000D02*
X144257700Y-38862000D01*
G75*
G02*
X144308500Y-38811200I50800J0D01*
G01*
X145708500Y-38811200D01*
G75*
G02*
X145759300Y-38862000I0J-50800D01*
G01*
X145759300Y-40062000D01*
G75*
G02*
X145708500Y-40112800I-50800J0D01*
G01*
X144308500Y-40112800D01*
G75*
G02*
X144257700Y-40062000I0J50800D01*
G01*
G37*
G36*
G01*
X142057700Y-40062000D02*
X142057700Y-38862000D01*
G75*
G02*
X142108500Y-38811200I50800J0D01*
G01*
X143508500Y-38811200D01*
G75*
G02*
X143559300Y-38862000I0J-50800D01*
G01*
X143559300Y-40062000D01*
G75*
G02*
X143508500Y-40112800I-50800J0D01*
G01*
X142108500Y-40112800D01*
G75*
G02*
X142057700Y-40062000I0J50800D01*
G01*
G37*
G04 #@! TD*
G04 #@! TO.C,R3*
G36*
G01*
X135075800Y-59699600D02*
X135075800Y-60300400D01*
G75*
G02*
X134850400Y-60525800I-225400J0D01*
G01*
X134399600Y-60525800D01*
G75*
G02*
X134174200Y-60300400I0J225400D01*
G01*
X134174200Y-59699600D01*
G75*
G02*
X134399600Y-59474200I225400J0D01*
G01*
X134850400Y-59474200D01*
G75*
G02*
X135075800Y-59699600I0J-225400D01*
G01*
G37*
G36*
G01*
X133425800Y-59699600D02*
X133425800Y-60300400D01*
G75*
G02*
X133200400Y-60525800I-225400J0D01*
G01*
X132749600Y-60525800D01*
G75*
G02*
X132524200Y-60300400I0J225400D01*
G01*
X132524200Y-59699600D01*
G75*
G02*
X132749600Y-59474200I225400J0D01*
G01*
X133200400Y-59474200D01*
G75*
G02*
X133425800Y-59699600I0J-225400D01*
G01*
G37*
G04 #@! TD*
D13*
G04 #@! TO.C,H1*
X131000000Y-35500000D03*
G04 #@! TD*
G04 #@! TO.C,H2*
X133500000Y-69000000D03*
G04 #@! TD*
G04 #@! TO.C,R10*
G36*
G01*
X158100400Y-48250800D02*
X157499600Y-48250800D01*
G75*
G02*
X157274200Y-48025400I0J225400D01*
G01*
X157274200Y-47574600D01*
G75*
G02*
X157499600Y-47349200I225400J0D01*
G01*
X158100400Y-47349200D01*
G75*
G02*
X158325800Y-47574600I0J-225400D01*
G01*
X158325800Y-48025400D01*
G75*
G02*
X158100400Y-48250800I-225400J0D01*
G01*
G37*
G36*
G01*
X158100400Y-46600800D02*
X157499600Y-46600800D01*
G75*
G02*
X157274200Y-46375400I0J225400D01*
G01*
X157274200Y-45924600D01*
G75*
G02*
X157499600Y-45699200I225400J0D01*
G01*
X158100400Y-45699200D01*
G75*
G02*
X158325800Y-45924600I0J-225400D01*
G01*
X158325800Y-46375400D01*
G75*
G02*
X158100400Y-46600800I-225400J0D01*
G01*
G37*
G04 #@! TD*
D14*
G04 #@! TO.C,H3*
X129500000Y-73500000D03*
G04 #@! TD*
G04 #@! TO.C,C1*
G36*
G01*
X145807200Y-75469400D02*
X145807200Y-74468600D01*
G75*
G02*
X146082600Y-74193200I275400J0D01*
G01*
X146633400Y-74193200D01*
G75*
G02*
X146908800Y-74468600I0J-275400D01*
G01*
X146908800Y-75469400D01*
G75*
G02*
X146633400Y-75744800I-275400J0D01*
G01*
X146082600Y-75744800D01*
G75*
G02*
X145807200Y-75469400I0J275400D01*
G01*
G37*
G36*
G01*
X147707200Y-75469400D02*
X147707200Y-74468600D01*
G75*
G02*
X147982600Y-74193200I275400J0D01*
G01*
X148533400Y-74193200D01*
G75*
G02*
X148808800Y-74468600I0J-275400D01*
G01*
X148808800Y-75469400D01*
G75*
G02*
X148533400Y-75744800I-275400J0D01*
G01*
X147982600Y-75744800D01*
G75*
G02*
X147707200Y-75469400I0J275400D01*
G01*
G37*
G04 #@! TD*
G04 #@! TO.C,C2*
G36*
G01*
X147707200Y-73469400D02*
X147707200Y-72468600D01*
G75*
G02*
X147982600Y-72193200I275400J0D01*
G01*
X148533400Y-72193200D01*
G75*
G02*
X148808800Y-72468600I0J-275400D01*
G01*
X148808800Y-73469400D01*
G75*
G02*
X148533400Y-73744800I-275400J0D01*
G01*
X147982600Y-73744800D01*
G75*
G02*
X147707200Y-73469400I0J275400D01*
G01*
G37*
G36*
G01*
X145807200Y-73469400D02*
X145807200Y-72468600D01*
G75*
G02*
X146082600Y-72193200I275400J0D01*
G01*
X146633400Y-72193200D01*
G75*
G02*
X146908800Y-72468600I0J-275400D01*
G01*
X146908800Y-73469400D01*
G75*
G02*
X146633400Y-73744800I-275400J0D01*
G01*
X146082600Y-73744800D01*
G75*
G02*
X145807200Y-73469400I0J275400D01*
G01*
G37*
G04 #@! TD*
G04 #@! TO.C,R4*
G36*
G01*
X146517800Y-61855600D02*
X146517800Y-62456400D01*
G75*
G02*
X146292400Y-62681800I-225400J0D01*
G01*
X145841600Y-62681800D01*
G75*
G02*
X145616200Y-62456400I0J225400D01*
G01*
X145616200Y-61855600D01*
G75*
G02*
X145841600Y-61630200I225400J0D01*
G01*
X146292400Y-61630200D01*
G75*
G02*
X146517800Y-61855600I0J-225400D01*
G01*
G37*
G36*
G01*
X144867800Y-61855600D02*
X144867800Y-62456400D01*
G75*
G02*
X144642400Y-62681800I-225400J0D01*
G01*
X144191600Y-62681800D01*
G75*
G02*
X143966200Y-62456400I0J225400D01*
G01*
X143966200Y-61855600D01*
G75*
G02*
X144191600Y-61630200I225400J0D01*
G01*
X144642400Y-61630200D01*
G75*
G02*
X144867800Y-61855600I0J-225400D01*
G01*
G37*
G04 #@! TD*
G04 #@! TO.C,SW2*
G36*
G01*
X156154635Y-67650800D02*
X154845365Y-67650800D01*
G75*
G02*
X154574200Y-67379635I0J271165D01*
G01*
X154574200Y-66620365D01*
G75*
G02*
X154845365Y-66349200I271165J0D01*
G01*
X156154635Y-66349200D01*
G75*
G02*
X156425800Y-66620365I0J-271165D01*
G01*
X156425800Y-67379635D01*
G75*
G02*
X156154635Y-67650800I-271165J0D01*
G01*
G37*
D15*
X155500000Y-65000000D03*
G04 #@! TD*
G04 #@! TO.C,C11*
G36*
G01*
X149794200Y-62431400D02*
X149794200Y-61880600D01*
G75*
G02*
X150044600Y-61630200I250400J0D01*
G01*
X150545400Y-61630200D01*
G75*
G02*
X150795800Y-61880600I0J-250400D01*
G01*
X150795800Y-62431400D01*
G75*
G02*
X150545400Y-62681800I-250400J0D01*
G01*
X150044600Y-62681800D01*
G75*
G02*
X149794200Y-62431400I0J250400D01*
G01*
G37*
G36*
G01*
X148244200Y-62431400D02*
X148244200Y-61880600D01*
G75*
G02*
X148494600Y-61630200I250400J0D01*
G01*
X148995400Y-61630200D01*
G75*
G02*
X149245800Y-61880600I0J-250400D01*
G01*
X149245800Y-62431400D01*
G75*
G02*
X148995400Y-62681800I-250400J0D01*
G01*
X148494600Y-62681800D01*
G75*
G02*
X148244200Y-62431400I0J250400D01*
G01*
G37*
G04 #@! TD*
G04 #@! TO.C,C10*
G36*
G01*
X149073400Y-41854800D02*
X148522600Y-41854800D01*
G75*
G02*
X148272200Y-41604400I0J250400D01*
G01*
X148272200Y-41103600D01*
G75*
G02*
X148522600Y-40853200I250400J0D01*
G01*
X149073400Y-40853200D01*
G75*
G02*
X149323800Y-41103600I0J-250400D01*
G01*
X149323800Y-41604400D01*
G75*
G02*
X149073400Y-41854800I-250400J0D01*
G01*
G37*
G36*
G01*
X149073400Y-40304800D02*
X148522600Y-40304800D01*
G75*
G02*
X148272200Y-40054400I0J250400D01*
G01*
X148272200Y-39553600D01*
G75*
G02*
X148522600Y-39303200I250400J0D01*
G01*
X149073400Y-39303200D01*
G75*
G02*
X149323800Y-39553600I0J-250400D01*
G01*
X149323800Y-40054400D01*
G75*
G02*
X149073400Y-40304800I-250400J0D01*
G01*
G37*
G04 #@! TD*
G04 #@! TO.C,C4*
G36*
G01*
X155904200Y-60907400D02*
X155904200Y-60356600D01*
G75*
G02*
X156154600Y-60106200I250400J0D01*
G01*
X156655400Y-60106200D01*
G75*
G02*
X156905800Y-60356600I0J-250400D01*
G01*
X156905800Y-60907400D01*
G75*
G02*
X156655400Y-61157800I-250400J0D01*
G01*
X156154600Y-61157800D01*
G75*
G02*
X155904200Y-60907400I0J250400D01*
G01*
G37*
G36*
G01*
X157454200Y-60907400D02*
X157454200Y-60356600D01*
G75*
G02*
X157704600Y-60106200I250400J0D01*
G01*
X158205400Y-60106200D01*
G75*
G02*
X158455800Y-60356600I0J-250400D01*
G01*
X158455800Y-60907400D01*
G75*
G02*
X158205400Y-61157800I-250400J0D01*
G01*
X157704600Y-61157800D01*
G75*
G02*
X157454200Y-60907400I0J250400D01*
G01*
G37*
G04 #@! TD*
G04 #@! TO.C,C5*
G36*
G01*
X156439400Y-52737800D02*
X155888600Y-52737800D01*
G75*
G02*
X155638200Y-52487400I0J250400D01*
G01*
X155638200Y-51986600D01*
G75*
G02*
X155888600Y-51736200I250400J0D01*
G01*
X156439400Y-51736200D01*
G75*
G02*
X156689800Y-51986600I0J-250400D01*
G01*
X156689800Y-52487400D01*
G75*
G02*
X156439400Y-52737800I-250400J0D01*
G01*
G37*
G36*
G01*
X156439400Y-54287800D02*
X155888600Y-54287800D01*
G75*
G02*
X155638200Y-54037400I0J250400D01*
G01*
X155638200Y-53536600D01*
G75*
G02*
X155888600Y-53286200I250400J0D01*
G01*
X156439400Y-53286200D01*
G75*
G02*
X156689800Y-53536600I0J-250400D01*
G01*
X156689800Y-54037400D01*
G75*
G02*
X156439400Y-54287800I-250400J0D01*
G01*
G37*
G04 #@! TD*
G04 #@! TO.C,C6*
G36*
G01*
X157963400Y-54287800D02*
X157412600Y-54287800D01*
G75*
G02*
X157162200Y-54037400I0J250400D01*
G01*
X157162200Y-53536600D01*
G75*
G02*
X157412600Y-53286200I250400J0D01*
G01*
X157963400Y-53286200D01*
G75*
G02*
X158213800Y-53536600I0J-250400D01*
G01*
X158213800Y-54037400D01*
G75*
G02*
X157963400Y-54287800I-250400J0D01*
G01*
G37*
G36*
G01*
X157963400Y-52737800D02*
X157412600Y-52737800D01*
G75*
G02*
X157162200Y-52487400I0J250400D01*
G01*
X157162200Y-51986600D01*
G75*
G02*
X157412600Y-51736200I250400J0D01*
G01*
X157963400Y-51736200D01*
G75*
G02*
X158213800Y-51986600I0J-250400D01*
G01*
X158213800Y-52487400D01*
G75*
G02*
X157963400Y-52737800I-250400J0D01*
G01*
G37*
G04 #@! TD*
G04 #@! TO.C,U2*
G36*
G01*
X157297000Y-55649200D02*
X157947000Y-55649200D01*
G75*
G02*
X157997800Y-55700000I0J-50800D01*
G01*
X157997800Y-56760000D01*
G75*
G02*
X157947000Y-56810800I-50800J0D01*
G01*
X157297000Y-56810800D01*
G75*
G02*
X157246200Y-56760000I0J50800D01*
G01*
X157246200Y-55700000D01*
G75*
G02*
X157297000Y-55649200I50800J0D01*
G01*
G37*
G36*
G01*
X156347000Y-55649200D02*
X156997000Y-55649200D01*
G75*
G02*
X157047800Y-55700000I0J-50800D01*
G01*
X157047800Y-56760000D01*
G75*
G02*
X156997000Y-56810800I-50800J0D01*
G01*
X156347000Y-56810800D01*
G75*
G02*
X156296200Y-56760000I0J50800D01*
G01*
X156296200Y-55700000D01*
G75*
G02*
X156347000Y-55649200I50800J0D01*
G01*
G37*
G36*
G01*
X155397000Y-55649200D02*
X156047000Y-55649200D01*
G75*
G02*
X156097800Y-55700000I0J-50800D01*
G01*
X156097800Y-56760000D01*
G75*
G02*
X156047000Y-56810800I-50800J0D01*
G01*
X155397000Y-56810800D01*
G75*
G02*
X155346200Y-56760000I0J50800D01*
G01*
X155346200Y-55700000D01*
G75*
G02*
X155397000Y-55649200I50800J0D01*
G01*
G37*
G36*
G01*
X155397000Y-57849200D02*
X156047000Y-57849200D01*
G75*
G02*
X156097800Y-57900000I0J-50800D01*
G01*
X156097800Y-58960000D01*
G75*
G02*
X156047000Y-59010800I-50800J0D01*
G01*
X155397000Y-59010800D01*
G75*
G02*
X155346200Y-58960000I0J50800D01*
G01*
X155346200Y-57900000D01*
G75*
G02*
X155397000Y-57849200I50800J0D01*
G01*
G37*
G36*
G01*
X157297000Y-57849200D02*
X157947000Y-57849200D01*
G75*
G02*
X157997800Y-57900000I0J-50800D01*
G01*
X157997800Y-58960000D01*
G75*
G02*
X157947000Y-59010800I-50800J0D01*
G01*
X157297000Y-59010800D01*
G75*
G02*
X157246200Y-58960000I0J50800D01*
G01*
X157246200Y-57900000D01*
G75*
G02*
X157297000Y-57849200I50800J0D01*
G01*
G37*
G36*
G01*
X156347000Y-57849200D02*
X156997000Y-57849200D01*
G75*
G02*
X157047800Y-57900000I0J-50800D01*
G01*
X157047800Y-58960000D01*
G75*
G02*
X156997000Y-59010800I-50800J0D01*
G01*
X156347000Y-59010800D01*
G75*
G02*
X156296200Y-58960000I0J50800D01*
G01*
X156296200Y-57900000D01*
G75*
G02*
X156347000Y-57849200I50800J0D01*
G01*
G37*
G04 #@! TD*
G04 #@! TO.C,Q1*
G36*
G01*
X137984000Y-34985200D02*
X138784000Y-34985200D01*
G75*
G02*
X138834800Y-35036000I0J-50800D01*
G01*
X138834800Y-35936000D01*
G75*
G02*
X138784000Y-35986800I-50800J0D01*
G01*
X137984000Y-35986800D01*
G75*
G02*
X137933200Y-35936000I0J50800D01*
G01*
X137933200Y-35036000D01*
G75*
G02*
X137984000Y-34985200I50800J0D01*
G01*
G37*
G36*
G01*
X136084000Y-34985200D02*
X136884000Y-34985200D01*
G75*
G02*
X136934800Y-35036000I0J-50800D01*
G01*
X136934800Y-35936000D01*
G75*
G02*
X136884000Y-35986800I-50800J0D01*
G01*
X136084000Y-35986800D01*
G75*
G02*
X136033200Y-35936000I0J50800D01*
G01*
X136033200Y-35036000D01*
G75*
G02*
X136084000Y-34985200I50800J0D01*
G01*
G37*
G36*
G01*
X137034000Y-36985200D02*
X137834000Y-36985200D01*
G75*
G02*
X137884800Y-37036000I0J-50800D01*
G01*
X137884800Y-37936000D01*
G75*
G02*
X137834000Y-37986800I-50800J0D01*
G01*
X137034000Y-37986800D01*
G75*
G02*
X136983200Y-37936000I0J50800D01*
G01*
X136983200Y-37036000D01*
G75*
G02*
X137034000Y-36985200I50800J0D01*
G01*
G37*
G04 #@! TD*
G04 #@! TO.C,Q2*
G36*
G01*
X134328800Y-39658000D02*
X134328800Y-40458000D01*
G75*
G02*
X134278000Y-40508800I-50800J0D01*
G01*
X133378000Y-40508800D01*
G75*
G02*
X133327200Y-40458000I0J50800D01*
G01*
X133327200Y-39658000D01*
G75*
G02*
X133378000Y-39607200I50800J0D01*
G01*
X134278000Y-39607200D01*
G75*
G02*
X134328800Y-39658000I0J-50800D01*
G01*
G37*
G36*
G01*
X136328800Y-38708000D02*
X136328800Y-39508000D01*
G75*
G02*
X136278000Y-39558800I-50800J0D01*
G01*
X135378000Y-39558800D01*
G75*
G02*
X135327200Y-39508000I0J50800D01*
G01*
X135327200Y-38708000D01*
G75*
G02*
X135378000Y-38657200I50800J0D01*
G01*
X136278000Y-38657200D01*
G75*
G02*
X136328800Y-38708000I0J-50800D01*
G01*
G37*
G36*
G01*
X136328800Y-40608000D02*
X136328800Y-41408000D01*
G75*
G02*
X136278000Y-41458800I-50800J0D01*
G01*
X135378000Y-41458800D01*
G75*
G02*
X135327200Y-41408000I0J50800D01*
G01*
X135327200Y-40608000D01*
G75*
G02*
X135378000Y-40557200I50800J0D01*
G01*
X136278000Y-40557200D01*
G75*
G02*
X136328800Y-40608000I0J-50800D01*
G01*
G37*
G04 #@! TD*
G04 #@! TO.C,R5*
G36*
G01*
X137121300Y-33725100D02*
X137121300Y-34325900D01*
G75*
G02*
X136895900Y-34551300I-225400J0D01*
G01*
X136445100Y-34551300D01*
G75*
G02*
X136219700Y-34325900I0J225400D01*
G01*
X136219700Y-33725100D01*
G75*
G02*
X136445100Y-33499700I225400J0D01*
G01*
X136895900Y-33499700D01*
G75*
G02*
X137121300Y-33725100I0J-225400D01*
G01*
G37*
G36*
G01*
X138771300Y-33725100D02*
X138771300Y-34325900D01*
G75*
G02*
X138545900Y-34551300I-225400J0D01*
G01*
X138095100Y-34551300D01*
G75*
G02*
X137869700Y-34325900I0J225400D01*
G01*
X137869700Y-33725100D01*
G75*
G02*
X138095100Y-33499700I225400J0D01*
G01*
X138545900Y-33499700D01*
G75*
G02*
X138771300Y-33725100I0J-225400D01*
G01*
G37*
G04 #@! TD*
G04 #@! TO.C,R6*
G36*
G01*
X151355100Y-40432700D02*
X151955900Y-40432700D01*
G75*
G02*
X152181300Y-40658100I0J-225400D01*
G01*
X152181300Y-41108900D01*
G75*
G02*
X151955900Y-41334300I-225400J0D01*
G01*
X151355100Y-41334300D01*
G75*
G02*
X151129700Y-41108900I0J225400D01*
G01*
X151129700Y-40658100D01*
G75*
G02*
X151355100Y-40432700I225400J0D01*
G01*
G37*
G36*
G01*
X151355100Y-42082700D02*
X151955900Y-42082700D01*
G75*
G02*
X152181300Y-42308100I0J-225400D01*
G01*
X152181300Y-42758900D01*
G75*
G02*
X151955900Y-42984300I-225400J0D01*
G01*
X151355100Y-42984300D01*
G75*
G02*
X151129700Y-42758900I0J225400D01*
G01*
X151129700Y-42308100D01*
G75*
G02*
X151355100Y-42082700I225400J0D01*
G01*
G37*
G04 #@! TD*
G04 #@! TO.C,R7*
G36*
G01*
X137922400Y-39683800D02*
X137321600Y-39683800D01*
G75*
G02*
X137096200Y-39458400I0J225400D01*
G01*
X137096200Y-39007600D01*
G75*
G02*
X137321600Y-38782200I225400J0D01*
G01*
X137922400Y-38782200D01*
G75*
G02*
X138147800Y-39007600I0J-225400D01*
G01*
X138147800Y-39458400D01*
G75*
G02*
X137922400Y-39683800I-225400J0D01*
G01*
G37*
G36*
G01*
X137922400Y-41333800D02*
X137321600Y-41333800D01*
G75*
G02*
X137096200Y-41108400I0J225400D01*
G01*
X137096200Y-40657600D01*
G75*
G02*
X137321600Y-40432200I225400J0D01*
G01*
X137922400Y-40432200D01*
G75*
G02*
X138147800Y-40657600I0J-225400D01*
G01*
X138147800Y-41108400D01*
G75*
G02*
X137922400Y-41333800I-225400J0D01*
G01*
G37*
G04 #@! TD*
G04 #@! TO.C,R8*
G36*
G01*
X139446400Y-41333800D02*
X138845600Y-41333800D01*
G75*
G02*
X138620200Y-41108400I0J225400D01*
G01*
X138620200Y-40657600D01*
G75*
G02*
X138845600Y-40432200I225400J0D01*
G01*
X139446400Y-40432200D01*
G75*
G02*
X139671800Y-40657600I0J-225400D01*
G01*
X139671800Y-41108400D01*
G75*
G02*
X139446400Y-41333800I-225400J0D01*
G01*
G37*
G36*
G01*
X139446400Y-39683800D02*
X138845600Y-39683800D01*
G75*
G02*
X138620200Y-39458400I0J225400D01*
G01*
X138620200Y-39007600D01*
G75*
G02*
X138845600Y-38782200I225400J0D01*
G01*
X139446400Y-38782200D01*
G75*
G02*
X139671800Y-39007600I0J-225400D01*
G01*
X139671800Y-39458400D01*
G75*
G02*
X139446400Y-39683800I-225400J0D01*
G01*
G37*
G04 #@! TD*
G04 #@! TO.C,R11*
G36*
G01*
X126375200Y-33500400D02*
X126375200Y-32899600D01*
G75*
G02*
X126600600Y-32674200I225400J0D01*
G01*
X127051400Y-32674200D01*
G75*
G02*
X127276800Y-32899600I0J-225400D01*
G01*
X127276800Y-33500400D01*
G75*
G02*
X127051400Y-33725800I-225400J0D01*
G01*
X126600600Y-33725800D01*
G75*
G02*
X126375200Y-33500400I0J225400D01*
G01*
G37*
G36*
G01*
X124725200Y-33500400D02*
X124725200Y-32899600D01*
G75*
G02*
X124950600Y-32674200I225400J0D01*
G01*
X125401400Y-32674200D01*
G75*
G02*
X125626800Y-32899600I0J-225400D01*
G01*
X125626800Y-33500400D01*
G75*
G02*
X125401400Y-33725800I-225400J0D01*
G01*
X124950600Y-33725800D01*
G75*
G02*
X124725200Y-33500400I0J225400D01*
G01*
G37*
G04 #@! TD*
G04 #@! TO.C,R12*
G36*
G01*
X124725200Y-31976400D02*
X124725200Y-31375600D01*
G75*
G02*
X124950600Y-31150200I225400J0D01*
G01*
X125401400Y-31150200D01*
G75*
G02*
X125626800Y-31375600I0J-225400D01*
G01*
X125626800Y-31976400D01*
G75*
G02*
X125401400Y-32201800I-225400J0D01*
G01*
X124950600Y-32201800D01*
G75*
G02*
X124725200Y-31976400I0J225400D01*
G01*
G37*
G36*
G01*
X126375200Y-31976400D02*
X126375200Y-31375600D01*
G75*
G02*
X126600600Y-31150200I225400J0D01*
G01*
X127051400Y-31150200D01*
G75*
G02*
X127276800Y-31375600I0J-225400D01*
G01*
X127276800Y-31976400D01*
G75*
G02*
X127051400Y-32201800I-225400J0D01*
G01*
X126600600Y-32201800D01*
G75*
G02*
X126375200Y-31976400I0J225400D01*
G01*
G37*
G04 #@! TD*
M02*
