G04 #@! TF.GenerationSoftware,KiCad,Pcbnew,(5.1.8)-1*
G04 #@! TF.CreationDate,2021-05-08T18:02:40-07:00*
G04 #@! TF.ProjectId,wired-sculpt,77697265-642d-4736-9375-6c70742e6b69,rev?*
G04 #@! TF.SameCoordinates,Original*
G04 #@! TF.FileFunction,Paste,Top*
G04 #@! TF.FilePolarity,Positive*
%FSLAX46Y46*%
G04 Gerber Fmt 4.6, Leading zero omitted, Abs format (unit mm)*
G04 Created by KiCad (PCBNEW (5.1.8)-1) date 2021-05-08 18:02:40*
%MOMM*%
%LPD*%
G01*
G04 APERTURE LIST*
%ADD10R,0.650000X1.060000*%
%ADD11R,1.500000X0.550000*%
%ADD12R,0.550000X1.500000*%
%ADD13R,2.000000X0.610000*%
%ADD14R,3.600000X2.680000*%
%ADD15R,2.000000X1.350000*%
%ADD16R,0.700000X1.825000*%
%ADD17R,1.500000X2.000000*%
%ADD18R,1.650000X0.400000*%
%ADD19R,2.500000X1.430000*%
%ADD20R,1.600000X2.180000*%
%ADD21R,1.400000X1.200000*%
%ADD22R,0.800000X0.900000*%
%ADD23R,0.900000X0.800000*%
G04 APERTURE END LIST*
G04 #@! TO.C,C8*
G36*
G01*
X146897000Y-39354000D02*
X147397000Y-39354000D01*
G75*
G02*
X147622000Y-39579000I0J-225000D01*
G01*
X147622000Y-40029000D01*
G75*
G02*
X147397000Y-40254000I-225000J0D01*
G01*
X146897000Y-40254000D01*
G75*
G02*
X146672000Y-40029000I0J225000D01*
G01*
X146672000Y-39579000D01*
G75*
G02*
X146897000Y-39354000I225000J0D01*
G01*
G37*
G36*
G01*
X146897000Y-40904000D02*
X147397000Y-40904000D01*
G75*
G02*
X147622000Y-41129000I0J-225000D01*
G01*
X147622000Y-41579000D01*
G75*
G02*
X147397000Y-41804000I-225000J0D01*
G01*
X146897000Y-41804000D01*
G75*
G02*
X146672000Y-41579000I0J225000D01*
G01*
X146672000Y-41129000D01*
G75*
G02*
X146897000Y-40904000I225000J0D01*
G01*
G37*
G04 #@! TD*
G04 #@! TO.C,C12*
G36*
G01*
X141995000Y-61906000D02*
X141995000Y-62406000D01*
G75*
G02*
X141770000Y-62631000I-225000J0D01*
G01*
X141320000Y-62631000D01*
G75*
G02*
X141095000Y-62406000I0J225000D01*
G01*
X141095000Y-61906000D01*
G75*
G02*
X141320000Y-61681000I225000J0D01*
G01*
X141770000Y-61681000D01*
G75*
G02*
X141995000Y-61906000I0J-225000D01*
G01*
G37*
G36*
G01*
X140445000Y-61906000D02*
X140445000Y-62406000D01*
G75*
G02*
X140220000Y-62631000I-225000J0D01*
G01*
X139770000Y-62631000D01*
G75*
G02*
X139545000Y-62406000I0J225000D01*
G01*
X139545000Y-61906000D01*
G75*
G02*
X139770000Y-61681000I225000J0D01*
G01*
X140220000Y-61681000D01*
G75*
G02*
X140445000Y-61906000I0J-225000D01*
G01*
G37*
G04 #@! TD*
G04 #@! TO.C,R9*
G36*
G01*
X152342000Y-36482000D02*
X151792000Y-36482000D01*
G75*
G02*
X151592000Y-36282000I0J200000D01*
G01*
X151592000Y-35882000D01*
G75*
G02*
X151792000Y-35682000I200000J0D01*
G01*
X152342000Y-35682000D01*
G75*
G02*
X152542000Y-35882000I0J-200000D01*
G01*
X152542000Y-36282000D01*
G75*
G02*
X152342000Y-36482000I-200000J0D01*
G01*
G37*
G36*
G01*
X152342000Y-34832000D02*
X151792000Y-34832000D01*
G75*
G02*
X151592000Y-34632000I0J200000D01*
G01*
X151592000Y-34232000D01*
G75*
G02*
X151792000Y-34032000I200000J0D01*
G01*
X152342000Y-34032000D01*
G75*
G02*
X152542000Y-34232000I0J-200000D01*
G01*
X152542000Y-34632000D01*
G75*
G02*
X152342000Y-34832000I-200000J0D01*
G01*
G37*
G04 #@! TD*
G04 #@! TO.C,C3*
G36*
G01*
X145858000Y-71444000D02*
X145858000Y-70494000D01*
G75*
G02*
X146108000Y-70244000I250000J0D01*
G01*
X146608000Y-70244000D01*
G75*
G02*
X146858000Y-70494000I0J-250000D01*
G01*
X146858000Y-71444000D01*
G75*
G02*
X146608000Y-71694000I-250000J0D01*
G01*
X146108000Y-71694000D01*
G75*
G02*
X145858000Y-71444000I0J250000D01*
G01*
G37*
G36*
G01*
X147758000Y-71444000D02*
X147758000Y-70494000D01*
G75*
G02*
X148008000Y-70244000I250000J0D01*
G01*
X148508000Y-70244000D01*
G75*
G02*
X148758000Y-70494000I0J-250000D01*
G01*
X148758000Y-71444000D01*
G75*
G02*
X148508000Y-71694000I-250000J0D01*
G01*
X148008000Y-71694000D01*
G75*
G02*
X147758000Y-71444000I0J250000D01*
G01*
G37*
G04 #@! TD*
D10*
G04 #@! TO.C,U1*
X150050000Y-73000000D03*
X151000000Y-73000000D03*
X151950000Y-73000000D03*
X151950000Y-70800000D03*
X150050000Y-70800000D03*
X151000000Y-70800000D03*
G04 #@! TD*
D11*
G04 #@! TO.C,U3*
X151700000Y-58000000D03*
X151700000Y-57200000D03*
X151700000Y-56400000D03*
X151700000Y-55600000D03*
X151700000Y-54800000D03*
X151700000Y-54000000D03*
X151700000Y-53200000D03*
X151700000Y-52400000D03*
X151700000Y-51600000D03*
X151700000Y-50800000D03*
X151700000Y-50000000D03*
X151700000Y-49200000D03*
X151700000Y-48400000D03*
X151700000Y-47600000D03*
X151700000Y-46800000D03*
X151700000Y-46000000D03*
D12*
X150000000Y-44300000D03*
X149200000Y-44300000D03*
X148400000Y-44300000D03*
X147600000Y-44300000D03*
X146800000Y-44300000D03*
X146000000Y-44300000D03*
X145200000Y-44300000D03*
X144400000Y-44300000D03*
X143600000Y-44300000D03*
X142800000Y-44300000D03*
X142000000Y-44300000D03*
X141200000Y-44300000D03*
X140400000Y-44300000D03*
X139600000Y-44300000D03*
X138800000Y-44300000D03*
X138000000Y-44300000D03*
D11*
X136300000Y-46000000D03*
X136300000Y-46800000D03*
X136300000Y-47600000D03*
X136300000Y-48400000D03*
X136300000Y-49200000D03*
X136300000Y-50000000D03*
X136300000Y-50800000D03*
X136300000Y-51600000D03*
X136300000Y-52400000D03*
X136300000Y-53200000D03*
X136300000Y-54000000D03*
X136300000Y-54800000D03*
X136300000Y-55600000D03*
X136300000Y-56400000D03*
X136300000Y-57200000D03*
X136300000Y-58000000D03*
D12*
X138000000Y-59700000D03*
X138800000Y-59700000D03*
X139600000Y-59700000D03*
X140400000Y-59700000D03*
X141200000Y-59700000D03*
X142000000Y-59700000D03*
X142800000Y-59700000D03*
X143600000Y-59700000D03*
X144400000Y-59700000D03*
X145200000Y-59700000D03*
X146000000Y-59700000D03*
X146800000Y-59700000D03*
X147600000Y-59700000D03*
X148400000Y-59700000D03*
X149200000Y-59700000D03*
X150000000Y-59700000D03*
G04 #@! TD*
G04 #@! TO.C,R1*
G36*
G01*
X151571000Y-65948000D02*
X152121000Y-65948000D01*
G75*
G02*
X152321000Y-66148000I0J-200000D01*
G01*
X152321000Y-66548000D01*
G75*
G02*
X152121000Y-66748000I-200000J0D01*
G01*
X151571000Y-66748000D01*
G75*
G02*
X151371000Y-66548000I0J200000D01*
G01*
X151371000Y-66148000D01*
G75*
G02*
X151571000Y-65948000I200000J0D01*
G01*
G37*
G36*
G01*
X151571000Y-67598000D02*
X152121000Y-67598000D01*
G75*
G02*
X152321000Y-67798000I0J-200000D01*
G01*
X152321000Y-68198000D01*
G75*
G02*
X152121000Y-68398000I-200000J0D01*
G01*
X151571000Y-68398000D01*
G75*
G02*
X151371000Y-68198000I0J200000D01*
G01*
X151371000Y-67798000D01*
G75*
G02*
X151571000Y-67598000I200000J0D01*
G01*
G37*
G04 #@! TD*
D13*
G04 #@! TO.C,J2*
X128300000Y-39000000D03*
X128300000Y-40000000D03*
X128300000Y-41000000D03*
X128300000Y-42000000D03*
X128300000Y-43000000D03*
X128300000Y-44000000D03*
X128300000Y-45000000D03*
X128300000Y-46000000D03*
X128300000Y-47000000D03*
X128300000Y-48000000D03*
X128300000Y-49000000D03*
X128300000Y-50000000D03*
X128300000Y-51000000D03*
X128300000Y-52000000D03*
X128300000Y-53000000D03*
X128300000Y-54000000D03*
X128300000Y-55000000D03*
X128300000Y-56000000D03*
X128300000Y-57000000D03*
X128300000Y-58000000D03*
X128300000Y-59000000D03*
X128300000Y-60000000D03*
X128300000Y-61000000D03*
X128300000Y-62000000D03*
X128300000Y-63000000D03*
X128300000Y-64000000D03*
X128300000Y-65000000D03*
X128300000Y-66000000D03*
X128300000Y-67000000D03*
X128300000Y-68000000D03*
D14*
X125500000Y-36010000D03*
X125500000Y-70990000D03*
G04 #@! TD*
G04 #@! TO.C,C7*
G36*
G01*
X141047000Y-39746000D02*
X140547000Y-39746000D01*
G75*
G02*
X140322000Y-39521000I0J225000D01*
G01*
X140322000Y-39071000D01*
G75*
G02*
X140547000Y-38846000I225000J0D01*
G01*
X141047000Y-38846000D01*
G75*
G02*
X141272000Y-39071000I0J-225000D01*
G01*
X141272000Y-39521000D01*
G75*
G02*
X141047000Y-39746000I-225000J0D01*
G01*
G37*
G36*
G01*
X141047000Y-41296000D02*
X140547000Y-41296000D01*
G75*
G02*
X140322000Y-41071000I0J225000D01*
G01*
X140322000Y-40621000D01*
G75*
G02*
X140547000Y-40396000I225000J0D01*
G01*
X141047000Y-40396000D01*
G75*
G02*
X141272000Y-40621000I0J-225000D01*
G01*
X141272000Y-41071000D01*
G75*
G02*
X141047000Y-41296000I-225000J0D01*
G01*
G37*
G04 #@! TD*
G04 #@! TO.C,C9*
G36*
G01*
X154136000Y-51787000D02*
X154636000Y-51787000D01*
G75*
G02*
X154861000Y-52012000I0J-225000D01*
G01*
X154861000Y-52462000D01*
G75*
G02*
X154636000Y-52687000I-225000J0D01*
G01*
X154136000Y-52687000D01*
G75*
G02*
X153911000Y-52462000I0J225000D01*
G01*
X153911000Y-52012000D01*
G75*
G02*
X154136000Y-51787000I225000J0D01*
G01*
G37*
G36*
G01*
X154136000Y-53337000D02*
X154636000Y-53337000D01*
G75*
G02*
X154861000Y-53562000I0J-225000D01*
G01*
X154861000Y-54012000D01*
G75*
G02*
X154636000Y-54237000I-225000J0D01*
G01*
X154136000Y-54237000D01*
G75*
G02*
X153911000Y-54012000I0J225000D01*
G01*
X153911000Y-53562000D01*
G75*
G02*
X154136000Y-53337000I225000J0D01*
G01*
G37*
G04 #@! TD*
G04 #@! TO.C,D1*
G36*
G01*
X154279500Y-36569500D02*
X153854500Y-36569500D01*
G75*
G02*
X153642000Y-36357000I0J212500D01*
G01*
X153642000Y-35557000D01*
G75*
G02*
X153854500Y-35344500I212500J0D01*
G01*
X154279500Y-35344500D01*
G75*
G02*
X154492000Y-35557000I0J-212500D01*
G01*
X154492000Y-36357000D01*
G75*
G02*
X154279500Y-36569500I-212500J0D01*
G01*
G37*
G36*
G01*
X154279500Y-34944500D02*
X153854500Y-34944500D01*
G75*
G02*
X153642000Y-34732000I0J212500D01*
G01*
X153642000Y-33932000D01*
G75*
G02*
X153854500Y-33719500I212500J0D01*
G01*
X154279500Y-33719500D01*
G75*
G02*
X154492000Y-33932000I0J-212500D01*
G01*
X154492000Y-34732000D01*
G75*
G02*
X154279500Y-34944500I-212500J0D01*
G01*
G37*
G04 #@! TD*
D15*
G04 #@! TO.C,J1*
X157300000Y-72210000D03*
X157300000Y-77690000D03*
D16*
X156550000Y-77910000D03*
X156550000Y-71960000D03*
D17*
X155250000Y-77810000D03*
X155230000Y-72060000D03*
D18*
X155350000Y-76260000D03*
X155350000Y-75610000D03*
X155350000Y-74960000D03*
X155350000Y-74310000D03*
X155350000Y-73660000D03*
D19*
X158500000Y-75920000D03*
X158500000Y-74000000D03*
G04 #@! TD*
G04 #@! TO.C,R2*
G36*
G01*
X149793000Y-67598000D02*
X150343000Y-67598000D01*
G75*
G02*
X150543000Y-67798000I0J-200000D01*
G01*
X150543000Y-68198000D01*
G75*
G02*
X150343000Y-68398000I-200000J0D01*
G01*
X149793000Y-68398000D01*
G75*
G02*
X149593000Y-68198000I0J200000D01*
G01*
X149593000Y-67798000D01*
G75*
G02*
X149793000Y-67598000I200000J0D01*
G01*
G37*
G36*
G01*
X149793000Y-65948000D02*
X150343000Y-65948000D01*
G75*
G02*
X150543000Y-66148000I0J-200000D01*
G01*
X150543000Y-66548000D01*
G75*
G02*
X150343000Y-66748000I-200000J0D01*
G01*
X149793000Y-66748000D01*
G75*
G02*
X149593000Y-66548000I0J200000D01*
G01*
X149593000Y-66148000D01*
G75*
G02*
X149793000Y-65948000I200000J0D01*
G01*
G37*
G04 #@! TD*
D20*
G04 #@! TO.C,SW1*
X157500000Y-31910000D03*
X157500000Y-41090000D03*
G04 #@! TD*
D21*
G04 #@! TO.C,Y1*
X142808500Y-41162000D03*
X145008500Y-41162000D03*
X145008500Y-39462000D03*
X142808500Y-39462000D03*
G04 #@! TD*
G04 #@! TO.C,R3*
G36*
G01*
X135025000Y-59725000D02*
X135025000Y-60275000D01*
G75*
G02*
X134825000Y-60475000I-200000J0D01*
G01*
X134425000Y-60475000D01*
G75*
G02*
X134225000Y-60275000I0J200000D01*
G01*
X134225000Y-59725000D01*
G75*
G02*
X134425000Y-59525000I200000J0D01*
G01*
X134825000Y-59525000D01*
G75*
G02*
X135025000Y-59725000I0J-200000D01*
G01*
G37*
G36*
G01*
X133375000Y-59725000D02*
X133375000Y-60275000D01*
G75*
G02*
X133175000Y-60475000I-200000J0D01*
G01*
X132775000Y-60475000D01*
G75*
G02*
X132575000Y-60275000I0J200000D01*
G01*
X132575000Y-59725000D01*
G75*
G02*
X132775000Y-59525000I200000J0D01*
G01*
X133175000Y-59525000D01*
G75*
G02*
X133375000Y-59725000I0J-200000D01*
G01*
G37*
G04 #@! TD*
G04 #@! TO.C,R10*
G36*
G01*
X158075000Y-48200000D02*
X157525000Y-48200000D01*
G75*
G02*
X157325000Y-48000000I0J200000D01*
G01*
X157325000Y-47600000D01*
G75*
G02*
X157525000Y-47400000I200000J0D01*
G01*
X158075000Y-47400000D01*
G75*
G02*
X158275000Y-47600000I0J-200000D01*
G01*
X158275000Y-48000000D01*
G75*
G02*
X158075000Y-48200000I-200000J0D01*
G01*
G37*
G36*
G01*
X158075000Y-46550000D02*
X157525000Y-46550000D01*
G75*
G02*
X157325000Y-46350000I0J200000D01*
G01*
X157325000Y-45950000D01*
G75*
G02*
X157525000Y-45750000I200000J0D01*
G01*
X158075000Y-45750000D01*
G75*
G02*
X158275000Y-45950000I0J-200000D01*
G01*
X158275000Y-46350000D01*
G75*
G02*
X158075000Y-46550000I-200000J0D01*
G01*
G37*
G04 #@! TD*
G04 #@! TO.C,C1*
G36*
G01*
X145858000Y-75444000D02*
X145858000Y-74494000D01*
G75*
G02*
X146108000Y-74244000I250000J0D01*
G01*
X146608000Y-74244000D01*
G75*
G02*
X146858000Y-74494000I0J-250000D01*
G01*
X146858000Y-75444000D01*
G75*
G02*
X146608000Y-75694000I-250000J0D01*
G01*
X146108000Y-75694000D01*
G75*
G02*
X145858000Y-75444000I0J250000D01*
G01*
G37*
G36*
G01*
X147758000Y-75444000D02*
X147758000Y-74494000D01*
G75*
G02*
X148008000Y-74244000I250000J0D01*
G01*
X148508000Y-74244000D01*
G75*
G02*
X148758000Y-74494000I0J-250000D01*
G01*
X148758000Y-75444000D01*
G75*
G02*
X148508000Y-75694000I-250000J0D01*
G01*
X148008000Y-75694000D01*
G75*
G02*
X147758000Y-75444000I0J250000D01*
G01*
G37*
G04 #@! TD*
G04 #@! TO.C,C2*
G36*
G01*
X147758000Y-73444000D02*
X147758000Y-72494000D01*
G75*
G02*
X148008000Y-72244000I250000J0D01*
G01*
X148508000Y-72244000D01*
G75*
G02*
X148758000Y-72494000I0J-250000D01*
G01*
X148758000Y-73444000D01*
G75*
G02*
X148508000Y-73694000I-250000J0D01*
G01*
X148008000Y-73694000D01*
G75*
G02*
X147758000Y-73444000I0J250000D01*
G01*
G37*
G36*
G01*
X145858000Y-73444000D02*
X145858000Y-72494000D01*
G75*
G02*
X146108000Y-72244000I250000J0D01*
G01*
X146608000Y-72244000D01*
G75*
G02*
X146858000Y-72494000I0J-250000D01*
G01*
X146858000Y-73444000D01*
G75*
G02*
X146608000Y-73694000I-250000J0D01*
G01*
X146108000Y-73694000D01*
G75*
G02*
X145858000Y-73444000I0J250000D01*
G01*
G37*
G04 #@! TD*
G04 #@! TO.C,R4*
G36*
G01*
X146467000Y-61881000D02*
X146467000Y-62431000D01*
G75*
G02*
X146267000Y-62631000I-200000J0D01*
G01*
X145867000Y-62631000D01*
G75*
G02*
X145667000Y-62431000I0J200000D01*
G01*
X145667000Y-61881000D01*
G75*
G02*
X145867000Y-61681000I200000J0D01*
G01*
X146267000Y-61681000D01*
G75*
G02*
X146467000Y-61881000I0J-200000D01*
G01*
G37*
G36*
G01*
X144817000Y-61881000D02*
X144817000Y-62431000D01*
G75*
G02*
X144617000Y-62631000I-200000J0D01*
G01*
X144217000Y-62631000D01*
G75*
G02*
X144017000Y-62431000I0J200000D01*
G01*
X144017000Y-61881000D01*
G75*
G02*
X144217000Y-61681000I200000J0D01*
G01*
X144617000Y-61681000D01*
G75*
G02*
X144817000Y-61881000I0J-200000D01*
G01*
G37*
G04 #@! TD*
G04 #@! TO.C,C11*
G36*
G01*
X149845000Y-62406000D02*
X149845000Y-61906000D01*
G75*
G02*
X150070000Y-61681000I225000J0D01*
G01*
X150520000Y-61681000D01*
G75*
G02*
X150745000Y-61906000I0J-225000D01*
G01*
X150745000Y-62406000D01*
G75*
G02*
X150520000Y-62631000I-225000J0D01*
G01*
X150070000Y-62631000D01*
G75*
G02*
X149845000Y-62406000I0J225000D01*
G01*
G37*
G36*
G01*
X148295000Y-62406000D02*
X148295000Y-61906000D01*
G75*
G02*
X148520000Y-61681000I225000J0D01*
G01*
X148970000Y-61681000D01*
G75*
G02*
X149195000Y-61906000I0J-225000D01*
G01*
X149195000Y-62406000D01*
G75*
G02*
X148970000Y-62631000I-225000J0D01*
G01*
X148520000Y-62631000D01*
G75*
G02*
X148295000Y-62406000I0J225000D01*
G01*
G37*
G04 #@! TD*
G04 #@! TO.C,C10*
G36*
G01*
X149048000Y-41804000D02*
X148548000Y-41804000D01*
G75*
G02*
X148323000Y-41579000I0J225000D01*
G01*
X148323000Y-41129000D01*
G75*
G02*
X148548000Y-40904000I225000J0D01*
G01*
X149048000Y-40904000D01*
G75*
G02*
X149273000Y-41129000I0J-225000D01*
G01*
X149273000Y-41579000D01*
G75*
G02*
X149048000Y-41804000I-225000J0D01*
G01*
G37*
G36*
G01*
X149048000Y-40254000D02*
X148548000Y-40254000D01*
G75*
G02*
X148323000Y-40029000I0J225000D01*
G01*
X148323000Y-39579000D01*
G75*
G02*
X148548000Y-39354000I225000J0D01*
G01*
X149048000Y-39354000D01*
G75*
G02*
X149273000Y-39579000I0J-225000D01*
G01*
X149273000Y-40029000D01*
G75*
G02*
X149048000Y-40254000I-225000J0D01*
G01*
G37*
G04 #@! TD*
G04 #@! TO.C,C4*
G36*
G01*
X155955000Y-60882000D02*
X155955000Y-60382000D01*
G75*
G02*
X156180000Y-60157000I225000J0D01*
G01*
X156630000Y-60157000D01*
G75*
G02*
X156855000Y-60382000I0J-225000D01*
G01*
X156855000Y-60882000D01*
G75*
G02*
X156630000Y-61107000I-225000J0D01*
G01*
X156180000Y-61107000D01*
G75*
G02*
X155955000Y-60882000I0J225000D01*
G01*
G37*
G36*
G01*
X157505000Y-60882000D02*
X157505000Y-60382000D01*
G75*
G02*
X157730000Y-60157000I225000J0D01*
G01*
X158180000Y-60157000D01*
G75*
G02*
X158405000Y-60382000I0J-225000D01*
G01*
X158405000Y-60882000D01*
G75*
G02*
X158180000Y-61107000I-225000J0D01*
G01*
X157730000Y-61107000D01*
G75*
G02*
X157505000Y-60882000I0J225000D01*
G01*
G37*
G04 #@! TD*
G04 #@! TO.C,C5*
G36*
G01*
X156414000Y-52687000D02*
X155914000Y-52687000D01*
G75*
G02*
X155689000Y-52462000I0J225000D01*
G01*
X155689000Y-52012000D01*
G75*
G02*
X155914000Y-51787000I225000J0D01*
G01*
X156414000Y-51787000D01*
G75*
G02*
X156639000Y-52012000I0J-225000D01*
G01*
X156639000Y-52462000D01*
G75*
G02*
X156414000Y-52687000I-225000J0D01*
G01*
G37*
G36*
G01*
X156414000Y-54237000D02*
X155914000Y-54237000D01*
G75*
G02*
X155689000Y-54012000I0J225000D01*
G01*
X155689000Y-53562000D01*
G75*
G02*
X155914000Y-53337000I225000J0D01*
G01*
X156414000Y-53337000D01*
G75*
G02*
X156639000Y-53562000I0J-225000D01*
G01*
X156639000Y-54012000D01*
G75*
G02*
X156414000Y-54237000I-225000J0D01*
G01*
G37*
G04 #@! TD*
G04 #@! TO.C,C6*
G36*
G01*
X157938000Y-54237000D02*
X157438000Y-54237000D01*
G75*
G02*
X157213000Y-54012000I0J225000D01*
G01*
X157213000Y-53562000D01*
G75*
G02*
X157438000Y-53337000I225000J0D01*
G01*
X157938000Y-53337000D01*
G75*
G02*
X158163000Y-53562000I0J-225000D01*
G01*
X158163000Y-54012000D01*
G75*
G02*
X157938000Y-54237000I-225000J0D01*
G01*
G37*
G36*
G01*
X157938000Y-52687000D02*
X157438000Y-52687000D01*
G75*
G02*
X157213000Y-52462000I0J225000D01*
G01*
X157213000Y-52012000D01*
G75*
G02*
X157438000Y-51787000I225000J0D01*
G01*
X157938000Y-51787000D01*
G75*
G02*
X158163000Y-52012000I0J-225000D01*
G01*
X158163000Y-52462000D01*
G75*
G02*
X157938000Y-52687000I-225000J0D01*
G01*
G37*
G04 #@! TD*
D10*
G04 #@! TO.C,U2*
X157622000Y-56230000D03*
X156672000Y-56230000D03*
X155722000Y-56230000D03*
X155722000Y-58430000D03*
X157622000Y-58430000D03*
X156672000Y-58430000D03*
G04 #@! TD*
D22*
G04 #@! TO.C,Q1*
X138384000Y-35486000D03*
X136484000Y-35486000D03*
X137434000Y-37486000D03*
G04 #@! TD*
D23*
G04 #@! TO.C,Q2*
X133828000Y-40058000D03*
X135828000Y-39108000D03*
X135828000Y-41008000D03*
G04 #@! TD*
G04 #@! TO.C,R5*
G36*
G01*
X137070500Y-33750500D02*
X137070500Y-34300500D01*
G75*
G02*
X136870500Y-34500500I-200000J0D01*
G01*
X136470500Y-34500500D01*
G75*
G02*
X136270500Y-34300500I0J200000D01*
G01*
X136270500Y-33750500D01*
G75*
G02*
X136470500Y-33550500I200000J0D01*
G01*
X136870500Y-33550500D01*
G75*
G02*
X137070500Y-33750500I0J-200000D01*
G01*
G37*
G36*
G01*
X138720500Y-33750500D02*
X138720500Y-34300500D01*
G75*
G02*
X138520500Y-34500500I-200000J0D01*
G01*
X138120500Y-34500500D01*
G75*
G02*
X137920500Y-34300500I0J200000D01*
G01*
X137920500Y-33750500D01*
G75*
G02*
X138120500Y-33550500I200000J0D01*
G01*
X138520500Y-33550500D01*
G75*
G02*
X138720500Y-33750500I0J-200000D01*
G01*
G37*
G04 #@! TD*
G04 #@! TO.C,R6*
G36*
G01*
X151380500Y-40483500D02*
X151930500Y-40483500D01*
G75*
G02*
X152130500Y-40683500I0J-200000D01*
G01*
X152130500Y-41083500D01*
G75*
G02*
X151930500Y-41283500I-200000J0D01*
G01*
X151380500Y-41283500D01*
G75*
G02*
X151180500Y-41083500I0J200000D01*
G01*
X151180500Y-40683500D01*
G75*
G02*
X151380500Y-40483500I200000J0D01*
G01*
G37*
G36*
G01*
X151380500Y-42133500D02*
X151930500Y-42133500D01*
G75*
G02*
X152130500Y-42333500I0J-200000D01*
G01*
X152130500Y-42733500D01*
G75*
G02*
X151930500Y-42933500I-200000J0D01*
G01*
X151380500Y-42933500D01*
G75*
G02*
X151180500Y-42733500I0J200000D01*
G01*
X151180500Y-42333500D01*
G75*
G02*
X151380500Y-42133500I200000J0D01*
G01*
G37*
G04 #@! TD*
G04 #@! TO.C,R7*
G36*
G01*
X137897000Y-39633000D02*
X137347000Y-39633000D01*
G75*
G02*
X137147000Y-39433000I0J200000D01*
G01*
X137147000Y-39033000D01*
G75*
G02*
X137347000Y-38833000I200000J0D01*
G01*
X137897000Y-38833000D01*
G75*
G02*
X138097000Y-39033000I0J-200000D01*
G01*
X138097000Y-39433000D01*
G75*
G02*
X137897000Y-39633000I-200000J0D01*
G01*
G37*
G36*
G01*
X137897000Y-41283000D02*
X137347000Y-41283000D01*
G75*
G02*
X137147000Y-41083000I0J200000D01*
G01*
X137147000Y-40683000D01*
G75*
G02*
X137347000Y-40483000I200000J0D01*
G01*
X137897000Y-40483000D01*
G75*
G02*
X138097000Y-40683000I0J-200000D01*
G01*
X138097000Y-41083000D01*
G75*
G02*
X137897000Y-41283000I-200000J0D01*
G01*
G37*
G04 #@! TD*
G04 #@! TO.C,R8*
G36*
G01*
X139421000Y-41283000D02*
X138871000Y-41283000D01*
G75*
G02*
X138671000Y-41083000I0J200000D01*
G01*
X138671000Y-40683000D01*
G75*
G02*
X138871000Y-40483000I200000J0D01*
G01*
X139421000Y-40483000D01*
G75*
G02*
X139621000Y-40683000I0J-200000D01*
G01*
X139621000Y-41083000D01*
G75*
G02*
X139421000Y-41283000I-200000J0D01*
G01*
G37*
G36*
G01*
X139421000Y-39633000D02*
X138871000Y-39633000D01*
G75*
G02*
X138671000Y-39433000I0J200000D01*
G01*
X138671000Y-39033000D01*
G75*
G02*
X138871000Y-38833000I200000J0D01*
G01*
X139421000Y-38833000D01*
G75*
G02*
X139621000Y-39033000I0J-200000D01*
G01*
X139621000Y-39433000D01*
G75*
G02*
X139421000Y-39633000I-200000J0D01*
G01*
G37*
G04 #@! TD*
G04 #@! TO.C,R11*
G36*
G01*
X126426000Y-33475000D02*
X126426000Y-32925000D01*
G75*
G02*
X126626000Y-32725000I200000J0D01*
G01*
X127026000Y-32725000D01*
G75*
G02*
X127226000Y-32925000I0J-200000D01*
G01*
X127226000Y-33475000D01*
G75*
G02*
X127026000Y-33675000I-200000J0D01*
G01*
X126626000Y-33675000D01*
G75*
G02*
X126426000Y-33475000I0J200000D01*
G01*
G37*
G36*
G01*
X124776000Y-33475000D02*
X124776000Y-32925000D01*
G75*
G02*
X124976000Y-32725000I200000J0D01*
G01*
X125376000Y-32725000D01*
G75*
G02*
X125576000Y-32925000I0J-200000D01*
G01*
X125576000Y-33475000D01*
G75*
G02*
X125376000Y-33675000I-200000J0D01*
G01*
X124976000Y-33675000D01*
G75*
G02*
X124776000Y-33475000I0J200000D01*
G01*
G37*
G04 #@! TD*
G04 #@! TO.C,R12*
G36*
G01*
X124776000Y-31951000D02*
X124776000Y-31401000D01*
G75*
G02*
X124976000Y-31201000I200000J0D01*
G01*
X125376000Y-31201000D01*
G75*
G02*
X125576000Y-31401000I0J-200000D01*
G01*
X125576000Y-31951000D01*
G75*
G02*
X125376000Y-32151000I-200000J0D01*
G01*
X124976000Y-32151000D01*
G75*
G02*
X124776000Y-31951000I0J200000D01*
G01*
G37*
G36*
G01*
X126426000Y-31951000D02*
X126426000Y-31401000D01*
G75*
G02*
X126626000Y-31201000I200000J0D01*
G01*
X127026000Y-31201000D01*
G75*
G02*
X127226000Y-31401000I0J-200000D01*
G01*
X127226000Y-31951000D01*
G75*
G02*
X127026000Y-32151000I-200000J0D01*
G01*
X126626000Y-32151000D01*
G75*
G02*
X126426000Y-31951000I0J200000D01*
G01*
G37*
G04 #@! TD*
M02*
